M48
;DRILL file {KiCad 4.0.4-stable} date 11/07/16 13:37:06
;FORMAT={-:-/ absolute / inch / decimal}
FMAT,2
INCH,TZ
T1C0.016
T2C0.039
T3C0.047
%
G90
G05
M72
T1
X5.2Y-4.51
X5.205Y-4.355
X5.28Y-4.275
X5.295Y-4.415
X5.295Y-4.445
X5.32Y-4.415
X5.32Y-4.445
X5.4Y-4.3
X5.51Y-4.3
T2
X4.7Y-4.51
X4.7Y-4.61
X5.26Y-3.98
X5.26Y-4.58
X5.36Y-3.98
X5.36Y-4.58
X5.46Y-3.98
X5.46Y-4.58
X5.56Y-3.98
X5.56Y-4.58
X5.66Y-3.98
X5.66Y-4.58
X5.76Y-3.98
X5.76Y-4.58
T3
X4.73Y-4.05
X4.73Y-4.1878
T0
M30
