G04 #@! TF.FileFunction,Legend,Top*
%FSLAX46Y46*%
G04 Gerber Fmt 4.6, Leading zero omitted, Abs format (unit mm)*
G04 Created by KiCad (PCBNEW 4.0.4-stable) date 11/07/16 13:36:44*
%MOMM*%
%LPD*%
G01*
G04 APERTURE LIST*
%ADD10C,0.100000*%
%ADD11C,0.150000*%
%ADD12C,0.066040*%
%ADD13C,0.203200*%
%ADD14C,0.050800*%
G04 APERTURE END LIST*
D10*
D11*
X120554000Y-111668000D02*
X121254000Y-111668000D01*
X121254000Y-112868000D02*
X120554000Y-112868000D01*
X120554000Y-109636000D02*
X121254000Y-109636000D01*
X121254000Y-110836000D02*
X120554000Y-110836000D01*
X135474000Y-104806000D02*
X135474000Y-105506000D01*
X134274000Y-105506000D02*
X134274000Y-104806000D01*
X132750000Y-105506000D02*
X132750000Y-104806000D01*
X133950000Y-104806000D02*
X133950000Y-105506000D01*
X135587000Y-109966000D02*
X135587000Y-107966000D01*
X132637000Y-107966000D02*
X132637000Y-109966000D01*
X137430000Y-113235000D02*
X139430000Y-113235000D01*
X139430000Y-110285000D02*
X137430000Y-110285000D01*
X129032000Y-109728000D02*
X124714000Y-109728000D01*
X124714000Y-109728000D02*
X123952000Y-108966000D01*
X123952000Y-108966000D02*
X123952000Y-100076000D01*
X123952000Y-100076000D02*
X124968000Y-100076000D01*
X129037000Y-109702000D02*
X129037000Y-100102000D01*
X129037000Y-100102000D02*
X124947000Y-100102000D01*
X131177000Y-106588000D02*
X131177000Y-107788000D01*
X129427000Y-107788000D02*
X129427000Y-106588000D01*
X129427000Y-103470000D02*
X129427000Y-102270000D01*
X131177000Y-102270000D02*
X131177000Y-103470000D01*
X121422000Y-100340000D02*
X112062000Y-100340000D01*
X112062000Y-100340000D02*
X112062000Y-108900000D01*
X112062000Y-108900000D02*
X121422000Y-108900000D01*
X121422000Y-100340000D02*
X121422000Y-101820000D01*
X121422000Y-108900000D02*
X121422000Y-107420000D01*
X121422000Y-103920000D02*
X121422000Y-105320000D01*
X115342000Y-100340000D02*
X115342000Y-108900000D01*
X122442000Y-102870000D02*
X123042000Y-103170000D01*
X123042000Y-103170000D02*
X123042000Y-102570000D01*
X123042000Y-102570000D02*
X122442000Y-102870000D01*
X120650000Y-118364000D02*
X120650000Y-113284000D01*
X116205000Y-118364000D02*
X116205000Y-113284000D01*
X122555000Y-113284000D02*
X122555000Y-118364000D01*
X122555000Y-113284000D02*
X116205000Y-113284000D01*
X122555000Y-118364000D02*
X116205000Y-118364000D01*
X141740000Y-104481000D02*
X142740000Y-104481000D01*
X142740000Y-105831000D02*
X141740000Y-105831000D01*
D12*
X130606800Y-115940840D02*
X130606800Y-115450620D01*
X130606800Y-115450620D02*
X129506980Y-115450620D01*
X129506980Y-115940840D02*
X129506980Y-115450620D01*
X130606800Y-115940840D02*
X129506980Y-115940840D01*
X130606800Y-114670840D02*
X130606800Y-114180620D01*
X130606800Y-114180620D02*
X129506980Y-114180620D01*
X129506980Y-114670840D02*
X129506980Y-114180620D01*
X130606800Y-114670840D02*
X129506980Y-114670840D01*
X130606800Y-113403380D02*
X130606800Y-112913160D01*
X130606800Y-112913160D02*
X129506980Y-112913160D01*
X129506980Y-113403380D02*
X129506980Y-112913160D01*
X130606800Y-113403380D02*
X129506980Y-113403380D01*
X130606800Y-112133380D02*
X130606800Y-111643160D01*
X130606800Y-111643160D02*
X129506980Y-111643160D01*
X129506980Y-112133380D02*
X129506980Y-111643160D01*
X130606800Y-112133380D02*
X129506980Y-112133380D01*
X125509020Y-112133380D02*
X125509020Y-111643160D01*
X125509020Y-111643160D02*
X124409200Y-111643160D01*
X124409200Y-112133380D02*
X124409200Y-111643160D01*
X125509020Y-112133380D02*
X124409200Y-112133380D01*
X125509020Y-113403380D02*
X125509020Y-112913160D01*
X125509020Y-112913160D02*
X124409200Y-112913160D01*
X124409200Y-113403380D02*
X124409200Y-112913160D01*
X125509020Y-113403380D02*
X124409200Y-113403380D01*
X125509020Y-114670840D02*
X125509020Y-114180620D01*
X125509020Y-114180620D02*
X124409200Y-114180620D01*
X124409200Y-114670840D02*
X124409200Y-114180620D01*
X125509020Y-114670840D02*
X124409200Y-114670840D01*
X125509020Y-115940840D02*
X125509020Y-115450620D01*
X125509020Y-115450620D02*
X124409200Y-115450620D01*
X124409200Y-115940840D02*
X124409200Y-115450620D01*
X125509020Y-115940840D02*
X124409200Y-115940840D01*
D13*
X125608080Y-111394240D02*
X128907540Y-111394240D01*
X128907540Y-111394240D02*
X129407920Y-111394240D01*
X129407920Y-111394240D02*
X129407920Y-116189760D01*
X129407920Y-116189760D02*
X128907540Y-116189760D01*
X128907540Y-116189760D02*
X125608080Y-116189760D01*
X125608080Y-116189760D02*
X125608080Y-111394240D01*
X128907540Y-111394240D02*
X128907540Y-116189760D01*
D11*
X146364000Y-106670000D02*
X146364000Y-111770000D01*
X141164000Y-106670000D02*
X141164000Y-111770000D01*
X139954000Y-119507000D02*
X147574000Y-119507000D01*
X139954000Y-115062000D02*
X147574000Y-115062000D01*
X139954000Y-113157000D02*
X147574000Y-113157000D01*
X132334000Y-113157000D02*
X132334000Y-119507000D01*
X147574000Y-113157000D02*
X147574000Y-119507000D01*
X139954000Y-115062000D02*
X132334000Y-115062000D01*
X132334000Y-113157000D02*
X139954000Y-113157000D01*
X139954000Y-119507000D02*
X132334000Y-119507000D01*
X139954000Y-104267000D02*
X147574000Y-104267000D01*
X139954000Y-99822000D02*
X147574000Y-99822000D01*
X139954000Y-97917000D02*
X147574000Y-97917000D01*
X132334000Y-97917000D02*
X132334000Y-104267000D01*
X147574000Y-97917000D02*
X147574000Y-104267000D01*
X139954000Y-99822000D02*
X132334000Y-99822000D01*
X132334000Y-97917000D02*
X139954000Y-97917000D01*
X139954000Y-104267000D02*
X132334000Y-104267000D01*
X139446000Y-108712000D02*
X135890000Y-108712000D01*
X135890000Y-108712000D02*
X135890000Y-104902000D01*
X135890000Y-104902000D02*
X139700000Y-104902000D01*
X139700000Y-104902000D02*
X139700000Y-108458000D01*
X139983981Y-108712000D02*
G75*
G03X139983981Y-108712000I-283981J0D01*
G01*
D14*
X120840501Y-110504071D02*
X120822358Y-110522214D01*
X120767929Y-110540357D01*
X120731643Y-110540357D01*
X120677215Y-110522214D01*
X120640929Y-110485929D01*
X120622786Y-110449643D01*
X120604643Y-110377071D01*
X120604643Y-110322643D01*
X120622786Y-110250071D01*
X120640929Y-110213786D01*
X120677215Y-110177500D01*
X120731643Y-110159357D01*
X120767929Y-110159357D01*
X120822358Y-110177500D01*
X120840501Y-110195643D01*
X120985643Y-110195643D02*
X121003786Y-110177500D01*
X121040072Y-110159357D01*
X121130786Y-110159357D01*
X121167072Y-110177500D01*
X121185215Y-110195643D01*
X121203358Y-110231929D01*
X121203358Y-110268214D01*
X121185215Y-110322643D01*
X120967501Y-110540357D01*
X121203358Y-110540357D01*
X120840501Y-108472071D02*
X120822358Y-108490214D01*
X120767929Y-108508357D01*
X120731643Y-108508357D01*
X120677215Y-108490214D01*
X120640929Y-108453929D01*
X120622786Y-108417643D01*
X120604643Y-108345071D01*
X120604643Y-108290643D01*
X120622786Y-108218071D01*
X120640929Y-108181786D01*
X120677215Y-108145500D01*
X120731643Y-108127357D01*
X120767929Y-108127357D01*
X120822358Y-108145500D01*
X120840501Y-108163643D01*
X120967501Y-108127357D02*
X121203358Y-108127357D01*
X121076358Y-108272500D01*
X121130786Y-108272500D01*
X121167072Y-108290643D01*
X121185215Y-108308786D01*
X121203358Y-108345071D01*
X121203358Y-108435786D01*
X121185215Y-108472071D01*
X121167072Y-108490214D01*
X121130786Y-108508357D01*
X121021929Y-108508357D01*
X120985643Y-108490214D01*
X120967501Y-108472071D01*
X136910071Y-105219499D02*
X136928214Y-105237642D01*
X136946357Y-105292071D01*
X136946357Y-105328357D01*
X136928214Y-105382785D01*
X136891929Y-105419071D01*
X136855643Y-105437214D01*
X136783071Y-105455357D01*
X136728643Y-105455357D01*
X136656071Y-105437214D01*
X136619786Y-105419071D01*
X136583500Y-105382785D01*
X136565357Y-105328357D01*
X136565357Y-105292071D01*
X136583500Y-105237642D01*
X136601643Y-105219499D01*
X136692357Y-104892928D02*
X136946357Y-104892928D01*
X136547214Y-104983642D02*
X136819357Y-105074357D01*
X136819357Y-104838499D01*
X131586071Y-105219499D02*
X131604214Y-105237642D01*
X131622357Y-105292071D01*
X131622357Y-105328357D01*
X131604214Y-105382785D01*
X131567929Y-105419071D01*
X131531643Y-105437214D01*
X131459071Y-105455357D01*
X131404643Y-105455357D01*
X131332071Y-105437214D01*
X131295786Y-105419071D01*
X131259500Y-105382785D01*
X131241357Y-105328357D01*
X131241357Y-105292071D01*
X131259500Y-105237642D01*
X131277643Y-105219499D01*
X131241357Y-104874785D02*
X131241357Y-105056214D01*
X131422786Y-105074357D01*
X131404643Y-105056214D01*
X131386500Y-105019928D01*
X131386500Y-104929214D01*
X131404643Y-104892928D01*
X131422786Y-104874785D01*
X131459071Y-104856642D01*
X131549786Y-104856642D01*
X131586071Y-104874785D01*
X131604214Y-104892928D01*
X131622357Y-104929214D01*
X131622357Y-105019928D01*
X131604214Y-105056214D01*
X131586071Y-105074357D01*
X136948071Y-109292571D02*
X136966214Y-109310714D01*
X136984357Y-109365143D01*
X136984357Y-109401429D01*
X136966214Y-109455857D01*
X136929929Y-109492143D01*
X136893643Y-109510286D01*
X136821071Y-109528429D01*
X136766643Y-109528429D01*
X136694071Y-109510286D01*
X136657786Y-109492143D01*
X136621500Y-109455857D01*
X136603357Y-109401429D01*
X136603357Y-109365143D01*
X136621500Y-109310714D01*
X136639643Y-109292571D01*
X136984357Y-109129286D02*
X136730357Y-109129286D01*
X136603357Y-109129286D02*
X136621500Y-109147429D01*
X136639643Y-109129286D01*
X136621500Y-109111143D01*
X136603357Y-109129286D01*
X136639643Y-109129286D01*
X136730357Y-108947857D02*
X136984357Y-108947857D01*
X136766643Y-108947857D02*
X136748500Y-108929714D01*
X136730357Y-108893428D01*
X136730357Y-108839000D01*
X136748500Y-108802714D01*
X136784786Y-108784571D01*
X136984357Y-108784571D01*
X136984357Y-108403571D02*
X136984357Y-108621286D01*
X136984357Y-108512428D02*
X136603357Y-108512428D01*
X136657786Y-108548714D01*
X136694071Y-108585000D01*
X136712214Y-108621286D01*
X137912930Y-114596071D02*
X137894787Y-114614214D01*
X137840358Y-114632357D01*
X137804072Y-114632357D01*
X137749644Y-114614214D01*
X137713358Y-114577929D01*
X137695215Y-114541643D01*
X137677072Y-114469071D01*
X137677072Y-114414643D01*
X137695215Y-114342071D01*
X137713358Y-114305786D01*
X137749644Y-114269500D01*
X137804072Y-114251357D01*
X137840358Y-114251357D01*
X137894787Y-114269500D01*
X137912930Y-114287643D01*
X138130644Y-114632357D02*
X138094358Y-114614214D01*
X138076215Y-114596071D01*
X138058072Y-114559786D01*
X138058072Y-114450929D01*
X138076215Y-114414643D01*
X138094358Y-114396500D01*
X138130644Y-114378357D01*
X138185072Y-114378357D01*
X138221358Y-114396500D01*
X138239501Y-114414643D01*
X138257644Y-114450929D01*
X138257644Y-114559786D01*
X138239501Y-114596071D01*
X138221358Y-114614214D01*
X138185072Y-114632357D01*
X138130644Y-114632357D01*
X138584215Y-114378357D02*
X138584215Y-114632357D01*
X138420929Y-114378357D02*
X138420929Y-114577929D01*
X138439072Y-114614214D01*
X138475358Y-114632357D01*
X138529786Y-114632357D01*
X138566072Y-114614214D01*
X138584215Y-114596071D01*
X138711215Y-114378357D02*
X138856358Y-114378357D01*
X138765643Y-114251357D02*
X138765643Y-114577929D01*
X138783786Y-114614214D01*
X138820072Y-114632357D01*
X138856358Y-114632357D01*
X139182929Y-114632357D02*
X138965214Y-114632357D01*
X139074072Y-114632357D02*
X139074072Y-114251357D01*
X139037786Y-114305786D01*
X139001500Y-114342071D01*
X138965214Y-114360214D01*
X122919357Y-105183214D02*
X122538357Y-105183214D01*
X122538357Y-105092499D01*
X122556500Y-105038071D01*
X122592786Y-105001785D01*
X122629071Y-104983642D01*
X122701643Y-104965499D01*
X122756071Y-104965499D01*
X122828643Y-104983642D01*
X122864929Y-105001785D01*
X122901214Y-105038071D01*
X122919357Y-105092499D01*
X122919357Y-105183214D01*
X122919357Y-104602642D02*
X122919357Y-104820357D01*
X122919357Y-104711499D02*
X122538357Y-104711499D01*
X122592786Y-104747785D01*
X122629071Y-104784071D01*
X122647214Y-104820357D01*
X128374357Y-107251500D02*
X128374357Y-107432929D01*
X127993357Y-107432929D01*
X128374357Y-106924928D02*
X128374357Y-107142643D01*
X128374357Y-107033785D02*
X127993357Y-107033785D01*
X128047786Y-107070071D01*
X128084071Y-107106357D01*
X128102214Y-107142643D01*
X132574357Y-102933500D02*
X132574357Y-103114929D01*
X132193357Y-103114929D01*
X132229643Y-102824643D02*
X132211500Y-102806500D01*
X132193357Y-102770214D01*
X132193357Y-102679500D01*
X132211500Y-102643214D01*
X132229643Y-102625071D01*
X132265929Y-102606928D01*
X132302214Y-102606928D01*
X132356643Y-102625071D01*
X132574357Y-102842785D01*
X132574357Y-102606928D01*
X123314357Y-105901214D02*
X122933357Y-105901214D01*
X122933357Y-105756071D01*
X122951500Y-105719785D01*
X122969643Y-105701642D01*
X123005929Y-105683499D01*
X123060357Y-105683499D01*
X123096643Y-105701642D01*
X123114786Y-105719785D01*
X123132929Y-105756071D01*
X123132929Y-105901214D01*
X123314357Y-105320642D02*
X123314357Y-105538357D01*
X123314357Y-105429499D02*
X122933357Y-105429499D01*
X122987786Y-105465785D01*
X123024071Y-105502071D01*
X123042214Y-105538357D01*
X123452357Y-116105214D02*
X123071357Y-116105214D01*
X123071357Y-115960071D01*
X123089500Y-115923785D01*
X123107643Y-115905642D01*
X123143929Y-115887499D01*
X123198357Y-115887499D01*
X123234643Y-115905642D01*
X123252786Y-115923785D01*
X123270929Y-115960071D01*
X123270929Y-116105214D01*
X123107643Y-115742357D02*
X123089500Y-115724214D01*
X123071357Y-115687928D01*
X123071357Y-115597214D01*
X123089500Y-115560928D01*
X123107643Y-115542785D01*
X123143929Y-115524642D01*
X123180214Y-115524642D01*
X123234643Y-115542785D01*
X123452357Y-115760499D01*
X123452357Y-115524642D01*
X142176501Y-107228357D02*
X142049501Y-107046929D01*
X141958786Y-107228357D02*
X141958786Y-106847357D01*
X142103929Y-106847357D01*
X142140215Y-106865500D01*
X142158358Y-106883643D01*
X142176501Y-106919929D01*
X142176501Y-106974357D01*
X142158358Y-107010643D01*
X142140215Y-107028786D01*
X142103929Y-107046929D01*
X141958786Y-107046929D01*
X142539358Y-107228357D02*
X142321643Y-107228357D01*
X142430501Y-107228357D02*
X142430501Y-106847357D01*
X142394215Y-106901786D01*
X142357929Y-106938071D01*
X142321643Y-106956214D01*
X125947714Y-116885357D02*
X125947714Y-117193786D01*
X125965857Y-117230071D01*
X125984000Y-117248214D01*
X126020286Y-117266357D01*
X126092857Y-117266357D01*
X126129143Y-117248214D01*
X126147286Y-117230071D01*
X126165429Y-117193786D01*
X126165429Y-116885357D01*
X126328714Y-116921643D02*
X126346857Y-116903500D01*
X126383143Y-116885357D01*
X126473857Y-116885357D01*
X126510143Y-116903500D01*
X126528286Y-116921643D01*
X126546429Y-116957929D01*
X126546429Y-116994214D01*
X126528286Y-117048643D01*
X126310572Y-117266357D01*
X126546429Y-117266357D01*
X124015500Y-110644214D02*
X124069929Y-110662357D01*
X124160643Y-110662357D01*
X124196929Y-110644214D01*
X124215072Y-110626071D01*
X124233215Y-110589786D01*
X124233215Y-110553500D01*
X124215072Y-110517214D01*
X124196929Y-110499071D01*
X124160643Y-110480929D01*
X124088072Y-110462786D01*
X124051786Y-110444643D01*
X124033643Y-110426500D01*
X124015500Y-110390214D01*
X124015500Y-110353929D01*
X124033643Y-110317643D01*
X124051786Y-110299500D01*
X124088072Y-110281357D01*
X124178786Y-110281357D01*
X124233215Y-110299500D01*
X124396500Y-110662357D02*
X124396500Y-110281357D01*
X124614215Y-110662357D01*
X124614215Y-110281357D01*
X124958929Y-110281357D02*
X124886358Y-110281357D01*
X124850072Y-110299500D01*
X124831929Y-110317643D01*
X124795643Y-110372071D01*
X124777500Y-110444643D01*
X124777500Y-110589786D01*
X124795643Y-110626071D01*
X124813786Y-110644214D01*
X124850072Y-110662357D01*
X124922643Y-110662357D01*
X124958929Y-110644214D01*
X124977072Y-110626071D01*
X124995215Y-110589786D01*
X124995215Y-110499071D01*
X124977072Y-110462786D01*
X124958929Y-110444643D01*
X124922643Y-110426500D01*
X124850072Y-110426500D01*
X124813786Y-110444643D01*
X124795643Y-110462786D01*
X124777500Y-110499071D01*
X125339929Y-110281357D02*
X125158500Y-110281357D01*
X125140357Y-110462786D01*
X125158500Y-110444643D01*
X125194786Y-110426500D01*
X125285500Y-110426500D01*
X125321786Y-110444643D01*
X125339929Y-110462786D01*
X125358072Y-110499071D01*
X125358072Y-110589786D01*
X125339929Y-110626071D01*
X125321786Y-110644214D01*
X125285500Y-110662357D01*
X125194786Y-110662357D01*
X125158500Y-110644214D01*
X125140357Y-110626071D01*
X125521357Y-110662357D02*
X125521357Y-110281357D01*
X125521357Y-110462786D02*
X125739072Y-110462786D01*
X125739072Y-110662357D02*
X125739072Y-110281357D01*
X125866072Y-110281357D02*
X125993072Y-110662357D01*
X126120072Y-110281357D01*
X126247071Y-110662357D02*
X126247071Y-110281357D01*
X126337786Y-110281357D01*
X126392214Y-110299500D01*
X126428500Y-110335786D01*
X126446643Y-110372071D01*
X126464786Y-110444643D01*
X126464786Y-110499071D01*
X126446643Y-110571643D01*
X126428500Y-110607929D01*
X126392214Y-110644214D01*
X126337786Y-110662357D01*
X126247071Y-110662357D01*
X126646214Y-110662357D02*
X126718786Y-110662357D01*
X126755071Y-110644214D01*
X126773214Y-110626071D01*
X126809500Y-110571643D01*
X126827643Y-110499071D01*
X126827643Y-110353929D01*
X126809500Y-110317643D01*
X126791357Y-110299500D01*
X126755071Y-110281357D01*
X126682500Y-110281357D01*
X126646214Y-110299500D01*
X126628071Y-110317643D01*
X126609928Y-110353929D01*
X126609928Y-110444643D01*
X126628071Y-110480929D01*
X126646214Y-110499071D01*
X126682500Y-110517214D01*
X126755071Y-110517214D01*
X126791357Y-110499071D01*
X126809500Y-110480929D01*
X126827643Y-110444643D01*
X127154214Y-110281357D02*
X127081643Y-110281357D01*
X127045357Y-110299500D01*
X127027214Y-110317643D01*
X126990928Y-110372071D01*
X126972785Y-110444643D01*
X126972785Y-110589786D01*
X126990928Y-110626071D01*
X127009071Y-110644214D01*
X127045357Y-110662357D01*
X127117928Y-110662357D01*
X127154214Y-110644214D01*
X127172357Y-110626071D01*
X127190500Y-110589786D01*
X127190500Y-110499071D01*
X127172357Y-110462786D01*
X127154214Y-110444643D01*
X127117928Y-110426500D01*
X127045357Y-110426500D01*
X127009071Y-110444643D01*
X126990928Y-110462786D01*
X126972785Y-110499071D01*
X147436357Y-109283500D02*
X147436357Y-109464929D01*
X147055357Y-109464929D01*
X147055357Y-109192785D02*
X147055357Y-108956928D01*
X147200500Y-109083928D01*
X147200500Y-109029500D01*
X147218643Y-108993214D01*
X147236786Y-108975071D01*
X147273071Y-108956928D01*
X147363786Y-108956928D01*
X147400071Y-108975071D01*
X147418214Y-108993214D01*
X147436357Y-109029500D01*
X147436357Y-109138357D01*
X147418214Y-109174643D01*
X147400071Y-109192785D01*
D11*
X139215905Y-113034381D02*
X139215905Y-112034381D01*
X139596858Y-112034381D01*
X139692096Y-112082000D01*
X139739715Y-112129619D01*
X139787334Y-112224857D01*
X139787334Y-112367714D01*
X139739715Y-112462952D01*
X139692096Y-112510571D01*
X139596858Y-112558190D01*
X139215905Y-112558190D01*
X140120667Y-112034381D02*
X140739715Y-112034381D01*
X140406381Y-112415333D01*
X140549239Y-112415333D01*
X140644477Y-112462952D01*
X140692096Y-112510571D01*
X140739715Y-112605810D01*
X140739715Y-112843905D01*
X140692096Y-112939143D01*
X140644477Y-112986762D01*
X140549239Y-113034381D01*
X140263524Y-113034381D01*
X140168286Y-112986762D01*
X140120667Y-112939143D01*
X139215905Y-97794381D02*
X139215905Y-96794381D01*
X139596858Y-96794381D01*
X139692096Y-96842000D01*
X139739715Y-96889619D01*
X139787334Y-96984857D01*
X139787334Y-97127714D01*
X139739715Y-97222952D01*
X139692096Y-97270571D01*
X139596858Y-97318190D01*
X139215905Y-97318190D01*
X140644477Y-97127714D02*
X140644477Y-97794381D01*
X140406381Y-96746762D02*
X140168286Y-97461048D01*
X140787334Y-97461048D01*
X136880714Y-109049857D02*
X136880714Y-110021286D01*
X136937857Y-110135571D01*
X136995000Y-110192714D01*
X137109286Y-110249857D01*
X137337857Y-110249857D01*
X137452143Y-110192714D01*
X137509286Y-110135571D01*
X137566429Y-110021286D01*
X137566429Y-109049857D01*
X138766429Y-110249857D02*
X138080714Y-110249857D01*
X138423572Y-110249857D02*
X138423572Y-109049857D01*
X138309286Y-109221286D01*
X138195000Y-109335571D01*
X138080714Y-109392714D01*
M02*
