G04 #@! TF.FileFunction,Copper,L1,Top,Signal*
%FSLAX46Y46*%
G04 Gerber Fmt 4.6, Leading zero omitted, Abs format (unit mm)*
G04 Created by KiCad (PCBNEW 4.0.4-stable) date 11/07/16 13:36:44*
%MOMM*%
%LPD*%
G01*
G04 APERTURE LIST*
%ADD10C,0.100000*%
%ADD11R,0.800000X0.750000*%
%ADD12R,0.750000X0.800000*%
%ADD13R,2.500000X1.000000*%
%ADD14R,1.000000X2.500000*%
%ADD15R,1.550000X2.100000*%
%ADD16R,1.300000X0.700000*%
%ADD17R,3.600000X1.800000*%
%ADD18O,3.600000X1.800000*%
%ADD19O,3.014980X1.506220*%
%ADD20R,0.500000X0.900000*%
%ADD21R,2.199640X0.599440*%
%ADD22R,4.200000X1.500000*%
%ADD23O,1.506220X3.014980*%
%ADD24O,0.600000X0.250000*%
%ADD25O,0.250000X0.600000*%
%ADD26R,1.700000X1.700000*%
%ADD27C,0.508000*%
%ADD28C,0.609600*%
%ADD29C,0.254000*%
%ADD30C,0.304800*%
G04 APERTURE END LIST*
D10*
D11*
X120154000Y-112268000D03*
X121654000Y-112268000D03*
X120154000Y-110236000D03*
X121654000Y-110236000D03*
D12*
X134874000Y-104406000D03*
X134874000Y-105906000D03*
X133350000Y-105906000D03*
X133350000Y-104406000D03*
D13*
X134112000Y-107466000D03*
X134112000Y-110466000D03*
D14*
X139930000Y-111760000D03*
X136930000Y-111760000D03*
D15*
X125222000Y-101652000D03*
X125222000Y-108152000D03*
X127762000Y-101652000D03*
X127762000Y-108152000D03*
D16*
X130302000Y-108138000D03*
X130302000Y-106238000D03*
X130302000Y-101920000D03*
X130302000Y-103820000D03*
D17*
X120142000Y-102870000D03*
D18*
X120142000Y-106370000D03*
D19*
X119380000Y-114554000D03*
X119380000Y-117094000D03*
D20*
X142990000Y-105156000D03*
X141490000Y-105156000D03*
D21*
X130106420Y-115697000D03*
X130106420Y-114427000D03*
X130106420Y-113157000D03*
X130106420Y-111887000D03*
X124909580Y-111887000D03*
X124909580Y-113157000D03*
X124909580Y-114427000D03*
X124909580Y-115697000D03*
D22*
X143764000Y-107420000D03*
X143764000Y-111020000D03*
D23*
X133604000Y-116332000D03*
X136144000Y-116332000D03*
X138684000Y-116332000D03*
X141224000Y-116332000D03*
X143764000Y-116332000D03*
X146304000Y-116332000D03*
X133604000Y-101092000D03*
X136144000Y-101092000D03*
X138684000Y-101092000D03*
X141224000Y-101092000D03*
X143764000Y-101092000D03*
X146304000Y-101092000D03*
D24*
X139195000Y-107557000D03*
X139195000Y-107057000D03*
X139195000Y-106557000D03*
X139195000Y-106057000D03*
D25*
X138545000Y-105407000D03*
X138045000Y-105407000D03*
X137545000Y-105407000D03*
X137045000Y-105407000D03*
D24*
X136395000Y-106057000D03*
X136395000Y-106557000D03*
X136395000Y-107057000D03*
X136395000Y-107557000D03*
D25*
X137045000Y-108207000D03*
X137545000Y-108207000D03*
X138045000Y-108207000D03*
X138545000Y-108207000D03*
D26*
X137795000Y-106807000D03*
D27*
X135128000Y-112903000D03*
X134493000Y-112903000D03*
X135128000Y-112141000D03*
X134493000Y-112141000D03*
X132207000Y-110617000D03*
X132080000Y-114554000D03*
X134112000Y-108585000D03*
X139954000Y-109220000D03*
X137160000Y-109220000D03*
D28*
X120154000Y-112268000D02*
X120154000Y-113780000D01*
X120154000Y-113780000D02*
X119380000Y-114554000D01*
X116840000Y-108966000D02*
X116840000Y-112014000D01*
X116840000Y-112014000D02*
X119380000Y-114554000D01*
X119380000Y-114554000D02*
X118618000Y-114554000D01*
X116840000Y-108966000D02*
X116840000Y-103632000D01*
X116840000Y-103632000D02*
X117602000Y-102870000D01*
X117602000Y-102870000D02*
X120142000Y-102870000D01*
X120142000Y-102870000D02*
X124004000Y-102870000D01*
X124004000Y-102870000D02*
X125222000Y-101652000D01*
D29*
X121654000Y-112268000D02*
X121654000Y-113272000D01*
X122809000Y-114427000D02*
X124909580Y-114427000D01*
X121654000Y-113272000D02*
X122809000Y-114427000D01*
D28*
X120142000Y-106370000D02*
X120142000Y-110224000D01*
X120142000Y-110224000D02*
X120154000Y-110236000D01*
X120142000Y-106370000D02*
X122936000Y-106370000D01*
X122936000Y-106370000D02*
X122992000Y-106370000D01*
X127762000Y-106426000D02*
X127762000Y-108152000D01*
X126746000Y-105410000D02*
X127762000Y-106426000D01*
X123952000Y-105410000D02*
X126746000Y-105410000D01*
X122992000Y-106370000D02*
X123952000Y-105410000D01*
D29*
X121654000Y-110236000D02*
X121920000Y-110236000D01*
X121920000Y-110236000D02*
X122936000Y-111252000D01*
X122936000Y-111252000D02*
X122936000Y-112776000D01*
X122936000Y-112776000D02*
X123317000Y-113157000D01*
X123317000Y-113157000D02*
X124909580Y-113157000D01*
X124909580Y-111887000D02*
X127000000Y-111887000D01*
X128270000Y-110617000D02*
X132207000Y-110617000D01*
X127000000Y-111887000D02*
X128270000Y-110617000D01*
X130106420Y-114427000D02*
X131953000Y-114427000D01*
X132358000Y-110466000D02*
X134112000Y-110466000D01*
X132207000Y-110617000D02*
X132358000Y-110466000D01*
X131953000Y-114427000D02*
X132080000Y-114554000D01*
D28*
X130302000Y-101920000D02*
X130876000Y-101920000D01*
X130876000Y-101920000D02*
X133350000Y-104394000D01*
X133350000Y-104394000D02*
X133350000Y-104406000D01*
D30*
X138545000Y-108207000D02*
X138545000Y-107557000D01*
X138545000Y-107557000D02*
X137795000Y-106807000D01*
X138045000Y-105407000D02*
X138045000Y-106557000D01*
X138045000Y-106557000D02*
X137795000Y-106807000D01*
D29*
X138045000Y-108207000D02*
X138045000Y-108835000D01*
X138045000Y-108835000D02*
X138176000Y-108966000D01*
X138045000Y-108207000D02*
X138545000Y-108207000D01*
X138045000Y-105407000D02*
X138545000Y-105407000D01*
X137545000Y-105407000D02*
X138045000Y-105407000D01*
D28*
X137045000Y-105407000D02*
X138545000Y-105407000D01*
X134874000Y-104406000D02*
X136044000Y-104406000D01*
X136044000Y-104406000D02*
X137045000Y-105407000D01*
X133350000Y-104406000D02*
X134874000Y-104406000D01*
D30*
X134874000Y-105906000D02*
X136244000Y-105906000D01*
X136244000Y-105906000D02*
X136395000Y-106057000D01*
D28*
X134112000Y-107466000D02*
X134112000Y-108585000D01*
D30*
X136395000Y-107057000D02*
X136395000Y-107557000D01*
X136395000Y-106557000D02*
X136395000Y-107057000D01*
D28*
X130302000Y-106238000D02*
X132884000Y-106238000D01*
X132884000Y-106238000D02*
X134112000Y-107466000D01*
X134112000Y-107466000D02*
X136304000Y-107466000D01*
X136304000Y-107466000D02*
X136395000Y-107557000D01*
D29*
X136395000Y-107557000D02*
X136395000Y-107947000D01*
X136655000Y-108207000D02*
X137045000Y-108207000D01*
X136395000Y-107947000D02*
X136655000Y-108207000D01*
D28*
X133350000Y-105906000D02*
X133350000Y-106704000D01*
X133350000Y-106704000D02*
X134112000Y-107466000D01*
X133604000Y-101092000D02*
X133604000Y-99949000D01*
X133604000Y-99949000D02*
X135001000Y-98552000D01*
X135001000Y-98552000D02*
X146812000Y-98552000D01*
X146812000Y-98552000D02*
X148082000Y-99822000D01*
X148082000Y-99822000D02*
X148082000Y-105283000D01*
X148082000Y-105283000D02*
X147574000Y-105791000D01*
X124909580Y-115697000D02*
X124909580Y-116654580D01*
X147955000Y-112522000D02*
X146453000Y-111020000D01*
X147955000Y-118237000D02*
X147955000Y-112522000D01*
X146685000Y-119507000D02*
X147955000Y-118237000D01*
X127762000Y-119507000D02*
X146685000Y-119507000D01*
X124909580Y-116654580D02*
X127762000Y-119507000D01*
D30*
X124909580Y-115697000D02*
X126873000Y-115697000D01*
X128524000Y-113157000D02*
X130106420Y-113157000D01*
X127889000Y-113792000D02*
X128524000Y-113157000D01*
X127889000Y-114681000D02*
X127889000Y-113792000D01*
X126873000Y-115697000D02*
X127889000Y-114681000D01*
D29*
X137545000Y-108207000D02*
X137545000Y-108835000D01*
X140208000Y-109474000D02*
X140208000Y-109982000D01*
X139954000Y-109220000D02*
X140208000Y-109474000D01*
X137545000Y-108835000D02*
X137160000Y-109220000D01*
D28*
X142990000Y-105156000D02*
X147066000Y-105156000D01*
X147552000Y-111020000D02*
X146453000Y-111020000D01*
X147574000Y-110998000D02*
X147552000Y-111020000D01*
X147574000Y-105664000D02*
X147574000Y-105791000D01*
X147574000Y-105791000D02*
X147574000Y-110998000D01*
X147066000Y-105156000D02*
X147574000Y-105664000D01*
X146453000Y-111020000D02*
X143764000Y-111020000D01*
D29*
X125222000Y-108152000D02*
X125222000Y-108712000D01*
X125222000Y-108712000D02*
X126365000Y-109855000D01*
X126365000Y-109855000D02*
X129667000Y-109855000D01*
X129667000Y-109855000D02*
X130302000Y-109220000D01*
X130302000Y-109220000D02*
X130302000Y-108138000D01*
X127762000Y-101652000D02*
X127762000Y-102616000D01*
X127762000Y-102616000D02*
X128966000Y-103820000D01*
X128966000Y-103820000D02*
X130302000Y-103820000D01*
X139195000Y-107557000D02*
X143627000Y-107557000D01*
X143627000Y-107557000D02*
X143764000Y-107420000D01*
X139195000Y-107057000D02*
X139195000Y-107557000D01*
X139195000Y-106557000D02*
X139195000Y-107057000D01*
X139195000Y-106057000D02*
X139195000Y-105915000D01*
X139954000Y-105156000D02*
X141490000Y-105156000D01*
X139195000Y-105915000D02*
X139954000Y-105156000D01*
D30*
X130106420Y-111887000D02*
X131191000Y-111887000D01*
X131191000Y-111887000D02*
X133350000Y-114046000D01*
X133350000Y-114046000D02*
X138303000Y-114046000D01*
X138303000Y-114046000D02*
X138684000Y-114427000D01*
X138684000Y-114427000D02*
X138684000Y-116332000D01*
X130106420Y-115697000D02*
X130106420Y-117533420D01*
X136144000Y-118491000D02*
X136144000Y-116332000D01*
X136017000Y-118618000D02*
X136144000Y-118491000D01*
X131191000Y-118618000D02*
X136017000Y-118618000D01*
X130106420Y-117533420D02*
X131191000Y-118618000D01*
D29*
G36*
X146431000Y-108077000D02*
X140260606Y-108077000D01*
X139789803Y-107606197D01*
X139747789Y-107578334D01*
X139700000Y-107569000D01*
X139332400Y-107569000D01*
X139332400Y-107557000D01*
X139292440Y-107356107D01*
X139292440Y-106817000D01*
X139388318Y-106817000D01*
X139679157Y-106759148D01*
X139925719Y-106594401D01*
X139953382Y-106553000D01*
X146431000Y-106553000D01*
X146431000Y-108077000D01*
X146431000Y-108077000D01*
G37*
X146431000Y-108077000D02*
X140260606Y-108077000D01*
X139789803Y-107606197D01*
X139747789Y-107578334D01*
X139700000Y-107569000D01*
X139332400Y-107569000D01*
X139332400Y-107557000D01*
X139292440Y-107356107D01*
X139292440Y-106817000D01*
X139388318Y-106817000D01*
X139679157Y-106759148D01*
X139925719Y-106594401D01*
X139953382Y-106553000D01*
X146431000Y-106553000D01*
X146431000Y-108077000D01*
G36*
X146431000Y-112903000D02*
X139319000Y-112903000D01*
X139319000Y-109855000D01*
X146431000Y-109855000D01*
X146431000Y-112903000D01*
X146431000Y-112903000D01*
G37*
X146431000Y-112903000D02*
X139319000Y-112903000D01*
X139319000Y-109855000D01*
X146431000Y-109855000D01*
X146431000Y-112903000D01*
G36*
X148590000Y-99000922D02*
X147476539Y-97887461D01*
X147171646Y-97683738D01*
X146812000Y-97612200D01*
X135001000Y-97612200D01*
X134641354Y-97683738D01*
X134336461Y-97887461D01*
X133244970Y-98978952D01*
X133072793Y-99013200D01*
X132622458Y-99314104D01*
X132321554Y-99764439D01*
X132215890Y-100295646D01*
X132215890Y-101888354D01*
X132321554Y-102419561D01*
X132622458Y-102869896D01*
X133072793Y-103170800D01*
X133604000Y-103276464D01*
X134135207Y-103170800D01*
X134585542Y-102869896D01*
X134874000Y-102438188D01*
X135162458Y-102869896D01*
X135612793Y-103170800D01*
X136144000Y-103276464D01*
X136675207Y-103170800D01*
X137125542Y-102869896D01*
X137414000Y-102438188D01*
X137702458Y-102869896D01*
X138152793Y-103170800D01*
X138684000Y-103276464D01*
X139215207Y-103170800D01*
X139665542Y-102869896D01*
X139954000Y-102438188D01*
X140242458Y-102869896D01*
X140692793Y-103170800D01*
X141224000Y-103276464D01*
X141755207Y-103170800D01*
X142205542Y-102869896D01*
X142494000Y-102438188D01*
X142782458Y-102869896D01*
X143232793Y-103170800D01*
X143764000Y-103276464D01*
X144295207Y-103170800D01*
X144745542Y-102869896D01*
X145046446Y-102419561D01*
X145047016Y-102416694D01*
X145070154Y-102494919D01*
X145412260Y-102917724D01*
X145890125Y-103177427D01*
X145962326Y-103191783D01*
X146177000Y-103069162D01*
X146177000Y-101219000D01*
X146157000Y-101219000D01*
X146157000Y-100965000D01*
X146177000Y-100965000D01*
X146177000Y-100945000D01*
X146431000Y-100945000D01*
X146431000Y-100965000D01*
X146451000Y-100965000D01*
X146451000Y-101219000D01*
X146431000Y-101219000D01*
X146431000Y-103069162D01*
X146645674Y-103191783D01*
X146717875Y-103177427D01*
X147142200Y-102946821D01*
X147142200Y-104231357D01*
X147066000Y-104216200D01*
X143647950Y-104216200D01*
X143491890Y-104109569D01*
X143240000Y-104058560D01*
X142740000Y-104058560D01*
X142504683Y-104102838D01*
X142288559Y-104241910D01*
X142240866Y-104311711D01*
X142204090Y-104254559D01*
X141991890Y-104109569D01*
X141740000Y-104058560D01*
X141240000Y-104058560D01*
X141004683Y-104102838D01*
X140788559Y-104241910D01*
X140684640Y-104394000D01*
X139954000Y-104394000D01*
X139662395Y-104452004D01*
X139415185Y-104617185D01*
X138656185Y-105376185D01*
X138637851Y-105403623D01*
X138464281Y-105519599D01*
X138299534Y-105766161D01*
X138241682Y-106057000D01*
X138291411Y-106307000D01*
X138241682Y-106557000D01*
X138291411Y-106807000D01*
X138241682Y-107057000D01*
X138291411Y-107307000D01*
X138241682Y-107557000D01*
X138299534Y-107847839D01*
X138464281Y-108094401D01*
X138710843Y-108259148D01*
X139001682Y-108317000D01*
X139184945Y-108317000D01*
X139195000Y-108319000D01*
X141044596Y-108319000D01*
X141060838Y-108405317D01*
X141199910Y-108621441D01*
X141412110Y-108766431D01*
X141664000Y-108817440D01*
X145864000Y-108817440D01*
X146099317Y-108773162D01*
X146315441Y-108634090D01*
X146460431Y-108421890D01*
X146511440Y-108170000D01*
X146511440Y-106670000D01*
X146467162Y-106434683D01*
X146328090Y-106218559D01*
X146148426Y-106095800D01*
X146634200Y-106095800D01*
X146634200Y-110080200D01*
X146475727Y-110080200D01*
X146467162Y-110034683D01*
X146328090Y-109818559D01*
X146115890Y-109673569D01*
X145864000Y-109622560D01*
X141664000Y-109622560D01*
X141428683Y-109666838D01*
X141212559Y-109805910D01*
X141067569Y-110018110D01*
X141019813Y-110253938D01*
X140940443Y-110130593D01*
X140970000Y-109982000D01*
X140970000Y-109474000D01*
X140911996Y-109182395D01*
X140848870Y-109087920D01*
X140843123Y-109079319D01*
X140843154Y-109043943D01*
X140708097Y-108717080D01*
X140458236Y-108466782D01*
X140131609Y-108331154D01*
X139777943Y-108330846D01*
X139451080Y-108465903D01*
X139200782Y-108715764D01*
X139065154Y-109042391D01*
X139064846Y-109396057D01*
X139199903Y-109722920D01*
X139353642Y-109876928D01*
X139194683Y-109906838D01*
X138978559Y-110045910D01*
X138833569Y-110258110D01*
X138782560Y-110510000D01*
X138782560Y-113010000D01*
X138826838Y-113245317D01*
X138965910Y-113461441D01*
X139178110Y-113606431D01*
X139430000Y-113657440D01*
X140430000Y-113657440D01*
X140665317Y-113613162D01*
X140881441Y-113474090D01*
X141026431Y-113261890D01*
X141077440Y-113010000D01*
X141077440Y-112031117D01*
X141199910Y-112221441D01*
X141412110Y-112366431D01*
X141664000Y-112417440D01*
X145864000Y-112417440D01*
X146099317Y-112373162D01*
X146315441Y-112234090D01*
X146324603Y-112220681D01*
X147015200Y-112911278D01*
X147015200Y-114408159D01*
X146717875Y-114246573D01*
X146645674Y-114232217D01*
X146431000Y-114354838D01*
X146431000Y-116205000D01*
X146451000Y-116205000D01*
X146451000Y-116459000D01*
X146431000Y-116459000D01*
X146431000Y-118309162D01*
X146509132Y-118353790D01*
X146295722Y-118567200D01*
X136916243Y-118567200D01*
X136931400Y-118491000D01*
X136931400Y-118239617D01*
X137125542Y-118109896D01*
X137414000Y-117678188D01*
X137702458Y-118109896D01*
X138152793Y-118410800D01*
X138684000Y-118516464D01*
X139215207Y-118410800D01*
X139665542Y-118109896D01*
X139954000Y-117678188D01*
X140242458Y-118109896D01*
X140692793Y-118410800D01*
X141224000Y-118516464D01*
X141755207Y-118410800D01*
X142205542Y-118109896D01*
X142494000Y-117678188D01*
X142782458Y-118109896D01*
X143232793Y-118410800D01*
X143764000Y-118516464D01*
X144295207Y-118410800D01*
X144745542Y-118109896D01*
X145046446Y-117659561D01*
X145047016Y-117656694D01*
X145070154Y-117734919D01*
X145412260Y-118157724D01*
X145890125Y-118417427D01*
X145962326Y-118431783D01*
X146177000Y-118309162D01*
X146177000Y-116459000D01*
X146157000Y-116459000D01*
X146157000Y-116205000D01*
X146177000Y-116205000D01*
X146177000Y-114354838D01*
X145962326Y-114232217D01*
X145890125Y-114246573D01*
X145412260Y-114506276D01*
X145070154Y-114929081D01*
X145047016Y-115007306D01*
X145046446Y-115004439D01*
X144745542Y-114554104D01*
X144295207Y-114253200D01*
X143764000Y-114147536D01*
X143232793Y-114253200D01*
X142782458Y-114554104D01*
X142494000Y-114985812D01*
X142205542Y-114554104D01*
X141755207Y-114253200D01*
X141224000Y-114147536D01*
X140692793Y-114253200D01*
X140242458Y-114554104D01*
X139954000Y-114985812D01*
X139665542Y-114554104D01*
X139470800Y-114423981D01*
X139411463Y-114125675D01*
X139240776Y-113870224D01*
X138859776Y-113489224D01*
X138604325Y-113318537D01*
X138303000Y-113258600D01*
X135942937Y-113258600D01*
X136016846Y-113080609D01*
X136017154Y-112726943D01*
X135932432Y-112521900D01*
X136016846Y-112318609D01*
X136017154Y-111964943D01*
X135882097Y-111638080D01*
X135632236Y-111387782D01*
X135305609Y-111252154D01*
X134951943Y-111251846D01*
X134810557Y-111310266D01*
X134670609Y-111252154D01*
X134316943Y-111251846D01*
X133990080Y-111386903D01*
X133739782Y-111636764D01*
X133604154Y-111963391D01*
X133603846Y-112317057D01*
X133688568Y-112522100D01*
X133604154Y-112725391D01*
X133603846Y-113079057D01*
X133678032Y-113258600D01*
X133676152Y-113258600D01*
X131818647Y-111401095D01*
X131809402Y-111351963D01*
X131670330Y-111135839D01*
X131458130Y-110990849D01*
X131206240Y-110939840D01*
X129006600Y-110939840D01*
X128771283Y-110984118D01*
X128555159Y-111123190D01*
X128410169Y-111335390D01*
X128359160Y-111587280D01*
X128359160Y-112186720D01*
X128398277Y-112394608D01*
X128222675Y-112429537D01*
X127967224Y-112600224D01*
X127332224Y-113235224D01*
X127161537Y-113490675D01*
X127101600Y-113792000D01*
X127101600Y-114354848D01*
X126638332Y-114818116D01*
X126656840Y-114726720D01*
X126656840Y-114127280D01*
X126612562Y-113891963D01*
X126548536Y-113792464D01*
X126605831Y-113708610D01*
X126656840Y-113456720D01*
X126656840Y-112857280D01*
X126612562Y-112621963D01*
X126473490Y-112405839D01*
X126261290Y-112260849D01*
X126009400Y-112209840D01*
X123809760Y-112209840D01*
X123698000Y-112230869D01*
X123698000Y-111252000D01*
X123639996Y-110960395D01*
X123474815Y-110713185D01*
X122701440Y-109939810D01*
X122701440Y-109861000D01*
X122657162Y-109625683D01*
X122518090Y-109409559D01*
X122305890Y-109264569D01*
X122054000Y-109213560D01*
X121254000Y-109213560D01*
X121081800Y-109245962D01*
X121081800Y-107905000D01*
X121089704Y-107905000D01*
X121677123Y-107788155D01*
X122175113Y-107455409D01*
X122272406Y-107309800D01*
X122992000Y-107309800D01*
X123351646Y-107238262D01*
X123656539Y-107034539D01*
X123871281Y-106819797D01*
X123850569Y-106850110D01*
X123799560Y-107102000D01*
X123799560Y-109202000D01*
X123843838Y-109437317D01*
X123982910Y-109653441D01*
X124195110Y-109798431D01*
X124447000Y-109849440D01*
X125281810Y-109849440D01*
X125826185Y-110393815D01*
X126073395Y-110558996D01*
X126365000Y-110617000D01*
X129667000Y-110617000D01*
X129958605Y-110558996D01*
X130205815Y-110393815D01*
X130840816Y-109758815D01*
X130971391Y-109563395D01*
X131005996Y-109511605D01*
X131064000Y-109220000D01*
X131064000Y-109114366D01*
X131187317Y-109091162D01*
X131403441Y-108952090D01*
X131548431Y-108739890D01*
X131599440Y-108488000D01*
X131599440Y-107788000D01*
X131555162Y-107552683D01*
X131416090Y-107336559D01*
X131203890Y-107191569D01*
X131190803Y-107188919D01*
X131208082Y-107177800D01*
X132214560Y-107177800D01*
X132214560Y-107966000D01*
X132258838Y-108201317D01*
X132397910Y-108417441D01*
X132610110Y-108562431D01*
X132862000Y-108613440D01*
X133177857Y-108613440D01*
X133243738Y-108944646D01*
X133447461Y-109249539D01*
X133752354Y-109453262D01*
X134112000Y-109524800D01*
X134471646Y-109453262D01*
X134776539Y-109249539D01*
X134980262Y-108944646D01*
X135046143Y-108613440D01*
X135362000Y-108613440D01*
X135597317Y-108569162D01*
X135813441Y-108430090D01*
X135816227Y-108426013D01*
X135856185Y-108485815D01*
X136116185Y-108745816D01*
X136333898Y-108891287D01*
X136271154Y-109042391D01*
X136270846Y-109396057D01*
X136405903Y-109722920D01*
X136655764Y-109973218D01*
X136982391Y-110108846D01*
X137336057Y-110109154D01*
X137662920Y-109974097D01*
X137913218Y-109724236D01*
X138040910Y-109416721D01*
X138083815Y-109373816D01*
X138248996Y-109126605D01*
X138307000Y-108835000D01*
X138307000Y-108207000D01*
X138305000Y-108196945D01*
X138305000Y-108013682D01*
X138247148Y-107722843D01*
X138082401Y-107476281D01*
X137835839Y-107311534D01*
X137545000Y-107253682D01*
X137299481Y-107302519D01*
X137348318Y-107057000D01*
X137298589Y-106807000D01*
X137348318Y-106557000D01*
X137298589Y-106307000D01*
X137348318Y-106057000D01*
X137290466Y-105766161D01*
X137125719Y-105519599D01*
X136879157Y-105354852D01*
X136779545Y-105335038D01*
X136545325Y-105178537D01*
X136244000Y-105118600D01*
X135754299Y-105118600D01*
X135713090Y-105054559D01*
X135500890Y-104909569D01*
X135249000Y-104858560D01*
X134499000Y-104858560D01*
X134263683Y-104902838D01*
X134110913Y-105001143D01*
X133976890Y-104909569D01*
X133725000Y-104858560D01*
X132975000Y-104858560D01*
X132739683Y-104902838D01*
X132523559Y-105041910D01*
X132378569Y-105254110D01*
X132369641Y-105298200D01*
X131213595Y-105298200D01*
X131203890Y-105291569D01*
X130952000Y-105240560D01*
X129652000Y-105240560D01*
X129416683Y-105284838D01*
X129200559Y-105423910D01*
X129055569Y-105636110D01*
X129004560Y-105888000D01*
X129004560Y-106588000D01*
X129022630Y-106684033D01*
X129001090Y-106650559D01*
X128788890Y-106505569D01*
X128701800Y-106487933D01*
X128701800Y-106426000D01*
X128630262Y-106066354D01*
X128426539Y-105761461D01*
X127410539Y-104745461D01*
X127105646Y-104541738D01*
X126746000Y-104470200D01*
X123952000Y-104470200D01*
X123592354Y-104541738D01*
X123287461Y-104745461D01*
X122602722Y-105430200D01*
X122272406Y-105430200D01*
X122175113Y-105284591D01*
X121677123Y-104951845D01*
X121089704Y-104835000D01*
X119194296Y-104835000D01*
X118606877Y-104951845D01*
X118108887Y-105284591D01*
X117779800Y-105777105D01*
X117779800Y-104068974D01*
X117877910Y-104221441D01*
X118090110Y-104366431D01*
X118342000Y-104417440D01*
X121942000Y-104417440D01*
X122177317Y-104373162D01*
X122393441Y-104234090D01*
X122538431Y-104021890D01*
X122581380Y-103809800D01*
X124004000Y-103809800D01*
X124363646Y-103738262D01*
X124668539Y-103534539D01*
X124853638Y-103349440D01*
X125997000Y-103349440D01*
X126232317Y-103305162D01*
X126448441Y-103166090D01*
X126490984Y-103103826D01*
X126522910Y-103153441D01*
X126735110Y-103298431D01*
X126987000Y-103349440D01*
X127417810Y-103349440D01*
X128427185Y-104358815D01*
X128674395Y-104523996D01*
X128966000Y-104582000D01*
X129162530Y-104582000D01*
X129187910Y-104621441D01*
X129400110Y-104766431D01*
X129652000Y-104817440D01*
X130952000Y-104817440D01*
X131187317Y-104773162D01*
X131403441Y-104634090D01*
X131548431Y-104421890D01*
X131599440Y-104170000D01*
X131599440Y-103470000D01*
X131555162Y-103234683D01*
X131416090Y-103018559D01*
X131203890Y-102873569D01*
X130952000Y-102822560D01*
X129652000Y-102822560D01*
X129416683Y-102866838D01*
X129218193Y-102994563D01*
X129140856Y-102917226D01*
X129184440Y-102702000D01*
X129184440Y-100602000D01*
X129140162Y-100366683D01*
X129001090Y-100150559D01*
X128788890Y-100005569D01*
X128537000Y-99954560D01*
X126987000Y-99954560D01*
X126751683Y-99998838D01*
X126535559Y-100137910D01*
X126493016Y-100200174D01*
X126461090Y-100150559D01*
X126248890Y-100005569D01*
X125997000Y-99954560D01*
X124447000Y-99954560D01*
X124211683Y-99998838D01*
X123995559Y-100137910D01*
X123850569Y-100350110D01*
X123799560Y-100602000D01*
X123799560Y-101745362D01*
X123614722Y-101930200D01*
X122581951Y-101930200D01*
X122545162Y-101734683D01*
X122406090Y-101518559D01*
X122193890Y-101373569D01*
X121942000Y-101322560D01*
X118342000Y-101322560D01*
X118106683Y-101366838D01*
X117890559Y-101505910D01*
X117745569Y-101718110D01*
X117702620Y-101930200D01*
X117602000Y-101930200D01*
X117242354Y-102001738D01*
X116937461Y-102205461D01*
X116175461Y-102967461D01*
X115971738Y-103272354D01*
X115900200Y-103632000D01*
X115900200Y-112014000D01*
X115971738Y-112373646D01*
X116175461Y-112678539D01*
X117388725Y-113891803D01*
X117301200Y-114022793D01*
X117195536Y-114554000D01*
X117301200Y-115085207D01*
X117602104Y-115535542D01*
X118033812Y-115824000D01*
X117602104Y-116112458D01*
X117301200Y-116562793D01*
X117195536Y-117094000D01*
X117301200Y-117625207D01*
X117602104Y-118075542D01*
X118052439Y-118376446D01*
X118583646Y-118482110D01*
X120176354Y-118482110D01*
X120707561Y-118376446D01*
X121157896Y-118075542D01*
X121458800Y-117625207D01*
X121564464Y-117094000D01*
X121458800Y-116562793D01*
X121157896Y-116112458D01*
X120726188Y-115824000D01*
X121157896Y-115535542D01*
X121458800Y-115085207D01*
X121564464Y-114554000D01*
X121491486Y-114187116D01*
X122270185Y-114965816D01*
X122369927Y-115032461D01*
X122517395Y-115130996D01*
X122809000Y-115189000D01*
X123204498Y-115189000D01*
X123162320Y-115397280D01*
X123162320Y-115996720D01*
X123206598Y-116232037D01*
X123345670Y-116448161D01*
X123557870Y-116593151D01*
X123809760Y-116644160D01*
X123969780Y-116644160D01*
X123969780Y-116654580D01*
X124041318Y-117014226D01*
X124245041Y-117319119D01*
X127067922Y-120142000D01*
X114554000Y-120142000D01*
X114554000Y-97536000D01*
X148590000Y-97536000D01*
X148590000Y-99000922D01*
X148590000Y-99000922D01*
G37*
X148590000Y-99000922D02*
X147476539Y-97887461D01*
X147171646Y-97683738D01*
X146812000Y-97612200D01*
X135001000Y-97612200D01*
X134641354Y-97683738D01*
X134336461Y-97887461D01*
X133244970Y-98978952D01*
X133072793Y-99013200D01*
X132622458Y-99314104D01*
X132321554Y-99764439D01*
X132215890Y-100295646D01*
X132215890Y-101888354D01*
X132321554Y-102419561D01*
X132622458Y-102869896D01*
X133072793Y-103170800D01*
X133604000Y-103276464D01*
X134135207Y-103170800D01*
X134585542Y-102869896D01*
X134874000Y-102438188D01*
X135162458Y-102869896D01*
X135612793Y-103170800D01*
X136144000Y-103276464D01*
X136675207Y-103170800D01*
X137125542Y-102869896D01*
X137414000Y-102438188D01*
X137702458Y-102869896D01*
X138152793Y-103170800D01*
X138684000Y-103276464D01*
X139215207Y-103170800D01*
X139665542Y-102869896D01*
X139954000Y-102438188D01*
X140242458Y-102869896D01*
X140692793Y-103170800D01*
X141224000Y-103276464D01*
X141755207Y-103170800D01*
X142205542Y-102869896D01*
X142494000Y-102438188D01*
X142782458Y-102869896D01*
X143232793Y-103170800D01*
X143764000Y-103276464D01*
X144295207Y-103170800D01*
X144745542Y-102869896D01*
X145046446Y-102419561D01*
X145047016Y-102416694D01*
X145070154Y-102494919D01*
X145412260Y-102917724D01*
X145890125Y-103177427D01*
X145962326Y-103191783D01*
X146177000Y-103069162D01*
X146177000Y-101219000D01*
X146157000Y-101219000D01*
X146157000Y-100965000D01*
X146177000Y-100965000D01*
X146177000Y-100945000D01*
X146431000Y-100945000D01*
X146431000Y-100965000D01*
X146451000Y-100965000D01*
X146451000Y-101219000D01*
X146431000Y-101219000D01*
X146431000Y-103069162D01*
X146645674Y-103191783D01*
X146717875Y-103177427D01*
X147142200Y-102946821D01*
X147142200Y-104231357D01*
X147066000Y-104216200D01*
X143647950Y-104216200D01*
X143491890Y-104109569D01*
X143240000Y-104058560D01*
X142740000Y-104058560D01*
X142504683Y-104102838D01*
X142288559Y-104241910D01*
X142240866Y-104311711D01*
X142204090Y-104254559D01*
X141991890Y-104109569D01*
X141740000Y-104058560D01*
X141240000Y-104058560D01*
X141004683Y-104102838D01*
X140788559Y-104241910D01*
X140684640Y-104394000D01*
X139954000Y-104394000D01*
X139662395Y-104452004D01*
X139415185Y-104617185D01*
X138656185Y-105376185D01*
X138637851Y-105403623D01*
X138464281Y-105519599D01*
X138299534Y-105766161D01*
X138241682Y-106057000D01*
X138291411Y-106307000D01*
X138241682Y-106557000D01*
X138291411Y-106807000D01*
X138241682Y-107057000D01*
X138291411Y-107307000D01*
X138241682Y-107557000D01*
X138299534Y-107847839D01*
X138464281Y-108094401D01*
X138710843Y-108259148D01*
X139001682Y-108317000D01*
X139184945Y-108317000D01*
X139195000Y-108319000D01*
X141044596Y-108319000D01*
X141060838Y-108405317D01*
X141199910Y-108621441D01*
X141412110Y-108766431D01*
X141664000Y-108817440D01*
X145864000Y-108817440D01*
X146099317Y-108773162D01*
X146315441Y-108634090D01*
X146460431Y-108421890D01*
X146511440Y-108170000D01*
X146511440Y-106670000D01*
X146467162Y-106434683D01*
X146328090Y-106218559D01*
X146148426Y-106095800D01*
X146634200Y-106095800D01*
X146634200Y-110080200D01*
X146475727Y-110080200D01*
X146467162Y-110034683D01*
X146328090Y-109818559D01*
X146115890Y-109673569D01*
X145864000Y-109622560D01*
X141664000Y-109622560D01*
X141428683Y-109666838D01*
X141212559Y-109805910D01*
X141067569Y-110018110D01*
X141019813Y-110253938D01*
X140940443Y-110130593D01*
X140970000Y-109982000D01*
X140970000Y-109474000D01*
X140911996Y-109182395D01*
X140848870Y-109087920D01*
X140843123Y-109079319D01*
X140843154Y-109043943D01*
X140708097Y-108717080D01*
X140458236Y-108466782D01*
X140131609Y-108331154D01*
X139777943Y-108330846D01*
X139451080Y-108465903D01*
X139200782Y-108715764D01*
X139065154Y-109042391D01*
X139064846Y-109396057D01*
X139199903Y-109722920D01*
X139353642Y-109876928D01*
X139194683Y-109906838D01*
X138978559Y-110045910D01*
X138833569Y-110258110D01*
X138782560Y-110510000D01*
X138782560Y-113010000D01*
X138826838Y-113245317D01*
X138965910Y-113461441D01*
X139178110Y-113606431D01*
X139430000Y-113657440D01*
X140430000Y-113657440D01*
X140665317Y-113613162D01*
X140881441Y-113474090D01*
X141026431Y-113261890D01*
X141077440Y-113010000D01*
X141077440Y-112031117D01*
X141199910Y-112221441D01*
X141412110Y-112366431D01*
X141664000Y-112417440D01*
X145864000Y-112417440D01*
X146099317Y-112373162D01*
X146315441Y-112234090D01*
X146324603Y-112220681D01*
X147015200Y-112911278D01*
X147015200Y-114408159D01*
X146717875Y-114246573D01*
X146645674Y-114232217D01*
X146431000Y-114354838D01*
X146431000Y-116205000D01*
X146451000Y-116205000D01*
X146451000Y-116459000D01*
X146431000Y-116459000D01*
X146431000Y-118309162D01*
X146509132Y-118353790D01*
X146295722Y-118567200D01*
X136916243Y-118567200D01*
X136931400Y-118491000D01*
X136931400Y-118239617D01*
X137125542Y-118109896D01*
X137414000Y-117678188D01*
X137702458Y-118109896D01*
X138152793Y-118410800D01*
X138684000Y-118516464D01*
X139215207Y-118410800D01*
X139665542Y-118109896D01*
X139954000Y-117678188D01*
X140242458Y-118109896D01*
X140692793Y-118410800D01*
X141224000Y-118516464D01*
X141755207Y-118410800D01*
X142205542Y-118109896D01*
X142494000Y-117678188D01*
X142782458Y-118109896D01*
X143232793Y-118410800D01*
X143764000Y-118516464D01*
X144295207Y-118410800D01*
X144745542Y-118109896D01*
X145046446Y-117659561D01*
X145047016Y-117656694D01*
X145070154Y-117734919D01*
X145412260Y-118157724D01*
X145890125Y-118417427D01*
X145962326Y-118431783D01*
X146177000Y-118309162D01*
X146177000Y-116459000D01*
X146157000Y-116459000D01*
X146157000Y-116205000D01*
X146177000Y-116205000D01*
X146177000Y-114354838D01*
X145962326Y-114232217D01*
X145890125Y-114246573D01*
X145412260Y-114506276D01*
X145070154Y-114929081D01*
X145047016Y-115007306D01*
X145046446Y-115004439D01*
X144745542Y-114554104D01*
X144295207Y-114253200D01*
X143764000Y-114147536D01*
X143232793Y-114253200D01*
X142782458Y-114554104D01*
X142494000Y-114985812D01*
X142205542Y-114554104D01*
X141755207Y-114253200D01*
X141224000Y-114147536D01*
X140692793Y-114253200D01*
X140242458Y-114554104D01*
X139954000Y-114985812D01*
X139665542Y-114554104D01*
X139470800Y-114423981D01*
X139411463Y-114125675D01*
X139240776Y-113870224D01*
X138859776Y-113489224D01*
X138604325Y-113318537D01*
X138303000Y-113258600D01*
X135942937Y-113258600D01*
X136016846Y-113080609D01*
X136017154Y-112726943D01*
X135932432Y-112521900D01*
X136016846Y-112318609D01*
X136017154Y-111964943D01*
X135882097Y-111638080D01*
X135632236Y-111387782D01*
X135305609Y-111252154D01*
X134951943Y-111251846D01*
X134810557Y-111310266D01*
X134670609Y-111252154D01*
X134316943Y-111251846D01*
X133990080Y-111386903D01*
X133739782Y-111636764D01*
X133604154Y-111963391D01*
X133603846Y-112317057D01*
X133688568Y-112522100D01*
X133604154Y-112725391D01*
X133603846Y-113079057D01*
X133678032Y-113258600D01*
X133676152Y-113258600D01*
X131818647Y-111401095D01*
X131809402Y-111351963D01*
X131670330Y-111135839D01*
X131458130Y-110990849D01*
X131206240Y-110939840D01*
X129006600Y-110939840D01*
X128771283Y-110984118D01*
X128555159Y-111123190D01*
X128410169Y-111335390D01*
X128359160Y-111587280D01*
X128359160Y-112186720D01*
X128398277Y-112394608D01*
X128222675Y-112429537D01*
X127967224Y-112600224D01*
X127332224Y-113235224D01*
X127161537Y-113490675D01*
X127101600Y-113792000D01*
X127101600Y-114354848D01*
X126638332Y-114818116D01*
X126656840Y-114726720D01*
X126656840Y-114127280D01*
X126612562Y-113891963D01*
X126548536Y-113792464D01*
X126605831Y-113708610D01*
X126656840Y-113456720D01*
X126656840Y-112857280D01*
X126612562Y-112621963D01*
X126473490Y-112405839D01*
X126261290Y-112260849D01*
X126009400Y-112209840D01*
X123809760Y-112209840D01*
X123698000Y-112230869D01*
X123698000Y-111252000D01*
X123639996Y-110960395D01*
X123474815Y-110713185D01*
X122701440Y-109939810D01*
X122701440Y-109861000D01*
X122657162Y-109625683D01*
X122518090Y-109409559D01*
X122305890Y-109264569D01*
X122054000Y-109213560D01*
X121254000Y-109213560D01*
X121081800Y-109245962D01*
X121081800Y-107905000D01*
X121089704Y-107905000D01*
X121677123Y-107788155D01*
X122175113Y-107455409D01*
X122272406Y-107309800D01*
X122992000Y-107309800D01*
X123351646Y-107238262D01*
X123656539Y-107034539D01*
X123871281Y-106819797D01*
X123850569Y-106850110D01*
X123799560Y-107102000D01*
X123799560Y-109202000D01*
X123843838Y-109437317D01*
X123982910Y-109653441D01*
X124195110Y-109798431D01*
X124447000Y-109849440D01*
X125281810Y-109849440D01*
X125826185Y-110393815D01*
X126073395Y-110558996D01*
X126365000Y-110617000D01*
X129667000Y-110617000D01*
X129958605Y-110558996D01*
X130205815Y-110393815D01*
X130840816Y-109758815D01*
X130971391Y-109563395D01*
X131005996Y-109511605D01*
X131064000Y-109220000D01*
X131064000Y-109114366D01*
X131187317Y-109091162D01*
X131403441Y-108952090D01*
X131548431Y-108739890D01*
X131599440Y-108488000D01*
X131599440Y-107788000D01*
X131555162Y-107552683D01*
X131416090Y-107336559D01*
X131203890Y-107191569D01*
X131190803Y-107188919D01*
X131208082Y-107177800D01*
X132214560Y-107177800D01*
X132214560Y-107966000D01*
X132258838Y-108201317D01*
X132397910Y-108417441D01*
X132610110Y-108562431D01*
X132862000Y-108613440D01*
X133177857Y-108613440D01*
X133243738Y-108944646D01*
X133447461Y-109249539D01*
X133752354Y-109453262D01*
X134112000Y-109524800D01*
X134471646Y-109453262D01*
X134776539Y-109249539D01*
X134980262Y-108944646D01*
X135046143Y-108613440D01*
X135362000Y-108613440D01*
X135597317Y-108569162D01*
X135813441Y-108430090D01*
X135816227Y-108426013D01*
X135856185Y-108485815D01*
X136116185Y-108745816D01*
X136333898Y-108891287D01*
X136271154Y-109042391D01*
X136270846Y-109396057D01*
X136405903Y-109722920D01*
X136655764Y-109973218D01*
X136982391Y-110108846D01*
X137336057Y-110109154D01*
X137662920Y-109974097D01*
X137913218Y-109724236D01*
X138040910Y-109416721D01*
X138083815Y-109373816D01*
X138248996Y-109126605D01*
X138307000Y-108835000D01*
X138307000Y-108207000D01*
X138305000Y-108196945D01*
X138305000Y-108013682D01*
X138247148Y-107722843D01*
X138082401Y-107476281D01*
X137835839Y-107311534D01*
X137545000Y-107253682D01*
X137299481Y-107302519D01*
X137348318Y-107057000D01*
X137298589Y-106807000D01*
X137348318Y-106557000D01*
X137298589Y-106307000D01*
X137348318Y-106057000D01*
X137290466Y-105766161D01*
X137125719Y-105519599D01*
X136879157Y-105354852D01*
X136779545Y-105335038D01*
X136545325Y-105178537D01*
X136244000Y-105118600D01*
X135754299Y-105118600D01*
X135713090Y-105054559D01*
X135500890Y-104909569D01*
X135249000Y-104858560D01*
X134499000Y-104858560D01*
X134263683Y-104902838D01*
X134110913Y-105001143D01*
X133976890Y-104909569D01*
X133725000Y-104858560D01*
X132975000Y-104858560D01*
X132739683Y-104902838D01*
X132523559Y-105041910D01*
X132378569Y-105254110D01*
X132369641Y-105298200D01*
X131213595Y-105298200D01*
X131203890Y-105291569D01*
X130952000Y-105240560D01*
X129652000Y-105240560D01*
X129416683Y-105284838D01*
X129200559Y-105423910D01*
X129055569Y-105636110D01*
X129004560Y-105888000D01*
X129004560Y-106588000D01*
X129022630Y-106684033D01*
X129001090Y-106650559D01*
X128788890Y-106505569D01*
X128701800Y-106487933D01*
X128701800Y-106426000D01*
X128630262Y-106066354D01*
X128426539Y-105761461D01*
X127410539Y-104745461D01*
X127105646Y-104541738D01*
X126746000Y-104470200D01*
X123952000Y-104470200D01*
X123592354Y-104541738D01*
X123287461Y-104745461D01*
X122602722Y-105430200D01*
X122272406Y-105430200D01*
X122175113Y-105284591D01*
X121677123Y-104951845D01*
X121089704Y-104835000D01*
X119194296Y-104835000D01*
X118606877Y-104951845D01*
X118108887Y-105284591D01*
X117779800Y-105777105D01*
X117779800Y-104068974D01*
X117877910Y-104221441D01*
X118090110Y-104366431D01*
X118342000Y-104417440D01*
X121942000Y-104417440D01*
X122177317Y-104373162D01*
X122393441Y-104234090D01*
X122538431Y-104021890D01*
X122581380Y-103809800D01*
X124004000Y-103809800D01*
X124363646Y-103738262D01*
X124668539Y-103534539D01*
X124853638Y-103349440D01*
X125997000Y-103349440D01*
X126232317Y-103305162D01*
X126448441Y-103166090D01*
X126490984Y-103103826D01*
X126522910Y-103153441D01*
X126735110Y-103298431D01*
X126987000Y-103349440D01*
X127417810Y-103349440D01*
X128427185Y-104358815D01*
X128674395Y-104523996D01*
X128966000Y-104582000D01*
X129162530Y-104582000D01*
X129187910Y-104621441D01*
X129400110Y-104766431D01*
X129652000Y-104817440D01*
X130952000Y-104817440D01*
X131187317Y-104773162D01*
X131403441Y-104634090D01*
X131548431Y-104421890D01*
X131599440Y-104170000D01*
X131599440Y-103470000D01*
X131555162Y-103234683D01*
X131416090Y-103018559D01*
X131203890Y-102873569D01*
X130952000Y-102822560D01*
X129652000Y-102822560D01*
X129416683Y-102866838D01*
X129218193Y-102994563D01*
X129140856Y-102917226D01*
X129184440Y-102702000D01*
X129184440Y-100602000D01*
X129140162Y-100366683D01*
X129001090Y-100150559D01*
X128788890Y-100005569D01*
X128537000Y-99954560D01*
X126987000Y-99954560D01*
X126751683Y-99998838D01*
X126535559Y-100137910D01*
X126493016Y-100200174D01*
X126461090Y-100150559D01*
X126248890Y-100005569D01*
X125997000Y-99954560D01*
X124447000Y-99954560D01*
X124211683Y-99998838D01*
X123995559Y-100137910D01*
X123850569Y-100350110D01*
X123799560Y-100602000D01*
X123799560Y-101745362D01*
X123614722Y-101930200D01*
X122581951Y-101930200D01*
X122545162Y-101734683D01*
X122406090Y-101518559D01*
X122193890Y-101373569D01*
X121942000Y-101322560D01*
X118342000Y-101322560D01*
X118106683Y-101366838D01*
X117890559Y-101505910D01*
X117745569Y-101718110D01*
X117702620Y-101930200D01*
X117602000Y-101930200D01*
X117242354Y-102001738D01*
X116937461Y-102205461D01*
X116175461Y-102967461D01*
X115971738Y-103272354D01*
X115900200Y-103632000D01*
X115900200Y-112014000D01*
X115971738Y-112373646D01*
X116175461Y-112678539D01*
X117388725Y-113891803D01*
X117301200Y-114022793D01*
X117195536Y-114554000D01*
X117301200Y-115085207D01*
X117602104Y-115535542D01*
X118033812Y-115824000D01*
X117602104Y-116112458D01*
X117301200Y-116562793D01*
X117195536Y-117094000D01*
X117301200Y-117625207D01*
X117602104Y-118075542D01*
X118052439Y-118376446D01*
X118583646Y-118482110D01*
X120176354Y-118482110D01*
X120707561Y-118376446D01*
X121157896Y-118075542D01*
X121458800Y-117625207D01*
X121564464Y-117094000D01*
X121458800Y-116562793D01*
X121157896Y-116112458D01*
X120726188Y-115824000D01*
X121157896Y-115535542D01*
X121458800Y-115085207D01*
X121564464Y-114554000D01*
X121491486Y-114187116D01*
X122270185Y-114965816D01*
X122369927Y-115032461D01*
X122517395Y-115130996D01*
X122809000Y-115189000D01*
X123204498Y-115189000D01*
X123162320Y-115397280D01*
X123162320Y-115996720D01*
X123206598Y-116232037D01*
X123345670Y-116448161D01*
X123557870Y-116593151D01*
X123809760Y-116644160D01*
X123969780Y-116644160D01*
X123969780Y-116654580D01*
X124041318Y-117014226D01*
X124245041Y-117319119D01*
X127067922Y-120142000D01*
X114554000Y-120142000D01*
X114554000Y-97536000D01*
X148590000Y-97536000D01*
X148590000Y-99000922D01*
G36*
X132695648Y-114505200D02*
X132622458Y-114554104D01*
X132321554Y-115004439D01*
X132215890Y-115535646D01*
X132215890Y-117128354D01*
X132321554Y-117659561D01*
X132435839Y-117830600D01*
X131517152Y-117830600D01*
X130893820Y-117207268D01*
X130893820Y-116644160D01*
X131206240Y-116644160D01*
X131441557Y-116599882D01*
X131657681Y-116460810D01*
X131802671Y-116248610D01*
X131853680Y-115996720D01*
X131853680Y-115397280D01*
X131809402Y-115161963D01*
X131670330Y-114945839D01*
X131458130Y-114800849D01*
X131206240Y-114749840D01*
X129006600Y-114749840D01*
X128771283Y-114794118D01*
X128636670Y-114880739D01*
X128676400Y-114681000D01*
X128676400Y-114118152D01*
X128746803Y-114047749D01*
X128754710Y-114053151D01*
X129006600Y-114104160D01*
X131206240Y-114104160D01*
X131441557Y-114059882D01*
X131657681Y-113920810D01*
X131802671Y-113708610D01*
X131818903Y-113628455D01*
X132695648Y-114505200D01*
X132695648Y-114505200D01*
G37*
X132695648Y-114505200D02*
X132622458Y-114554104D01*
X132321554Y-115004439D01*
X132215890Y-115535646D01*
X132215890Y-117128354D01*
X132321554Y-117659561D01*
X132435839Y-117830600D01*
X131517152Y-117830600D01*
X130893820Y-117207268D01*
X130893820Y-116644160D01*
X131206240Y-116644160D01*
X131441557Y-116599882D01*
X131657681Y-116460810D01*
X131802671Y-116248610D01*
X131853680Y-115996720D01*
X131853680Y-115397280D01*
X131809402Y-115161963D01*
X131670330Y-114945839D01*
X131458130Y-114800849D01*
X131206240Y-114749840D01*
X129006600Y-114749840D01*
X128771283Y-114794118D01*
X128636670Y-114880739D01*
X128676400Y-114681000D01*
X128676400Y-114118152D01*
X128746803Y-114047749D01*
X128754710Y-114053151D01*
X129006600Y-114104160D01*
X131206240Y-114104160D01*
X131441557Y-114059882D01*
X131657681Y-113920810D01*
X131802671Y-113708610D01*
X131818903Y-113628455D01*
X132695648Y-114505200D01*
G36*
X136201682Y-106817000D02*
X136257250Y-106817000D01*
X136271000Y-106819735D01*
X136271000Y-107823000D01*
X132207000Y-107823000D01*
X132207000Y-107061000D01*
X135890000Y-107061000D01*
X135939410Y-107050994D01*
X135981035Y-107022553D01*
X136008315Y-106980159D01*
X136017000Y-106934000D01*
X136017000Y-106780264D01*
X136201682Y-106817000D01*
X136201682Y-106817000D01*
G37*
X136201682Y-106817000D02*
X136257250Y-106817000D01*
X136271000Y-106819735D01*
X136271000Y-107823000D01*
X132207000Y-107823000D01*
X132207000Y-107061000D01*
X135890000Y-107061000D01*
X135939410Y-107050994D01*
X135981035Y-107022553D01*
X136008315Y-106980159D01*
X136017000Y-106934000D01*
X136017000Y-106780264D01*
X136201682Y-106817000D01*
M02*
