G04 #@! TF.FileFunction,Legend,Bot*
%FSLAX46Y46*%
G04 Gerber Fmt 4.6, Leading zero omitted, Abs format (unit mm)*
G04 Created by KiCad (PCBNEW 4.0.4-stable) date 11/12/16 20:40:28*
%MOMM*%
%LPD*%
G01*
G04 APERTURE LIST*
%ADD10C,0.100000*%
%ADD11C,0.010000*%
G04 APERTURE END LIST*
D10*
D11*
G36*
X129535246Y-101076505D02*
X129524761Y-101094923D01*
X129508030Y-101124867D01*
X129485392Y-101165720D01*
X129457182Y-101216866D01*
X129423739Y-101277688D01*
X129385400Y-101347570D01*
X129342501Y-101425896D01*
X129295381Y-101512048D01*
X129244377Y-101605412D01*
X129189826Y-101705370D01*
X129132065Y-101811305D01*
X129071431Y-101922603D01*
X129008263Y-102038645D01*
X128942897Y-102158817D01*
X128875671Y-102282501D01*
X128868950Y-102294871D01*
X128801526Y-102418949D01*
X128735925Y-102539629D01*
X128672485Y-102656291D01*
X128611542Y-102768314D01*
X128553437Y-102875079D01*
X128498505Y-102975965D01*
X128447086Y-103070353D01*
X128399519Y-103157622D01*
X128356139Y-103237152D01*
X128317287Y-103308324D01*
X128283300Y-103370518D01*
X128254516Y-103423112D01*
X128231273Y-103465488D01*
X128213909Y-103497024D01*
X128202763Y-103517102D01*
X128198172Y-103525101D01*
X128198091Y-103525208D01*
X128188915Y-103529381D01*
X128169202Y-103535597D01*
X128142582Y-103542752D01*
X128131501Y-103545466D01*
X128052548Y-103565485D01*
X127963518Y-103590121D01*
X127867703Y-103618338D01*
X127768394Y-103649100D01*
X127668882Y-103681369D01*
X127572459Y-103714110D01*
X127482415Y-103746287D01*
X127424543Y-103768074D01*
X127158822Y-103878410D01*
X126899232Y-104001714D01*
X126646252Y-104137584D01*
X126400361Y-104285619D01*
X126162038Y-104445418D01*
X125931763Y-104616580D01*
X125710016Y-104798704D01*
X125497275Y-104991387D01*
X125294020Y-105194230D01*
X125100731Y-105406830D01*
X124917886Y-105628787D01*
X124745965Y-105859699D01*
X124585447Y-106099165D01*
X124526613Y-106193845D01*
X124466993Y-106291891D01*
X123140883Y-106497791D01*
X123003715Y-106519088D01*
X122870215Y-106539816D01*
X122741103Y-106559861D01*
X122617105Y-106579112D01*
X122498941Y-106597457D01*
X122387335Y-106614784D01*
X122283011Y-106630979D01*
X122186690Y-106645932D01*
X122099095Y-106659529D01*
X122020950Y-106671659D01*
X121952978Y-106682209D01*
X121895901Y-106691067D01*
X121850441Y-106698121D01*
X121817323Y-106703259D01*
X121797268Y-106706368D01*
X121791186Y-106707309D01*
X121775148Y-106711362D01*
X121767671Y-106716389D01*
X121767600Y-106716860D01*
X121772724Y-106722447D01*
X121787755Y-106737640D01*
X121812181Y-106761941D01*
X121845491Y-106794848D01*
X121887175Y-106835864D01*
X121936721Y-106884486D01*
X121993619Y-106940218D01*
X122057356Y-107002557D01*
X122127422Y-107071006D01*
X122203306Y-107145064D01*
X122284496Y-107224231D01*
X122370482Y-107308009D01*
X122460752Y-107395896D01*
X122554796Y-107487395D01*
X122652102Y-107582004D01*
X122737290Y-107664781D01*
X123706979Y-108606771D01*
X123702495Y-108661200D01*
X123700058Y-108690019D01*
X123696731Y-108728311D01*
X123692952Y-108771094D01*
X123689157Y-108813388D01*
X123689137Y-108813600D01*
X123686598Y-108850822D01*
X123684474Y-108900431D01*
X123682764Y-108960305D01*
X123681466Y-109028324D01*
X123680581Y-109102364D01*
X123680107Y-109180306D01*
X123680044Y-109260027D01*
X123680390Y-109339406D01*
X123681146Y-109416321D01*
X123682309Y-109488651D01*
X123683880Y-109554275D01*
X123685858Y-109611071D01*
X123688242Y-109656917D01*
X123689460Y-109673571D01*
X123717654Y-109949394D01*
X123756038Y-110216204D01*
X123805000Y-110475695D01*
X123864929Y-110729559D01*
X123936213Y-110979490D01*
X124019241Y-111227180D01*
X124087053Y-111406448D01*
X124199163Y-111670260D01*
X124323835Y-111927355D01*
X124461272Y-112178074D01*
X124611681Y-112422762D01*
X124775265Y-112661762D01*
X124952231Y-112895416D01*
X125042899Y-113006868D01*
X125129339Y-113110737D01*
X124931409Y-114478317D01*
X124911304Y-114617413D01*
X124891808Y-114752662D01*
X124873018Y-114883364D01*
X124855033Y-115008819D01*
X124837953Y-115128329D01*
X124821875Y-115241193D01*
X124806898Y-115346711D01*
X124793122Y-115444184D01*
X124780644Y-115532912D01*
X124769563Y-115612195D01*
X124759979Y-115681333D01*
X124751989Y-115739627D01*
X124745692Y-115786376D01*
X124741188Y-115820881D01*
X124738574Y-115842443D01*
X124737949Y-115850361D01*
X124737961Y-115850380D01*
X124744655Y-115847355D01*
X124763373Y-115837572D01*
X124793486Y-115821379D01*
X124834364Y-115799126D01*
X124885377Y-115771162D01*
X124945894Y-115737837D01*
X125015287Y-115699499D01*
X125092925Y-115656497D01*
X125178177Y-115609181D01*
X125270415Y-115557900D01*
X125369007Y-115503004D01*
X125473325Y-115444840D01*
X125582737Y-115383760D01*
X125696615Y-115320111D01*
X125814328Y-115254243D01*
X125898401Y-115207153D01*
X127054359Y-114559445D01*
X127083423Y-114570643D01*
X127100477Y-114577569D01*
X127127556Y-114588978D01*
X127161411Y-114603483D01*
X127198793Y-114619700D01*
X127213102Y-114625959D01*
X127456937Y-114725574D01*
X127709370Y-114814567D01*
X127968624Y-114892465D01*
X128232923Y-114958800D01*
X128500492Y-115013098D01*
X128769554Y-115054891D01*
X128883229Y-115068674D01*
X128964488Y-115077355D01*
X129038557Y-115084437D01*
X129108334Y-115090064D01*
X129176715Y-115094379D01*
X129246597Y-115097527D01*
X129320878Y-115099650D01*
X129402454Y-115100893D01*
X129494223Y-115101399D01*
X129543629Y-115101422D01*
X129637585Y-115101099D01*
X129719966Y-115100209D01*
X129793704Y-115098614D01*
X129861731Y-115096175D01*
X129926981Y-115092755D01*
X129992385Y-115088217D01*
X130060877Y-115082423D01*
X130135389Y-115075234D01*
X130164115Y-115072293D01*
X130408631Y-115041171D01*
X130655828Y-114998478D01*
X130903315Y-114944853D01*
X131148704Y-114880936D01*
X131389605Y-114807365D01*
X131623629Y-114724779D01*
X131848386Y-114633818D01*
X131916443Y-114603731D01*
X131950818Y-114588462D01*
X131955931Y-114586271D01*
X130176153Y-114586271D01*
X130165362Y-114594977D01*
X130146618Y-114597543D01*
X130131448Y-114596224D01*
X130120516Y-114590173D01*
X130109910Y-114576249D01*
X130101033Y-114560940D01*
X130080658Y-114524337D01*
X130015343Y-114529199D01*
X129985874Y-114531647D01*
X129962129Y-114534098D01*
X129947670Y-114536162D01*
X129945116Y-114536874D01*
X129939941Y-114544997D01*
X129933221Y-114561656D01*
X129931498Y-114566801D01*
X129922886Y-114588062D01*
X129913100Y-114604888D01*
X129911701Y-114606614D01*
X129897474Y-114615627D01*
X129879255Y-114618996D01*
X129862970Y-114616452D01*
X129854980Y-114609206D01*
X129855775Y-114599184D01*
X129860445Y-114577906D01*
X129868338Y-114547901D01*
X129869857Y-114542642D01*
X129691307Y-114542642D01*
X129690262Y-114560838D01*
X129689737Y-114563625D01*
X129680610Y-114578240D01*
X129662204Y-114595254D01*
X129638659Y-114611543D01*
X129614118Y-114623984D01*
X129605799Y-114626931D01*
X129569233Y-114632992D01*
X129528658Y-114631929D01*
X129491064Y-114624199D01*
X129476578Y-114618473D01*
X129457210Y-114609661D01*
X129446297Y-114607269D01*
X129439442Y-114610975D01*
X129435829Y-114615467D01*
X129420235Y-114624937D01*
X129405385Y-114625380D01*
X129383972Y-114622943D01*
X129385763Y-114456311D01*
X129386524Y-114399002D01*
X129220686Y-114399002D01*
X129219679Y-114413650D01*
X129215942Y-114428638D01*
X129208402Y-114445813D01*
X129195984Y-114467018D01*
X129177615Y-114494099D01*
X129152221Y-114528901D01*
X129120965Y-114570329D01*
X129103807Y-114592090D01*
X129091236Y-114604587D01*
X129079407Y-114610373D01*
X129064476Y-114611999D01*
X129058101Y-114612057D01*
X129029457Y-114608014D01*
X129015133Y-114598952D01*
X129007736Y-114587718D01*
X128995813Y-114566159D01*
X128980876Y-114537148D01*
X128964439Y-114503556D01*
X128960631Y-114495537D01*
X128942681Y-114456592D01*
X128930668Y-114427857D01*
X128923720Y-114406726D01*
X128920962Y-114390592D01*
X128921330Y-114378269D01*
X128922882Y-114372359D01*
X128758871Y-114372359D01*
X128750212Y-114437398D01*
X128745834Y-114467845D01*
X128741526Y-114493695D01*
X128737989Y-114510891D01*
X128736905Y-114514547D01*
X128727775Y-114524241D01*
X128709497Y-114536092D01*
X128686719Y-114547753D01*
X128664088Y-114556877D01*
X128646255Y-114561116D01*
X128644550Y-114561186D01*
X128632301Y-114560061D01*
X128609078Y-114556946D01*
X128578210Y-114552317D01*
X128543024Y-114546651D01*
X128542950Y-114546638D01*
X128507387Y-114540383D01*
X128475834Y-114534208D01*
X128451755Y-114528832D01*
X128438729Y-114525023D01*
X128426267Y-114514319D01*
X128422797Y-114500267D01*
X128429055Y-114488470D01*
X128433597Y-114485942D01*
X128444616Y-114485478D01*
X128466911Y-114487230D01*
X128497467Y-114490878D01*
X128533269Y-114496100D01*
X128541611Y-114497439D01*
X128580802Y-114503706D01*
X128608406Y-114507591D01*
X128627141Y-114509171D01*
X128639722Y-114508525D01*
X128648867Y-114505732D01*
X128657294Y-114500870D01*
X128657414Y-114500791D01*
X128670628Y-114490874D01*
X128675725Y-114482817D01*
X128671542Y-114475973D01*
X128656916Y-114469695D01*
X128630682Y-114463336D01*
X128591677Y-114456250D01*
X128571306Y-114452917D01*
X128533082Y-114446336D01*
X128499374Y-114439698D01*
X128473086Y-114433638D01*
X128457126Y-114428789D01*
X128454334Y-114427368D01*
X128447434Y-114419150D01*
X128445350Y-114405562D01*
X128447458Y-114382330D01*
X128447605Y-114381250D01*
X128456506Y-114345606D01*
X128473346Y-114320411D01*
X128500608Y-114302666D01*
X128518221Y-114295881D01*
X128539464Y-114289691D01*
X128558333Y-114287072D01*
X128580179Y-114287827D01*
X128610353Y-114291754D01*
X128614013Y-114292310D01*
X128652365Y-114299200D01*
X128680468Y-114307405D01*
X128702574Y-114318845D01*
X128722936Y-114335438D01*
X128733964Y-114346446D01*
X128758871Y-114372359D01*
X128922882Y-114372359D01*
X128927962Y-114353018D01*
X128940576Y-114340507D01*
X128960116Y-114339865D01*
X128962363Y-114340388D01*
X128974967Y-114345757D01*
X128980269Y-114356523D01*
X128981200Y-114372605D01*
X128983911Y-114388892D01*
X128991189Y-114412609D01*
X129001752Y-114440889D01*
X129014320Y-114470871D01*
X129027609Y-114499690D01*
X129040340Y-114524482D01*
X129051229Y-114542383D01*
X129058996Y-114550530D01*
X129060813Y-114550505D01*
X129070797Y-114540623D01*
X129085572Y-114521610D01*
X129103125Y-114496593D01*
X129121444Y-114468699D01*
X129138515Y-114441053D01*
X129152325Y-114416782D01*
X129160862Y-114399013D01*
X129162629Y-114392379D01*
X129168317Y-114371728D01*
X129183527Y-114360829D01*
X129202449Y-114361014D01*
X129213743Y-114365575D01*
X129219101Y-114374693D01*
X129220647Y-114392788D01*
X129220686Y-114399002D01*
X129386524Y-114399002D01*
X129386530Y-114398597D01*
X129387667Y-114353869D01*
X129389521Y-114320597D01*
X129392435Y-114297252D01*
X129396754Y-114282306D01*
X129402822Y-114274228D01*
X129410986Y-114271491D01*
X129421588Y-114272565D01*
X129426901Y-114273797D01*
X129436224Y-114276858D01*
X129441799Y-114282400D01*
X129444587Y-114293638D01*
X129445552Y-114313787D01*
X129445658Y-114336424D01*
X129446335Y-114363349D01*
X129448134Y-114383613D01*
X129450708Y-114393775D01*
X129451528Y-114394343D01*
X129461325Y-114390381D01*
X129471485Y-114383688D01*
X129487996Y-114377339D01*
X129514333Y-114373582D01*
X129546043Y-114372399D01*
X129578674Y-114373773D01*
X129607773Y-114377686D01*
X129628888Y-114384120D01*
X129629261Y-114384306D01*
X129654268Y-114398457D01*
X129670612Y-114413027D01*
X129680520Y-114431786D01*
X129686215Y-114458503D01*
X129689020Y-114485551D01*
X129690879Y-114515974D01*
X129691307Y-114542642D01*
X129869857Y-114542642D01*
X129878800Y-114511701D01*
X129887305Y-114484020D01*
X129901285Y-114439369D01*
X129915431Y-114393818D01*
X129928420Y-114351651D01*
X129938928Y-114317155D01*
X129942419Y-114305529D01*
X129952069Y-114274775D01*
X129959797Y-114255279D01*
X129962285Y-114251538D01*
X128305005Y-114251538D01*
X128304075Y-114264332D01*
X128300315Y-114287900D01*
X128294433Y-114318942D01*
X128287140Y-114354154D01*
X128279145Y-114390236D01*
X128271158Y-114423886D01*
X128263889Y-114451804D01*
X128258048Y-114470686D01*
X128257682Y-114471660D01*
X128247923Y-114479186D01*
X128230095Y-114481295D01*
X128209827Y-114477367D01*
X128208908Y-114477023D01*
X128201508Y-114471470D01*
X128198352Y-114460656D01*
X128199568Y-114442438D01*
X128205289Y-114414672D01*
X128214936Y-114377778D01*
X128232444Y-114314145D01*
X128187840Y-114278054D01*
X128152804Y-114253411D01*
X128121771Y-114238933D01*
X128096376Y-114235217D01*
X128082376Y-114239617D01*
X128075896Y-114248922D01*
X128066385Y-114269137D01*
X128055109Y-114297309D01*
X128043335Y-114330483D01*
X128043037Y-114331376D01*
X128030583Y-114367713D01*
X128021031Y-114392455D01*
X128013182Y-114407931D01*
X128005838Y-114416469D01*
X127997802Y-114420398D01*
X127997154Y-114420568D01*
X127976565Y-114419808D01*
X127962318Y-114408084D01*
X127958006Y-114391640D01*
X127960694Y-114375123D01*
X127967823Y-114349591D01*
X127978122Y-114318415D01*
X127990320Y-114284965D01*
X128003146Y-114252614D01*
X128015328Y-114224731D01*
X128025596Y-114204689D01*
X128031553Y-114196586D01*
X128054840Y-114185654D01*
X128086232Y-114182914D01*
X128122291Y-114187759D01*
X128159577Y-114199584D01*
X128194651Y-114217781D01*
X128208692Y-114227805D01*
X128228324Y-114242939D01*
X128239801Y-114249864D01*
X128246197Y-114249566D01*
X128250587Y-114243028D01*
X128251315Y-114241454D01*
X128260895Y-114230669D01*
X128278313Y-114228700D01*
X128280344Y-114228878D01*
X128296724Y-114232929D01*
X128303677Y-114243659D01*
X128305005Y-114251538D01*
X129962285Y-114251538D01*
X129967162Y-114244209D01*
X129975723Y-114238731D01*
X129979879Y-114237460D01*
X129999459Y-114237575D01*
X130007746Y-114242816D01*
X130015483Y-114254116D01*
X130027853Y-114275690D01*
X130043808Y-114305402D01*
X130062299Y-114341116D01*
X130082281Y-114380695D01*
X130102705Y-114422004D01*
X130122524Y-114462906D01*
X130140690Y-114501265D01*
X130156157Y-114534945D01*
X130167876Y-114561809D01*
X130174801Y-114579723D01*
X130176153Y-114586271D01*
X131955931Y-114586271D01*
X131980768Y-114575628D01*
X132003676Y-114566316D01*
X132016925Y-114561613D01*
X132018784Y-114561257D01*
X132025878Y-114564750D01*
X132044995Y-114574993D01*
X132075503Y-114591634D01*
X132116766Y-114614320D01*
X132168152Y-114642698D01*
X132229026Y-114676417D01*
X132298755Y-114715124D01*
X132376705Y-114758465D01*
X132462242Y-114806088D01*
X132554731Y-114857641D01*
X132653541Y-114912772D01*
X132758036Y-114971127D01*
X132867583Y-115032354D01*
X132981547Y-115096100D01*
X133099296Y-115162014D01*
X133179865Y-115207143D01*
X133299757Y-115274297D01*
X133416263Y-115339521D01*
X133528753Y-115402462D01*
X133636593Y-115462768D01*
X133739153Y-115520087D01*
X133835799Y-115574066D01*
X133925900Y-115624352D01*
X134008823Y-115670595D01*
X134083937Y-115712440D01*
X134150609Y-115749536D01*
X134208207Y-115781531D01*
X134256099Y-115808071D01*
X134293654Y-115828805D01*
X134320238Y-115843380D01*
X134335220Y-115851444D01*
X134338453Y-115853029D01*
X134343983Y-115847384D01*
X134344229Y-115845100D01*
X134343014Y-115837240D01*
X134339449Y-115815786D01*
X134333657Y-115781446D01*
X134325758Y-115734928D01*
X134315874Y-115676941D01*
X134304126Y-115608193D01*
X134290637Y-115529391D01*
X134275527Y-115441245D01*
X134258918Y-115344463D01*
X134240931Y-115239752D01*
X134221688Y-115127822D01*
X134201310Y-115009379D01*
X134179919Y-114885134D01*
X134157636Y-114755793D01*
X134134583Y-114622065D01*
X134115158Y-114509449D01*
X134071195Y-114254625D01*
X131542972Y-114254625D01*
X131541603Y-114264383D01*
X131536222Y-114272914D01*
X131524919Y-114281291D01*
X131505785Y-114290589D01*
X131476910Y-114301885D01*
X131436384Y-114316253D01*
X131428898Y-114318837D01*
X131389482Y-114332341D01*
X131361409Y-114341593D01*
X131342310Y-114347110D01*
X131329820Y-114349408D01*
X131321572Y-114349004D01*
X131315199Y-114346414D01*
X131311844Y-114344376D01*
X131308286Y-114339735D01*
X131092351Y-114339735D01*
X131089784Y-114353678D01*
X131081670Y-114367743D01*
X131066028Y-114386485D01*
X131060194Y-114393008D01*
X131036989Y-114417180D01*
X131015653Y-114434431D01*
X130991957Y-114447104D01*
X130961678Y-114457543D01*
X130928015Y-114466311D01*
X130879700Y-114476464D01*
X130844383Y-114480390D01*
X130821952Y-114478092D01*
X130812589Y-114470450D01*
X130811430Y-114459366D01*
X130818388Y-114449862D01*
X130835098Y-114441023D01*
X130863196Y-114431935D01*
X130896546Y-114423499D01*
X130930598Y-114415037D01*
X130954259Y-114407594D01*
X130971376Y-114399377D01*
X130985796Y-114388596D01*
X130999157Y-114375720D01*
X131016007Y-114357619D01*
X131024336Y-114344441D01*
X131026240Y-114331211D01*
X131024328Y-114315943D01*
X131017788Y-114289645D01*
X131006730Y-114272796D01*
X130987714Y-114262096D01*
X130960741Y-114254954D01*
X130939397Y-114251195D01*
X130920500Y-114250199D01*
X130899499Y-114252295D01*
X130871844Y-114257813D01*
X130849873Y-114262974D01*
X130816002Y-114270663D01*
X130793311Y-114274444D01*
X130779077Y-114274584D01*
X130770580Y-114271349D01*
X130769889Y-114270808D01*
X130759981Y-114256185D01*
X130764010Y-114242486D01*
X130775529Y-114234700D01*
X130799283Y-114226503D01*
X130831462Y-114217829D01*
X130867210Y-114209725D01*
X130901673Y-114203237D01*
X130929995Y-114199414D01*
X130941838Y-114198831D01*
X130966262Y-114201689D01*
X130996199Y-114208605D01*
X131016829Y-114215160D01*
X131042488Y-114225709D01*
X131058553Y-114236344D01*
X131069540Y-114250551D01*
X131074255Y-114259497D01*
X131083962Y-114285739D01*
X131090566Y-114315021D01*
X131091350Y-114321360D01*
X131092351Y-114339735D01*
X131308286Y-114339735D01*
X131303190Y-114333091D01*
X131307579Y-114319945D01*
X131323940Y-114306474D01*
X131345253Y-114296371D01*
X131368076Y-114286286D01*
X131378469Y-114277757D01*
X131378969Y-114270971D01*
X131375000Y-114260199D01*
X131367320Y-114238776D01*
X131357016Y-114209750D01*
X131345174Y-114176170D01*
X131344519Y-114174306D01*
X131331250Y-114136258D01*
X131329650Y-114130765D01*
X127861885Y-114130765D01*
X127860964Y-114143733D01*
X127853514Y-114149917D01*
X127839136Y-114150983D01*
X127820571Y-114147747D01*
X127804534Y-114144738D01*
X127795876Y-114146107D01*
X127795731Y-114146320D01*
X127792436Y-114154880D01*
X127785720Y-114174096D01*
X127776668Y-114200827D01*
X127769438Y-114222576D01*
X127757744Y-114256396D01*
X127748178Y-114279221D01*
X127739097Y-114294072D01*
X127728860Y-114303972D01*
X127723105Y-114307820D01*
X127701292Y-114317767D01*
X127677542Y-114320715D01*
X127648432Y-114316545D01*
X127610537Y-114305140D01*
X127606707Y-114303800D01*
X127563758Y-114284838D01*
X127533233Y-114262900D01*
X127515984Y-114238667D01*
X127513094Y-114229033D01*
X127511762Y-114206618D01*
X127519339Y-114194906D01*
X127536963Y-114192338D01*
X127539759Y-114192566D01*
X127557159Y-114197432D01*
X127569271Y-114210556D01*
X127574554Y-114220666D01*
X127583402Y-114235901D01*
X127595297Y-114246241D01*
X127614560Y-114254693D01*
X127631040Y-114259985D01*
X127657250Y-114266626D01*
X127675252Y-114268533D01*
X127681415Y-114266748D01*
X127686208Y-114257483D01*
X127694189Y-114238266D01*
X127703958Y-114212916D01*
X127714116Y-114185252D01*
X127723266Y-114159093D01*
X127730007Y-114138257D01*
X127732942Y-114126562D01*
X127732972Y-114126012D01*
X127726756Y-114120019D01*
X127711284Y-114112896D01*
X127705758Y-114110997D01*
X127663723Y-114096429D01*
X127634648Y-114083515D01*
X127617179Y-114071481D01*
X127609967Y-114059555D01*
X127609600Y-114055992D01*
X127614015Y-114043579D01*
X127627840Y-114038829D01*
X127651943Y-114041755D01*
X127687194Y-114052372D01*
X127701081Y-114057437D01*
X127725331Y-114065719D01*
X127743624Y-114070370D01*
X127752468Y-114070534D01*
X127752757Y-114070137D01*
X127766595Y-114039242D01*
X127782990Y-114019273D01*
X127800492Y-114011270D01*
X127817650Y-114016273D01*
X127822308Y-114020258D01*
X127828915Y-114029564D01*
X127829605Y-114041690D01*
X127824657Y-114061926D01*
X127824525Y-114062373D01*
X127819385Y-114081651D01*
X127820045Y-114092205D01*
X127828140Y-114099215D01*
X127837699Y-114104096D01*
X127853661Y-114116192D01*
X127861885Y-114130765D01*
X131329650Y-114130765D01*
X131323412Y-114109365D01*
X131322024Y-114090957D01*
X131328103Y-114078364D01*
X131342668Y-114068913D01*
X131366736Y-114059935D01*
X131391104Y-114052076D01*
X131424651Y-114042964D01*
X131446951Y-114041250D01*
X131459338Y-114047090D01*
X131463143Y-114060544D01*
X131458613Y-114072277D01*
X131443470Y-114083328D01*
X131428821Y-114090257D01*
X131408841Y-114099085D01*
X131395226Y-114105596D01*
X131391913Y-114107554D01*
X131393227Y-114114971D01*
X131398782Y-114133066D01*
X131407643Y-114158956D01*
X131416684Y-114183889D01*
X131428892Y-114216289D01*
X131437681Y-114237269D01*
X131444538Y-114249070D01*
X131450948Y-114253931D01*
X131458399Y-114254095D01*
X131462663Y-114253191D01*
X131482051Y-114249281D01*
X131506567Y-114245209D01*
X131512129Y-114244399D01*
X131531498Y-114242440D01*
X131540488Y-114244688D01*
X131542931Y-114252415D01*
X131542972Y-114254625D01*
X134071195Y-114254625D01*
X134038504Y-114065142D01*
X131942088Y-114065142D01*
X131935143Y-114090416D01*
X131915684Y-114115129D01*
X131885621Y-114137125D01*
X131871957Y-114144254D01*
X131827669Y-114163379D01*
X131792729Y-114173875D01*
X131765009Y-114176001D01*
X131742384Y-114170014D01*
X131729008Y-114161587D01*
X131713431Y-114145240D01*
X131711951Y-114130783D01*
X131724554Y-114116700D01*
X131728615Y-114113892D01*
X131742721Y-114106091D01*
X131753931Y-114106493D01*
X131767922Y-114113776D01*
X131786671Y-114121664D01*
X131804417Y-114119757D01*
X131808955Y-114118154D01*
X131845782Y-114102581D01*
X131868352Y-114089272D01*
X131876739Y-114078185D01*
X131876800Y-114077259D01*
X131874030Y-114067249D01*
X131866736Y-114048370D01*
X131856441Y-114024007D01*
X131844672Y-113997541D01*
X131841564Y-113990862D01*
X131376058Y-113990862D01*
X131369811Y-114003445D01*
X131354059Y-114013812D01*
X131333286Y-114020873D01*
X131311974Y-114023536D01*
X131294607Y-114020711D01*
X131286120Y-114012749D01*
X131281081Y-113987344D01*
X131287894Y-113970697D01*
X127428172Y-113970697D01*
X127424843Y-113984356D01*
X127415924Y-114007362D01*
X127403017Y-114036468D01*
X127387725Y-114068430D01*
X127371651Y-114100001D01*
X127356396Y-114127937D01*
X127343563Y-114148991D01*
X127334755Y-114159918D01*
X127334744Y-114159926D01*
X127314604Y-114167491D01*
X127285959Y-114168313D01*
X127253005Y-114162680D01*
X127223136Y-114152329D01*
X127186865Y-114130638D01*
X127154332Y-114100900D01*
X127154222Y-114100775D01*
X127137365Y-114082306D01*
X127126723Y-114073434D01*
X127119305Y-114072535D01*
X127112203Y-114077903D01*
X127100024Y-114087197D01*
X127093348Y-114089543D01*
X127076101Y-114084402D01*
X127062441Y-114072240D01*
X127058058Y-114060327D01*
X127061308Y-114047363D01*
X127070110Y-114025248D01*
X127083044Y-113996745D01*
X127098689Y-113964613D01*
X127115624Y-113931616D01*
X127132428Y-113900515D01*
X127147679Y-113874070D01*
X127159957Y-113855043D01*
X127167842Y-113846197D01*
X127168358Y-113845970D01*
X127186783Y-113846215D01*
X127202485Y-113855917D01*
X127210005Y-113871423D01*
X127210093Y-113873898D01*
X127206731Y-113887219D01*
X127198024Y-113909517D01*
X127185524Y-113937000D01*
X127178269Y-113951633D01*
X127146809Y-114013295D01*
X127183890Y-114056098D01*
X127216482Y-114088667D01*
X127247455Y-114109778D01*
X127275261Y-114118414D01*
X127279111Y-114118571D01*
X127287152Y-114112089D01*
X127300025Y-114093477D01*
X127316944Y-114063988D01*
X127333829Y-114031486D01*
X127353322Y-113993709D01*
X127368169Y-113967749D01*
X127379390Y-113952061D01*
X127388006Y-113945098D01*
X127391349Y-113944400D01*
X127414831Y-113948418D01*
X127426571Y-113960666D01*
X127428172Y-113970697D01*
X131287894Y-113970697D01*
X131288450Y-113969340D01*
X131304569Y-113959624D01*
X131335999Y-113952750D01*
X131358850Y-113956652D01*
X131372397Y-113971013D01*
X131376058Y-113990862D01*
X131841564Y-113990862D01*
X131832951Y-113972355D01*
X131822803Y-113951834D01*
X131815753Y-113939359D01*
X131813664Y-113937143D01*
X131806045Y-113939783D01*
X131788572Y-113946772D01*
X131764719Y-113956712D01*
X131759529Y-113958914D01*
X131722567Y-113973147D01*
X131696362Y-113979528D01*
X131679560Y-113978210D01*
X131670808Y-113969344D01*
X131670623Y-113968880D01*
X131669225Y-113957614D01*
X131675673Y-113947304D01*
X131691810Y-113936396D01*
X131719480Y-113923334D01*
X131729820Y-113918965D01*
X131754789Y-113908167D01*
X131774611Y-113898827D01*
X131785292Y-113892834D01*
X131785651Y-113892540D01*
X131787436Y-113881945D01*
X131781242Y-113862990D01*
X131780208Y-113860769D01*
X131770993Y-113839545D01*
X131769223Y-113826528D01*
X131775329Y-113817220D01*
X131785064Y-113810145D01*
X131803449Y-113802623D01*
X131818584Y-113807603D01*
X131832207Y-113825934D01*
X131836849Y-113835459D01*
X131845728Y-113852871D01*
X131853566Y-113859421D01*
X131864306Y-113857880D01*
X131867259Y-113856803D01*
X131893187Y-113850509D01*
X131911147Y-113853768D01*
X131918153Y-113862073D01*
X131916196Y-113874825D01*
X131904772Y-113889077D01*
X131887706Y-113900503D01*
X131882276Y-113902660D01*
X131880677Y-113910109D01*
X131886322Y-113929206D01*
X131899317Y-113960266D01*
X131907773Y-113978617D01*
X131921721Y-114009447D01*
X131932938Y-114036483D01*
X131940122Y-114056437D01*
X131942088Y-114065142D01*
X134038504Y-114065142D01*
X133989751Y-113782561D01*
X132406572Y-113782561D01*
X132402568Y-113801355D01*
X132392151Y-113827069D01*
X132377718Y-113855088D01*
X132361663Y-113880794D01*
X132346380Y-113899572D01*
X132345367Y-113900539D01*
X132328578Y-113913514D01*
X132303900Y-113929386D01*
X132274758Y-113946313D01*
X132244579Y-113962451D01*
X132216787Y-113975959D01*
X132194808Y-113984993D01*
X132183187Y-113987779D01*
X132168464Y-113983637D01*
X132162418Y-113976965D01*
X132161354Y-113966981D01*
X132167147Y-113956608D01*
X132181442Y-113944395D01*
X132205888Y-113928888D01*
X132236362Y-113911769D01*
X132272849Y-113890536D01*
X132298661Y-113871679D01*
X132316712Y-113852476D01*
X132329917Y-113830207D01*
X132334281Y-113820350D01*
X132339382Y-113804641D01*
X132338544Y-113791012D01*
X132330973Y-113773195D01*
X132327423Y-113766385D01*
X132316794Y-113748278D01*
X132306156Y-113738363D01*
X132290250Y-113733258D01*
X132271695Y-113730551D01*
X132239133Y-113729016D01*
X132215648Y-113734242D01*
X132212428Y-113735749D01*
X132196415Y-113743956D01*
X132172293Y-113756419D01*
X132144820Y-113770679D01*
X132140101Y-113773135D01*
X132106361Y-113789190D01*
X132082952Y-113796487D01*
X132068694Y-113795107D01*
X132062406Y-113785132D01*
X132061858Y-113778545D01*
X132063760Y-113770863D01*
X127014515Y-113770863D01*
X127011078Y-113780550D01*
X127001782Y-113799987D01*
X126988145Y-113826427D01*
X126971685Y-113857122D01*
X126953922Y-113889323D01*
X126936375Y-113920283D01*
X126920563Y-113947254D01*
X126908004Y-113967487D01*
X126900218Y-113978234D01*
X126899540Y-113978871D01*
X126888313Y-113986439D01*
X126878625Y-113985901D01*
X126864029Y-113976855D01*
X126863730Y-113976646D01*
X126851680Y-113964895D01*
X126847600Y-113955524D01*
X126851007Y-113945001D01*
X126860073Y-113925597D01*
X126873069Y-113900924D01*
X126877815Y-113892435D01*
X126891633Y-113867224D01*
X126902078Y-113846543D01*
X126907453Y-113833813D01*
X126907825Y-113831914D01*
X126904284Y-113822630D01*
X126895053Y-113804367D01*
X126881913Y-113780589D01*
X126877622Y-113773150D01*
X126859559Y-113744333D01*
X126844000Y-113725500D01*
X126827832Y-113713251D01*
X126818466Y-113708495D01*
X126799997Y-113700720D01*
X126788958Y-113699342D01*
X126779600Y-113704677D01*
X126772630Y-113711016D01*
X126751998Y-113724570D01*
X126733403Y-113724002D01*
X126721119Y-113715282D01*
X126711774Y-113703004D01*
X126712054Y-113691379D01*
X126722762Y-113676550D01*
X126730928Y-113668070D01*
X126755371Y-113651445D01*
X126784165Y-113646982D01*
X126818629Y-113654678D01*
X126847600Y-113667696D01*
X126884145Y-113692391D01*
X126911044Y-113723768D01*
X126924187Y-113744014D01*
X126933701Y-113759714D01*
X126936898Y-113765977D01*
X126942832Y-113766415D01*
X126954109Y-113758046D01*
X126955097Y-113757075D01*
X126967944Y-113745879D01*
X126976597Y-113741200D01*
X126976614Y-113741200D01*
X126987795Y-113745473D01*
X127001617Y-113755214D01*
X127012184Y-113765810D01*
X127014515Y-113770863D01*
X132063760Y-113770863D01*
X132064026Y-113769792D01*
X132071880Y-113760417D01*
X132087440Y-113748820D01*
X132112727Y-113733401D01*
X132134429Y-113721078D01*
X132169057Y-113702330D01*
X132195281Y-113689987D01*
X132216920Y-113682620D01*
X132237790Y-113678805D01*
X132250543Y-113677689D01*
X132291783Y-113676697D01*
X132322468Y-113680740D01*
X132346071Y-113691135D01*
X132366068Y-113709195D01*
X132379308Y-113726425D01*
X132393549Y-113749346D01*
X132403415Y-113770074D01*
X132406572Y-113782561D01*
X133989751Y-113782561D01*
X133952877Y-113568838D01*
X132824678Y-113568838D01*
X132814485Y-113591765D01*
X132793833Y-113617195D01*
X132765879Y-113642614D01*
X132733783Y-113665507D01*
X132700705Y-113683360D01*
X132669802Y-113693658D01*
X132667263Y-113694124D01*
X132647540Y-113699486D01*
X132639431Y-113707845D01*
X132638800Y-113712398D01*
X132633259Y-113726416D01*
X132622671Y-113737160D01*
X132608424Y-113746166D01*
X132599363Y-113747406D01*
X132590588Y-113742903D01*
X132583876Y-113734932D01*
X132571516Y-113717001D01*
X132555199Y-113691669D01*
X132536617Y-113661499D01*
X132534356Y-113657743D01*
X132510978Y-113617251D01*
X132495720Y-113586103D01*
X132488128Y-113561934D01*
X132487743Y-113542381D01*
X132494109Y-113525079D01*
X132505605Y-113509033D01*
X132519801Y-113495165D01*
X132541359Y-113477477D01*
X132566917Y-113458346D01*
X132593113Y-113440152D01*
X132616586Y-113425273D01*
X132633973Y-113416089D01*
X132639403Y-113414365D01*
X132658853Y-113415015D01*
X132667129Y-113422962D01*
X132664465Y-113436528D01*
X132651094Y-113454036D01*
X132631543Y-113470721D01*
X132595654Y-113497815D01*
X132568445Y-113519681D01*
X132551019Y-113535389D01*
X132544480Y-113544006D01*
X132544458Y-113544280D01*
X132548316Y-113553860D01*
X132554447Y-113563401D01*
X132559315Y-113568687D01*
X132565506Y-113570342D01*
X132575293Y-113567428D01*
X132590946Y-113559008D01*
X132614739Y-113544144D01*
X132638504Y-113528719D01*
X132669605Y-113509323D01*
X132698641Y-113492828D01*
X132722247Y-113481046D01*
X132736491Y-113475888D01*
X132766074Y-113476975D01*
X132792349Y-113489735D01*
X132812633Y-113511340D01*
X132824242Y-113538964D01*
X132824678Y-113568838D01*
X133952877Y-113568838D01*
X133903293Y-113281443D01*
X133203441Y-113281443D01*
X133198927Y-113294182D01*
X133183745Y-113313681D01*
X133159266Y-113338595D01*
X133126862Y-113367577D01*
X133087904Y-113399279D01*
X133067642Y-113414794D01*
X133039676Y-113433453D01*
X133020030Y-113440864D01*
X133007988Y-113437140D01*
X133003120Y-113424789D01*
X133007814Y-113408447D01*
X133025974Y-113387198D01*
X133030461Y-113383038D01*
X133059970Y-113356379D01*
X132965500Y-113243414D01*
X132936830Y-113208671D01*
X132911660Y-113177289D01*
X132891398Y-113151094D01*
X132877450Y-113131914D01*
X132871224Y-113121579D01*
X132871029Y-113120720D01*
X132876404Y-113110694D01*
X132890376Y-113095095D01*
X132909715Y-113076762D01*
X132931190Y-113058534D01*
X132951572Y-113043251D01*
X132967629Y-113033753D01*
X132971580Y-113032333D01*
X132988906Y-113033731D01*
X132999957Y-113045065D01*
X133001547Y-113052750D01*
X132996808Y-113059900D01*
X132984440Y-113073618D01*
X132971675Y-113086459D01*
X132941693Y-113115560D01*
X133111697Y-113312790D01*
X133145153Y-113287245D01*
X133171297Y-113270106D01*
X133189548Y-113264827D01*
X133200320Y-113271365D01*
X133203441Y-113281443D01*
X133903293Y-113281443D01*
X133886088Y-113181726D01*
X133915853Y-113147591D01*
X134076120Y-112957749D01*
X134107906Y-112917323D01*
X133560458Y-112917323D01*
X133557493Y-112941258D01*
X133550191Y-112962076D01*
X133548516Y-112964885D01*
X133528358Y-112990927D01*
X133502465Y-113018516D01*
X133474595Y-113044142D01*
X133448509Y-113064294D01*
X133431643Y-113074031D01*
X133411301Y-113084941D01*
X133402166Y-113096052D01*
X133400800Y-113104491D01*
X133397271Y-113121625D01*
X133392092Y-113130149D01*
X133380979Y-113137894D01*
X133368617Y-113138438D01*
X133353426Y-113130786D01*
X133333823Y-113113945D01*
X133308228Y-113086923D01*
X133289699Y-113065827D01*
X133263845Y-113035526D01*
X133246179Y-113013480D01*
X133235163Y-112997164D01*
X133229264Y-112984058D01*
X133226945Y-112971637D01*
X133226629Y-112962214D01*
X133227816Y-112943898D01*
X133232452Y-112927352D01*
X133242147Y-112909978D01*
X133258511Y-112889179D01*
X133283157Y-112862358D01*
X133298230Y-112846757D01*
X133326168Y-112820038D01*
X133347850Y-112803427D01*
X133362078Y-112797771D01*
X133378295Y-112800602D01*
X133384145Y-112809517D01*
X133379372Y-112825147D01*
X133363719Y-112848127D01*
X133336929Y-112879088D01*
X133323233Y-112893645D01*
X133301201Y-112917278D01*
X133288124Y-112933381D01*
X133282462Y-112944452D01*
X133282675Y-112952986D01*
X133284318Y-112956741D01*
X133292957Y-112969836D01*
X133297981Y-112974818D01*
X133305312Y-112971601D01*
X133320006Y-112959911D01*
X133339516Y-112941877D01*
X133350556Y-112930865D01*
X133386427Y-112895485D01*
X133415371Y-112870195D01*
X133439392Y-112853644D01*
X133460492Y-112844480D01*
X133480675Y-112841349D01*
X133483187Y-112841314D01*
X133514242Y-112847826D01*
X133539391Y-112865445D01*
X133555711Y-112891294D01*
X133560458Y-112917323D01*
X134107906Y-112917323D01*
X134223827Y-112769893D01*
X134333622Y-112618772D01*
X133965355Y-112618772D01*
X133960402Y-112635951D01*
X133945826Y-112660786D01*
X133921261Y-112694305D01*
X133911006Y-112707314D01*
X133883646Y-112740502D01*
X133861836Y-112764061D01*
X133843024Y-112780405D01*
X133824658Y-112791946D01*
X133818086Y-112795194D01*
X133796374Y-112804842D01*
X133778227Y-112810636D01*
X133761568Y-112811743D01*
X133744319Y-112807332D01*
X133724400Y-112796572D01*
X133699735Y-112778632D01*
X133668244Y-112752680D01*
X133630451Y-112720141D01*
X133597478Y-112690974D01*
X133568670Y-112664383D01*
X133545724Y-112642026D01*
X133530338Y-112625564D01*
X133524211Y-112616654D01*
X133524172Y-112616300D01*
X133530020Y-112595981D01*
X133544947Y-112583403D01*
X133562952Y-112581616D01*
X133577225Y-112582271D01*
X133582046Y-112575136D01*
X133582229Y-112571560D01*
X133587964Y-112543843D01*
X133603329Y-112512288D01*
X133625564Y-112480615D01*
X133651906Y-112452546D01*
X133679596Y-112431800D01*
X133689733Y-112426682D01*
X133721185Y-112415705D01*
X133747334Y-112413730D01*
X133772458Y-112421503D01*
X133800834Y-112439772D01*
X133811189Y-112447866D01*
X133836723Y-112470512D01*
X133851732Y-112491038D01*
X133857949Y-112514012D01*
X133857106Y-112544003D01*
X133854668Y-112562469D01*
X133845909Y-112588172D01*
X133828477Y-112617761D01*
X133805528Y-112647392D01*
X133780217Y-112673222D01*
X133755699Y-112691408D01*
X133744678Y-112696447D01*
X133717605Y-112705382D01*
X133742446Y-112725982D01*
X133770595Y-112743006D01*
X133797143Y-112745803D01*
X133814169Y-112739869D01*
X133823843Y-112731541D01*
X133840027Y-112714331D01*
X133860364Y-112690851D01*
X133879952Y-112666917D01*
X133904644Y-112636865D01*
X133922749Y-112617239D01*
X133935901Y-112606508D01*
X133945737Y-112603138D01*
X133947847Y-112603262D01*
X133961049Y-112608219D01*
X133965355Y-112618772D01*
X134333622Y-112618772D01*
X134360356Y-112581977D01*
X134487089Y-112391952D01*
X134605410Y-112197772D01*
X134655480Y-112107618D01*
X134197422Y-112107618D01*
X134196656Y-112122845D01*
X134194953Y-112128143D01*
X134186295Y-112143420D01*
X134173071Y-112149570D01*
X134153623Y-112146427D01*
X134126290Y-112133822D01*
X134100513Y-112118618D01*
X134045510Y-112084336D01*
X133994359Y-112109039D01*
X133957546Y-112130074D01*
X133929109Y-112152883D01*
X133910170Y-112175885D01*
X133901851Y-112197501D01*
X133905273Y-112216151D01*
X133912429Y-112224457D01*
X133922451Y-112240329D01*
X133919313Y-112261093D01*
X133915802Y-112268477D01*
X133902580Y-112280292D01*
X133884056Y-112280694D01*
X133863752Y-112269793D01*
X133860283Y-112266735D01*
X133846783Y-112244847D01*
X133844118Y-112216911D01*
X133851251Y-112185233D01*
X133867148Y-112152116D01*
X133890771Y-112119866D01*
X133921087Y-112090787D01*
X133947578Y-112072455D01*
X133969712Y-112058797D01*
X133980790Y-112049836D01*
X133982643Y-112043590D01*
X133978420Y-112038998D01*
X133967903Y-112023938D01*
X133967324Y-112005515D01*
X133975145Y-111988765D01*
X133989827Y-111978724D01*
X133997142Y-111977714D01*
X134007567Y-111981478D01*
X134027260Y-111991636D01*
X134053440Y-112006484D01*
X134083327Y-112024319D01*
X134114143Y-112043438D01*
X134143106Y-112062138D01*
X134167439Y-112078717D01*
X134184360Y-112091472D01*
X134187842Y-112094549D01*
X134197422Y-112107618D01*
X134655480Y-112107618D01*
X134716700Y-111997388D01*
X134793764Y-111847086D01*
X134861741Y-111701730D01*
X134422547Y-111701730D01*
X134420238Y-111715998D01*
X134414572Y-111732737D01*
X134404655Y-111754847D01*
X134389593Y-111785227D01*
X134377518Y-111809019D01*
X134359145Y-111844435D01*
X134341755Y-111876662D01*
X134326991Y-111902749D01*
X134316493Y-111919744D01*
X134314267Y-111922824D01*
X134298616Y-111936588D01*
X134284496Y-111938755D01*
X134274953Y-111929371D01*
X134273069Y-111922177D01*
X134275600Y-111909991D01*
X134284199Y-111888089D01*
X134297630Y-111859299D01*
X134314659Y-111826448D01*
X134315839Y-111824280D01*
X134335465Y-111787382D01*
X134348670Y-111759762D01*
X134356642Y-111738338D01*
X134360570Y-111720029D01*
X134361599Y-111705571D01*
X134360773Y-111682127D01*
X134356675Y-111670940D01*
X134352516Y-111669286D01*
X134345911Y-111675384D01*
X134334074Y-111692223D01*
X134318378Y-111717623D01*
X134300196Y-111749401D01*
X134288525Y-111770886D01*
X134269323Y-111806399D01*
X134251790Y-111837853D01*
X134237343Y-111862780D01*
X134227401Y-111878710D01*
X134224308Y-111882800D01*
X134216094Y-111888449D01*
X134205156Y-111887876D01*
X134186724Y-111880707D01*
X134184429Y-111879678D01*
X134151004Y-111859904D01*
X134130248Y-111835296D01*
X134120513Y-111803397D01*
X134119258Y-111782502D01*
X134124030Y-111745902D01*
X134136951Y-111704551D01*
X134155925Y-111662761D01*
X134178856Y-111624846D01*
X134203650Y-111595116D01*
X134215008Y-111585447D01*
X134241715Y-111566871D01*
X134262147Y-111556752D01*
X134280939Y-111554698D01*
X134302724Y-111560315D01*
X134332135Y-111573211D01*
X134336279Y-111575174D01*
X134369715Y-111591572D01*
X134392261Y-111604865D01*
X134406334Y-111617740D01*
X134414351Y-111632885D01*
X134418731Y-111652990D01*
X134420667Y-111669007D01*
X134422392Y-111687033D01*
X134422547Y-111701730D01*
X134861741Y-111701730D01*
X134914999Y-111587849D01*
X135022365Y-111326686D01*
X135048122Y-111254156D01*
X134619912Y-111254156D01*
X134616307Y-111278252D01*
X134606859Y-111310017D01*
X134593459Y-111344837D01*
X134577996Y-111378097D01*
X134562359Y-111405183D01*
X134553190Y-111417087D01*
X134526939Y-111438811D01*
X134501854Y-111446327D01*
X134486337Y-111443538D01*
X134477550Y-111433293D01*
X134475155Y-111415314D01*
X134479618Y-111395114D01*
X134481857Y-111390367D01*
X134493739Y-111379438D01*
X134509909Y-111373078D01*
X134522100Y-111368739D01*
X134531998Y-111359296D01*
X134542091Y-111341610D01*
X134551447Y-111320667D01*
X134562445Y-111292387D01*
X134566859Y-111273846D01*
X134565306Y-111262182D01*
X134564384Y-111260501D01*
X134555300Y-111253105D01*
X134537027Y-111242567D01*
X134512987Y-111230438D01*
X134486600Y-111218266D01*
X134461289Y-111207602D01*
X134440477Y-111199996D01*
X134427583Y-111196998D01*
X134425328Y-111197510D01*
X134420847Y-111205679D01*
X134412503Y-111223817D01*
X134401883Y-111248440D01*
X134398734Y-111255983D01*
X134380178Y-111296773D01*
X134364123Y-111323497D01*
X134350426Y-111336362D01*
X134342067Y-111337201D01*
X134333129Y-111327075D01*
X134332504Y-111305717D01*
X134340119Y-111273744D01*
X134354004Y-111236289D01*
X134379139Y-111175800D01*
X134347170Y-111159332D01*
X134323846Y-111143021D01*
X134314748Y-111125043D01*
X134319615Y-111104660D01*
X134324952Y-111096296D01*
X134330582Y-111089629D01*
X134337404Y-111086550D01*
X134348865Y-111087070D01*
X134368412Y-111091201D01*
X134389799Y-111096511D01*
X134401852Y-111096888D01*
X134411132Y-111088619D01*
X134418944Y-111074250D01*
X134429618Y-111056491D01*
X134440716Y-111050010D01*
X134447759Y-111050125D01*
X134459825Y-111057037D01*
X134463527Y-111073834D01*
X134459045Y-111101557D01*
X134457641Y-111106857D01*
X134456205Y-111115028D01*
X134458506Y-111121755D01*
X134466699Y-111128544D01*
X134482939Y-111136902D01*
X134509382Y-111148337D01*
X134527994Y-111156046D01*
X134565348Y-111172227D01*
X134591049Y-111186113D01*
X134607219Y-111199973D01*
X134615986Y-111216073D01*
X134619472Y-111236683D01*
X134619912Y-111254156D01*
X135048122Y-111254156D01*
X135116097Y-111062746D01*
X135196432Y-110795176D01*
X135241896Y-110611040D01*
X134835362Y-110611040D01*
X134830675Y-110634595D01*
X134830236Y-110635678D01*
X134824384Y-110647059D01*
X134816552Y-110653728D01*
X134804235Y-110655744D01*
X134784927Y-110653167D01*
X134756120Y-110646056D01*
X134727872Y-110638099D01*
X134699362Y-110630198D01*
X134676709Y-110624491D01*
X134663068Y-110621742D01*
X134660549Y-110621770D01*
X134624790Y-110669686D01*
X134598575Y-110708765D01*
X134581165Y-110740415D01*
X134571823Y-110766042D01*
X134569809Y-110787053D01*
X134570608Y-110793122D01*
X134578553Y-110801732D01*
X134598452Y-110813267D01*
X134628322Y-110826609D01*
X134634535Y-110829089D01*
X134676583Y-110845655D01*
X134707014Y-110858022D01*
X134727705Y-110867332D01*
X134740533Y-110874727D01*
X134747378Y-110881349D01*
X134750118Y-110888339D01*
X134750629Y-110896840D01*
X134750629Y-110899679D01*
X134745994Y-110923960D01*
X134732586Y-110937436D01*
X134719712Y-110939943D01*
X134707946Y-110937309D01*
X134685976Y-110930142D01*
X134656972Y-110919546D01*
X134625006Y-110906989D01*
X134592065Y-110892823D01*
X134563255Y-110878961D01*
X134541779Y-110867039D01*
X134531100Y-110859014D01*
X134520828Y-110836632D01*
X134518223Y-110805397D01*
X134522636Y-110768349D01*
X134533417Y-110728531D01*
X134549917Y-110688984D01*
X134571486Y-110652749D01*
X134576631Y-110645804D01*
X134607191Y-110606193D01*
X134591269Y-110593300D01*
X134579841Y-110579311D01*
X134580024Y-110561796D01*
X134580243Y-110560901D01*
X134584878Y-110545953D01*
X134591413Y-110536091D01*
X134602004Y-110531147D01*
X134618808Y-110530948D01*
X134643983Y-110535326D01*
X134679686Y-110544110D01*
X134705516Y-110551007D01*
X134742352Y-110560980D01*
X134774855Y-110569812D01*
X134800106Y-110576708D01*
X134815190Y-110580873D01*
X134817386Y-110581498D01*
X134830623Y-110592035D01*
X134835362Y-110611040D01*
X135241896Y-110611040D01*
X135263603Y-110523126D01*
X135317848Y-110245742D01*
X135350859Y-110020465D01*
X134960037Y-110020465D01*
X134958313Y-110044371D01*
X134954636Y-110070359D01*
X134948880Y-110104655D01*
X134941552Y-110144813D01*
X134933156Y-110188383D01*
X134924196Y-110232917D01*
X134915178Y-110275967D01*
X134906606Y-110315085D01*
X134898986Y-110347822D01*
X134892822Y-110371730D01*
X134888619Y-110384360D01*
X134887988Y-110385406D01*
X134873863Y-110394582D01*
X134859454Y-110393302D01*
X134850386Y-110382118D01*
X134850272Y-110381699D01*
X134850076Y-110368694D01*
X134852605Y-110345530D01*
X134857362Y-110316200D01*
X134860369Y-110300719D01*
X134866119Y-110271667D01*
X134870270Y-110248697D01*
X134872271Y-110234976D01*
X134872244Y-110232511D01*
X134864793Y-110230685D01*
X134845829Y-110226577D01*
X134818075Y-110220740D01*
X134784251Y-110213730D01*
X134747079Y-110206102D01*
X134709281Y-110198411D01*
X134673578Y-110191212D01*
X134642691Y-110185061D01*
X134619343Y-110180513D01*
X134606254Y-110178122D01*
X134604494Y-110177895D01*
X134600987Y-110184471D01*
X134596167Y-110201702D01*
X134591053Y-110225915D01*
X134590865Y-110226929D01*
X134581192Y-110270830D01*
X134570781Y-110301786D01*
X134559868Y-110319223D01*
X134551683Y-110323086D01*
X134537183Y-110317024D01*
X134530657Y-110298847D01*
X134532109Y-110268572D01*
X134536563Y-110245665D01*
X134541793Y-110221479D01*
X134548793Y-110186777D01*
X134556826Y-110145337D01*
X134565152Y-110100940D01*
X134569533Y-110076945D01*
X134579072Y-110026712D01*
X134587415Y-109989409D01*
X134595144Y-109963562D01*
X134602838Y-109947696D01*
X134611078Y-109940336D01*
X134620443Y-109940007D01*
X134623066Y-109940866D01*
X134631464Y-109951259D01*
X134634303Y-109974096D01*
X134631594Y-110009732D01*
X134626010Y-110044625D01*
X134622318Y-110069057D01*
X134621033Y-110087501D01*
X134622268Y-110095544D01*
X134630615Y-110098353D01*
X134650878Y-110103236D01*
X134680692Y-110109680D01*
X134717691Y-110117173D01*
X134755616Y-110124471D01*
X134806238Y-110133638D01*
X134843836Y-110139615D01*
X134869515Y-110142533D01*
X134884380Y-110142525D01*
X134889267Y-110140439D01*
X134892719Y-110129746D01*
X134897317Y-110108765D01*
X134902188Y-110081584D01*
X134903253Y-110074903D01*
X134909189Y-110044991D01*
X134916564Y-110019487D01*
X134923986Y-110003088D01*
X134924912Y-110001831D01*
X134935322Y-109991383D01*
X134944010Y-109991968D01*
X134950184Y-109996500D01*
X134957592Y-110005947D01*
X134960037Y-110020465D01*
X135350859Y-110020465D01*
X135359401Y-109962174D01*
X135385708Y-109706229D01*
X135394382Y-109576342D01*
X135399882Y-109436441D01*
X135401842Y-109314978D01*
X134023513Y-109314978D01*
X134019653Y-109468944D01*
X134010774Y-109616813D01*
X133996595Y-109762445D01*
X133976833Y-109909698D01*
X133959319Y-110016999D01*
X133908964Y-110264194D01*
X133845007Y-110506907D01*
X133767798Y-110744657D01*
X133677686Y-110976961D01*
X133575022Y-111203336D01*
X133460155Y-111423300D01*
X133333437Y-111636371D01*
X133195216Y-111842066D01*
X133045843Y-112039903D01*
X132885669Y-112229399D01*
X132715042Y-112410072D01*
X132534314Y-112581440D01*
X132343834Y-112743020D01*
X132143952Y-112894329D01*
X131935018Y-113034885D01*
X131717383Y-113164207D01*
X131648200Y-113201941D01*
X131420884Y-113315208D01*
X131188317Y-113415048D01*
X130951014Y-113501306D01*
X130709485Y-113573830D01*
X130464245Y-113632466D01*
X130215806Y-113677060D01*
X129964680Y-113707459D01*
X129957286Y-113708135D01*
X129909697Y-113712422D01*
X129869604Y-113715906D01*
X129834774Y-113718657D01*
X129802973Y-113720746D01*
X129771967Y-113722240D01*
X129739521Y-113723211D01*
X129703401Y-113723728D01*
X129661374Y-113723860D01*
X129611205Y-113723678D01*
X129550660Y-113723251D01*
X129489200Y-113722746D01*
X129406589Y-113721849D01*
X129336033Y-113720577D01*
X129275077Y-113718827D01*
X129221266Y-113716494D01*
X129172144Y-113713472D01*
X129125255Y-113709659D01*
X129082800Y-113705449D01*
X128825042Y-113670960D01*
X128572796Y-113623048D01*
X128368657Y-113572295D01*
X126586343Y-113572295D01*
X126582469Y-113583647D01*
X126572048Y-113603588D01*
X126556886Y-113628834D01*
X126546302Y-113645107D01*
X126506261Y-113704914D01*
X126453774Y-113704690D01*
X126401286Y-113704466D01*
X126315973Y-113644819D01*
X126277113Y-113616862D01*
X126249736Y-113595089D01*
X126232795Y-113578361D01*
X126225241Y-113565540D01*
X126226026Y-113555485D01*
X126229491Y-113550864D01*
X126238569Y-113546428D01*
X126252198Y-113548272D01*
X126271963Y-113557131D01*
X126299452Y-113573739D01*
X126336248Y-113598831D01*
X126342415Y-113603192D01*
X126379617Y-113628430D01*
X126408125Y-113644688D01*
X126430017Y-113652715D01*
X126447369Y-113653259D01*
X126462260Y-113647068D01*
X126462972Y-113646599D01*
X126467302Y-113643179D01*
X126468597Y-113639328D01*
X126465478Y-113633828D01*
X126456565Y-113625462D01*
X126440480Y-113613011D01*
X126415843Y-113595258D01*
X126381274Y-113570986D01*
X126362392Y-113557808D01*
X126330479Y-113534696D01*
X126305150Y-113514653D01*
X126288239Y-113499225D01*
X126281579Y-113489959D01*
X126281543Y-113489550D01*
X126285979Y-113476318D01*
X126297158Y-113457207D01*
X126311887Y-113436919D01*
X126326974Y-113420157D01*
X126331185Y-113416443D01*
X126344325Y-113411504D01*
X126366728Y-113408226D01*
X126386772Y-113407371D01*
X126413929Y-113408584D01*
X126435655Y-113413535D01*
X126458603Y-113424196D01*
X126474285Y-113433282D01*
X126499138Y-113449032D01*
X126521214Y-113464421D01*
X126534447Y-113475011D01*
X126548549Y-113491895D01*
X126563375Y-113515383D01*
X126576281Y-113540515D01*
X126584623Y-113562333D01*
X126586343Y-113572295D01*
X128368657Y-113572295D01*
X128326005Y-113561691D01*
X128084612Y-113486870D01*
X127848559Y-113398562D01*
X127617790Y-113296748D01*
X127392246Y-113181407D01*
X127171872Y-113052519D01*
X127046434Y-112971571D01*
X126844756Y-112828422D01*
X125886359Y-112828422D01*
X125883855Y-112856020D01*
X125878940Y-112889652D01*
X125872357Y-112925345D01*
X125864850Y-112959125D01*
X125857162Y-112987019D01*
X125850034Y-113005053D01*
X125849112Y-113006582D01*
X125840212Y-113017761D01*
X125828422Y-113026525D01*
X125811048Y-113033954D01*
X125785401Y-113041129D01*
X125748789Y-113049128D01*
X125737258Y-113051454D01*
X125694151Y-113058864D01*
X125661637Y-113061257D01*
X125636625Y-113058463D01*
X125616029Y-113050315D01*
X125606629Y-113044329D01*
X125593958Y-113033708D01*
X125574408Y-113015461D01*
X125551061Y-112992521D01*
X125535338Y-112976511D01*
X125509460Y-112948699D01*
X125493302Y-112928464D01*
X125485548Y-112913955D01*
X125484538Y-112905037D01*
X125489706Y-112890432D01*
X125500137Y-112886267D01*
X125516616Y-112892873D01*
X125539926Y-112910581D01*
X125570852Y-112939720D01*
X125573802Y-112942679D01*
X125600890Y-112968643D01*
X125623717Y-112987963D01*
X125640248Y-112999005D01*
X125646373Y-113000977D01*
X125669487Y-112999095D01*
X125698505Y-112994121D01*
X125729365Y-112987085D01*
X125758006Y-112979017D01*
X125780369Y-112970947D01*
X125792349Y-112963954D01*
X125799023Y-112951208D01*
X125806906Y-112928089D01*
X125814752Y-112898526D01*
X125818473Y-112881567D01*
X125832497Y-112812551D01*
X125777620Y-112750870D01*
X125755842Y-112726131D01*
X125738155Y-112705539D01*
X125726492Y-112691380D01*
X125722743Y-112686017D01*
X125728866Y-112669213D01*
X125743880Y-112660284D01*
X125748241Y-112659886D01*
X125760397Y-112665312D01*
X125778742Y-112679855D01*
X125800906Y-112700911D01*
X125824518Y-112725876D01*
X125847205Y-112752147D01*
X125866598Y-112777120D01*
X125880324Y-112798190D01*
X125885710Y-112810832D01*
X125886359Y-112828422D01*
X126844756Y-112828422D01*
X126839946Y-112825008D01*
X126642890Y-112667716D01*
X126583501Y-112614596D01*
X125514730Y-112614596D01*
X125512263Y-112635681D01*
X125502855Y-112654815D01*
X125484839Y-112675364D01*
X125456549Y-112700696D01*
X125455964Y-112701192D01*
X125425690Y-112724464D01*
X125400403Y-112736905D01*
X125376171Y-112739138D01*
X125349060Y-112731781D01*
X125326840Y-112721550D01*
X125300541Y-112703517D01*
X125271941Y-112676445D01*
X125244676Y-112644541D01*
X125222381Y-112612010D01*
X125209710Y-112586061D01*
X125203443Y-112560228D01*
X125200985Y-112531698D01*
X125202356Y-112505639D01*
X125207578Y-112487224D01*
X125209300Y-112484644D01*
X125219298Y-112474951D01*
X125237262Y-112459671D01*
X125259530Y-112441904D01*
X125262366Y-112439714D01*
X125293541Y-112418353D01*
X125319774Y-112407780D01*
X125345208Y-112407464D01*
X125373986Y-112416874D01*
X125388053Y-112423592D01*
X125418569Y-112444594D01*
X125449134Y-112475041D01*
X125476728Y-112510918D01*
X125498327Y-112548209D01*
X125510909Y-112582897D01*
X125511926Y-112588193D01*
X125514730Y-112614596D01*
X126583501Y-112614596D01*
X126455615Y-112500211D01*
X126278469Y-112323013D01*
X126187385Y-112221162D01*
X125251029Y-112221162D01*
X125248158Y-112229785D01*
X125238606Y-112241303D01*
X125220964Y-112256979D01*
X125193823Y-112278073D01*
X125159049Y-112303495D01*
X125126512Y-112326299D01*
X125097292Y-112345699D01*
X125073743Y-112360215D01*
X125058218Y-112368366D01*
X125053987Y-112369600D01*
X125040830Y-112363965D01*
X125029056Y-112351513D01*
X125021717Y-112335281D01*
X125021134Y-112323186D01*
X125028377Y-112315181D01*
X125045118Y-112301103D01*
X125068813Y-112282982D01*
X125095100Y-112264115D01*
X125125550Y-112242436D01*
X125145547Y-112226814D01*
X125156879Y-112215507D01*
X125161336Y-112206775D01*
X125161010Y-112199914D01*
X125157500Y-112181180D01*
X125156785Y-112171843D01*
X125154937Y-112163197D01*
X125148557Y-112160504D01*
X125136131Y-112164388D01*
X125116140Y-112175475D01*
X125087069Y-112194391D01*
X125064370Y-112209943D01*
X125035421Y-112229507D01*
X125010293Y-112245576D01*
X124991624Y-112256527D01*
X124982046Y-112260737D01*
X124981906Y-112260743D01*
X124966551Y-112254628D01*
X124952990Y-112240092D01*
X124946323Y-112222845D01*
X124946229Y-112220811D01*
X124949410Y-112211449D01*
X124960026Y-112199556D01*
X124979686Y-112183706D01*
X125009999Y-112162477D01*
X125018800Y-112156581D01*
X125049527Y-112135884D01*
X125070091Y-112121000D01*
X125082525Y-112109868D01*
X125088858Y-112100426D01*
X125091121Y-112090613D01*
X125091372Y-112082903D01*
X125089193Y-112064487D01*
X125081961Y-112057707D01*
X125079923Y-112057543D01*
X125069425Y-112061054D01*
X125049425Y-112070602D01*
X125022842Y-112084709D01*
X124993979Y-112101086D01*
X124964033Y-112118136D01*
X124938113Y-112132055D01*
X124919058Y-112141374D01*
X124909842Y-112144629D01*
X124894777Y-112138789D01*
X124880764Y-112125244D01*
X124873747Y-112109954D01*
X124873658Y-112108343D01*
X124878825Y-112094071D01*
X124886358Y-112085230D01*
X124900771Y-112074895D01*
X124923637Y-112060673D01*
X124951961Y-112044195D01*
X124982749Y-112027090D01*
X125013010Y-112010986D01*
X125039748Y-111997512D01*
X125059972Y-111988298D01*
X125070577Y-111984971D01*
X125094572Y-111991602D01*
X125116477Y-112009059D01*
X125133211Y-112033685D01*
X125141695Y-112061826D01*
X125142172Y-112069925D01*
X125146377Y-112087490D01*
X125161362Y-112098773D01*
X125162311Y-112099200D01*
X125182728Y-112114337D01*
X125199081Y-112137021D01*
X125207212Y-112161129D01*
X125207486Y-112165705D01*
X125210893Y-112177861D01*
X125215986Y-112180914D01*
X125230864Y-112187018D01*
X125244159Y-112201517D01*
X125250892Y-112218697D01*
X125251029Y-112221162D01*
X126187385Y-112221162D01*
X126111798Y-112136640D01*
X125955950Y-111941610D01*
X125852759Y-111796700D01*
X124988889Y-111796700D01*
X124985429Y-111808806D01*
X124976427Y-111816801D01*
X124957022Y-111830279D01*
X124929515Y-111847903D01*
X124896209Y-111868336D01*
X124859406Y-111890239D01*
X124821408Y-111912276D01*
X124784519Y-111933108D01*
X124751039Y-111951398D01*
X124723273Y-111965808D01*
X124703521Y-111975001D01*
X124694697Y-111977714D01*
X124678425Y-111972021D01*
X124670713Y-111963677D01*
X124663444Y-111945178D01*
X124665057Y-111929990D01*
X124676983Y-111915617D01*
X124700656Y-111899565D01*
X124710908Y-111893688D01*
X124758615Y-111867009D01*
X124730427Y-111850199D01*
X124704273Y-111828001D01*
X124682719Y-111797527D01*
X124673572Y-111779243D01*
X124667811Y-111762325D01*
X124664673Y-111742525D01*
X124663396Y-111715594D01*
X124663200Y-111688779D01*
X124663634Y-111651993D01*
X124666283Y-111626322D01*
X124673170Y-111608367D01*
X124686316Y-111594730D01*
X124707746Y-111582013D01*
X124734355Y-111569214D01*
X124758061Y-111558764D01*
X124776507Y-111553641D01*
X124793193Y-111554577D01*
X124811618Y-111562303D01*
X124835283Y-111577551D01*
X124860111Y-111595487D01*
X124894957Y-111626856D01*
X124920348Y-111661876D01*
X124934794Y-111697907D01*
X124936905Y-111731602D01*
X124935203Y-111749854D01*
X124938285Y-111757929D01*
X124948482Y-111759955D01*
X124952950Y-111760000D01*
X124970932Y-111765669D01*
X124983971Y-111779494D01*
X124988889Y-111796700D01*
X125852759Y-111796700D01*
X125811272Y-111738441D01*
X125678113Y-111527652D01*
X125556819Y-111309762D01*
X125542632Y-111280566D01*
X124734155Y-111280566D01*
X124726095Y-111290528D01*
X124716120Y-111294183D01*
X124706375Y-111292893D01*
X124696826Y-111284944D01*
X124686389Y-111268590D01*
X124673983Y-111242088D01*
X124658526Y-111203693D01*
X124656172Y-111197571D01*
X124645268Y-111172658D01*
X124633851Y-111152093D01*
X124625976Y-111142001D01*
X124612364Y-111135245D01*
X124596986Y-111134019D01*
X124585718Y-111138149D01*
X124583372Y-111143274D01*
X124585937Y-111151875D01*
X124592918Y-111171061D01*
X124603245Y-111197978D01*
X124615664Y-111229320D01*
X124633152Y-111274167D01*
X124645000Y-111308455D01*
X124651751Y-111334753D01*
X124653950Y-111355632D01*
X124652142Y-111373662D01*
X124648817Y-111385860D01*
X124633305Y-111411864D01*
X124607670Y-111427792D01*
X124574542Y-111433138D01*
X124553227Y-111430399D01*
X124534704Y-111419649D01*
X124523468Y-111409327D01*
X124507420Y-111387859D01*
X124490432Y-111356220D01*
X124474196Y-111318514D01*
X124460402Y-111278845D01*
X124450740Y-111241316D01*
X124448270Y-111226807D01*
X124441412Y-111198221D01*
X124429210Y-111179845D01*
X124425881Y-111176982D01*
X124412536Y-111160766D01*
X124410618Y-111141088D01*
X124412186Y-111131552D01*
X124416251Y-111124146D01*
X124425169Y-111117492D01*
X124441295Y-111110214D01*
X124466984Y-111100933D01*
X124496045Y-111091127D01*
X124540942Y-111076746D01*
X124574852Y-111067800D01*
X124600228Y-111064246D01*
X124619523Y-111066038D01*
X124635188Y-111073129D01*
X124649677Y-111085476D01*
X124652331Y-111088233D01*
X124663647Y-111104061D01*
X124677429Y-111128951D01*
X124692266Y-111159587D01*
X124706748Y-111192655D01*
X124719465Y-111224840D01*
X124729007Y-111252826D01*
X124733963Y-111273300D01*
X124734155Y-111280566D01*
X125542632Y-111280566D01*
X125447739Y-111085289D01*
X125351219Y-110854750D01*
X125346300Y-110840858D01*
X124575563Y-110840858D01*
X124571571Y-110851181D01*
X124562402Y-110857541D01*
X124542394Y-110867160D01*
X124514548Y-110878924D01*
X124481863Y-110891718D01*
X124447342Y-110904427D01*
X124413983Y-110915937D01*
X124384789Y-110925133D01*
X124362759Y-110930900D01*
X124353213Y-110932300D01*
X124336939Y-110926575D01*
X124329180Y-110917812D01*
X124323851Y-110899066D01*
X124323482Y-110883341D01*
X124325589Y-110874235D01*
X124331169Y-110866958D01*
X124342744Y-110860062D01*
X124362837Y-110852103D01*
X124393970Y-110841634D01*
X124399211Y-110839932D01*
X124472678Y-110816121D01*
X124477710Y-110751795D01*
X124479213Y-110701032D01*
X124475127Y-110660907D01*
X124465633Y-110632515D01*
X124456010Y-110620328D01*
X124448321Y-110616558D01*
X124435885Y-110615732D01*
X124415957Y-110618063D01*
X124385792Y-110623762D01*
X124370791Y-110626916D01*
X124338208Y-110633952D01*
X124309676Y-110640242D01*
X124289002Y-110644939D01*
X124281468Y-110646768D01*
X124263438Y-110645128D01*
X124249676Y-110631916D01*
X124242688Y-110609967D01*
X124242286Y-110602456D01*
X124245548Y-110582524D01*
X124254986Y-110574125D01*
X124277596Y-110568001D01*
X124307452Y-110561129D01*
X124341246Y-110554124D01*
X124375672Y-110547598D01*
X124407425Y-110542164D01*
X124433198Y-110538437D01*
X124449684Y-110537029D01*
X124453291Y-110537345D01*
X124474543Y-110551050D01*
X124493840Y-110576360D01*
X124510107Y-110610393D01*
X124522267Y-110650265D01*
X124529246Y-110693095D01*
X124529967Y-110735999D01*
X124529526Y-110741650D01*
X124524801Y-110793786D01*
X124544882Y-110796107D01*
X124562538Y-110804453D01*
X124573652Y-110821198D01*
X124575563Y-110840858D01*
X125346300Y-110840858D01*
X125267608Y-110618665D01*
X125197252Y-110377552D01*
X125179909Y-110302489D01*
X124431120Y-110302489D01*
X124424181Y-110320524D01*
X124406168Y-110331036D01*
X124401021Y-110332424D01*
X124388859Y-110334342D01*
X124375929Y-110333588D01*
X124359501Y-110329355D01*
X124336844Y-110320835D01*
X124305230Y-110307222D01*
X124284907Y-110298117D01*
X124250260Y-110281714D01*
X124219314Y-110265637D01*
X124195112Y-110251565D01*
X124180697Y-110241180D01*
X124179404Y-110239863D01*
X124163693Y-110222112D01*
X124137542Y-110254026D01*
X124122795Y-110272974D01*
X124115934Y-110286550D01*
X124115293Y-110300312D01*
X124118604Y-110317212D01*
X124125209Y-110355506D01*
X124124770Y-110382086D01*
X124117372Y-110396604D01*
X124103099Y-110398710D01*
X124099015Y-110397462D01*
X124092018Y-110389124D01*
X124083775Y-110371296D01*
X124078830Y-110356803D01*
X124071263Y-110326251D01*
X124065088Y-110292336D01*
X124063355Y-110278966D01*
X124059049Y-110238474D01*
X124104821Y-110184623D01*
X124150506Y-110131506D01*
X124191853Y-110084950D01*
X124233335Y-110039979D01*
X124262515Y-110009214D01*
X124285443Y-109985872D01*
X124301891Y-109971354D01*
X124314999Y-109963615D01*
X124327907Y-109960611D01*
X124337705Y-109960229D01*
X124357350Y-109961895D01*
X124367949Y-109968741D01*
X124373094Y-109978844D01*
X124379324Y-110005673D01*
X124373881Y-110024350D01*
X124356247Y-110036007D01*
X124345623Y-110038967D01*
X124329352Y-110046733D01*
X124307404Y-110064667D01*
X124278783Y-110093619D01*
X124268485Y-110104872D01*
X124246423Y-110130110D01*
X124228552Y-110152069D01*
X124216859Y-110168205D01*
X124213258Y-110175563D01*
X124219378Y-110182447D01*
X124235977Y-110193861D01*
X124260412Y-110208130D01*
X124285697Y-110221419D01*
X124323519Y-110239485D01*
X124352242Y-110250828D01*
X124375001Y-110256535D01*
X124390788Y-110257771D01*
X124411525Y-110258810D01*
X124422231Y-110263312D01*
X124427326Y-110273354D01*
X124427807Y-110275176D01*
X124431120Y-110302489D01*
X125179909Y-110302489D01*
X125140499Y-110131930D01*
X125139509Y-110126995D01*
X125117769Y-110012501D01*
X125099961Y-109904972D01*
X125085736Y-109800982D01*
X125074745Y-109697103D01*
X125066637Y-109589910D01*
X125061063Y-109475975D01*
X125057671Y-109351871D01*
X125057149Y-109320557D01*
X125056142Y-109196967D01*
X125057143Y-109084702D01*
X125060364Y-108980686D01*
X125066015Y-108881840D01*
X125074307Y-108785088D01*
X125085453Y-108687352D01*
X125099662Y-108585555D01*
X125113578Y-108497914D01*
X125161715Y-108251451D01*
X125223267Y-108009807D01*
X125297832Y-107773405D01*
X125385004Y-107542669D01*
X125484379Y-107318023D01*
X125595554Y-107099891D01*
X125718124Y-106888698D01*
X125851686Y-106684867D01*
X125995834Y-106488823D01*
X126150165Y-106300989D01*
X126314275Y-106121790D01*
X126487759Y-105951649D01*
X126670214Y-105790991D01*
X126861234Y-105640239D01*
X127060417Y-105499818D01*
X127267358Y-105370151D01*
X127481652Y-105251663D01*
X127702896Y-105144778D01*
X127930686Y-105049920D01*
X128164616Y-104967512D01*
X128404284Y-104897980D01*
X128585785Y-104854915D01*
X128727995Y-104826308D01*
X128864545Y-104803127D01*
X128998573Y-104785081D01*
X129133216Y-104771879D01*
X129271613Y-104763229D01*
X129416902Y-104758839D01*
X129572219Y-104758418D01*
X129618786Y-104758985D01*
X129710942Y-104760716D01*
X129791590Y-104763056D01*
X129863732Y-104766225D01*
X129930370Y-104770441D01*
X129994506Y-104775922D01*
X130059140Y-104782889D01*
X130127275Y-104791559D01*
X130192785Y-104800810D01*
X130441951Y-104844491D01*
X130686886Y-104901866D01*
X130927112Y-104972612D01*
X131162154Y-105056403D01*
X131391534Y-105152915D01*
X131614777Y-105261822D01*
X131831405Y-105382800D01*
X132040941Y-105515524D01*
X132242911Y-105659668D01*
X132436835Y-105814908D01*
X132622240Y-105980920D01*
X132798646Y-106157377D01*
X132965579Y-106343956D01*
X133122562Y-106540330D01*
X133269117Y-106746177D01*
X133404769Y-106961169D01*
X133433411Y-107010200D01*
X133552277Y-107231122D01*
X133658453Y-107458839D01*
X133751725Y-107692737D01*
X133831881Y-107932196D01*
X133898709Y-108176601D01*
X133951996Y-108425333D01*
X133980810Y-108599514D01*
X133992932Y-108688414D01*
X134002613Y-108773188D01*
X134010133Y-108857513D01*
X134015771Y-108945069D01*
X134019805Y-109039534D01*
X134022515Y-109144586D01*
X134022637Y-109151057D01*
X134023513Y-109314978D01*
X135401842Y-109314978D01*
X135402239Y-109290382D01*
X135401483Y-109142020D01*
X135397647Y-108995209D01*
X135390760Y-108853806D01*
X135380854Y-108721665D01*
X135377518Y-108686600D01*
X135366623Y-108577743D01*
X135408783Y-108538300D01*
X135431594Y-108516849D01*
X135463102Y-108487047D01*
X135502675Y-108449502D01*
X135549678Y-108404820D01*
X135603477Y-108353608D01*
X135663440Y-108296471D01*
X135728933Y-108234017D01*
X135799320Y-108166852D01*
X135873970Y-108095582D01*
X135952249Y-108020815D01*
X136033522Y-107943156D01*
X136117156Y-107863212D01*
X136202517Y-107781590D01*
X136288971Y-107698896D01*
X136375886Y-107615737D01*
X136462626Y-107532720D01*
X136548559Y-107450449D01*
X136633051Y-107369534D01*
X136715468Y-107290579D01*
X136795176Y-107214191D01*
X136871541Y-107140978D01*
X136943931Y-107071544D01*
X137011711Y-107006498D01*
X137074247Y-106946445D01*
X137130907Y-106891992D01*
X137181055Y-106843746D01*
X137224059Y-106802313D01*
X137259285Y-106768299D01*
X137286099Y-106742311D01*
X137303867Y-106724956D01*
X137311956Y-106716840D01*
X137312400Y-106716301D01*
X137305960Y-106712168D01*
X137289757Y-106708024D01*
X137281558Y-106706686D01*
X137269373Y-106704864D01*
X137243937Y-106700965D01*
X137206119Y-106695123D01*
X137156788Y-106687475D01*
X137096815Y-106678157D01*
X137027070Y-106667305D01*
X136948420Y-106655054D01*
X136861737Y-106641542D01*
X136767890Y-106626904D01*
X136667749Y-106611276D01*
X136562182Y-106594794D01*
X136452060Y-106577595D01*
X136338253Y-106559813D01*
X136221630Y-106541586D01*
X136103060Y-106523049D01*
X135983413Y-106504338D01*
X135863559Y-106485589D01*
X135744368Y-106466939D01*
X135626709Y-106448523D01*
X135511451Y-106430477D01*
X135399465Y-106412938D01*
X135291620Y-106396041D01*
X135188785Y-106379923D01*
X135091830Y-106364719D01*
X135001625Y-106350565D01*
X134919040Y-106337598D01*
X134844944Y-106325954D01*
X134780206Y-106315768D01*
X134725696Y-106307177D01*
X134682285Y-106300317D01*
X134650841Y-106295323D01*
X134632233Y-106292332D01*
X134627258Y-106291492D01*
X134617698Y-106286782D01*
X134606072Y-106275285D01*
X134591094Y-106255349D01*
X134571479Y-106225323D01*
X134555269Y-106199013D01*
X134399199Y-105955796D01*
X134231526Y-105720968D01*
X134052723Y-105494940D01*
X133863260Y-105278124D01*
X133663610Y-105070931D01*
X133454244Y-104873771D01*
X133235634Y-104687056D01*
X133008252Y-104511197D01*
X132772570Y-104346605D01*
X132529058Y-104193692D01*
X132278190Y-104052868D01*
X132020436Y-103924545D01*
X131865915Y-103855119D01*
X131715897Y-103793166D01*
X131558626Y-103733439D01*
X131398645Y-103677515D01*
X131240494Y-103626973D01*
X131088715Y-103583390D01*
X131067629Y-103577774D01*
X131024105Y-103566255D01*
X130983555Y-103555429D01*
X130948822Y-103546064D01*
X130922751Y-103538926D01*
X130909121Y-103535062D01*
X130881241Y-103526771D01*
X130212623Y-102298500D01*
X130145014Y-102174344D01*
X130079233Y-102053638D01*
X130015620Y-101936995D01*
X129954510Y-101825032D01*
X129896242Y-101718363D01*
X129841152Y-101617603D01*
X129789578Y-101523368D01*
X129741857Y-101436271D01*
X129698326Y-101356930D01*
X129659323Y-101285958D01*
X129625184Y-101223970D01*
X129596247Y-101171582D01*
X129572850Y-101129409D01*
X129555329Y-101098066D01*
X129544021Y-101078168D01*
X129539265Y-101070330D01*
X129539147Y-101070229D01*
X129535246Y-101076505D01*
X129535246Y-101076505D01*
G37*
X129535246Y-101076505D02*
X129524761Y-101094923D01*
X129508030Y-101124867D01*
X129485392Y-101165720D01*
X129457182Y-101216866D01*
X129423739Y-101277688D01*
X129385400Y-101347570D01*
X129342501Y-101425896D01*
X129295381Y-101512048D01*
X129244377Y-101605412D01*
X129189826Y-101705370D01*
X129132065Y-101811305D01*
X129071431Y-101922603D01*
X129008263Y-102038645D01*
X128942897Y-102158817D01*
X128875671Y-102282501D01*
X128868950Y-102294871D01*
X128801526Y-102418949D01*
X128735925Y-102539629D01*
X128672485Y-102656291D01*
X128611542Y-102768314D01*
X128553437Y-102875079D01*
X128498505Y-102975965D01*
X128447086Y-103070353D01*
X128399519Y-103157622D01*
X128356139Y-103237152D01*
X128317287Y-103308324D01*
X128283300Y-103370518D01*
X128254516Y-103423112D01*
X128231273Y-103465488D01*
X128213909Y-103497024D01*
X128202763Y-103517102D01*
X128198172Y-103525101D01*
X128198091Y-103525208D01*
X128188915Y-103529381D01*
X128169202Y-103535597D01*
X128142582Y-103542752D01*
X128131501Y-103545466D01*
X128052548Y-103565485D01*
X127963518Y-103590121D01*
X127867703Y-103618338D01*
X127768394Y-103649100D01*
X127668882Y-103681369D01*
X127572459Y-103714110D01*
X127482415Y-103746287D01*
X127424543Y-103768074D01*
X127158822Y-103878410D01*
X126899232Y-104001714D01*
X126646252Y-104137584D01*
X126400361Y-104285619D01*
X126162038Y-104445418D01*
X125931763Y-104616580D01*
X125710016Y-104798704D01*
X125497275Y-104991387D01*
X125294020Y-105194230D01*
X125100731Y-105406830D01*
X124917886Y-105628787D01*
X124745965Y-105859699D01*
X124585447Y-106099165D01*
X124526613Y-106193845D01*
X124466993Y-106291891D01*
X123140883Y-106497791D01*
X123003715Y-106519088D01*
X122870215Y-106539816D01*
X122741103Y-106559861D01*
X122617105Y-106579112D01*
X122498941Y-106597457D01*
X122387335Y-106614784D01*
X122283011Y-106630979D01*
X122186690Y-106645932D01*
X122099095Y-106659529D01*
X122020950Y-106671659D01*
X121952978Y-106682209D01*
X121895901Y-106691067D01*
X121850441Y-106698121D01*
X121817323Y-106703259D01*
X121797268Y-106706368D01*
X121791186Y-106707309D01*
X121775148Y-106711362D01*
X121767671Y-106716389D01*
X121767600Y-106716860D01*
X121772724Y-106722447D01*
X121787755Y-106737640D01*
X121812181Y-106761941D01*
X121845491Y-106794848D01*
X121887175Y-106835864D01*
X121936721Y-106884486D01*
X121993619Y-106940218D01*
X122057356Y-107002557D01*
X122127422Y-107071006D01*
X122203306Y-107145064D01*
X122284496Y-107224231D01*
X122370482Y-107308009D01*
X122460752Y-107395896D01*
X122554796Y-107487395D01*
X122652102Y-107582004D01*
X122737290Y-107664781D01*
X123706979Y-108606771D01*
X123702495Y-108661200D01*
X123700058Y-108690019D01*
X123696731Y-108728311D01*
X123692952Y-108771094D01*
X123689157Y-108813388D01*
X123689137Y-108813600D01*
X123686598Y-108850822D01*
X123684474Y-108900431D01*
X123682764Y-108960305D01*
X123681466Y-109028324D01*
X123680581Y-109102364D01*
X123680107Y-109180306D01*
X123680044Y-109260027D01*
X123680390Y-109339406D01*
X123681146Y-109416321D01*
X123682309Y-109488651D01*
X123683880Y-109554275D01*
X123685858Y-109611071D01*
X123688242Y-109656917D01*
X123689460Y-109673571D01*
X123717654Y-109949394D01*
X123756038Y-110216204D01*
X123805000Y-110475695D01*
X123864929Y-110729559D01*
X123936213Y-110979490D01*
X124019241Y-111227180D01*
X124087053Y-111406448D01*
X124199163Y-111670260D01*
X124323835Y-111927355D01*
X124461272Y-112178074D01*
X124611681Y-112422762D01*
X124775265Y-112661762D01*
X124952231Y-112895416D01*
X125042899Y-113006868D01*
X125129339Y-113110737D01*
X124931409Y-114478317D01*
X124911304Y-114617413D01*
X124891808Y-114752662D01*
X124873018Y-114883364D01*
X124855033Y-115008819D01*
X124837953Y-115128329D01*
X124821875Y-115241193D01*
X124806898Y-115346711D01*
X124793122Y-115444184D01*
X124780644Y-115532912D01*
X124769563Y-115612195D01*
X124759979Y-115681333D01*
X124751989Y-115739627D01*
X124745692Y-115786376D01*
X124741188Y-115820881D01*
X124738574Y-115842443D01*
X124737949Y-115850361D01*
X124737961Y-115850380D01*
X124744655Y-115847355D01*
X124763373Y-115837572D01*
X124793486Y-115821379D01*
X124834364Y-115799126D01*
X124885377Y-115771162D01*
X124945894Y-115737837D01*
X125015287Y-115699499D01*
X125092925Y-115656497D01*
X125178177Y-115609181D01*
X125270415Y-115557900D01*
X125369007Y-115503004D01*
X125473325Y-115444840D01*
X125582737Y-115383760D01*
X125696615Y-115320111D01*
X125814328Y-115254243D01*
X125898401Y-115207153D01*
X127054359Y-114559445D01*
X127083423Y-114570643D01*
X127100477Y-114577569D01*
X127127556Y-114588978D01*
X127161411Y-114603483D01*
X127198793Y-114619700D01*
X127213102Y-114625959D01*
X127456937Y-114725574D01*
X127709370Y-114814567D01*
X127968624Y-114892465D01*
X128232923Y-114958800D01*
X128500492Y-115013098D01*
X128769554Y-115054891D01*
X128883229Y-115068674D01*
X128964488Y-115077355D01*
X129038557Y-115084437D01*
X129108334Y-115090064D01*
X129176715Y-115094379D01*
X129246597Y-115097527D01*
X129320878Y-115099650D01*
X129402454Y-115100893D01*
X129494223Y-115101399D01*
X129543629Y-115101422D01*
X129637585Y-115101099D01*
X129719966Y-115100209D01*
X129793704Y-115098614D01*
X129861731Y-115096175D01*
X129926981Y-115092755D01*
X129992385Y-115088217D01*
X130060877Y-115082423D01*
X130135389Y-115075234D01*
X130164115Y-115072293D01*
X130408631Y-115041171D01*
X130655828Y-114998478D01*
X130903315Y-114944853D01*
X131148704Y-114880936D01*
X131389605Y-114807365D01*
X131623629Y-114724779D01*
X131848386Y-114633818D01*
X131916443Y-114603731D01*
X131950818Y-114588462D01*
X131955931Y-114586271D01*
X130176153Y-114586271D01*
X130165362Y-114594977D01*
X130146618Y-114597543D01*
X130131448Y-114596224D01*
X130120516Y-114590173D01*
X130109910Y-114576249D01*
X130101033Y-114560940D01*
X130080658Y-114524337D01*
X130015343Y-114529199D01*
X129985874Y-114531647D01*
X129962129Y-114534098D01*
X129947670Y-114536162D01*
X129945116Y-114536874D01*
X129939941Y-114544997D01*
X129933221Y-114561656D01*
X129931498Y-114566801D01*
X129922886Y-114588062D01*
X129913100Y-114604888D01*
X129911701Y-114606614D01*
X129897474Y-114615627D01*
X129879255Y-114618996D01*
X129862970Y-114616452D01*
X129854980Y-114609206D01*
X129855775Y-114599184D01*
X129860445Y-114577906D01*
X129868338Y-114547901D01*
X129869857Y-114542642D01*
X129691307Y-114542642D01*
X129690262Y-114560838D01*
X129689737Y-114563625D01*
X129680610Y-114578240D01*
X129662204Y-114595254D01*
X129638659Y-114611543D01*
X129614118Y-114623984D01*
X129605799Y-114626931D01*
X129569233Y-114632992D01*
X129528658Y-114631929D01*
X129491064Y-114624199D01*
X129476578Y-114618473D01*
X129457210Y-114609661D01*
X129446297Y-114607269D01*
X129439442Y-114610975D01*
X129435829Y-114615467D01*
X129420235Y-114624937D01*
X129405385Y-114625380D01*
X129383972Y-114622943D01*
X129385763Y-114456311D01*
X129386524Y-114399002D01*
X129220686Y-114399002D01*
X129219679Y-114413650D01*
X129215942Y-114428638D01*
X129208402Y-114445813D01*
X129195984Y-114467018D01*
X129177615Y-114494099D01*
X129152221Y-114528901D01*
X129120965Y-114570329D01*
X129103807Y-114592090D01*
X129091236Y-114604587D01*
X129079407Y-114610373D01*
X129064476Y-114611999D01*
X129058101Y-114612057D01*
X129029457Y-114608014D01*
X129015133Y-114598952D01*
X129007736Y-114587718D01*
X128995813Y-114566159D01*
X128980876Y-114537148D01*
X128964439Y-114503556D01*
X128960631Y-114495537D01*
X128942681Y-114456592D01*
X128930668Y-114427857D01*
X128923720Y-114406726D01*
X128920962Y-114390592D01*
X128921330Y-114378269D01*
X128922882Y-114372359D01*
X128758871Y-114372359D01*
X128750212Y-114437398D01*
X128745834Y-114467845D01*
X128741526Y-114493695D01*
X128737989Y-114510891D01*
X128736905Y-114514547D01*
X128727775Y-114524241D01*
X128709497Y-114536092D01*
X128686719Y-114547753D01*
X128664088Y-114556877D01*
X128646255Y-114561116D01*
X128644550Y-114561186D01*
X128632301Y-114560061D01*
X128609078Y-114556946D01*
X128578210Y-114552317D01*
X128543024Y-114546651D01*
X128542950Y-114546638D01*
X128507387Y-114540383D01*
X128475834Y-114534208D01*
X128451755Y-114528832D01*
X128438729Y-114525023D01*
X128426267Y-114514319D01*
X128422797Y-114500267D01*
X128429055Y-114488470D01*
X128433597Y-114485942D01*
X128444616Y-114485478D01*
X128466911Y-114487230D01*
X128497467Y-114490878D01*
X128533269Y-114496100D01*
X128541611Y-114497439D01*
X128580802Y-114503706D01*
X128608406Y-114507591D01*
X128627141Y-114509171D01*
X128639722Y-114508525D01*
X128648867Y-114505732D01*
X128657294Y-114500870D01*
X128657414Y-114500791D01*
X128670628Y-114490874D01*
X128675725Y-114482817D01*
X128671542Y-114475973D01*
X128656916Y-114469695D01*
X128630682Y-114463336D01*
X128591677Y-114456250D01*
X128571306Y-114452917D01*
X128533082Y-114446336D01*
X128499374Y-114439698D01*
X128473086Y-114433638D01*
X128457126Y-114428789D01*
X128454334Y-114427368D01*
X128447434Y-114419150D01*
X128445350Y-114405562D01*
X128447458Y-114382330D01*
X128447605Y-114381250D01*
X128456506Y-114345606D01*
X128473346Y-114320411D01*
X128500608Y-114302666D01*
X128518221Y-114295881D01*
X128539464Y-114289691D01*
X128558333Y-114287072D01*
X128580179Y-114287827D01*
X128610353Y-114291754D01*
X128614013Y-114292310D01*
X128652365Y-114299200D01*
X128680468Y-114307405D01*
X128702574Y-114318845D01*
X128722936Y-114335438D01*
X128733964Y-114346446D01*
X128758871Y-114372359D01*
X128922882Y-114372359D01*
X128927962Y-114353018D01*
X128940576Y-114340507D01*
X128960116Y-114339865D01*
X128962363Y-114340388D01*
X128974967Y-114345757D01*
X128980269Y-114356523D01*
X128981200Y-114372605D01*
X128983911Y-114388892D01*
X128991189Y-114412609D01*
X129001752Y-114440889D01*
X129014320Y-114470871D01*
X129027609Y-114499690D01*
X129040340Y-114524482D01*
X129051229Y-114542383D01*
X129058996Y-114550530D01*
X129060813Y-114550505D01*
X129070797Y-114540623D01*
X129085572Y-114521610D01*
X129103125Y-114496593D01*
X129121444Y-114468699D01*
X129138515Y-114441053D01*
X129152325Y-114416782D01*
X129160862Y-114399013D01*
X129162629Y-114392379D01*
X129168317Y-114371728D01*
X129183527Y-114360829D01*
X129202449Y-114361014D01*
X129213743Y-114365575D01*
X129219101Y-114374693D01*
X129220647Y-114392788D01*
X129220686Y-114399002D01*
X129386524Y-114399002D01*
X129386530Y-114398597D01*
X129387667Y-114353869D01*
X129389521Y-114320597D01*
X129392435Y-114297252D01*
X129396754Y-114282306D01*
X129402822Y-114274228D01*
X129410986Y-114271491D01*
X129421588Y-114272565D01*
X129426901Y-114273797D01*
X129436224Y-114276858D01*
X129441799Y-114282400D01*
X129444587Y-114293638D01*
X129445552Y-114313787D01*
X129445658Y-114336424D01*
X129446335Y-114363349D01*
X129448134Y-114383613D01*
X129450708Y-114393775D01*
X129451528Y-114394343D01*
X129461325Y-114390381D01*
X129471485Y-114383688D01*
X129487996Y-114377339D01*
X129514333Y-114373582D01*
X129546043Y-114372399D01*
X129578674Y-114373773D01*
X129607773Y-114377686D01*
X129628888Y-114384120D01*
X129629261Y-114384306D01*
X129654268Y-114398457D01*
X129670612Y-114413027D01*
X129680520Y-114431786D01*
X129686215Y-114458503D01*
X129689020Y-114485551D01*
X129690879Y-114515974D01*
X129691307Y-114542642D01*
X129869857Y-114542642D01*
X129878800Y-114511701D01*
X129887305Y-114484020D01*
X129901285Y-114439369D01*
X129915431Y-114393818D01*
X129928420Y-114351651D01*
X129938928Y-114317155D01*
X129942419Y-114305529D01*
X129952069Y-114274775D01*
X129959797Y-114255279D01*
X129962285Y-114251538D01*
X128305005Y-114251538D01*
X128304075Y-114264332D01*
X128300315Y-114287900D01*
X128294433Y-114318942D01*
X128287140Y-114354154D01*
X128279145Y-114390236D01*
X128271158Y-114423886D01*
X128263889Y-114451804D01*
X128258048Y-114470686D01*
X128257682Y-114471660D01*
X128247923Y-114479186D01*
X128230095Y-114481295D01*
X128209827Y-114477367D01*
X128208908Y-114477023D01*
X128201508Y-114471470D01*
X128198352Y-114460656D01*
X128199568Y-114442438D01*
X128205289Y-114414672D01*
X128214936Y-114377778D01*
X128232444Y-114314145D01*
X128187840Y-114278054D01*
X128152804Y-114253411D01*
X128121771Y-114238933D01*
X128096376Y-114235217D01*
X128082376Y-114239617D01*
X128075896Y-114248922D01*
X128066385Y-114269137D01*
X128055109Y-114297309D01*
X128043335Y-114330483D01*
X128043037Y-114331376D01*
X128030583Y-114367713D01*
X128021031Y-114392455D01*
X128013182Y-114407931D01*
X128005838Y-114416469D01*
X127997802Y-114420398D01*
X127997154Y-114420568D01*
X127976565Y-114419808D01*
X127962318Y-114408084D01*
X127958006Y-114391640D01*
X127960694Y-114375123D01*
X127967823Y-114349591D01*
X127978122Y-114318415D01*
X127990320Y-114284965D01*
X128003146Y-114252614D01*
X128015328Y-114224731D01*
X128025596Y-114204689D01*
X128031553Y-114196586D01*
X128054840Y-114185654D01*
X128086232Y-114182914D01*
X128122291Y-114187759D01*
X128159577Y-114199584D01*
X128194651Y-114217781D01*
X128208692Y-114227805D01*
X128228324Y-114242939D01*
X128239801Y-114249864D01*
X128246197Y-114249566D01*
X128250587Y-114243028D01*
X128251315Y-114241454D01*
X128260895Y-114230669D01*
X128278313Y-114228700D01*
X128280344Y-114228878D01*
X128296724Y-114232929D01*
X128303677Y-114243659D01*
X128305005Y-114251538D01*
X129962285Y-114251538D01*
X129967162Y-114244209D01*
X129975723Y-114238731D01*
X129979879Y-114237460D01*
X129999459Y-114237575D01*
X130007746Y-114242816D01*
X130015483Y-114254116D01*
X130027853Y-114275690D01*
X130043808Y-114305402D01*
X130062299Y-114341116D01*
X130082281Y-114380695D01*
X130102705Y-114422004D01*
X130122524Y-114462906D01*
X130140690Y-114501265D01*
X130156157Y-114534945D01*
X130167876Y-114561809D01*
X130174801Y-114579723D01*
X130176153Y-114586271D01*
X131955931Y-114586271D01*
X131980768Y-114575628D01*
X132003676Y-114566316D01*
X132016925Y-114561613D01*
X132018784Y-114561257D01*
X132025878Y-114564750D01*
X132044995Y-114574993D01*
X132075503Y-114591634D01*
X132116766Y-114614320D01*
X132168152Y-114642698D01*
X132229026Y-114676417D01*
X132298755Y-114715124D01*
X132376705Y-114758465D01*
X132462242Y-114806088D01*
X132554731Y-114857641D01*
X132653541Y-114912772D01*
X132758036Y-114971127D01*
X132867583Y-115032354D01*
X132981547Y-115096100D01*
X133099296Y-115162014D01*
X133179865Y-115207143D01*
X133299757Y-115274297D01*
X133416263Y-115339521D01*
X133528753Y-115402462D01*
X133636593Y-115462768D01*
X133739153Y-115520087D01*
X133835799Y-115574066D01*
X133925900Y-115624352D01*
X134008823Y-115670595D01*
X134083937Y-115712440D01*
X134150609Y-115749536D01*
X134208207Y-115781531D01*
X134256099Y-115808071D01*
X134293654Y-115828805D01*
X134320238Y-115843380D01*
X134335220Y-115851444D01*
X134338453Y-115853029D01*
X134343983Y-115847384D01*
X134344229Y-115845100D01*
X134343014Y-115837240D01*
X134339449Y-115815786D01*
X134333657Y-115781446D01*
X134325758Y-115734928D01*
X134315874Y-115676941D01*
X134304126Y-115608193D01*
X134290637Y-115529391D01*
X134275527Y-115441245D01*
X134258918Y-115344463D01*
X134240931Y-115239752D01*
X134221688Y-115127822D01*
X134201310Y-115009379D01*
X134179919Y-114885134D01*
X134157636Y-114755793D01*
X134134583Y-114622065D01*
X134115158Y-114509449D01*
X134071195Y-114254625D01*
X131542972Y-114254625D01*
X131541603Y-114264383D01*
X131536222Y-114272914D01*
X131524919Y-114281291D01*
X131505785Y-114290589D01*
X131476910Y-114301885D01*
X131436384Y-114316253D01*
X131428898Y-114318837D01*
X131389482Y-114332341D01*
X131361409Y-114341593D01*
X131342310Y-114347110D01*
X131329820Y-114349408D01*
X131321572Y-114349004D01*
X131315199Y-114346414D01*
X131311844Y-114344376D01*
X131308286Y-114339735D01*
X131092351Y-114339735D01*
X131089784Y-114353678D01*
X131081670Y-114367743D01*
X131066028Y-114386485D01*
X131060194Y-114393008D01*
X131036989Y-114417180D01*
X131015653Y-114434431D01*
X130991957Y-114447104D01*
X130961678Y-114457543D01*
X130928015Y-114466311D01*
X130879700Y-114476464D01*
X130844383Y-114480390D01*
X130821952Y-114478092D01*
X130812589Y-114470450D01*
X130811430Y-114459366D01*
X130818388Y-114449862D01*
X130835098Y-114441023D01*
X130863196Y-114431935D01*
X130896546Y-114423499D01*
X130930598Y-114415037D01*
X130954259Y-114407594D01*
X130971376Y-114399377D01*
X130985796Y-114388596D01*
X130999157Y-114375720D01*
X131016007Y-114357619D01*
X131024336Y-114344441D01*
X131026240Y-114331211D01*
X131024328Y-114315943D01*
X131017788Y-114289645D01*
X131006730Y-114272796D01*
X130987714Y-114262096D01*
X130960741Y-114254954D01*
X130939397Y-114251195D01*
X130920500Y-114250199D01*
X130899499Y-114252295D01*
X130871844Y-114257813D01*
X130849873Y-114262974D01*
X130816002Y-114270663D01*
X130793311Y-114274444D01*
X130779077Y-114274584D01*
X130770580Y-114271349D01*
X130769889Y-114270808D01*
X130759981Y-114256185D01*
X130764010Y-114242486D01*
X130775529Y-114234700D01*
X130799283Y-114226503D01*
X130831462Y-114217829D01*
X130867210Y-114209725D01*
X130901673Y-114203237D01*
X130929995Y-114199414D01*
X130941838Y-114198831D01*
X130966262Y-114201689D01*
X130996199Y-114208605D01*
X131016829Y-114215160D01*
X131042488Y-114225709D01*
X131058553Y-114236344D01*
X131069540Y-114250551D01*
X131074255Y-114259497D01*
X131083962Y-114285739D01*
X131090566Y-114315021D01*
X131091350Y-114321360D01*
X131092351Y-114339735D01*
X131308286Y-114339735D01*
X131303190Y-114333091D01*
X131307579Y-114319945D01*
X131323940Y-114306474D01*
X131345253Y-114296371D01*
X131368076Y-114286286D01*
X131378469Y-114277757D01*
X131378969Y-114270971D01*
X131375000Y-114260199D01*
X131367320Y-114238776D01*
X131357016Y-114209750D01*
X131345174Y-114176170D01*
X131344519Y-114174306D01*
X131331250Y-114136258D01*
X131329650Y-114130765D01*
X127861885Y-114130765D01*
X127860964Y-114143733D01*
X127853514Y-114149917D01*
X127839136Y-114150983D01*
X127820571Y-114147747D01*
X127804534Y-114144738D01*
X127795876Y-114146107D01*
X127795731Y-114146320D01*
X127792436Y-114154880D01*
X127785720Y-114174096D01*
X127776668Y-114200827D01*
X127769438Y-114222576D01*
X127757744Y-114256396D01*
X127748178Y-114279221D01*
X127739097Y-114294072D01*
X127728860Y-114303972D01*
X127723105Y-114307820D01*
X127701292Y-114317767D01*
X127677542Y-114320715D01*
X127648432Y-114316545D01*
X127610537Y-114305140D01*
X127606707Y-114303800D01*
X127563758Y-114284838D01*
X127533233Y-114262900D01*
X127515984Y-114238667D01*
X127513094Y-114229033D01*
X127511762Y-114206618D01*
X127519339Y-114194906D01*
X127536963Y-114192338D01*
X127539759Y-114192566D01*
X127557159Y-114197432D01*
X127569271Y-114210556D01*
X127574554Y-114220666D01*
X127583402Y-114235901D01*
X127595297Y-114246241D01*
X127614560Y-114254693D01*
X127631040Y-114259985D01*
X127657250Y-114266626D01*
X127675252Y-114268533D01*
X127681415Y-114266748D01*
X127686208Y-114257483D01*
X127694189Y-114238266D01*
X127703958Y-114212916D01*
X127714116Y-114185252D01*
X127723266Y-114159093D01*
X127730007Y-114138257D01*
X127732942Y-114126562D01*
X127732972Y-114126012D01*
X127726756Y-114120019D01*
X127711284Y-114112896D01*
X127705758Y-114110997D01*
X127663723Y-114096429D01*
X127634648Y-114083515D01*
X127617179Y-114071481D01*
X127609967Y-114059555D01*
X127609600Y-114055992D01*
X127614015Y-114043579D01*
X127627840Y-114038829D01*
X127651943Y-114041755D01*
X127687194Y-114052372D01*
X127701081Y-114057437D01*
X127725331Y-114065719D01*
X127743624Y-114070370D01*
X127752468Y-114070534D01*
X127752757Y-114070137D01*
X127766595Y-114039242D01*
X127782990Y-114019273D01*
X127800492Y-114011270D01*
X127817650Y-114016273D01*
X127822308Y-114020258D01*
X127828915Y-114029564D01*
X127829605Y-114041690D01*
X127824657Y-114061926D01*
X127824525Y-114062373D01*
X127819385Y-114081651D01*
X127820045Y-114092205D01*
X127828140Y-114099215D01*
X127837699Y-114104096D01*
X127853661Y-114116192D01*
X127861885Y-114130765D01*
X131329650Y-114130765D01*
X131323412Y-114109365D01*
X131322024Y-114090957D01*
X131328103Y-114078364D01*
X131342668Y-114068913D01*
X131366736Y-114059935D01*
X131391104Y-114052076D01*
X131424651Y-114042964D01*
X131446951Y-114041250D01*
X131459338Y-114047090D01*
X131463143Y-114060544D01*
X131458613Y-114072277D01*
X131443470Y-114083328D01*
X131428821Y-114090257D01*
X131408841Y-114099085D01*
X131395226Y-114105596D01*
X131391913Y-114107554D01*
X131393227Y-114114971D01*
X131398782Y-114133066D01*
X131407643Y-114158956D01*
X131416684Y-114183889D01*
X131428892Y-114216289D01*
X131437681Y-114237269D01*
X131444538Y-114249070D01*
X131450948Y-114253931D01*
X131458399Y-114254095D01*
X131462663Y-114253191D01*
X131482051Y-114249281D01*
X131506567Y-114245209D01*
X131512129Y-114244399D01*
X131531498Y-114242440D01*
X131540488Y-114244688D01*
X131542931Y-114252415D01*
X131542972Y-114254625D01*
X134071195Y-114254625D01*
X134038504Y-114065142D01*
X131942088Y-114065142D01*
X131935143Y-114090416D01*
X131915684Y-114115129D01*
X131885621Y-114137125D01*
X131871957Y-114144254D01*
X131827669Y-114163379D01*
X131792729Y-114173875D01*
X131765009Y-114176001D01*
X131742384Y-114170014D01*
X131729008Y-114161587D01*
X131713431Y-114145240D01*
X131711951Y-114130783D01*
X131724554Y-114116700D01*
X131728615Y-114113892D01*
X131742721Y-114106091D01*
X131753931Y-114106493D01*
X131767922Y-114113776D01*
X131786671Y-114121664D01*
X131804417Y-114119757D01*
X131808955Y-114118154D01*
X131845782Y-114102581D01*
X131868352Y-114089272D01*
X131876739Y-114078185D01*
X131876800Y-114077259D01*
X131874030Y-114067249D01*
X131866736Y-114048370D01*
X131856441Y-114024007D01*
X131844672Y-113997541D01*
X131841564Y-113990862D01*
X131376058Y-113990862D01*
X131369811Y-114003445D01*
X131354059Y-114013812D01*
X131333286Y-114020873D01*
X131311974Y-114023536D01*
X131294607Y-114020711D01*
X131286120Y-114012749D01*
X131281081Y-113987344D01*
X131287894Y-113970697D01*
X127428172Y-113970697D01*
X127424843Y-113984356D01*
X127415924Y-114007362D01*
X127403017Y-114036468D01*
X127387725Y-114068430D01*
X127371651Y-114100001D01*
X127356396Y-114127937D01*
X127343563Y-114148991D01*
X127334755Y-114159918D01*
X127334744Y-114159926D01*
X127314604Y-114167491D01*
X127285959Y-114168313D01*
X127253005Y-114162680D01*
X127223136Y-114152329D01*
X127186865Y-114130638D01*
X127154332Y-114100900D01*
X127154222Y-114100775D01*
X127137365Y-114082306D01*
X127126723Y-114073434D01*
X127119305Y-114072535D01*
X127112203Y-114077903D01*
X127100024Y-114087197D01*
X127093348Y-114089543D01*
X127076101Y-114084402D01*
X127062441Y-114072240D01*
X127058058Y-114060327D01*
X127061308Y-114047363D01*
X127070110Y-114025248D01*
X127083044Y-113996745D01*
X127098689Y-113964613D01*
X127115624Y-113931616D01*
X127132428Y-113900515D01*
X127147679Y-113874070D01*
X127159957Y-113855043D01*
X127167842Y-113846197D01*
X127168358Y-113845970D01*
X127186783Y-113846215D01*
X127202485Y-113855917D01*
X127210005Y-113871423D01*
X127210093Y-113873898D01*
X127206731Y-113887219D01*
X127198024Y-113909517D01*
X127185524Y-113937000D01*
X127178269Y-113951633D01*
X127146809Y-114013295D01*
X127183890Y-114056098D01*
X127216482Y-114088667D01*
X127247455Y-114109778D01*
X127275261Y-114118414D01*
X127279111Y-114118571D01*
X127287152Y-114112089D01*
X127300025Y-114093477D01*
X127316944Y-114063988D01*
X127333829Y-114031486D01*
X127353322Y-113993709D01*
X127368169Y-113967749D01*
X127379390Y-113952061D01*
X127388006Y-113945098D01*
X127391349Y-113944400D01*
X127414831Y-113948418D01*
X127426571Y-113960666D01*
X127428172Y-113970697D01*
X131287894Y-113970697D01*
X131288450Y-113969340D01*
X131304569Y-113959624D01*
X131335999Y-113952750D01*
X131358850Y-113956652D01*
X131372397Y-113971013D01*
X131376058Y-113990862D01*
X131841564Y-113990862D01*
X131832951Y-113972355D01*
X131822803Y-113951834D01*
X131815753Y-113939359D01*
X131813664Y-113937143D01*
X131806045Y-113939783D01*
X131788572Y-113946772D01*
X131764719Y-113956712D01*
X131759529Y-113958914D01*
X131722567Y-113973147D01*
X131696362Y-113979528D01*
X131679560Y-113978210D01*
X131670808Y-113969344D01*
X131670623Y-113968880D01*
X131669225Y-113957614D01*
X131675673Y-113947304D01*
X131691810Y-113936396D01*
X131719480Y-113923334D01*
X131729820Y-113918965D01*
X131754789Y-113908167D01*
X131774611Y-113898827D01*
X131785292Y-113892834D01*
X131785651Y-113892540D01*
X131787436Y-113881945D01*
X131781242Y-113862990D01*
X131780208Y-113860769D01*
X131770993Y-113839545D01*
X131769223Y-113826528D01*
X131775329Y-113817220D01*
X131785064Y-113810145D01*
X131803449Y-113802623D01*
X131818584Y-113807603D01*
X131832207Y-113825934D01*
X131836849Y-113835459D01*
X131845728Y-113852871D01*
X131853566Y-113859421D01*
X131864306Y-113857880D01*
X131867259Y-113856803D01*
X131893187Y-113850509D01*
X131911147Y-113853768D01*
X131918153Y-113862073D01*
X131916196Y-113874825D01*
X131904772Y-113889077D01*
X131887706Y-113900503D01*
X131882276Y-113902660D01*
X131880677Y-113910109D01*
X131886322Y-113929206D01*
X131899317Y-113960266D01*
X131907773Y-113978617D01*
X131921721Y-114009447D01*
X131932938Y-114036483D01*
X131940122Y-114056437D01*
X131942088Y-114065142D01*
X134038504Y-114065142D01*
X133989751Y-113782561D01*
X132406572Y-113782561D01*
X132402568Y-113801355D01*
X132392151Y-113827069D01*
X132377718Y-113855088D01*
X132361663Y-113880794D01*
X132346380Y-113899572D01*
X132345367Y-113900539D01*
X132328578Y-113913514D01*
X132303900Y-113929386D01*
X132274758Y-113946313D01*
X132244579Y-113962451D01*
X132216787Y-113975959D01*
X132194808Y-113984993D01*
X132183187Y-113987779D01*
X132168464Y-113983637D01*
X132162418Y-113976965D01*
X132161354Y-113966981D01*
X132167147Y-113956608D01*
X132181442Y-113944395D01*
X132205888Y-113928888D01*
X132236362Y-113911769D01*
X132272849Y-113890536D01*
X132298661Y-113871679D01*
X132316712Y-113852476D01*
X132329917Y-113830207D01*
X132334281Y-113820350D01*
X132339382Y-113804641D01*
X132338544Y-113791012D01*
X132330973Y-113773195D01*
X132327423Y-113766385D01*
X132316794Y-113748278D01*
X132306156Y-113738363D01*
X132290250Y-113733258D01*
X132271695Y-113730551D01*
X132239133Y-113729016D01*
X132215648Y-113734242D01*
X132212428Y-113735749D01*
X132196415Y-113743956D01*
X132172293Y-113756419D01*
X132144820Y-113770679D01*
X132140101Y-113773135D01*
X132106361Y-113789190D01*
X132082952Y-113796487D01*
X132068694Y-113795107D01*
X132062406Y-113785132D01*
X132061858Y-113778545D01*
X132063760Y-113770863D01*
X127014515Y-113770863D01*
X127011078Y-113780550D01*
X127001782Y-113799987D01*
X126988145Y-113826427D01*
X126971685Y-113857122D01*
X126953922Y-113889323D01*
X126936375Y-113920283D01*
X126920563Y-113947254D01*
X126908004Y-113967487D01*
X126900218Y-113978234D01*
X126899540Y-113978871D01*
X126888313Y-113986439D01*
X126878625Y-113985901D01*
X126864029Y-113976855D01*
X126863730Y-113976646D01*
X126851680Y-113964895D01*
X126847600Y-113955524D01*
X126851007Y-113945001D01*
X126860073Y-113925597D01*
X126873069Y-113900924D01*
X126877815Y-113892435D01*
X126891633Y-113867224D01*
X126902078Y-113846543D01*
X126907453Y-113833813D01*
X126907825Y-113831914D01*
X126904284Y-113822630D01*
X126895053Y-113804367D01*
X126881913Y-113780589D01*
X126877622Y-113773150D01*
X126859559Y-113744333D01*
X126844000Y-113725500D01*
X126827832Y-113713251D01*
X126818466Y-113708495D01*
X126799997Y-113700720D01*
X126788958Y-113699342D01*
X126779600Y-113704677D01*
X126772630Y-113711016D01*
X126751998Y-113724570D01*
X126733403Y-113724002D01*
X126721119Y-113715282D01*
X126711774Y-113703004D01*
X126712054Y-113691379D01*
X126722762Y-113676550D01*
X126730928Y-113668070D01*
X126755371Y-113651445D01*
X126784165Y-113646982D01*
X126818629Y-113654678D01*
X126847600Y-113667696D01*
X126884145Y-113692391D01*
X126911044Y-113723768D01*
X126924187Y-113744014D01*
X126933701Y-113759714D01*
X126936898Y-113765977D01*
X126942832Y-113766415D01*
X126954109Y-113758046D01*
X126955097Y-113757075D01*
X126967944Y-113745879D01*
X126976597Y-113741200D01*
X126976614Y-113741200D01*
X126987795Y-113745473D01*
X127001617Y-113755214D01*
X127012184Y-113765810D01*
X127014515Y-113770863D01*
X132063760Y-113770863D01*
X132064026Y-113769792D01*
X132071880Y-113760417D01*
X132087440Y-113748820D01*
X132112727Y-113733401D01*
X132134429Y-113721078D01*
X132169057Y-113702330D01*
X132195281Y-113689987D01*
X132216920Y-113682620D01*
X132237790Y-113678805D01*
X132250543Y-113677689D01*
X132291783Y-113676697D01*
X132322468Y-113680740D01*
X132346071Y-113691135D01*
X132366068Y-113709195D01*
X132379308Y-113726425D01*
X132393549Y-113749346D01*
X132403415Y-113770074D01*
X132406572Y-113782561D01*
X133989751Y-113782561D01*
X133952877Y-113568838D01*
X132824678Y-113568838D01*
X132814485Y-113591765D01*
X132793833Y-113617195D01*
X132765879Y-113642614D01*
X132733783Y-113665507D01*
X132700705Y-113683360D01*
X132669802Y-113693658D01*
X132667263Y-113694124D01*
X132647540Y-113699486D01*
X132639431Y-113707845D01*
X132638800Y-113712398D01*
X132633259Y-113726416D01*
X132622671Y-113737160D01*
X132608424Y-113746166D01*
X132599363Y-113747406D01*
X132590588Y-113742903D01*
X132583876Y-113734932D01*
X132571516Y-113717001D01*
X132555199Y-113691669D01*
X132536617Y-113661499D01*
X132534356Y-113657743D01*
X132510978Y-113617251D01*
X132495720Y-113586103D01*
X132488128Y-113561934D01*
X132487743Y-113542381D01*
X132494109Y-113525079D01*
X132505605Y-113509033D01*
X132519801Y-113495165D01*
X132541359Y-113477477D01*
X132566917Y-113458346D01*
X132593113Y-113440152D01*
X132616586Y-113425273D01*
X132633973Y-113416089D01*
X132639403Y-113414365D01*
X132658853Y-113415015D01*
X132667129Y-113422962D01*
X132664465Y-113436528D01*
X132651094Y-113454036D01*
X132631543Y-113470721D01*
X132595654Y-113497815D01*
X132568445Y-113519681D01*
X132551019Y-113535389D01*
X132544480Y-113544006D01*
X132544458Y-113544280D01*
X132548316Y-113553860D01*
X132554447Y-113563401D01*
X132559315Y-113568687D01*
X132565506Y-113570342D01*
X132575293Y-113567428D01*
X132590946Y-113559008D01*
X132614739Y-113544144D01*
X132638504Y-113528719D01*
X132669605Y-113509323D01*
X132698641Y-113492828D01*
X132722247Y-113481046D01*
X132736491Y-113475888D01*
X132766074Y-113476975D01*
X132792349Y-113489735D01*
X132812633Y-113511340D01*
X132824242Y-113538964D01*
X132824678Y-113568838D01*
X133952877Y-113568838D01*
X133903293Y-113281443D01*
X133203441Y-113281443D01*
X133198927Y-113294182D01*
X133183745Y-113313681D01*
X133159266Y-113338595D01*
X133126862Y-113367577D01*
X133087904Y-113399279D01*
X133067642Y-113414794D01*
X133039676Y-113433453D01*
X133020030Y-113440864D01*
X133007988Y-113437140D01*
X133003120Y-113424789D01*
X133007814Y-113408447D01*
X133025974Y-113387198D01*
X133030461Y-113383038D01*
X133059970Y-113356379D01*
X132965500Y-113243414D01*
X132936830Y-113208671D01*
X132911660Y-113177289D01*
X132891398Y-113151094D01*
X132877450Y-113131914D01*
X132871224Y-113121579D01*
X132871029Y-113120720D01*
X132876404Y-113110694D01*
X132890376Y-113095095D01*
X132909715Y-113076762D01*
X132931190Y-113058534D01*
X132951572Y-113043251D01*
X132967629Y-113033753D01*
X132971580Y-113032333D01*
X132988906Y-113033731D01*
X132999957Y-113045065D01*
X133001547Y-113052750D01*
X132996808Y-113059900D01*
X132984440Y-113073618D01*
X132971675Y-113086459D01*
X132941693Y-113115560D01*
X133111697Y-113312790D01*
X133145153Y-113287245D01*
X133171297Y-113270106D01*
X133189548Y-113264827D01*
X133200320Y-113271365D01*
X133203441Y-113281443D01*
X133903293Y-113281443D01*
X133886088Y-113181726D01*
X133915853Y-113147591D01*
X134076120Y-112957749D01*
X134107906Y-112917323D01*
X133560458Y-112917323D01*
X133557493Y-112941258D01*
X133550191Y-112962076D01*
X133548516Y-112964885D01*
X133528358Y-112990927D01*
X133502465Y-113018516D01*
X133474595Y-113044142D01*
X133448509Y-113064294D01*
X133431643Y-113074031D01*
X133411301Y-113084941D01*
X133402166Y-113096052D01*
X133400800Y-113104491D01*
X133397271Y-113121625D01*
X133392092Y-113130149D01*
X133380979Y-113137894D01*
X133368617Y-113138438D01*
X133353426Y-113130786D01*
X133333823Y-113113945D01*
X133308228Y-113086923D01*
X133289699Y-113065827D01*
X133263845Y-113035526D01*
X133246179Y-113013480D01*
X133235163Y-112997164D01*
X133229264Y-112984058D01*
X133226945Y-112971637D01*
X133226629Y-112962214D01*
X133227816Y-112943898D01*
X133232452Y-112927352D01*
X133242147Y-112909978D01*
X133258511Y-112889179D01*
X133283157Y-112862358D01*
X133298230Y-112846757D01*
X133326168Y-112820038D01*
X133347850Y-112803427D01*
X133362078Y-112797771D01*
X133378295Y-112800602D01*
X133384145Y-112809517D01*
X133379372Y-112825147D01*
X133363719Y-112848127D01*
X133336929Y-112879088D01*
X133323233Y-112893645D01*
X133301201Y-112917278D01*
X133288124Y-112933381D01*
X133282462Y-112944452D01*
X133282675Y-112952986D01*
X133284318Y-112956741D01*
X133292957Y-112969836D01*
X133297981Y-112974818D01*
X133305312Y-112971601D01*
X133320006Y-112959911D01*
X133339516Y-112941877D01*
X133350556Y-112930865D01*
X133386427Y-112895485D01*
X133415371Y-112870195D01*
X133439392Y-112853644D01*
X133460492Y-112844480D01*
X133480675Y-112841349D01*
X133483187Y-112841314D01*
X133514242Y-112847826D01*
X133539391Y-112865445D01*
X133555711Y-112891294D01*
X133560458Y-112917323D01*
X134107906Y-112917323D01*
X134223827Y-112769893D01*
X134333622Y-112618772D01*
X133965355Y-112618772D01*
X133960402Y-112635951D01*
X133945826Y-112660786D01*
X133921261Y-112694305D01*
X133911006Y-112707314D01*
X133883646Y-112740502D01*
X133861836Y-112764061D01*
X133843024Y-112780405D01*
X133824658Y-112791946D01*
X133818086Y-112795194D01*
X133796374Y-112804842D01*
X133778227Y-112810636D01*
X133761568Y-112811743D01*
X133744319Y-112807332D01*
X133724400Y-112796572D01*
X133699735Y-112778632D01*
X133668244Y-112752680D01*
X133630451Y-112720141D01*
X133597478Y-112690974D01*
X133568670Y-112664383D01*
X133545724Y-112642026D01*
X133530338Y-112625564D01*
X133524211Y-112616654D01*
X133524172Y-112616300D01*
X133530020Y-112595981D01*
X133544947Y-112583403D01*
X133562952Y-112581616D01*
X133577225Y-112582271D01*
X133582046Y-112575136D01*
X133582229Y-112571560D01*
X133587964Y-112543843D01*
X133603329Y-112512288D01*
X133625564Y-112480615D01*
X133651906Y-112452546D01*
X133679596Y-112431800D01*
X133689733Y-112426682D01*
X133721185Y-112415705D01*
X133747334Y-112413730D01*
X133772458Y-112421503D01*
X133800834Y-112439772D01*
X133811189Y-112447866D01*
X133836723Y-112470512D01*
X133851732Y-112491038D01*
X133857949Y-112514012D01*
X133857106Y-112544003D01*
X133854668Y-112562469D01*
X133845909Y-112588172D01*
X133828477Y-112617761D01*
X133805528Y-112647392D01*
X133780217Y-112673222D01*
X133755699Y-112691408D01*
X133744678Y-112696447D01*
X133717605Y-112705382D01*
X133742446Y-112725982D01*
X133770595Y-112743006D01*
X133797143Y-112745803D01*
X133814169Y-112739869D01*
X133823843Y-112731541D01*
X133840027Y-112714331D01*
X133860364Y-112690851D01*
X133879952Y-112666917D01*
X133904644Y-112636865D01*
X133922749Y-112617239D01*
X133935901Y-112606508D01*
X133945737Y-112603138D01*
X133947847Y-112603262D01*
X133961049Y-112608219D01*
X133965355Y-112618772D01*
X134333622Y-112618772D01*
X134360356Y-112581977D01*
X134487089Y-112391952D01*
X134605410Y-112197772D01*
X134655480Y-112107618D01*
X134197422Y-112107618D01*
X134196656Y-112122845D01*
X134194953Y-112128143D01*
X134186295Y-112143420D01*
X134173071Y-112149570D01*
X134153623Y-112146427D01*
X134126290Y-112133822D01*
X134100513Y-112118618D01*
X134045510Y-112084336D01*
X133994359Y-112109039D01*
X133957546Y-112130074D01*
X133929109Y-112152883D01*
X133910170Y-112175885D01*
X133901851Y-112197501D01*
X133905273Y-112216151D01*
X133912429Y-112224457D01*
X133922451Y-112240329D01*
X133919313Y-112261093D01*
X133915802Y-112268477D01*
X133902580Y-112280292D01*
X133884056Y-112280694D01*
X133863752Y-112269793D01*
X133860283Y-112266735D01*
X133846783Y-112244847D01*
X133844118Y-112216911D01*
X133851251Y-112185233D01*
X133867148Y-112152116D01*
X133890771Y-112119866D01*
X133921087Y-112090787D01*
X133947578Y-112072455D01*
X133969712Y-112058797D01*
X133980790Y-112049836D01*
X133982643Y-112043590D01*
X133978420Y-112038998D01*
X133967903Y-112023938D01*
X133967324Y-112005515D01*
X133975145Y-111988765D01*
X133989827Y-111978724D01*
X133997142Y-111977714D01*
X134007567Y-111981478D01*
X134027260Y-111991636D01*
X134053440Y-112006484D01*
X134083327Y-112024319D01*
X134114143Y-112043438D01*
X134143106Y-112062138D01*
X134167439Y-112078717D01*
X134184360Y-112091472D01*
X134187842Y-112094549D01*
X134197422Y-112107618D01*
X134655480Y-112107618D01*
X134716700Y-111997388D01*
X134793764Y-111847086D01*
X134861741Y-111701730D01*
X134422547Y-111701730D01*
X134420238Y-111715998D01*
X134414572Y-111732737D01*
X134404655Y-111754847D01*
X134389593Y-111785227D01*
X134377518Y-111809019D01*
X134359145Y-111844435D01*
X134341755Y-111876662D01*
X134326991Y-111902749D01*
X134316493Y-111919744D01*
X134314267Y-111922824D01*
X134298616Y-111936588D01*
X134284496Y-111938755D01*
X134274953Y-111929371D01*
X134273069Y-111922177D01*
X134275600Y-111909991D01*
X134284199Y-111888089D01*
X134297630Y-111859299D01*
X134314659Y-111826448D01*
X134315839Y-111824280D01*
X134335465Y-111787382D01*
X134348670Y-111759762D01*
X134356642Y-111738338D01*
X134360570Y-111720029D01*
X134361599Y-111705571D01*
X134360773Y-111682127D01*
X134356675Y-111670940D01*
X134352516Y-111669286D01*
X134345911Y-111675384D01*
X134334074Y-111692223D01*
X134318378Y-111717623D01*
X134300196Y-111749401D01*
X134288525Y-111770886D01*
X134269323Y-111806399D01*
X134251790Y-111837853D01*
X134237343Y-111862780D01*
X134227401Y-111878710D01*
X134224308Y-111882800D01*
X134216094Y-111888449D01*
X134205156Y-111887876D01*
X134186724Y-111880707D01*
X134184429Y-111879678D01*
X134151004Y-111859904D01*
X134130248Y-111835296D01*
X134120513Y-111803397D01*
X134119258Y-111782502D01*
X134124030Y-111745902D01*
X134136951Y-111704551D01*
X134155925Y-111662761D01*
X134178856Y-111624846D01*
X134203650Y-111595116D01*
X134215008Y-111585447D01*
X134241715Y-111566871D01*
X134262147Y-111556752D01*
X134280939Y-111554698D01*
X134302724Y-111560315D01*
X134332135Y-111573211D01*
X134336279Y-111575174D01*
X134369715Y-111591572D01*
X134392261Y-111604865D01*
X134406334Y-111617740D01*
X134414351Y-111632885D01*
X134418731Y-111652990D01*
X134420667Y-111669007D01*
X134422392Y-111687033D01*
X134422547Y-111701730D01*
X134861741Y-111701730D01*
X134914999Y-111587849D01*
X135022365Y-111326686D01*
X135048122Y-111254156D01*
X134619912Y-111254156D01*
X134616307Y-111278252D01*
X134606859Y-111310017D01*
X134593459Y-111344837D01*
X134577996Y-111378097D01*
X134562359Y-111405183D01*
X134553190Y-111417087D01*
X134526939Y-111438811D01*
X134501854Y-111446327D01*
X134486337Y-111443538D01*
X134477550Y-111433293D01*
X134475155Y-111415314D01*
X134479618Y-111395114D01*
X134481857Y-111390367D01*
X134493739Y-111379438D01*
X134509909Y-111373078D01*
X134522100Y-111368739D01*
X134531998Y-111359296D01*
X134542091Y-111341610D01*
X134551447Y-111320667D01*
X134562445Y-111292387D01*
X134566859Y-111273846D01*
X134565306Y-111262182D01*
X134564384Y-111260501D01*
X134555300Y-111253105D01*
X134537027Y-111242567D01*
X134512987Y-111230438D01*
X134486600Y-111218266D01*
X134461289Y-111207602D01*
X134440477Y-111199996D01*
X134427583Y-111196998D01*
X134425328Y-111197510D01*
X134420847Y-111205679D01*
X134412503Y-111223817D01*
X134401883Y-111248440D01*
X134398734Y-111255983D01*
X134380178Y-111296773D01*
X134364123Y-111323497D01*
X134350426Y-111336362D01*
X134342067Y-111337201D01*
X134333129Y-111327075D01*
X134332504Y-111305717D01*
X134340119Y-111273744D01*
X134354004Y-111236289D01*
X134379139Y-111175800D01*
X134347170Y-111159332D01*
X134323846Y-111143021D01*
X134314748Y-111125043D01*
X134319615Y-111104660D01*
X134324952Y-111096296D01*
X134330582Y-111089629D01*
X134337404Y-111086550D01*
X134348865Y-111087070D01*
X134368412Y-111091201D01*
X134389799Y-111096511D01*
X134401852Y-111096888D01*
X134411132Y-111088619D01*
X134418944Y-111074250D01*
X134429618Y-111056491D01*
X134440716Y-111050010D01*
X134447759Y-111050125D01*
X134459825Y-111057037D01*
X134463527Y-111073834D01*
X134459045Y-111101557D01*
X134457641Y-111106857D01*
X134456205Y-111115028D01*
X134458506Y-111121755D01*
X134466699Y-111128544D01*
X134482939Y-111136902D01*
X134509382Y-111148337D01*
X134527994Y-111156046D01*
X134565348Y-111172227D01*
X134591049Y-111186113D01*
X134607219Y-111199973D01*
X134615986Y-111216073D01*
X134619472Y-111236683D01*
X134619912Y-111254156D01*
X135048122Y-111254156D01*
X135116097Y-111062746D01*
X135196432Y-110795176D01*
X135241896Y-110611040D01*
X134835362Y-110611040D01*
X134830675Y-110634595D01*
X134830236Y-110635678D01*
X134824384Y-110647059D01*
X134816552Y-110653728D01*
X134804235Y-110655744D01*
X134784927Y-110653167D01*
X134756120Y-110646056D01*
X134727872Y-110638099D01*
X134699362Y-110630198D01*
X134676709Y-110624491D01*
X134663068Y-110621742D01*
X134660549Y-110621770D01*
X134624790Y-110669686D01*
X134598575Y-110708765D01*
X134581165Y-110740415D01*
X134571823Y-110766042D01*
X134569809Y-110787053D01*
X134570608Y-110793122D01*
X134578553Y-110801732D01*
X134598452Y-110813267D01*
X134628322Y-110826609D01*
X134634535Y-110829089D01*
X134676583Y-110845655D01*
X134707014Y-110858022D01*
X134727705Y-110867332D01*
X134740533Y-110874727D01*
X134747378Y-110881349D01*
X134750118Y-110888339D01*
X134750629Y-110896840D01*
X134750629Y-110899679D01*
X134745994Y-110923960D01*
X134732586Y-110937436D01*
X134719712Y-110939943D01*
X134707946Y-110937309D01*
X134685976Y-110930142D01*
X134656972Y-110919546D01*
X134625006Y-110906989D01*
X134592065Y-110892823D01*
X134563255Y-110878961D01*
X134541779Y-110867039D01*
X134531100Y-110859014D01*
X134520828Y-110836632D01*
X134518223Y-110805397D01*
X134522636Y-110768349D01*
X134533417Y-110728531D01*
X134549917Y-110688984D01*
X134571486Y-110652749D01*
X134576631Y-110645804D01*
X134607191Y-110606193D01*
X134591269Y-110593300D01*
X134579841Y-110579311D01*
X134580024Y-110561796D01*
X134580243Y-110560901D01*
X134584878Y-110545953D01*
X134591413Y-110536091D01*
X134602004Y-110531147D01*
X134618808Y-110530948D01*
X134643983Y-110535326D01*
X134679686Y-110544110D01*
X134705516Y-110551007D01*
X134742352Y-110560980D01*
X134774855Y-110569812D01*
X134800106Y-110576708D01*
X134815190Y-110580873D01*
X134817386Y-110581498D01*
X134830623Y-110592035D01*
X134835362Y-110611040D01*
X135241896Y-110611040D01*
X135263603Y-110523126D01*
X135317848Y-110245742D01*
X135350859Y-110020465D01*
X134960037Y-110020465D01*
X134958313Y-110044371D01*
X134954636Y-110070359D01*
X134948880Y-110104655D01*
X134941552Y-110144813D01*
X134933156Y-110188383D01*
X134924196Y-110232917D01*
X134915178Y-110275967D01*
X134906606Y-110315085D01*
X134898986Y-110347822D01*
X134892822Y-110371730D01*
X134888619Y-110384360D01*
X134887988Y-110385406D01*
X134873863Y-110394582D01*
X134859454Y-110393302D01*
X134850386Y-110382118D01*
X134850272Y-110381699D01*
X134850076Y-110368694D01*
X134852605Y-110345530D01*
X134857362Y-110316200D01*
X134860369Y-110300719D01*
X134866119Y-110271667D01*
X134870270Y-110248697D01*
X134872271Y-110234976D01*
X134872244Y-110232511D01*
X134864793Y-110230685D01*
X134845829Y-110226577D01*
X134818075Y-110220740D01*
X134784251Y-110213730D01*
X134747079Y-110206102D01*
X134709281Y-110198411D01*
X134673578Y-110191212D01*
X134642691Y-110185061D01*
X134619343Y-110180513D01*
X134606254Y-110178122D01*
X134604494Y-110177895D01*
X134600987Y-110184471D01*
X134596167Y-110201702D01*
X134591053Y-110225915D01*
X134590865Y-110226929D01*
X134581192Y-110270830D01*
X134570781Y-110301786D01*
X134559868Y-110319223D01*
X134551683Y-110323086D01*
X134537183Y-110317024D01*
X134530657Y-110298847D01*
X134532109Y-110268572D01*
X134536563Y-110245665D01*
X134541793Y-110221479D01*
X134548793Y-110186777D01*
X134556826Y-110145337D01*
X134565152Y-110100940D01*
X134569533Y-110076945D01*
X134579072Y-110026712D01*
X134587415Y-109989409D01*
X134595144Y-109963562D01*
X134602838Y-109947696D01*
X134611078Y-109940336D01*
X134620443Y-109940007D01*
X134623066Y-109940866D01*
X134631464Y-109951259D01*
X134634303Y-109974096D01*
X134631594Y-110009732D01*
X134626010Y-110044625D01*
X134622318Y-110069057D01*
X134621033Y-110087501D01*
X134622268Y-110095544D01*
X134630615Y-110098353D01*
X134650878Y-110103236D01*
X134680692Y-110109680D01*
X134717691Y-110117173D01*
X134755616Y-110124471D01*
X134806238Y-110133638D01*
X134843836Y-110139615D01*
X134869515Y-110142533D01*
X134884380Y-110142525D01*
X134889267Y-110140439D01*
X134892719Y-110129746D01*
X134897317Y-110108765D01*
X134902188Y-110081584D01*
X134903253Y-110074903D01*
X134909189Y-110044991D01*
X134916564Y-110019487D01*
X134923986Y-110003088D01*
X134924912Y-110001831D01*
X134935322Y-109991383D01*
X134944010Y-109991968D01*
X134950184Y-109996500D01*
X134957592Y-110005947D01*
X134960037Y-110020465D01*
X135350859Y-110020465D01*
X135359401Y-109962174D01*
X135385708Y-109706229D01*
X135394382Y-109576342D01*
X135399882Y-109436441D01*
X135401842Y-109314978D01*
X134023513Y-109314978D01*
X134019653Y-109468944D01*
X134010774Y-109616813D01*
X133996595Y-109762445D01*
X133976833Y-109909698D01*
X133959319Y-110016999D01*
X133908964Y-110264194D01*
X133845007Y-110506907D01*
X133767798Y-110744657D01*
X133677686Y-110976961D01*
X133575022Y-111203336D01*
X133460155Y-111423300D01*
X133333437Y-111636371D01*
X133195216Y-111842066D01*
X133045843Y-112039903D01*
X132885669Y-112229399D01*
X132715042Y-112410072D01*
X132534314Y-112581440D01*
X132343834Y-112743020D01*
X132143952Y-112894329D01*
X131935018Y-113034885D01*
X131717383Y-113164207D01*
X131648200Y-113201941D01*
X131420884Y-113315208D01*
X131188317Y-113415048D01*
X130951014Y-113501306D01*
X130709485Y-113573830D01*
X130464245Y-113632466D01*
X130215806Y-113677060D01*
X129964680Y-113707459D01*
X129957286Y-113708135D01*
X129909697Y-113712422D01*
X129869604Y-113715906D01*
X129834774Y-113718657D01*
X129802973Y-113720746D01*
X129771967Y-113722240D01*
X129739521Y-113723211D01*
X129703401Y-113723728D01*
X129661374Y-113723860D01*
X129611205Y-113723678D01*
X129550660Y-113723251D01*
X129489200Y-113722746D01*
X129406589Y-113721849D01*
X129336033Y-113720577D01*
X129275077Y-113718827D01*
X129221266Y-113716494D01*
X129172144Y-113713472D01*
X129125255Y-113709659D01*
X129082800Y-113705449D01*
X128825042Y-113670960D01*
X128572796Y-113623048D01*
X128368657Y-113572295D01*
X126586343Y-113572295D01*
X126582469Y-113583647D01*
X126572048Y-113603588D01*
X126556886Y-113628834D01*
X126546302Y-113645107D01*
X126506261Y-113704914D01*
X126453774Y-113704690D01*
X126401286Y-113704466D01*
X126315973Y-113644819D01*
X126277113Y-113616862D01*
X126249736Y-113595089D01*
X126232795Y-113578361D01*
X126225241Y-113565540D01*
X126226026Y-113555485D01*
X126229491Y-113550864D01*
X126238569Y-113546428D01*
X126252198Y-113548272D01*
X126271963Y-113557131D01*
X126299452Y-113573739D01*
X126336248Y-113598831D01*
X126342415Y-113603192D01*
X126379617Y-113628430D01*
X126408125Y-113644688D01*
X126430017Y-113652715D01*
X126447369Y-113653259D01*
X126462260Y-113647068D01*
X126462972Y-113646599D01*
X126467302Y-113643179D01*
X126468597Y-113639328D01*
X126465478Y-113633828D01*
X126456565Y-113625462D01*
X126440480Y-113613011D01*
X126415843Y-113595258D01*
X126381274Y-113570986D01*
X126362392Y-113557808D01*
X126330479Y-113534696D01*
X126305150Y-113514653D01*
X126288239Y-113499225D01*
X126281579Y-113489959D01*
X126281543Y-113489550D01*
X126285979Y-113476318D01*
X126297158Y-113457207D01*
X126311887Y-113436919D01*
X126326974Y-113420157D01*
X126331185Y-113416443D01*
X126344325Y-113411504D01*
X126366728Y-113408226D01*
X126386772Y-113407371D01*
X126413929Y-113408584D01*
X126435655Y-113413535D01*
X126458603Y-113424196D01*
X126474285Y-113433282D01*
X126499138Y-113449032D01*
X126521214Y-113464421D01*
X126534447Y-113475011D01*
X126548549Y-113491895D01*
X126563375Y-113515383D01*
X126576281Y-113540515D01*
X126584623Y-113562333D01*
X126586343Y-113572295D01*
X128368657Y-113572295D01*
X128326005Y-113561691D01*
X128084612Y-113486870D01*
X127848559Y-113398562D01*
X127617790Y-113296748D01*
X127392246Y-113181407D01*
X127171872Y-113052519D01*
X127046434Y-112971571D01*
X126844756Y-112828422D01*
X125886359Y-112828422D01*
X125883855Y-112856020D01*
X125878940Y-112889652D01*
X125872357Y-112925345D01*
X125864850Y-112959125D01*
X125857162Y-112987019D01*
X125850034Y-113005053D01*
X125849112Y-113006582D01*
X125840212Y-113017761D01*
X125828422Y-113026525D01*
X125811048Y-113033954D01*
X125785401Y-113041129D01*
X125748789Y-113049128D01*
X125737258Y-113051454D01*
X125694151Y-113058864D01*
X125661637Y-113061257D01*
X125636625Y-113058463D01*
X125616029Y-113050315D01*
X125606629Y-113044329D01*
X125593958Y-113033708D01*
X125574408Y-113015461D01*
X125551061Y-112992521D01*
X125535338Y-112976511D01*
X125509460Y-112948699D01*
X125493302Y-112928464D01*
X125485548Y-112913955D01*
X125484538Y-112905037D01*
X125489706Y-112890432D01*
X125500137Y-112886267D01*
X125516616Y-112892873D01*
X125539926Y-112910581D01*
X125570852Y-112939720D01*
X125573802Y-112942679D01*
X125600890Y-112968643D01*
X125623717Y-112987963D01*
X125640248Y-112999005D01*
X125646373Y-113000977D01*
X125669487Y-112999095D01*
X125698505Y-112994121D01*
X125729365Y-112987085D01*
X125758006Y-112979017D01*
X125780369Y-112970947D01*
X125792349Y-112963954D01*
X125799023Y-112951208D01*
X125806906Y-112928089D01*
X125814752Y-112898526D01*
X125818473Y-112881567D01*
X125832497Y-112812551D01*
X125777620Y-112750870D01*
X125755842Y-112726131D01*
X125738155Y-112705539D01*
X125726492Y-112691380D01*
X125722743Y-112686017D01*
X125728866Y-112669213D01*
X125743880Y-112660284D01*
X125748241Y-112659886D01*
X125760397Y-112665312D01*
X125778742Y-112679855D01*
X125800906Y-112700911D01*
X125824518Y-112725876D01*
X125847205Y-112752147D01*
X125866598Y-112777120D01*
X125880324Y-112798190D01*
X125885710Y-112810832D01*
X125886359Y-112828422D01*
X126844756Y-112828422D01*
X126839946Y-112825008D01*
X126642890Y-112667716D01*
X126583501Y-112614596D01*
X125514730Y-112614596D01*
X125512263Y-112635681D01*
X125502855Y-112654815D01*
X125484839Y-112675364D01*
X125456549Y-112700696D01*
X125455964Y-112701192D01*
X125425690Y-112724464D01*
X125400403Y-112736905D01*
X125376171Y-112739138D01*
X125349060Y-112731781D01*
X125326840Y-112721550D01*
X125300541Y-112703517D01*
X125271941Y-112676445D01*
X125244676Y-112644541D01*
X125222381Y-112612010D01*
X125209710Y-112586061D01*
X125203443Y-112560228D01*
X125200985Y-112531698D01*
X125202356Y-112505639D01*
X125207578Y-112487224D01*
X125209300Y-112484644D01*
X125219298Y-112474951D01*
X125237262Y-112459671D01*
X125259530Y-112441904D01*
X125262366Y-112439714D01*
X125293541Y-112418353D01*
X125319774Y-112407780D01*
X125345208Y-112407464D01*
X125373986Y-112416874D01*
X125388053Y-112423592D01*
X125418569Y-112444594D01*
X125449134Y-112475041D01*
X125476728Y-112510918D01*
X125498327Y-112548209D01*
X125510909Y-112582897D01*
X125511926Y-112588193D01*
X125514730Y-112614596D01*
X126583501Y-112614596D01*
X126455615Y-112500211D01*
X126278469Y-112323013D01*
X126187385Y-112221162D01*
X125251029Y-112221162D01*
X125248158Y-112229785D01*
X125238606Y-112241303D01*
X125220964Y-112256979D01*
X125193823Y-112278073D01*
X125159049Y-112303495D01*
X125126512Y-112326299D01*
X125097292Y-112345699D01*
X125073743Y-112360215D01*
X125058218Y-112368366D01*
X125053987Y-112369600D01*
X125040830Y-112363965D01*
X125029056Y-112351513D01*
X125021717Y-112335281D01*
X125021134Y-112323186D01*
X125028377Y-112315181D01*
X125045118Y-112301103D01*
X125068813Y-112282982D01*
X125095100Y-112264115D01*
X125125550Y-112242436D01*
X125145547Y-112226814D01*
X125156879Y-112215507D01*
X125161336Y-112206775D01*
X125161010Y-112199914D01*
X125157500Y-112181180D01*
X125156785Y-112171843D01*
X125154937Y-112163197D01*
X125148557Y-112160504D01*
X125136131Y-112164388D01*
X125116140Y-112175475D01*
X125087069Y-112194391D01*
X125064370Y-112209943D01*
X125035421Y-112229507D01*
X125010293Y-112245576D01*
X124991624Y-112256527D01*
X124982046Y-112260737D01*
X124981906Y-112260743D01*
X124966551Y-112254628D01*
X124952990Y-112240092D01*
X124946323Y-112222845D01*
X124946229Y-112220811D01*
X124949410Y-112211449D01*
X124960026Y-112199556D01*
X124979686Y-112183706D01*
X125009999Y-112162477D01*
X125018800Y-112156581D01*
X125049527Y-112135884D01*
X125070091Y-112121000D01*
X125082525Y-112109868D01*
X125088858Y-112100426D01*
X125091121Y-112090613D01*
X125091372Y-112082903D01*
X125089193Y-112064487D01*
X125081961Y-112057707D01*
X125079923Y-112057543D01*
X125069425Y-112061054D01*
X125049425Y-112070602D01*
X125022842Y-112084709D01*
X124993979Y-112101086D01*
X124964033Y-112118136D01*
X124938113Y-112132055D01*
X124919058Y-112141374D01*
X124909842Y-112144629D01*
X124894777Y-112138789D01*
X124880764Y-112125244D01*
X124873747Y-112109954D01*
X124873658Y-112108343D01*
X124878825Y-112094071D01*
X124886358Y-112085230D01*
X124900771Y-112074895D01*
X124923637Y-112060673D01*
X124951961Y-112044195D01*
X124982749Y-112027090D01*
X125013010Y-112010986D01*
X125039748Y-111997512D01*
X125059972Y-111988298D01*
X125070577Y-111984971D01*
X125094572Y-111991602D01*
X125116477Y-112009059D01*
X125133211Y-112033685D01*
X125141695Y-112061826D01*
X125142172Y-112069925D01*
X125146377Y-112087490D01*
X125161362Y-112098773D01*
X125162311Y-112099200D01*
X125182728Y-112114337D01*
X125199081Y-112137021D01*
X125207212Y-112161129D01*
X125207486Y-112165705D01*
X125210893Y-112177861D01*
X125215986Y-112180914D01*
X125230864Y-112187018D01*
X125244159Y-112201517D01*
X125250892Y-112218697D01*
X125251029Y-112221162D01*
X126187385Y-112221162D01*
X126111798Y-112136640D01*
X125955950Y-111941610D01*
X125852759Y-111796700D01*
X124988889Y-111796700D01*
X124985429Y-111808806D01*
X124976427Y-111816801D01*
X124957022Y-111830279D01*
X124929515Y-111847903D01*
X124896209Y-111868336D01*
X124859406Y-111890239D01*
X124821408Y-111912276D01*
X124784519Y-111933108D01*
X124751039Y-111951398D01*
X124723273Y-111965808D01*
X124703521Y-111975001D01*
X124694697Y-111977714D01*
X124678425Y-111972021D01*
X124670713Y-111963677D01*
X124663444Y-111945178D01*
X124665057Y-111929990D01*
X124676983Y-111915617D01*
X124700656Y-111899565D01*
X124710908Y-111893688D01*
X124758615Y-111867009D01*
X124730427Y-111850199D01*
X124704273Y-111828001D01*
X124682719Y-111797527D01*
X124673572Y-111779243D01*
X124667811Y-111762325D01*
X124664673Y-111742525D01*
X124663396Y-111715594D01*
X124663200Y-111688779D01*
X124663634Y-111651993D01*
X124666283Y-111626322D01*
X124673170Y-111608367D01*
X124686316Y-111594730D01*
X124707746Y-111582013D01*
X124734355Y-111569214D01*
X124758061Y-111558764D01*
X124776507Y-111553641D01*
X124793193Y-111554577D01*
X124811618Y-111562303D01*
X124835283Y-111577551D01*
X124860111Y-111595487D01*
X124894957Y-111626856D01*
X124920348Y-111661876D01*
X124934794Y-111697907D01*
X124936905Y-111731602D01*
X124935203Y-111749854D01*
X124938285Y-111757929D01*
X124948482Y-111759955D01*
X124952950Y-111760000D01*
X124970932Y-111765669D01*
X124983971Y-111779494D01*
X124988889Y-111796700D01*
X125852759Y-111796700D01*
X125811272Y-111738441D01*
X125678113Y-111527652D01*
X125556819Y-111309762D01*
X125542632Y-111280566D01*
X124734155Y-111280566D01*
X124726095Y-111290528D01*
X124716120Y-111294183D01*
X124706375Y-111292893D01*
X124696826Y-111284944D01*
X124686389Y-111268590D01*
X124673983Y-111242088D01*
X124658526Y-111203693D01*
X124656172Y-111197571D01*
X124645268Y-111172658D01*
X124633851Y-111152093D01*
X124625976Y-111142001D01*
X124612364Y-111135245D01*
X124596986Y-111134019D01*
X124585718Y-111138149D01*
X124583372Y-111143274D01*
X124585937Y-111151875D01*
X124592918Y-111171061D01*
X124603245Y-111197978D01*
X124615664Y-111229320D01*
X124633152Y-111274167D01*
X124645000Y-111308455D01*
X124651751Y-111334753D01*
X124653950Y-111355632D01*
X124652142Y-111373662D01*
X124648817Y-111385860D01*
X124633305Y-111411864D01*
X124607670Y-111427792D01*
X124574542Y-111433138D01*
X124553227Y-111430399D01*
X124534704Y-111419649D01*
X124523468Y-111409327D01*
X124507420Y-111387859D01*
X124490432Y-111356220D01*
X124474196Y-111318514D01*
X124460402Y-111278845D01*
X124450740Y-111241316D01*
X124448270Y-111226807D01*
X124441412Y-111198221D01*
X124429210Y-111179845D01*
X124425881Y-111176982D01*
X124412536Y-111160766D01*
X124410618Y-111141088D01*
X124412186Y-111131552D01*
X124416251Y-111124146D01*
X124425169Y-111117492D01*
X124441295Y-111110214D01*
X124466984Y-111100933D01*
X124496045Y-111091127D01*
X124540942Y-111076746D01*
X124574852Y-111067800D01*
X124600228Y-111064246D01*
X124619523Y-111066038D01*
X124635188Y-111073129D01*
X124649677Y-111085476D01*
X124652331Y-111088233D01*
X124663647Y-111104061D01*
X124677429Y-111128951D01*
X124692266Y-111159587D01*
X124706748Y-111192655D01*
X124719465Y-111224840D01*
X124729007Y-111252826D01*
X124733963Y-111273300D01*
X124734155Y-111280566D01*
X125542632Y-111280566D01*
X125447739Y-111085289D01*
X125351219Y-110854750D01*
X125346300Y-110840858D01*
X124575563Y-110840858D01*
X124571571Y-110851181D01*
X124562402Y-110857541D01*
X124542394Y-110867160D01*
X124514548Y-110878924D01*
X124481863Y-110891718D01*
X124447342Y-110904427D01*
X124413983Y-110915937D01*
X124384789Y-110925133D01*
X124362759Y-110930900D01*
X124353213Y-110932300D01*
X124336939Y-110926575D01*
X124329180Y-110917812D01*
X124323851Y-110899066D01*
X124323482Y-110883341D01*
X124325589Y-110874235D01*
X124331169Y-110866958D01*
X124342744Y-110860062D01*
X124362837Y-110852103D01*
X124393970Y-110841634D01*
X124399211Y-110839932D01*
X124472678Y-110816121D01*
X124477710Y-110751795D01*
X124479213Y-110701032D01*
X124475127Y-110660907D01*
X124465633Y-110632515D01*
X124456010Y-110620328D01*
X124448321Y-110616558D01*
X124435885Y-110615732D01*
X124415957Y-110618063D01*
X124385792Y-110623762D01*
X124370791Y-110626916D01*
X124338208Y-110633952D01*
X124309676Y-110640242D01*
X124289002Y-110644939D01*
X124281468Y-110646768D01*
X124263438Y-110645128D01*
X124249676Y-110631916D01*
X124242688Y-110609967D01*
X124242286Y-110602456D01*
X124245548Y-110582524D01*
X124254986Y-110574125D01*
X124277596Y-110568001D01*
X124307452Y-110561129D01*
X124341246Y-110554124D01*
X124375672Y-110547598D01*
X124407425Y-110542164D01*
X124433198Y-110538437D01*
X124449684Y-110537029D01*
X124453291Y-110537345D01*
X124474543Y-110551050D01*
X124493840Y-110576360D01*
X124510107Y-110610393D01*
X124522267Y-110650265D01*
X124529246Y-110693095D01*
X124529967Y-110735999D01*
X124529526Y-110741650D01*
X124524801Y-110793786D01*
X124544882Y-110796107D01*
X124562538Y-110804453D01*
X124573652Y-110821198D01*
X124575563Y-110840858D01*
X125346300Y-110840858D01*
X125267608Y-110618665D01*
X125197252Y-110377552D01*
X125179909Y-110302489D01*
X124431120Y-110302489D01*
X124424181Y-110320524D01*
X124406168Y-110331036D01*
X124401021Y-110332424D01*
X124388859Y-110334342D01*
X124375929Y-110333588D01*
X124359501Y-110329355D01*
X124336844Y-110320835D01*
X124305230Y-110307222D01*
X124284907Y-110298117D01*
X124250260Y-110281714D01*
X124219314Y-110265637D01*
X124195112Y-110251565D01*
X124180697Y-110241180D01*
X124179404Y-110239863D01*
X124163693Y-110222112D01*
X124137542Y-110254026D01*
X124122795Y-110272974D01*
X124115934Y-110286550D01*
X124115293Y-110300312D01*
X124118604Y-110317212D01*
X124125209Y-110355506D01*
X124124770Y-110382086D01*
X124117372Y-110396604D01*
X124103099Y-110398710D01*
X124099015Y-110397462D01*
X124092018Y-110389124D01*
X124083775Y-110371296D01*
X124078830Y-110356803D01*
X124071263Y-110326251D01*
X124065088Y-110292336D01*
X124063355Y-110278966D01*
X124059049Y-110238474D01*
X124104821Y-110184623D01*
X124150506Y-110131506D01*
X124191853Y-110084950D01*
X124233335Y-110039979D01*
X124262515Y-110009214D01*
X124285443Y-109985872D01*
X124301891Y-109971354D01*
X124314999Y-109963615D01*
X124327907Y-109960611D01*
X124337705Y-109960229D01*
X124357350Y-109961895D01*
X124367949Y-109968741D01*
X124373094Y-109978844D01*
X124379324Y-110005673D01*
X124373881Y-110024350D01*
X124356247Y-110036007D01*
X124345623Y-110038967D01*
X124329352Y-110046733D01*
X124307404Y-110064667D01*
X124278783Y-110093619D01*
X124268485Y-110104872D01*
X124246423Y-110130110D01*
X124228552Y-110152069D01*
X124216859Y-110168205D01*
X124213258Y-110175563D01*
X124219378Y-110182447D01*
X124235977Y-110193861D01*
X124260412Y-110208130D01*
X124285697Y-110221419D01*
X124323519Y-110239485D01*
X124352242Y-110250828D01*
X124375001Y-110256535D01*
X124390788Y-110257771D01*
X124411525Y-110258810D01*
X124422231Y-110263312D01*
X124427326Y-110273354D01*
X124427807Y-110275176D01*
X124431120Y-110302489D01*
X125179909Y-110302489D01*
X125140499Y-110131930D01*
X125139509Y-110126995D01*
X125117769Y-110012501D01*
X125099961Y-109904972D01*
X125085736Y-109800982D01*
X125074745Y-109697103D01*
X125066637Y-109589910D01*
X125061063Y-109475975D01*
X125057671Y-109351871D01*
X125057149Y-109320557D01*
X125056142Y-109196967D01*
X125057143Y-109084702D01*
X125060364Y-108980686D01*
X125066015Y-108881840D01*
X125074307Y-108785088D01*
X125085453Y-108687352D01*
X125099662Y-108585555D01*
X125113578Y-108497914D01*
X125161715Y-108251451D01*
X125223267Y-108009807D01*
X125297832Y-107773405D01*
X125385004Y-107542669D01*
X125484379Y-107318023D01*
X125595554Y-107099891D01*
X125718124Y-106888698D01*
X125851686Y-106684867D01*
X125995834Y-106488823D01*
X126150165Y-106300989D01*
X126314275Y-106121790D01*
X126487759Y-105951649D01*
X126670214Y-105790991D01*
X126861234Y-105640239D01*
X127060417Y-105499818D01*
X127267358Y-105370151D01*
X127481652Y-105251663D01*
X127702896Y-105144778D01*
X127930686Y-105049920D01*
X128164616Y-104967512D01*
X128404284Y-104897980D01*
X128585785Y-104854915D01*
X128727995Y-104826308D01*
X128864545Y-104803127D01*
X128998573Y-104785081D01*
X129133216Y-104771879D01*
X129271613Y-104763229D01*
X129416902Y-104758839D01*
X129572219Y-104758418D01*
X129618786Y-104758985D01*
X129710942Y-104760716D01*
X129791590Y-104763056D01*
X129863732Y-104766225D01*
X129930370Y-104770441D01*
X129994506Y-104775922D01*
X130059140Y-104782889D01*
X130127275Y-104791559D01*
X130192785Y-104800810D01*
X130441951Y-104844491D01*
X130686886Y-104901866D01*
X130927112Y-104972612D01*
X131162154Y-105056403D01*
X131391534Y-105152915D01*
X131614777Y-105261822D01*
X131831405Y-105382800D01*
X132040941Y-105515524D01*
X132242911Y-105659668D01*
X132436835Y-105814908D01*
X132622240Y-105980920D01*
X132798646Y-106157377D01*
X132965579Y-106343956D01*
X133122562Y-106540330D01*
X133269117Y-106746177D01*
X133404769Y-106961169D01*
X133433411Y-107010200D01*
X133552277Y-107231122D01*
X133658453Y-107458839D01*
X133751725Y-107692737D01*
X133831881Y-107932196D01*
X133898709Y-108176601D01*
X133951996Y-108425333D01*
X133980810Y-108599514D01*
X133992932Y-108688414D01*
X134002613Y-108773188D01*
X134010133Y-108857513D01*
X134015771Y-108945069D01*
X134019805Y-109039534D01*
X134022515Y-109144586D01*
X134022637Y-109151057D01*
X134023513Y-109314978D01*
X135401842Y-109314978D01*
X135402239Y-109290382D01*
X135401483Y-109142020D01*
X135397647Y-108995209D01*
X135390760Y-108853806D01*
X135380854Y-108721665D01*
X135377518Y-108686600D01*
X135366623Y-108577743D01*
X135408783Y-108538300D01*
X135431594Y-108516849D01*
X135463102Y-108487047D01*
X135502675Y-108449502D01*
X135549678Y-108404820D01*
X135603477Y-108353608D01*
X135663440Y-108296471D01*
X135728933Y-108234017D01*
X135799320Y-108166852D01*
X135873970Y-108095582D01*
X135952249Y-108020815D01*
X136033522Y-107943156D01*
X136117156Y-107863212D01*
X136202517Y-107781590D01*
X136288971Y-107698896D01*
X136375886Y-107615737D01*
X136462626Y-107532720D01*
X136548559Y-107450449D01*
X136633051Y-107369534D01*
X136715468Y-107290579D01*
X136795176Y-107214191D01*
X136871541Y-107140978D01*
X136943931Y-107071544D01*
X137011711Y-107006498D01*
X137074247Y-106946445D01*
X137130907Y-106891992D01*
X137181055Y-106843746D01*
X137224059Y-106802313D01*
X137259285Y-106768299D01*
X137286099Y-106742311D01*
X137303867Y-106724956D01*
X137311956Y-106716840D01*
X137312400Y-106716301D01*
X137305960Y-106712168D01*
X137289757Y-106708024D01*
X137281558Y-106706686D01*
X137269373Y-106704864D01*
X137243937Y-106700965D01*
X137206119Y-106695123D01*
X137156788Y-106687475D01*
X137096815Y-106678157D01*
X137027070Y-106667305D01*
X136948420Y-106655054D01*
X136861737Y-106641542D01*
X136767890Y-106626904D01*
X136667749Y-106611276D01*
X136562182Y-106594794D01*
X136452060Y-106577595D01*
X136338253Y-106559813D01*
X136221630Y-106541586D01*
X136103060Y-106523049D01*
X135983413Y-106504338D01*
X135863559Y-106485589D01*
X135744368Y-106466939D01*
X135626709Y-106448523D01*
X135511451Y-106430477D01*
X135399465Y-106412938D01*
X135291620Y-106396041D01*
X135188785Y-106379923D01*
X135091830Y-106364719D01*
X135001625Y-106350565D01*
X134919040Y-106337598D01*
X134844944Y-106325954D01*
X134780206Y-106315768D01*
X134725696Y-106307177D01*
X134682285Y-106300317D01*
X134650841Y-106295323D01*
X134632233Y-106292332D01*
X134627258Y-106291492D01*
X134617698Y-106286782D01*
X134606072Y-106275285D01*
X134591094Y-106255349D01*
X134571479Y-106225323D01*
X134555269Y-106199013D01*
X134399199Y-105955796D01*
X134231526Y-105720968D01*
X134052723Y-105494940D01*
X133863260Y-105278124D01*
X133663610Y-105070931D01*
X133454244Y-104873771D01*
X133235634Y-104687056D01*
X133008252Y-104511197D01*
X132772570Y-104346605D01*
X132529058Y-104193692D01*
X132278190Y-104052868D01*
X132020436Y-103924545D01*
X131865915Y-103855119D01*
X131715897Y-103793166D01*
X131558626Y-103733439D01*
X131398645Y-103677515D01*
X131240494Y-103626973D01*
X131088715Y-103583390D01*
X131067629Y-103577774D01*
X131024105Y-103566255D01*
X130983555Y-103555429D01*
X130948822Y-103546064D01*
X130922751Y-103538926D01*
X130909121Y-103535062D01*
X130881241Y-103526771D01*
X130212623Y-102298500D01*
X130145014Y-102174344D01*
X130079233Y-102053638D01*
X130015620Y-101936995D01*
X129954510Y-101825032D01*
X129896242Y-101718363D01*
X129841152Y-101617603D01*
X129789578Y-101523368D01*
X129741857Y-101436271D01*
X129698326Y-101356930D01*
X129659323Y-101285958D01*
X129625184Y-101223970D01*
X129596247Y-101171582D01*
X129572850Y-101129409D01*
X129555329Y-101098066D01*
X129544021Y-101078168D01*
X129539265Y-101070330D01*
X129539147Y-101070229D01*
X129535246Y-101076505D01*
G36*
X129526058Y-114420581D02*
X129484930Y-114438253D01*
X129484641Y-114438418D01*
X129445658Y-114460722D01*
X129445658Y-114499347D01*
X129446215Y-114521472D01*
X129449863Y-114535332D01*
X129459566Y-114546090D01*
X129478288Y-114558910D01*
X129480764Y-114560501D01*
X129517186Y-114577597D01*
X129553812Y-114583558D01*
X129587350Y-114578196D01*
X129607129Y-114567679D01*
X129618171Y-114558007D01*
X129624178Y-114546924D01*
X129626648Y-114529860D01*
X129627086Y-114506817D01*
X129626306Y-114474824D01*
X129623096Y-114453776D01*
X129616158Y-114440147D01*
X129604189Y-114430410D01*
X129597539Y-114426732D01*
X129563443Y-114416757D01*
X129526058Y-114420581D01*
X129526058Y-114420581D01*
G37*
X129526058Y-114420581D02*
X129484930Y-114438253D01*
X129484641Y-114438418D01*
X129445658Y-114460722D01*
X129445658Y-114499347D01*
X129446215Y-114521472D01*
X129449863Y-114535332D01*
X129459566Y-114546090D01*
X129478288Y-114558910D01*
X129480764Y-114560501D01*
X129517186Y-114577597D01*
X129553812Y-114583558D01*
X129587350Y-114578196D01*
X129607129Y-114567679D01*
X129618171Y-114558007D01*
X129624178Y-114546924D01*
X129626648Y-114529860D01*
X129627086Y-114506817D01*
X129626306Y-114474824D01*
X129623096Y-114453776D01*
X129616158Y-114440147D01*
X129604189Y-114430410D01*
X129597539Y-114426732D01*
X129563443Y-114416757D01*
X129526058Y-114420581D01*
G36*
X129981677Y-114397971D02*
X129971059Y-114433284D01*
X129964782Y-114456921D01*
X129963315Y-114471195D01*
X129967123Y-114478418D01*
X129976676Y-114480904D01*
X129992441Y-114480965D01*
X129998438Y-114480856D01*
X130021984Y-114479890D01*
X130040046Y-114478042D01*
X130045995Y-114476686D01*
X130048045Y-114469570D01*
X130042759Y-114452225D01*
X130029856Y-114423817D01*
X130024837Y-114413759D01*
X129994798Y-114354429D01*
X129981677Y-114397971D01*
X129981677Y-114397971D01*
G37*
X129981677Y-114397971D02*
X129971059Y-114433284D01*
X129964782Y-114456921D01*
X129963315Y-114471195D01*
X129967123Y-114478418D01*
X129976676Y-114480904D01*
X129992441Y-114480965D01*
X129998438Y-114480856D01*
X130021984Y-114479890D01*
X130040046Y-114478042D01*
X130045995Y-114476686D01*
X130048045Y-114469570D01*
X130042759Y-114452225D01*
X130029856Y-114423817D01*
X130024837Y-114413759D01*
X129994798Y-114354429D01*
X129981677Y-114397971D01*
G36*
X128534395Y-114345543D02*
X128518141Y-114360795D01*
X128514492Y-114371333D01*
X128512409Y-114386237D01*
X128512789Y-114392772D01*
X128520126Y-114394622D01*
X128538357Y-114398245D01*
X128564057Y-114403035D01*
X128593804Y-114408387D01*
X128624172Y-114413694D01*
X128651738Y-114418351D01*
X128673078Y-114421751D01*
X128684768Y-114423290D01*
X128685472Y-114423323D01*
X128689064Y-114416971D01*
X128690866Y-114401281D01*
X128690915Y-114397865D01*
X128684968Y-114374827D01*
X128666775Y-114357509D01*
X128635808Y-114345564D01*
X128602588Y-114339770D01*
X128562530Y-114338540D01*
X128534395Y-114345543D01*
X128534395Y-114345543D01*
G37*
X128534395Y-114345543D02*
X128518141Y-114360795D01*
X128514492Y-114371333D01*
X128512409Y-114386237D01*
X128512789Y-114392772D01*
X128520126Y-114394622D01*
X128538357Y-114398245D01*
X128564057Y-114403035D01*
X128593804Y-114408387D01*
X128624172Y-114413694D01*
X128651738Y-114418351D01*
X128673078Y-114421751D01*
X128684768Y-114423290D01*
X128685472Y-114423323D01*
X128689064Y-114416971D01*
X128690866Y-114401281D01*
X128690915Y-114397865D01*
X128684968Y-114374827D01*
X128666775Y-114357509D01*
X128635808Y-114345564D01*
X128602588Y-114339770D01*
X128562530Y-114338540D01*
X128534395Y-114345543D01*
G36*
X132722908Y-113534767D02*
X132703158Y-113545336D01*
X132678723Y-113560197D01*
X132653030Y-113577096D01*
X132629510Y-113593780D01*
X132611590Y-113607996D01*
X132602769Y-113617354D01*
X132600688Y-113633225D01*
X132608061Y-113647262D01*
X132621563Y-113653481D01*
X132622833Y-113653460D01*
X132638072Y-113651059D01*
X132658501Y-113646103D01*
X132660220Y-113645616D01*
X132679211Y-113637758D01*
X132702814Y-113624740D01*
X132727134Y-113609146D01*
X132748277Y-113593559D01*
X132762348Y-113580563D01*
X132765565Y-113575720D01*
X132764434Y-113562040D01*
X132755575Y-113546070D01*
X132743150Y-113533843D01*
X132734544Y-113530743D01*
X132722908Y-113534767D01*
X132722908Y-113534767D01*
G37*
X132722908Y-113534767D02*
X132703158Y-113545336D01*
X132678723Y-113560197D01*
X132653030Y-113577096D01*
X132629510Y-113593780D01*
X132611590Y-113607996D01*
X132602769Y-113617354D01*
X132600688Y-113633225D01*
X132608061Y-113647262D01*
X132621563Y-113653481D01*
X132622833Y-113653460D01*
X132638072Y-113651059D01*
X132658501Y-113646103D01*
X132660220Y-113645616D01*
X132679211Y-113637758D01*
X132702814Y-113624740D01*
X132727134Y-113609146D01*
X132748277Y-113593559D01*
X132762348Y-113580563D01*
X132765565Y-113575720D01*
X132764434Y-113562040D01*
X132755575Y-113546070D01*
X132743150Y-113533843D01*
X132734544Y-113530743D01*
X132722908Y-113534767D01*
G36*
X126762144Y-107819638D02*
X126764143Y-107938180D01*
X126799041Y-107947075D01*
X126864838Y-107970904D01*
X126922282Y-108006345D01*
X126970627Y-108052654D01*
X127009130Y-108109084D01*
X127037046Y-108174890D01*
X127041610Y-108190249D01*
X127043398Y-108197392D01*
X127045012Y-108205716D01*
X127046462Y-108215957D01*
X127047755Y-108228849D01*
X127048902Y-108245128D01*
X127049910Y-108265530D01*
X127050788Y-108290790D01*
X127051546Y-108321643D01*
X127052191Y-108358825D01*
X127052734Y-108403072D01*
X127053182Y-108455118D01*
X127053544Y-108515699D01*
X127053830Y-108585551D01*
X127054048Y-108665409D01*
X127054207Y-108756008D01*
X127054316Y-108858084D01*
X127054383Y-108972373D01*
X127054418Y-109099609D01*
X127054429Y-109240528D01*
X127054429Y-109259914D01*
X127054422Y-109402454D01*
X127054396Y-109531222D01*
X127054340Y-109646959D01*
X127054246Y-109750407D01*
X127054104Y-109842308D01*
X127053905Y-109923403D01*
X127053641Y-109994434D01*
X127053300Y-110056144D01*
X127052875Y-110109274D01*
X127052356Y-110154565D01*
X127051734Y-110192759D01*
X127050999Y-110224599D01*
X127050143Y-110250825D01*
X127049155Y-110272181D01*
X127048027Y-110289406D01*
X127046749Y-110303244D01*
X127045313Y-110314436D01*
X127043708Y-110323724D01*
X127041926Y-110331849D01*
X127040984Y-110335635D01*
X127016679Y-110403931D01*
X126981243Y-110462940D01*
X126934874Y-110512449D01*
X126877769Y-110552246D01*
X126813319Y-110581016D01*
X126764143Y-110598192D01*
X126760155Y-110831086D01*
X126820206Y-110829924D01*
X126852030Y-110829069D01*
X126881497Y-110827864D01*
X126903034Y-110826546D01*
X126905658Y-110826313D01*
X127062546Y-110805502D01*
X127209500Y-110774241D01*
X127346762Y-110732426D01*
X127474573Y-110679957D01*
X127593175Y-110616733D01*
X127702809Y-110542652D01*
X127803717Y-110457614D01*
X127818835Y-110443210D01*
X127903464Y-110354415D01*
X127976776Y-110262312D01*
X128040137Y-110164657D01*
X128094913Y-110059203D01*
X128142472Y-109943706D01*
X128167614Y-109870211D01*
X128200189Y-109754521D01*
X128223940Y-109637691D01*
X128239233Y-109516854D01*
X128246437Y-109389139D01*
X128246076Y-109257176D01*
X128240559Y-109143359D01*
X128230205Y-109039283D01*
X128214284Y-108940768D01*
X128192063Y-108843635D01*
X128162812Y-108743703D01*
X128148958Y-108701947D01*
X128094387Y-108563686D01*
X128028413Y-108434059D01*
X127951610Y-108313501D01*
X127864552Y-108202448D01*
X127767812Y-108101333D01*
X127661965Y-108010593D01*
X127547584Y-107930662D01*
X127425242Y-107861975D01*
X127295514Y-107804967D01*
X127158973Y-107760074D01*
X127016193Y-107727729D01*
X126867748Y-107708369D01*
X126835257Y-107705952D01*
X126760145Y-107701095D01*
X126762144Y-107819638D01*
X126762144Y-107819638D01*
G37*
X126762144Y-107819638D02*
X126764143Y-107938180D01*
X126799041Y-107947075D01*
X126864838Y-107970904D01*
X126922282Y-108006345D01*
X126970627Y-108052654D01*
X127009130Y-108109084D01*
X127037046Y-108174890D01*
X127041610Y-108190249D01*
X127043398Y-108197392D01*
X127045012Y-108205716D01*
X127046462Y-108215957D01*
X127047755Y-108228849D01*
X127048902Y-108245128D01*
X127049910Y-108265530D01*
X127050788Y-108290790D01*
X127051546Y-108321643D01*
X127052191Y-108358825D01*
X127052734Y-108403072D01*
X127053182Y-108455118D01*
X127053544Y-108515699D01*
X127053830Y-108585551D01*
X127054048Y-108665409D01*
X127054207Y-108756008D01*
X127054316Y-108858084D01*
X127054383Y-108972373D01*
X127054418Y-109099609D01*
X127054429Y-109240528D01*
X127054429Y-109259914D01*
X127054422Y-109402454D01*
X127054396Y-109531222D01*
X127054340Y-109646959D01*
X127054246Y-109750407D01*
X127054104Y-109842308D01*
X127053905Y-109923403D01*
X127053641Y-109994434D01*
X127053300Y-110056144D01*
X127052875Y-110109274D01*
X127052356Y-110154565D01*
X127051734Y-110192759D01*
X127050999Y-110224599D01*
X127050143Y-110250825D01*
X127049155Y-110272181D01*
X127048027Y-110289406D01*
X127046749Y-110303244D01*
X127045313Y-110314436D01*
X127043708Y-110323724D01*
X127041926Y-110331849D01*
X127040984Y-110335635D01*
X127016679Y-110403931D01*
X126981243Y-110462940D01*
X126934874Y-110512449D01*
X126877769Y-110552246D01*
X126813319Y-110581016D01*
X126764143Y-110598192D01*
X126760155Y-110831086D01*
X126820206Y-110829924D01*
X126852030Y-110829069D01*
X126881497Y-110827864D01*
X126903034Y-110826546D01*
X126905658Y-110826313D01*
X127062546Y-110805502D01*
X127209500Y-110774241D01*
X127346762Y-110732426D01*
X127474573Y-110679957D01*
X127593175Y-110616733D01*
X127702809Y-110542652D01*
X127803717Y-110457614D01*
X127818835Y-110443210D01*
X127903464Y-110354415D01*
X127976776Y-110262312D01*
X128040137Y-110164657D01*
X128094913Y-110059203D01*
X128142472Y-109943706D01*
X128167614Y-109870211D01*
X128200189Y-109754521D01*
X128223940Y-109637691D01*
X128239233Y-109516854D01*
X128246437Y-109389139D01*
X128246076Y-109257176D01*
X128240559Y-109143359D01*
X128230205Y-109039283D01*
X128214284Y-108940768D01*
X128192063Y-108843635D01*
X128162812Y-108743703D01*
X128148958Y-108701947D01*
X128094387Y-108563686D01*
X128028413Y-108434059D01*
X127951610Y-108313501D01*
X127864552Y-108202448D01*
X127767812Y-108101333D01*
X127661965Y-108010593D01*
X127547584Y-107930662D01*
X127425242Y-107861975D01*
X127295514Y-107804967D01*
X127158973Y-107760074D01*
X127016193Y-107727729D01*
X126867748Y-107708369D01*
X126835257Y-107705952D01*
X126760145Y-107701095D01*
X126762144Y-107819638D01*
G36*
X125627074Y-109899089D02*
X125610421Y-109903009D01*
X125578458Y-109918446D01*
X125549463Y-109944131D01*
X125527538Y-109975844D01*
X125519270Y-109996777D01*
X125514462Y-110037862D01*
X125519753Y-110086835D01*
X125534535Y-110141780D01*
X125558203Y-110200782D01*
X125590151Y-110261926D01*
X125616450Y-110303978D01*
X125646383Y-110344754D01*
X125684736Y-110391029D01*
X125728411Y-110439469D01*
X125774313Y-110486738D01*
X125819343Y-110529502D01*
X125852156Y-110557818D01*
X125936215Y-110620735D01*
X126025340Y-110677068D01*
X126117480Y-110725963D01*
X126210586Y-110766566D01*
X126302609Y-110798022D01*
X126391500Y-110819477D01*
X126475209Y-110830076D01*
X126507645Y-110831086D01*
X126557674Y-110831086D01*
X126553686Y-110597618D01*
X126473858Y-110576954D01*
X126355855Y-110539998D01*
X126244952Y-110492311D01*
X126142485Y-110434624D01*
X126049793Y-110367665D01*
X125987726Y-110312028D01*
X125942026Y-110263495D01*
X125902674Y-110213417D01*
X125867614Y-110158580D01*
X125834792Y-110095770D01*
X125802210Y-110021914D01*
X125775992Y-109970048D01*
X125745647Y-109932003D01*
X125710896Y-109907610D01*
X125671464Y-109896696D01*
X125627074Y-109899089D01*
X125627074Y-109899089D01*
G37*
X125627074Y-109899089D02*
X125610421Y-109903009D01*
X125578458Y-109918446D01*
X125549463Y-109944131D01*
X125527538Y-109975844D01*
X125519270Y-109996777D01*
X125514462Y-110037862D01*
X125519753Y-110086835D01*
X125534535Y-110141780D01*
X125558203Y-110200782D01*
X125590151Y-110261926D01*
X125616450Y-110303978D01*
X125646383Y-110344754D01*
X125684736Y-110391029D01*
X125728411Y-110439469D01*
X125774313Y-110486738D01*
X125819343Y-110529502D01*
X125852156Y-110557818D01*
X125936215Y-110620735D01*
X126025340Y-110677068D01*
X126117480Y-110725963D01*
X126210586Y-110766566D01*
X126302609Y-110798022D01*
X126391500Y-110819477D01*
X126475209Y-110830076D01*
X126507645Y-110831086D01*
X126557674Y-110831086D01*
X126553686Y-110597618D01*
X126473858Y-110576954D01*
X126355855Y-110539998D01*
X126244952Y-110492311D01*
X126142485Y-110434624D01*
X126049793Y-110367665D01*
X125987726Y-110312028D01*
X125942026Y-110263495D01*
X125902674Y-110213417D01*
X125867614Y-110158580D01*
X125834792Y-110095770D01*
X125802210Y-110021914D01*
X125775992Y-109970048D01*
X125745647Y-109932003D01*
X125710896Y-109907610D01*
X125671464Y-109896696D01*
X125627074Y-109899089D01*
G36*
X132781631Y-107762352D02*
X132675780Y-107762622D01*
X132556355Y-107762961D01*
X132547354Y-107762986D01*
X131851004Y-107764943D01*
X131814917Y-107783516D01*
X131778923Y-107808036D01*
X131756271Y-107837897D01*
X131746621Y-107873594D01*
X131746199Y-107883945D01*
X131750323Y-107917568D01*
X131763525Y-107945065D01*
X131787142Y-107967701D01*
X131822512Y-107986741D01*
X131870970Y-108003449D01*
X131873172Y-108004079D01*
X131902761Y-108014021D01*
X131931871Y-108026224D01*
X131946688Y-108033824D01*
X131953582Y-108037420D01*
X131959859Y-108040290D01*
X131965550Y-108043095D01*
X131970682Y-108046496D01*
X131975284Y-108051155D01*
X131979385Y-108057732D01*
X131983013Y-108066887D01*
X131986198Y-108079283D01*
X131988967Y-108095579D01*
X131991350Y-108116436D01*
X131993375Y-108142516D01*
X131995071Y-108174479D01*
X131996466Y-108212987D01*
X131997589Y-108258699D01*
X131998469Y-108312277D01*
X131999135Y-108374382D01*
X131999614Y-108445675D01*
X131999936Y-108526816D01*
X132000130Y-108618466D01*
X132000224Y-108721287D01*
X132000246Y-108835939D01*
X132000226Y-108963083D01*
X132000192Y-109103380D01*
X132000172Y-109257491D01*
X132000172Y-109267171D01*
X132000190Y-109422130D01*
X132000224Y-109563236D01*
X132000246Y-109691148D01*
X132000227Y-109806530D01*
X132000138Y-109910040D01*
X131999951Y-110002341D01*
X131999638Y-110084093D01*
X131999168Y-110155957D01*
X131998515Y-110218593D01*
X131997648Y-110272664D01*
X131996540Y-110318828D01*
X131995162Y-110357748D01*
X131993485Y-110390085D01*
X131991481Y-110416498D01*
X131989120Y-110437650D01*
X131986375Y-110454201D01*
X131983216Y-110466811D01*
X131979615Y-110476142D01*
X131975543Y-110482854D01*
X131970972Y-110487609D01*
X131965872Y-110491068D01*
X131960216Y-110493890D01*
X131953975Y-110496737D01*
X131947119Y-110500271D01*
X131946688Y-110500518D01*
X131922357Y-110512394D01*
X131892146Y-110524192D01*
X131873172Y-110530263D01*
X131824169Y-110546906D01*
X131788308Y-110565829D01*
X131764252Y-110588299D01*
X131750663Y-110615581D01*
X131746206Y-110648938D01*
X131746199Y-110650398D01*
X131752509Y-110687703D01*
X131771731Y-110719040D01*
X131804206Y-110744908D01*
X131814917Y-110750827D01*
X131851004Y-110769400D01*
X132551517Y-110771051D01*
X132668287Y-110771315D01*
X132771444Y-110771515D01*
X132861885Y-110771636D01*
X132940512Y-110771663D01*
X133008223Y-110771583D01*
X133065918Y-110771381D01*
X133114498Y-110771044D01*
X133154861Y-110770556D01*
X133187908Y-110769903D01*
X133214538Y-110769072D01*
X133235651Y-110768048D01*
X133252146Y-110766816D01*
X133264924Y-110765363D01*
X133274884Y-110763674D01*
X133282925Y-110761735D01*
X133289948Y-110759531D01*
X133290521Y-110759333D01*
X133331586Y-110739366D01*
X133361223Y-110712614D01*
X133378621Y-110680346D01*
X133382965Y-110643830D01*
X133379132Y-110621011D01*
X133367221Y-110594624D01*
X133345925Y-110572193D01*
X133313682Y-110552582D01*
X133268928Y-110534650D01*
X133253888Y-110529758D01*
X133206539Y-110512405D01*
X133172035Y-110493454D01*
X133148712Y-110471618D01*
X133134903Y-110445609D01*
X133132076Y-110435571D01*
X133131220Y-110424640D01*
X133130423Y-110400152D01*
X133129684Y-110363067D01*
X133129003Y-110314341D01*
X133128381Y-110254934D01*
X133127817Y-110185803D01*
X133127312Y-110107906D01*
X133126865Y-110022202D01*
X133126477Y-109929648D01*
X133126147Y-109831203D01*
X133125875Y-109727825D01*
X133125662Y-109620471D01*
X133125507Y-109510100D01*
X133125411Y-109397670D01*
X133125373Y-109284139D01*
X133125394Y-109170465D01*
X133125472Y-109057607D01*
X133125610Y-108946522D01*
X133125806Y-108838168D01*
X133126060Y-108733503D01*
X133126372Y-108633486D01*
X133126743Y-108539075D01*
X133127173Y-108451227D01*
X133127661Y-108370901D01*
X133128207Y-108299055D01*
X133128811Y-108236647D01*
X133129475Y-108184635D01*
X133130196Y-108143977D01*
X133130976Y-108115632D01*
X133131814Y-108100556D01*
X133132076Y-108098771D01*
X133143025Y-108071048D01*
X133162922Y-108047935D01*
X133193432Y-108028147D01*
X133236220Y-108010394D01*
X133253888Y-108004585D01*
X133290142Y-107991734D01*
X133321552Y-107977770D01*
X133343787Y-107964651D01*
X133346143Y-107962812D01*
X133370050Y-107934635D01*
X133381833Y-107901578D01*
X133381490Y-107866743D01*
X133369018Y-107833232D01*
X133346238Y-107805713D01*
X133338067Y-107798494D01*
X133330380Y-107792096D01*
X133322299Y-107786471D01*
X133312946Y-107781572D01*
X133301441Y-107777353D01*
X133286907Y-107773767D01*
X133268465Y-107770766D01*
X133245235Y-107768304D01*
X133216340Y-107766333D01*
X133180901Y-107764806D01*
X133138038Y-107763678D01*
X133086875Y-107762899D01*
X133026531Y-107762425D01*
X132956128Y-107762207D01*
X132874787Y-107762198D01*
X132781631Y-107762352D01*
X132781631Y-107762352D01*
G37*
X132781631Y-107762352D02*
X132675780Y-107762622D01*
X132556355Y-107762961D01*
X132547354Y-107762986D01*
X131851004Y-107764943D01*
X131814917Y-107783516D01*
X131778923Y-107808036D01*
X131756271Y-107837897D01*
X131746621Y-107873594D01*
X131746199Y-107883945D01*
X131750323Y-107917568D01*
X131763525Y-107945065D01*
X131787142Y-107967701D01*
X131822512Y-107986741D01*
X131870970Y-108003449D01*
X131873172Y-108004079D01*
X131902761Y-108014021D01*
X131931871Y-108026224D01*
X131946688Y-108033824D01*
X131953582Y-108037420D01*
X131959859Y-108040290D01*
X131965550Y-108043095D01*
X131970682Y-108046496D01*
X131975284Y-108051155D01*
X131979385Y-108057732D01*
X131983013Y-108066887D01*
X131986198Y-108079283D01*
X131988967Y-108095579D01*
X131991350Y-108116436D01*
X131993375Y-108142516D01*
X131995071Y-108174479D01*
X131996466Y-108212987D01*
X131997589Y-108258699D01*
X131998469Y-108312277D01*
X131999135Y-108374382D01*
X131999614Y-108445675D01*
X131999936Y-108526816D01*
X132000130Y-108618466D01*
X132000224Y-108721287D01*
X132000246Y-108835939D01*
X132000226Y-108963083D01*
X132000192Y-109103380D01*
X132000172Y-109257491D01*
X132000172Y-109267171D01*
X132000190Y-109422130D01*
X132000224Y-109563236D01*
X132000246Y-109691148D01*
X132000227Y-109806530D01*
X132000138Y-109910040D01*
X131999951Y-110002341D01*
X131999638Y-110084093D01*
X131999168Y-110155957D01*
X131998515Y-110218593D01*
X131997648Y-110272664D01*
X131996540Y-110318828D01*
X131995162Y-110357748D01*
X131993485Y-110390085D01*
X131991481Y-110416498D01*
X131989120Y-110437650D01*
X131986375Y-110454201D01*
X131983216Y-110466811D01*
X131979615Y-110476142D01*
X131975543Y-110482854D01*
X131970972Y-110487609D01*
X131965872Y-110491068D01*
X131960216Y-110493890D01*
X131953975Y-110496737D01*
X131947119Y-110500271D01*
X131946688Y-110500518D01*
X131922357Y-110512394D01*
X131892146Y-110524192D01*
X131873172Y-110530263D01*
X131824169Y-110546906D01*
X131788308Y-110565829D01*
X131764252Y-110588299D01*
X131750663Y-110615581D01*
X131746206Y-110648938D01*
X131746199Y-110650398D01*
X131752509Y-110687703D01*
X131771731Y-110719040D01*
X131804206Y-110744908D01*
X131814917Y-110750827D01*
X131851004Y-110769400D01*
X132551517Y-110771051D01*
X132668287Y-110771315D01*
X132771444Y-110771515D01*
X132861885Y-110771636D01*
X132940512Y-110771663D01*
X133008223Y-110771583D01*
X133065918Y-110771381D01*
X133114498Y-110771044D01*
X133154861Y-110770556D01*
X133187908Y-110769903D01*
X133214538Y-110769072D01*
X133235651Y-110768048D01*
X133252146Y-110766816D01*
X133264924Y-110765363D01*
X133274884Y-110763674D01*
X133282925Y-110761735D01*
X133289948Y-110759531D01*
X133290521Y-110759333D01*
X133331586Y-110739366D01*
X133361223Y-110712614D01*
X133378621Y-110680346D01*
X133382965Y-110643830D01*
X133379132Y-110621011D01*
X133367221Y-110594624D01*
X133345925Y-110572193D01*
X133313682Y-110552582D01*
X133268928Y-110534650D01*
X133253888Y-110529758D01*
X133206539Y-110512405D01*
X133172035Y-110493454D01*
X133148712Y-110471618D01*
X133134903Y-110445609D01*
X133132076Y-110435571D01*
X133131220Y-110424640D01*
X133130423Y-110400152D01*
X133129684Y-110363067D01*
X133129003Y-110314341D01*
X133128381Y-110254934D01*
X133127817Y-110185803D01*
X133127312Y-110107906D01*
X133126865Y-110022202D01*
X133126477Y-109929648D01*
X133126147Y-109831203D01*
X133125875Y-109727825D01*
X133125662Y-109620471D01*
X133125507Y-109510100D01*
X133125411Y-109397670D01*
X133125373Y-109284139D01*
X133125394Y-109170465D01*
X133125472Y-109057607D01*
X133125610Y-108946522D01*
X133125806Y-108838168D01*
X133126060Y-108733503D01*
X133126372Y-108633486D01*
X133126743Y-108539075D01*
X133127173Y-108451227D01*
X133127661Y-108370901D01*
X133128207Y-108299055D01*
X133128811Y-108236647D01*
X133129475Y-108184635D01*
X133130196Y-108143977D01*
X133130976Y-108115632D01*
X133131814Y-108100556D01*
X133132076Y-108098771D01*
X133143025Y-108071048D01*
X133162922Y-108047935D01*
X133193432Y-108028147D01*
X133236220Y-108010394D01*
X133253888Y-108004585D01*
X133290142Y-107991734D01*
X133321552Y-107977770D01*
X133343787Y-107964651D01*
X133346143Y-107962812D01*
X133370050Y-107934635D01*
X133381833Y-107901578D01*
X133381490Y-107866743D01*
X133369018Y-107833232D01*
X133346238Y-107805713D01*
X133338067Y-107798494D01*
X133330380Y-107792096D01*
X133322299Y-107786471D01*
X133312946Y-107781572D01*
X133301441Y-107777353D01*
X133286907Y-107773767D01*
X133268465Y-107770766D01*
X133245235Y-107768304D01*
X133216340Y-107766333D01*
X133180901Y-107764806D01*
X133138038Y-107763678D01*
X133086875Y-107762899D01*
X133026531Y-107762425D01*
X132956128Y-107762207D01*
X132874787Y-107762198D01*
X132781631Y-107762352D01*
G36*
X130524004Y-108320663D02*
X130521459Y-108328209D01*
X130515731Y-108348123D01*
X130507277Y-108378721D01*
X130496555Y-108418320D01*
X130484023Y-108465236D01*
X130470137Y-108517786D01*
X130461277Y-108551582D01*
X130401760Y-108779291D01*
X130618059Y-109469545D01*
X130648684Y-109567400D01*
X130678279Y-109662206D01*
X130706529Y-109752935D01*
X130733115Y-109838560D01*
X130757722Y-109918050D01*
X130780031Y-109990380D01*
X130799728Y-110054519D01*
X130816493Y-110109441D01*
X130830012Y-110154116D01*
X130839966Y-110187516D01*
X130846040Y-110208614D01*
X130847522Y-110214229D01*
X130854397Y-110250819D01*
X130859123Y-110291617D01*
X130860584Y-110323086D01*
X130856361Y-110373102D01*
X130843023Y-110414586D01*
X130819257Y-110449411D01*
X130783747Y-110479447D01*
X130735181Y-110506568D01*
X130730172Y-110508908D01*
X130676794Y-110533839D01*
X130635276Y-110554336D01*
X130604139Y-110571688D01*
X130581905Y-110587185D01*
X130567096Y-110602116D01*
X130558234Y-110617770D01*
X130553838Y-110635436D01*
X130552432Y-110656403D01*
X130552372Y-110663942D01*
X130554976Y-110695681D01*
X130564443Y-110718859D01*
X130583256Y-110737105D01*
X130613899Y-110754051D01*
X130614058Y-110754125D01*
X130621631Y-110757485D01*
X130629623Y-110760317D01*
X130639285Y-110762672D01*
X130651868Y-110764598D01*
X130668625Y-110766144D01*
X130690808Y-110767361D01*
X130719668Y-110768298D01*
X130756457Y-110769003D01*
X130802426Y-110769526D01*
X130858828Y-110769916D01*
X130926915Y-110770223D01*
X131007937Y-110770497D01*
X131031343Y-110770568D01*
X131105786Y-110770674D01*
X131176676Y-110770543D01*
X131242529Y-110770194D01*
X131301860Y-110769645D01*
X131353183Y-110768916D01*
X131395013Y-110768024D01*
X131425866Y-110766989D01*
X131444255Y-110765829D01*
X131447673Y-110765358D01*
X131496743Y-110750739D01*
X131533939Y-110729243D01*
X131558793Y-110701294D01*
X131570843Y-110667318D01*
X131571973Y-110651813D01*
X131569405Y-110622049D01*
X131560443Y-110598231D01*
X131543290Y-110578588D01*
X131516147Y-110561348D01*
X131477219Y-110544739D01*
X131455583Y-110537068D01*
X131380486Y-110505281D01*
X131314025Y-110463597D01*
X131255445Y-110411242D01*
X131203990Y-110347440D01*
X131158903Y-110271418D01*
X131126274Y-110199714D01*
X131121040Y-110185197D01*
X131111796Y-110157704D01*
X131098825Y-110118122D01*
X131082407Y-110067341D01*
X131062826Y-110006249D01*
X131040362Y-109935735D01*
X131015296Y-109856688D01*
X130987912Y-109769996D01*
X130958490Y-109676548D01*
X130927313Y-109577233D01*
X130894661Y-109472939D01*
X130860817Y-109364556D01*
X130826062Y-109252971D01*
X130820322Y-109234514D01*
X130785824Y-109123663D01*
X130752452Y-109016616D01*
X130720463Y-108914191D01*
X130690116Y-108817212D01*
X130661671Y-108726499D01*
X130635387Y-108642873D01*
X130611521Y-108567154D01*
X130590334Y-108500165D01*
X130572084Y-108442725D01*
X130557030Y-108395656D01*
X130545430Y-108359780D01*
X130537544Y-108335916D01*
X130533630Y-108324886D01*
X130533300Y-108324227D01*
X130525617Y-108319959D01*
X130524004Y-108320663D01*
X130524004Y-108320663D01*
G37*
X130524004Y-108320663D02*
X130521459Y-108328209D01*
X130515731Y-108348123D01*
X130507277Y-108378721D01*
X130496555Y-108418320D01*
X130484023Y-108465236D01*
X130470137Y-108517786D01*
X130461277Y-108551582D01*
X130401760Y-108779291D01*
X130618059Y-109469545D01*
X130648684Y-109567400D01*
X130678279Y-109662206D01*
X130706529Y-109752935D01*
X130733115Y-109838560D01*
X130757722Y-109918050D01*
X130780031Y-109990380D01*
X130799728Y-110054519D01*
X130816493Y-110109441D01*
X130830012Y-110154116D01*
X130839966Y-110187516D01*
X130846040Y-110208614D01*
X130847522Y-110214229D01*
X130854397Y-110250819D01*
X130859123Y-110291617D01*
X130860584Y-110323086D01*
X130856361Y-110373102D01*
X130843023Y-110414586D01*
X130819257Y-110449411D01*
X130783747Y-110479447D01*
X130735181Y-110506568D01*
X130730172Y-110508908D01*
X130676794Y-110533839D01*
X130635276Y-110554336D01*
X130604139Y-110571688D01*
X130581905Y-110587185D01*
X130567096Y-110602116D01*
X130558234Y-110617770D01*
X130553838Y-110635436D01*
X130552432Y-110656403D01*
X130552372Y-110663942D01*
X130554976Y-110695681D01*
X130564443Y-110718859D01*
X130583256Y-110737105D01*
X130613899Y-110754051D01*
X130614058Y-110754125D01*
X130621631Y-110757485D01*
X130629623Y-110760317D01*
X130639285Y-110762672D01*
X130651868Y-110764598D01*
X130668625Y-110766144D01*
X130690808Y-110767361D01*
X130719668Y-110768298D01*
X130756457Y-110769003D01*
X130802426Y-110769526D01*
X130858828Y-110769916D01*
X130926915Y-110770223D01*
X131007937Y-110770497D01*
X131031343Y-110770568D01*
X131105786Y-110770674D01*
X131176676Y-110770543D01*
X131242529Y-110770194D01*
X131301860Y-110769645D01*
X131353183Y-110768916D01*
X131395013Y-110768024D01*
X131425866Y-110766989D01*
X131444255Y-110765829D01*
X131447673Y-110765358D01*
X131496743Y-110750739D01*
X131533939Y-110729243D01*
X131558793Y-110701294D01*
X131570843Y-110667318D01*
X131571973Y-110651813D01*
X131569405Y-110622049D01*
X131560443Y-110598231D01*
X131543290Y-110578588D01*
X131516147Y-110561348D01*
X131477219Y-110544739D01*
X131455583Y-110537068D01*
X131380486Y-110505281D01*
X131314025Y-110463597D01*
X131255445Y-110411242D01*
X131203990Y-110347440D01*
X131158903Y-110271418D01*
X131126274Y-110199714D01*
X131121040Y-110185197D01*
X131111796Y-110157704D01*
X131098825Y-110118122D01*
X131082407Y-110067341D01*
X131062826Y-110006249D01*
X131040362Y-109935735D01*
X131015296Y-109856688D01*
X130987912Y-109769996D01*
X130958490Y-109676548D01*
X130927313Y-109577233D01*
X130894661Y-109472939D01*
X130860817Y-109364556D01*
X130826062Y-109252971D01*
X130820322Y-109234514D01*
X130785824Y-109123663D01*
X130752452Y-109016616D01*
X130720463Y-108914191D01*
X130690116Y-108817212D01*
X130661671Y-108726499D01*
X130635387Y-108642873D01*
X130611521Y-108567154D01*
X130590334Y-108500165D01*
X130572084Y-108442725D01*
X130557030Y-108395656D01*
X130545430Y-108359780D01*
X130537544Y-108335916D01*
X130533630Y-108324886D01*
X130533300Y-108324227D01*
X130525617Y-108319959D01*
X130524004Y-108320663D01*
G36*
X129010396Y-109004100D02*
X128974621Y-109136353D01*
X128939667Y-109265623D01*
X128905743Y-109391143D01*
X128873054Y-109512144D01*
X128841807Y-109627858D01*
X128812210Y-109737519D01*
X128784470Y-109840357D01*
X128758793Y-109935606D01*
X128735386Y-110022498D01*
X128714456Y-110100264D01*
X128696211Y-110168137D01*
X128680858Y-110225350D01*
X128668602Y-110271133D01*
X128659652Y-110304720D01*
X128654213Y-110325343D01*
X128653152Y-110329460D01*
X128635533Y-110391190D01*
X128617491Y-110439108D01*
X128598723Y-110473918D01*
X128582085Y-110493624D01*
X128569116Y-110502706D01*
X128546466Y-110516033D01*
X128517578Y-110531656D01*
X128492434Y-110544424D01*
X128450707Y-110566520D01*
X128421056Y-110586471D01*
X128401665Y-110606333D01*
X128390718Y-110628162D01*
X128386398Y-110654011D01*
X128386115Y-110664688D01*
X128392126Y-110699697D01*
X128410527Y-110728051D01*
X128441865Y-110750494D01*
X128453216Y-110755901D01*
X128458933Y-110758162D01*
X128465707Y-110760159D01*
X128474434Y-110761910D01*
X128486009Y-110763434D01*
X128501327Y-110764749D01*
X128521282Y-110765872D01*
X128546771Y-110766822D01*
X128578687Y-110767617D01*
X128617926Y-110768276D01*
X128665383Y-110768816D01*
X128721953Y-110769256D01*
X128788531Y-110769613D01*
X128866011Y-110769907D01*
X128955289Y-110770154D01*
X129057260Y-110770374D01*
X129172819Y-110770584D01*
X129177143Y-110770591D01*
X129280848Y-110770701D01*
X129379798Y-110770672D01*
X129473030Y-110770511D01*
X129559575Y-110770226D01*
X129638469Y-110769823D01*
X129708744Y-110769309D01*
X129769435Y-110768693D01*
X129819575Y-110767981D01*
X129858198Y-110767180D01*
X129884337Y-110766297D01*
X129897028Y-110765340D01*
X129897528Y-110765238D01*
X129942836Y-110750001D01*
X129975283Y-110728742D01*
X129995484Y-110700825D01*
X130004057Y-110665611D01*
X130004458Y-110654719D01*
X130000753Y-110625132D01*
X129988523Y-110599745D01*
X129966092Y-110576502D01*
X129931789Y-110553347D01*
X129913793Y-110543343D01*
X129869684Y-110517984D01*
X129837995Y-110494580D01*
X129817234Y-110470941D01*
X129805913Y-110444875D01*
X129802542Y-110414193D01*
X129804784Y-110383073D01*
X129807827Y-110367528D01*
X129814179Y-110341144D01*
X129823180Y-110306259D01*
X129834172Y-110265213D01*
X129846495Y-110220344D01*
X129859488Y-110173990D01*
X129872493Y-110128491D01*
X129884850Y-110086186D01*
X129895899Y-110049412D01*
X129904980Y-110020509D01*
X129911434Y-110001816D01*
X129913868Y-109996313D01*
X129922148Y-109994572D01*
X129944236Y-109993051D01*
X129979427Y-109991764D01*
X130027016Y-109990727D01*
X130086299Y-109989955D01*
X130156571Y-109989461D01*
X130237127Y-109989261D01*
X130250570Y-109989257D01*
X130582911Y-109989257D01*
X130558457Y-109900357D01*
X130548372Y-109863675D01*
X130538999Y-109829549D01*
X130531384Y-109801793D01*
X130526580Y-109784243D01*
X130519155Y-109757029D01*
X129959341Y-109757029D01*
X129963547Y-109740700D01*
X129965877Y-109731737D01*
X129971642Y-109709594D01*
X129980618Y-109675135D01*
X129992578Y-109629224D01*
X130007298Y-109572725D01*
X130024553Y-109506505D01*
X130044116Y-109431426D01*
X130065764Y-109348353D01*
X130089270Y-109258151D01*
X130114410Y-109161684D01*
X130140958Y-109059816D01*
X130168689Y-108953413D01*
X130195246Y-108851517D01*
X130422738Y-107978662D01*
X130363686Y-107761428D01*
X129346646Y-107761314D01*
X129010396Y-109004100D01*
X129010396Y-109004100D01*
G37*
X129010396Y-109004100D02*
X128974621Y-109136353D01*
X128939667Y-109265623D01*
X128905743Y-109391143D01*
X128873054Y-109512144D01*
X128841807Y-109627858D01*
X128812210Y-109737519D01*
X128784470Y-109840357D01*
X128758793Y-109935606D01*
X128735386Y-110022498D01*
X128714456Y-110100264D01*
X128696211Y-110168137D01*
X128680858Y-110225350D01*
X128668602Y-110271133D01*
X128659652Y-110304720D01*
X128654213Y-110325343D01*
X128653152Y-110329460D01*
X128635533Y-110391190D01*
X128617491Y-110439108D01*
X128598723Y-110473918D01*
X128582085Y-110493624D01*
X128569116Y-110502706D01*
X128546466Y-110516033D01*
X128517578Y-110531656D01*
X128492434Y-110544424D01*
X128450707Y-110566520D01*
X128421056Y-110586471D01*
X128401665Y-110606333D01*
X128390718Y-110628162D01*
X128386398Y-110654011D01*
X128386115Y-110664688D01*
X128392126Y-110699697D01*
X128410527Y-110728051D01*
X128441865Y-110750494D01*
X128453216Y-110755901D01*
X128458933Y-110758162D01*
X128465707Y-110760159D01*
X128474434Y-110761910D01*
X128486009Y-110763434D01*
X128501327Y-110764749D01*
X128521282Y-110765872D01*
X128546771Y-110766822D01*
X128578687Y-110767617D01*
X128617926Y-110768276D01*
X128665383Y-110768816D01*
X128721953Y-110769256D01*
X128788531Y-110769613D01*
X128866011Y-110769907D01*
X128955289Y-110770154D01*
X129057260Y-110770374D01*
X129172819Y-110770584D01*
X129177143Y-110770591D01*
X129280848Y-110770701D01*
X129379798Y-110770672D01*
X129473030Y-110770511D01*
X129559575Y-110770226D01*
X129638469Y-110769823D01*
X129708744Y-110769309D01*
X129769435Y-110768693D01*
X129819575Y-110767981D01*
X129858198Y-110767180D01*
X129884337Y-110766297D01*
X129897028Y-110765340D01*
X129897528Y-110765238D01*
X129942836Y-110750001D01*
X129975283Y-110728742D01*
X129995484Y-110700825D01*
X130004057Y-110665611D01*
X130004458Y-110654719D01*
X130000753Y-110625132D01*
X129988523Y-110599745D01*
X129966092Y-110576502D01*
X129931789Y-110553347D01*
X129913793Y-110543343D01*
X129869684Y-110517984D01*
X129837995Y-110494580D01*
X129817234Y-110470941D01*
X129805913Y-110444875D01*
X129802542Y-110414193D01*
X129804784Y-110383073D01*
X129807827Y-110367528D01*
X129814179Y-110341144D01*
X129823180Y-110306259D01*
X129834172Y-110265213D01*
X129846495Y-110220344D01*
X129859488Y-110173990D01*
X129872493Y-110128491D01*
X129884850Y-110086186D01*
X129895899Y-110049412D01*
X129904980Y-110020509D01*
X129911434Y-110001816D01*
X129913868Y-109996313D01*
X129922148Y-109994572D01*
X129944236Y-109993051D01*
X129979427Y-109991764D01*
X130027016Y-109990727D01*
X130086299Y-109989955D01*
X130156571Y-109989461D01*
X130237127Y-109989261D01*
X130250570Y-109989257D01*
X130582911Y-109989257D01*
X130558457Y-109900357D01*
X130548372Y-109863675D01*
X130538999Y-109829549D01*
X130531384Y-109801793D01*
X130526580Y-109784243D01*
X130519155Y-109757029D01*
X129959341Y-109757029D01*
X129963547Y-109740700D01*
X129965877Y-109731737D01*
X129971642Y-109709594D01*
X129980618Y-109675135D01*
X129992578Y-109629224D01*
X130007298Y-109572725D01*
X130024553Y-109506505D01*
X130044116Y-109431426D01*
X130065764Y-109348353D01*
X130089270Y-109258151D01*
X130114410Y-109161684D01*
X130140958Y-109059816D01*
X130168689Y-108953413D01*
X130195246Y-108851517D01*
X130422738Y-107978662D01*
X130363686Y-107761428D01*
X129346646Y-107761314D01*
X129010396Y-109004100D01*
G36*
X126515771Y-107705549D02*
X126482909Y-107710412D01*
X126441777Y-107719089D01*
X126391253Y-107731878D01*
X126330220Y-107749074D01*
X126257558Y-107770975D01*
X126198086Y-107789607D01*
X126136204Y-107809103D01*
X126086053Y-107824526D01*
X126045603Y-107836413D01*
X126012821Y-107845298D01*
X125985675Y-107851715D01*
X125962133Y-107856198D01*
X125940164Y-107859283D01*
X125928454Y-107860534D01*
X125888813Y-107860922D01*
X125856331Y-107852446D01*
X125828164Y-107833544D01*
X125801468Y-107802657D01*
X125788868Y-107783944D01*
X125761483Y-107746472D01*
X125734017Y-107721644D01*
X125703949Y-107707797D01*
X125668758Y-107703269D01*
X125666595Y-107703257D01*
X125618784Y-107708155D01*
X125580814Y-107723249D01*
X125551641Y-107749135D01*
X125533260Y-107779457D01*
X125530665Y-107785727D01*
X125528426Y-107793183D01*
X125526518Y-107802884D01*
X125524914Y-107815887D01*
X125523586Y-107833250D01*
X125522508Y-107856029D01*
X125521654Y-107885281D01*
X125520996Y-107922066D01*
X125520509Y-107967439D01*
X125520165Y-108022458D01*
X125519938Y-108088181D01*
X125519801Y-108165664D01*
X125519727Y-108255966D01*
X125519703Y-108317158D01*
X125519543Y-108825831D01*
X125536382Y-108857816D01*
X125559346Y-108888692D01*
X125581739Y-108905653D01*
X125614963Y-108918607D01*
X125653791Y-108925612D01*
X125691126Y-108925669D01*
X125705760Y-108923109D01*
X125748854Y-108904969D01*
X125786039Y-108874907D01*
X125815392Y-108834958D01*
X125834993Y-108787158D01*
X125835335Y-108785904D01*
X125878545Y-108645393D01*
X125929189Y-108516803D01*
X125987176Y-108400309D01*
X126052414Y-108296088D01*
X126124810Y-108204315D01*
X126157656Y-108169193D01*
X126238241Y-108095754D01*
X126322510Y-108035676D01*
X126412027Y-107987963D01*
X126488372Y-107958057D01*
X126553686Y-107936132D01*
X126555685Y-107818642D01*
X126557684Y-107701151D01*
X126515771Y-107705549D01*
X126515771Y-107705549D01*
G37*
X126515771Y-107705549D02*
X126482909Y-107710412D01*
X126441777Y-107719089D01*
X126391253Y-107731878D01*
X126330220Y-107749074D01*
X126257558Y-107770975D01*
X126198086Y-107789607D01*
X126136204Y-107809103D01*
X126086053Y-107824526D01*
X126045603Y-107836413D01*
X126012821Y-107845298D01*
X125985675Y-107851715D01*
X125962133Y-107856198D01*
X125940164Y-107859283D01*
X125928454Y-107860534D01*
X125888813Y-107860922D01*
X125856331Y-107852446D01*
X125828164Y-107833544D01*
X125801468Y-107802657D01*
X125788868Y-107783944D01*
X125761483Y-107746472D01*
X125734017Y-107721644D01*
X125703949Y-107707797D01*
X125668758Y-107703269D01*
X125666595Y-107703257D01*
X125618784Y-107708155D01*
X125580814Y-107723249D01*
X125551641Y-107749135D01*
X125533260Y-107779457D01*
X125530665Y-107785727D01*
X125528426Y-107793183D01*
X125526518Y-107802884D01*
X125524914Y-107815887D01*
X125523586Y-107833250D01*
X125522508Y-107856029D01*
X125521654Y-107885281D01*
X125520996Y-107922066D01*
X125520509Y-107967439D01*
X125520165Y-108022458D01*
X125519938Y-108088181D01*
X125519801Y-108165664D01*
X125519727Y-108255966D01*
X125519703Y-108317158D01*
X125519543Y-108825831D01*
X125536382Y-108857816D01*
X125559346Y-108888692D01*
X125581739Y-108905653D01*
X125614963Y-108918607D01*
X125653791Y-108925612D01*
X125691126Y-108925669D01*
X125705760Y-108923109D01*
X125748854Y-108904969D01*
X125786039Y-108874907D01*
X125815392Y-108834958D01*
X125834993Y-108787158D01*
X125835335Y-108785904D01*
X125878545Y-108645393D01*
X125929189Y-108516803D01*
X125987176Y-108400309D01*
X126052414Y-108296088D01*
X126124810Y-108204315D01*
X126157656Y-108169193D01*
X126238241Y-108095754D01*
X126322510Y-108035676D01*
X126412027Y-107987963D01*
X126488372Y-107958057D01*
X126553686Y-107936132D01*
X126555685Y-107818642D01*
X126557684Y-107701151D01*
X126515771Y-107705549D01*
G36*
X126377015Y-113464408D02*
X126363662Y-113477325D01*
X126359909Y-113484399D01*
X126360228Y-113491054D01*
X126366335Y-113499136D01*
X126379948Y-113510491D01*
X126402783Y-113526967D01*
X126422703Y-113540825D01*
X126450607Y-113559758D01*
X126474383Y-113575168D01*
X126491397Y-113585395D01*
X126498843Y-113588800D01*
X126507695Y-113583456D01*
X126516839Y-113572885D01*
X126523589Y-113560687D01*
X126522648Y-113549496D01*
X126515036Y-113534785D01*
X126502119Y-113518789D01*
X126481726Y-113499774D01*
X126462666Y-113485050D01*
X126428849Y-113465968D01*
X126399985Y-113459063D01*
X126377015Y-113464408D01*
X126377015Y-113464408D01*
G37*
X126377015Y-113464408D02*
X126363662Y-113477325D01*
X126359909Y-113484399D01*
X126360228Y-113491054D01*
X126366335Y-113499136D01*
X126379948Y-113510491D01*
X126402783Y-113526967D01*
X126422703Y-113540825D01*
X126450607Y-113559758D01*
X126474383Y-113575168D01*
X126491397Y-113585395D01*
X126498843Y-113588800D01*
X126507695Y-113583456D01*
X126516839Y-113572885D01*
X126523589Y-113560687D01*
X126522648Y-113549496D01*
X126515036Y-113534785D01*
X126502119Y-113518789D01*
X126481726Y-113499774D01*
X126462666Y-113485050D01*
X126428849Y-113465968D01*
X126399985Y-113459063D01*
X126377015Y-113464408D01*
G36*
X133456125Y-112904265D02*
X133439524Y-112917472D01*
X133418189Y-112936782D01*
X133401797Y-112952797D01*
X133376380Y-112979313D01*
X133360475Y-112998503D01*
X133352570Y-113012481D01*
X133351152Y-113023362D01*
X133351179Y-113023554D01*
X133358816Y-113038318D01*
X133375109Y-113042405D01*
X133398619Y-113035571D01*
X133404429Y-113032677D01*
X133422476Y-113020682D01*
X133443792Y-113003027D01*
X133465410Y-112982665D01*
X133484360Y-112962549D01*
X133497675Y-112945632D01*
X133502400Y-112935215D01*
X133496505Y-112920246D01*
X133482771Y-112906419D01*
X133467128Y-112899470D01*
X133465362Y-112899371D01*
X133456125Y-112904265D01*
X133456125Y-112904265D01*
G37*
X133456125Y-112904265D02*
X133439524Y-112917472D01*
X133418189Y-112936782D01*
X133401797Y-112952797D01*
X133376380Y-112979313D01*
X133360475Y-112998503D01*
X133352570Y-113012481D01*
X133351152Y-113023362D01*
X133351179Y-113023554D01*
X133358816Y-113038318D01*
X133375109Y-113042405D01*
X133398619Y-113035571D01*
X133404429Y-113032677D01*
X133422476Y-113020682D01*
X133443792Y-113003027D01*
X133465410Y-112982665D01*
X133484360Y-112962549D01*
X133497675Y-112945632D01*
X133502400Y-112935215D01*
X133496505Y-112920246D01*
X133482771Y-112906419D01*
X133467128Y-112899470D01*
X133465362Y-112899371D01*
X133456125Y-112904265D01*
G36*
X133709579Y-112475389D02*
X133688698Y-112486596D01*
X133667549Y-112507463D01*
X133649572Y-112533619D01*
X133638209Y-112560691D01*
X133636647Y-112568056D01*
X133632871Y-112590112D01*
X133629306Y-112607431D01*
X133628565Y-112610323D01*
X133631439Y-112622858D01*
X133642637Y-112638114D01*
X133657847Y-112651670D01*
X133672756Y-112659104D01*
X133676498Y-112659480D01*
X133689608Y-112656619D01*
X133709699Y-112649894D01*
X133718411Y-112646505D01*
X133742274Y-112634307D01*
X133763453Y-112619464D01*
X133767835Y-112615464D01*
X133781813Y-112597042D01*
X133793663Y-112573876D01*
X133801306Y-112551077D01*
X133802662Y-112533754D01*
X133802029Y-112531481D01*
X133794558Y-112522385D01*
X133778909Y-112508460D01*
X133763394Y-112496406D01*
X133740423Y-112481189D01*
X133723672Y-112474738D01*
X133709579Y-112475389D01*
X133709579Y-112475389D01*
G37*
X133709579Y-112475389D02*
X133688698Y-112486596D01*
X133667549Y-112507463D01*
X133649572Y-112533619D01*
X133638209Y-112560691D01*
X133636647Y-112568056D01*
X133632871Y-112590112D01*
X133629306Y-112607431D01*
X133628565Y-112610323D01*
X133631439Y-112622858D01*
X133642637Y-112638114D01*
X133657847Y-112651670D01*
X133672756Y-112659104D01*
X133676498Y-112659480D01*
X133689608Y-112656619D01*
X133709699Y-112649894D01*
X133718411Y-112646505D01*
X133742274Y-112634307D01*
X133763453Y-112619464D01*
X133767835Y-112615464D01*
X133781813Y-112597042D01*
X133793663Y-112573876D01*
X133801306Y-112551077D01*
X133802662Y-112533754D01*
X133802029Y-112531481D01*
X133794558Y-112522385D01*
X133778909Y-112508460D01*
X133763394Y-112496406D01*
X133740423Y-112481189D01*
X133723672Y-112474738D01*
X133709579Y-112475389D01*
G36*
X125332690Y-112472973D02*
X125315720Y-112485130D01*
X125302797Y-112495237D01*
X125275442Y-112520086D01*
X125260830Y-112543045D01*
X125258804Y-112566540D01*
X125269207Y-112592998D01*
X125291883Y-112624844D01*
X125294247Y-112627726D01*
X125319708Y-112656170D01*
X125340708Y-112672624D01*
X125360028Y-112677674D01*
X125380453Y-112671906D01*
X125404766Y-112655907D01*
X125409700Y-112652042D01*
X125435508Y-112630202D01*
X125450748Y-112613111D01*
X125457131Y-112597777D01*
X125456371Y-112581211D01*
X125454506Y-112573766D01*
X125443084Y-112549277D01*
X125423861Y-112522168D01*
X125400777Y-112497022D01*
X125377770Y-112478423D01*
X125368134Y-112473259D01*
X125354943Y-112468367D01*
X125344446Y-112467828D01*
X125332690Y-112472973D01*
X125332690Y-112472973D01*
G37*
X125332690Y-112472973D02*
X125315720Y-112485130D01*
X125302797Y-112495237D01*
X125275442Y-112520086D01*
X125260830Y-112543045D01*
X125258804Y-112566540D01*
X125269207Y-112592998D01*
X125291883Y-112624844D01*
X125294247Y-112627726D01*
X125319708Y-112656170D01*
X125340708Y-112672624D01*
X125360028Y-112677674D01*
X125380453Y-112671906D01*
X125404766Y-112655907D01*
X125409700Y-112652042D01*
X125435508Y-112630202D01*
X125450748Y-112613111D01*
X125457131Y-112597777D01*
X125456371Y-112581211D01*
X125454506Y-112573766D01*
X125443084Y-112549277D01*
X125423861Y-112522168D01*
X125400777Y-112497022D01*
X125377770Y-112478423D01*
X125368134Y-112473259D01*
X125354943Y-112468367D01*
X125344446Y-112467828D01*
X125332690Y-112472973D01*
G36*
X124773330Y-111628850D02*
X124771897Y-111629438D01*
X124742724Y-111643648D01*
X124725146Y-111659114D01*
X124716471Y-111679661D01*
X124714010Y-111709115D01*
X124714000Y-111711740D01*
X124716185Y-111744765D01*
X124722352Y-111767825D01*
X124724950Y-111772404D01*
X124734841Y-111781879D01*
X124752409Y-111795129D01*
X124773562Y-111809464D01*
X124794205Y-111822195D01*
X124810246Y-111830632D01*
X124816484Y-111832544D01*
X124823822Y-111829136D01*
X124838825Y-111820652D01*
X124844629Y-111817193D01*
X124861393Y-111806828D01*
X124872105Y-111799740D01*
X124873426Y-111798704D01*
X124876842Y-111788873D01*
X124879670Y-111769274D01*
X124881625Y-111744649D01*
X124882416Y-111719741D01*
X124881757Y-111699293D01*
X124880055Y-111689501D01*
X124871149Y-111677254D01*
X124853733Y-111661282D01*
X124834158Y-111646836D01*
X124812021Y-111632708D01*
X124797383Y-111625806D01*
X124785925Y-111624921D01*
X124773330Y-111628850D01*
X124773330Y-111628850D01*
G37*
X124773330Y-111628850D02*
X124771897Y-111629438D01*
X124742724Y-111643648D01*
X124725146Y-111659114D01*
X124716471Y-111679661D01*
X124714010Y-111709115D01*
X124714000Y-111711740D01*
X124716185Y-111744765D01*
X124722352Y-111767825D01*
X124724950Y-111772404D01*
X124734841Y-111781879D01*
X124752409Y-111795129D01*
X124773562Y-111809464D01*
X124794205Y-111822195D01*
X124810246Y-111830632D01*
X124816484Y-111832544D01*
X124823822Y-111829136D01*
X124838825Y-111820652D01*
X124844629Y-111817193D01*
X124861393Y-111806828D01*
X124872105Y-111799740D01*
X124873426Y-111798704D01*
X124876842Y-111788873D01*
X124879670Y-111769274D01*
X124881625Y-111744649D01*
X124882416Y-111719741D01*
X124881757Y-111699293D01*
X124880055Y-111689501D01*
X124871149Y-111677254D01*
X124853733Y-111661282D01*
X124834158Y-111646836D01*
X124812021Y-111632708D01*
X124797383Y-111625806D01*
X124785925Y-111624921D01*
X124773330Y-111628850D01*
G36*
X134246293Y-111628795D02*
X134224252Y-111648616D01*
X134201727Y-111682810D01*
X134194966Y-111695661D01*
X134178079Y-111733918D01*
X134170978Y-111762975D01*
X134173542Y-111784240D01*
X134185653Y-111799123D01*
X134186187Y-111799503D01*
X134199896Y-111807902D01*
X134207471Y-111810800D01*
X134212603Y-111804757D01*
X134223016Y-111788215D01*
X134237296Y-111763553D01*
X134254030Y-111733148D01*
X134257740Y-111726224D01*
X134275937Y-111691808D01*
X134287928Y-111667864D01*
X134294475Y-111652129D01*
X134296339Y-111642343D01*
X134294282Y-111636242D01*
X134289498Y-111631881D01*
X134267993Y-111623249D01*
X134246293Y-111628795D01*
X134246293Y-111628795D01*
G37*
X134246293Y-111628795D02*
X134224252Y-111648616D01*
X134201727Y-111682810D01*
X134194966Y-111695661D01*
X134178079Y-111733918D01*
X134170978Y-111762975D01*
X134173542Y-111784240D01*
X134185653Y-111799123D01*
X134186187Y-111799503D01*
X134199896Y-111807902D01*
X134207471Y-111810800D01*
X134212603Y-111804757D01*
X134223016Y-111788215D01*
X134237296Y-111763553D01*
X134254030Y-111733148D01*
X134257740Y-111726224D01*
X134275937Y-111691808D01*
X134287928Y-111667864D01*
X134294475Y-111652129D01*
X134296339Y-111642343D01*
X134294282Y-111636242D01*
X134289498Y-111631881D01*
X134267993Y-111623249D01*
X134246293Y-111628795D01*
G36*
X124508158Y-111167160D02*
X124500117Y-111177459D01*
X124497240Y-111197990D01*
X124498914Y-111225671D01*
X124504524Y-111257420D01*
X124513455Y-111290156D01*
X124525093Y-111320796D01*
X124538824Y-111346259D01*
X124545698Y-111355414D01*
X124556085Y-111365604D01*
X124565720Y-111366379D01*
X124579743Y-111359442D01*
X124590687Y-111352751D01*
X124597563Y-111345780D01*
X124600135Y-111336240D01*
X124598168Y-111321842D01*
X124591428Y-111300297D01*
X124579678Y-111269316D01*
X124567269Y-111238092D01*
X124551960Y-111202665D01*
X124538896Y-111179781D01*
X124526796Y-111167902D01*
X124514381Y-111165492D01*
X124508158Y-111167160D01*
X124508158Y-111167160D01*
G37*
X124508158Y-111167160D02*
X124500117Y-111177459D01*
X124497240Y-111197990D01*
X124498914Y-111225671D01*
X124504524Y-111257420D01*
X124513455Y-111290156D01*
X124525093Y-111320796D01*
X124538824Y-111346259D01*
X124545698Y-111355414D01*
X124556085Y-111365604D01*
X124565720Y-111366379D01*
X124579743Y-111359442D01*
X124590687Y-111352751D01*
X124597563Y-111345780D01*
X124600135Y-111336240D01*
X124598168Y-111321842D01*
X124591428Y-111300297D01*
X124579678Y-111269316D01*
X124567269Y-111238092D01*
X124551960Y-111202665D01*
X124538896Y-111179781D01*
X124526796Y-111167902D01*
X124514381Y-111165492D01*
X124508158Y-111167160D01*
M02*
