G04 #@! TF.FileFunction,Legend,Top*
%FSLAX46Y46*%
G04 Gerber Fmt 4.6, Leading zero omitted, Abs format (unit mm)*
G04 Created by KiCad (PCBNEW 4.0.4-stable) date 11/12/16 20:40:28*
%MOMM*%
%LPD*%
G01*
G04 APERTURE LIST*
%ADD10C,0.100000*%
%ADD11C,0.050800*%
%ADD12C,0.150000*%
%ADD13C,0.066040*%
%ADD14C,0.203200*%
G04 APERTURE END LIST*
D10*
D11*
X125110724Y-117481048D02*
X125207486Y-117887448D01*
X125284896Y-117597162D01*
X125362305Y-117887448D01*
X125459067Y-117481048D01*
X125613886Y-117887448D02*
X125613886Y-117616514D01*
X125613886Y-117481048D02*
X125594534Y-117500400D01*
X125613886Y-117519752D01*
X125633238Y-117500400D01*
X125613886Y-117481048D01*
X125613886Y-117519752D01*
X125981581Y-117887448D02*
X125981581Y-117481048D01*
X125981581Y-117868095D02*
X125942877Y-117887448D01*
X125865467Y-117887448D01*
X125826762Y-117868095D01*
X125807410Y-117848743D01*
X125788058Y-117810038D01*
X125788058Y-117693924D01*
X125807410Y-117655219D01*
X125826762Y-117635867D01*
X125865467Y-117616514D01*
X125942877Y-117616514D01*
X125981581Y-117635867D01*
X126329924Y-117868095D02*
X126291219Y-117887448D01*
X126213810Y-117887448D01*
X126175105Y-117868095D01*
X126155753Y-117829390D01*
X126155753Y-117674571D01*
X126175105Y-117635867D01*
X126213810Y-117616514D01*
X126291219Y-117616514D01*
X126329924Y-117635867D01*
X126349276Y-117674571D01*
X126349276Y-117713276D01*
X126155753Y-117751981D01*
X127026610Y-117481048D02*
X126833086Y-117481048D01*
X126813734Y-117674571D01*
X126833086Y-117655219D01*
X126871791Y-117635867D01*
X126968553Y-117635867D01*
X127007257Y-117655219D01*
X127026610Y-117674571D01*
X127045962Y-117713276D01*
X127045962Y-117810038D01*
X127026610Y-117848743D01*
X127007257Y-117868095D01*
X126968553Y-117887448D01*
X126871791Y-117887448D01*
X126833086Y-117868095D01*
X126813734Y-117848743D01*
X127162077Y-117481048D02*
X127297543Y-117887448D01*
X127433010Y-117481048D01*
X127839410Y-117616514D02*
X127916820Y-117887448D01*
X127994229Y-117693924D01*
X128071639Y-117887448D01*
X128149048Y-117616514D01*
X128303867Y-117887448D02*
X128303867Y-117616514D01*
X128303867Y-117481048D02*
X128284515Y-117500400D01*
X128303867Y-117519752D01*
X128323219Y-117500400D01*
X128303867Y-117481048D01*
X128303867Y-117519752D01*
X128439334Y-117616514D02*
X128594153Y-117616514D01*
X128497391Y-117481048D02*
X128497391Y-117829390D01*
X128516743Y-117868095D01*
X128555448Y-117887448D01*
X128594153Y-117887448D01*
X128729620Y-117887448D02*
X128729620Y-117481048D01*
X128903791Y-117887448D02*
X128903791Y-117674571D01*
X128884439Y-117635867D01*
X128845734Y-117616514D01*
X128787677Y-117616514D01*
X128748972Y-117635867D01*
X128729620Y-117655219D01*
X129406953Y-117887448D02*
X129406953Y-117481048D01*
X129561772Y-117481048D01*
X129600477Y-117500400D01*
X129619829Y-117519752D01*
X129639181Y-117558457D01*
X129639181Y-117616514D01*
X129619829Y-117655219D01*
X129600477Y-117674571D01*
X129561772Y-117693924D01*
X129406953Y-117693924D01*
X129890762Y-117481048D02*
X129968172Y-117481048D01*
X130006877Y-117500400D01*
X130045581Y-117539105D01*
X130064934Y-117616514D01*
X130064934Y-117751981D01*
X130045581Y-117829390D01*
X130006877Y-117868095D01*
X129968172Y-117887448D01*
X129890762Y-117887448D01*
X129852058Y-117868095D01*
X129813353Y-117829390D01*
X129794001Y-117751981D01*
X129794001Y-117616514D01*
X129813353Y-117539105D01*
X129852058Y-117500400D01*
X129890762Y-117481048D01*
X130432629Y-117887448D02*
X130239105Y-117887448D01*
X130239105Y-117481048D01*
X126349277Y-118141448D02*
X126484743Y-118547848D01*
X126620210Y-118141448D01*
X126910496Y-118528495D02*
X126871791Y-118547848D01*
X126794382Y-118547848D01*
X126755677Y-118528495D01*
X126736325Y-118489790D01*
X126736325Y-118334971D01*
X126755677Y-118296267D01*
X126794382Y-118276914D01*
X126871791Y-118276914D01*
X126910496Y-118296267D01*
X126929848Y-118334971D01*
X126929848Y-118373676D01*
X126736325Y-118412381D01*
X127104020Y-118547848D02*
X127104020Y-118276914D01*
X127104020Y-118354324D02*
X127123372Y-118315619D01*
X127142725Y-118296267D01*
X127181429Y-118276914D01*
X127220134Y-118276914D01*
X127336249Y-118528495D02*
X127374953Y-118547848D01*
X127452363Y-118547848D01*
X127491068Y-118528495D01*
X127510420Y-118489790D01*
X127510420Y-118470438D01*
X127491068Y-118431733D01*
X127452363Y-118412381D01*
X127394306Y-118412381D01*
X127355601Y-118393029D01*
X127336249Y-118354324D01*
X127336249Y-118334971D01*
X127355601Y-118296267D01*
X127394306Y-118276914D01*
X127452363Y-118276914D01*
X127491068Y-118296267D01*
X127684591Y-118547848D02*
X127684591Y-118276914D01*
X127684591Y-118141448D02*
X127665239Y-118160800D01*
X127684591Y-118180152D01*
X127703943Y-118160800D01*
X127684591Y-118141448D01*
X127684591Y-118180152D01*
X127936172Y-118547848D02*
X127897467Y-118528495D01*
X127878115Y-118509143D01*
X127858763Y-118470438D01*
X127858763Y-118354324D01*
X127878115Y-118315619D01*
X127897467Y-118296267D01*
X127936172Y-118276914D01*
X127994229Y-118276914D01*
X128032934Y-118296267D01*
X128052286Y-118315619D01*
X128071639Y-118354324D01*
X128071639Y-118470438D01*
X128052286Y-118509143D01*
X128032934Y-118528495D01*
X127994229Y-118547848D01*
X127936172Y-118547848D01*
X128245810Y-118276914D02*
X128245810Y-118547848D01*
X128245810Y-118315619D02*
X128265162Y-118296267D01*
X128303867Y-118276914D01*
X128361924Y-118276914D01*
X128400629Y-118296267D01*
X128419981Y-118334971D01*
X128419981Y-118547848D01*
X129136019Y-118547848D02*
X128903791Y-118547848D01*
X129019905Y-118547848D02*
X129019905Y-118141448D01*
X128981200Y-118199505D01*
X128942495Y-118238210D01*
X128903791Y-118257562D01*
X123756057Y-119208248D02*
X123756057Y-118801848D01*
X123756057Y-118995371D02*
X123988285Y-118995371D01*
X123988285Y-119208248D02*
X123988285Y-118801848D01*
X124336628Y-119188895D02*
X124297923Y-119208248D01*
X124220514Y-119208248D01*
X124181809Y-119188895D01*
X124162457Y-119150190D01*
X124162457Y-118995371D01*
X124181809Y-118956667D01*
X124220514Y-118937314D01*
X124297923Y-118937314D01*
X124336628Y-118956667D01*
X124355980Y-118995371D01*
X124355980Y-119034076D01*
X124162457Y-119072781D01*
X124530152Y-118937314D02*
X124530152Y-119208248D01*
X124530152Y-118976019D02*
X124549504Y-118956667D01*
X124588209Y-118937314D01*
X124646266Y-118937314D01*
X124684971Y-118956667D01*
X124704323Y-118995371D01*
X124704323Y-119208248D01*
X125072018Y-118937314D02*
X125072018Y-119266305D01*
X125052666Y-119305010D01*
X125033314Y-119324362D01*
X124994609Y-119343714D01*
X124936552Y-119343714D01*
X124897847Y-119324362D01*
X125072018Y-119188895D02*
X125033314Y-119208248D01*
X124955904Y-119208248D01*
X124917199Y-119188895D01*
X124897847Y-119169543D01*
X124878495Y-119130838D01*
X124878495Y-119014724D01*
X124897847Y-118976019D01*
X124917199Y-118956667D01*
X124955904Y-118937314D01*
X125033314Y-118937314D01*
X125072018Y-118956667D01*
X125265542Y-118937314D02*
X125265542Y-119285657D01*
X125246190Y-119324362D01*
X125207485Y-119343714D01*
X125188132Y-119343714D01*
X125265542Y-118801848D02*
X125246190Y-118821200D01*
X125265542Y-118840552D01*
X125284894Y-118821200D01*
X125265542Y-118801848D01*
X125265542Y-118840552D01*
X125459066Y-119208248D02*
X125459066Y-118937314D01*
X125459066Y-118801848D02*
X125439714Y-118821200D01*
X125459066Y-118840552D01*
X125478418Y-118821200D01*
X125459066Y-118801848D01*
X125459066Y-118840552D01*
X125826761Y-118937314D02*
X125826761Y-119208248D01*
X125652590Y-118937314D02*
X125652590Y-119150190D01*
X125671942Y-119188895D01*
X125710647Y-119208248D01*
X125768704Y-119208248D01*
X125807409Y-119188895D01*
X125826761Y-119169543D01*
X126329923Y-119208248D02*
X126329923Y-118801848D01*
X126562151Y-119208248D02*
X126387980Y-118976019D01*
X126562151Y-118801848D02*
X126329923Y-119034076D01*
X126910494Y-119208248D02*
X126910494Y-118995371D01*
X126891142Y-118956667D01*
X126852437Y-118937314D01*
X126775028Y-118937314D01*
X126736323Y-118956667D01*
X126910494Y-119188895D02*
X126871790Y-119208248D01*
X126775028Y-119208248D01*
X126736323Y-119188895D01*
X126716971Y-119150190D01*
X126716971Y-119111486D01*
X126736323Y-119072781D01*
X126775028Y-119053429D01*
X126871790Y-119053429D01*
X126910494Y-119034076D01*
X127104018Y-118937314D02*
X127104018Y-119208248D01*
X127104018Y-118976019D02*
X127123370Y-118956667D01*
X127162075Y-118937314D01*
X127220132Y-118937314D01*
X127258837Y-118956667D01*
X127278189Y-118995371D01*
X127278189Y-119208248D01*
X127645884Y-118937314D02*
X127645884Y-119266305D01*
X127626532Y-119305010D01*
X127607180Y-119324362D01*
X127568475Y-119343714D01*
X127510418Y-119343714D01*
X127471713Y-119324362D01*
X127645884Y-119188895D02*
X127607180Y-119208248D01*
X127529770Y-119208248D01*
X127491065Y-119188895D01*
X127471713Y-119169543D01*
X127452361Y-119130838D01*
X127452361Y-119014724D01*
X127471713Y-118976019D01*
X127491065Y-118956667D01*
X127529770Y-118937314D01*
X127607180Y-118937314D01*
X127645884Y-118956667D01*
X128149046Y-119208248D02*
X128149046Y-118801848D01*
X128381274Y-119208248D01*
X128381274Y-118801848D01*
X128632855Y-119208248D02*
X128594150Y-119188895D01*
X128574798Y-119169543D01*
X128555446Y-119130838D01*
X128555446Y-119014724D01*
X128574798Y-118976019D01*
X128594150Y-118956667D01*
X128632855Y-118937314D01*
X128690912Y-118937314D01*
X128729617Y-118956667D01*
X128748969Y-118976019D01*
X128768322Y-119014724D01*
X128768322Y-119130838D01*
X128748969Y-119169543D01*
X128729617Y-119188895D01*
X128690912Y-119208248D01*
X128632855Y-119208248D01*
X128903788Y-118937314D02*
X129000550Y-119208248D01*
X129097312Y-118937314D01*
X129252131Y-119169543D02*
X129271483Y-119188895D01*
X129252131Y-119208248D01*
X129232779Y-119188895D01*
X129252131Y-119169543D01*
X129252131Y-119208248D01*
X129658531Y-119208248D02*
X129426303Y-119208248D01*
X129542417Y-119208248D02*
X129542417Y-118801848D01*
X129503712Y-118859905D01*
X129465007Y-118898610D01*
X129426303Y-118917962D01*
X129813351Y-118840552D02*
X129832703Y-118821200D01*
X129871408Y-118801848D01*
X129968170Y-118801848D01*
X130006874Y-118821200D01*
X130026227Y-118840552D01*
X130045579Y-118879257D01*
X130045579Y-118917962D01*
X130026227Y-118976019D01*
X129793998Y-119208248D01*
X130045579Y-119208248D01*
X130219751Y-119169543D02*
X130239103Y-119188895D01*
X130219751Y-119208248D01*
X130200399Y-119188895D01*
X130219751Y-119169543D01*
X130219751Y-119208248D01*
X130393923Y-118840552D02*
X130413275Y-118821200D01*
X130451980Y-118801848D01*
X130548742Y-118801848D01*
X130587446Y-118821200D01*
X130606799Y-118840552D01*
X130626151Y-118879257D01*
X130626151Y-118917962D01*
X130606799Y-118976019D01*
X130374570Y-119208248D01*
X130626151Y-119208248D01*
X130877732Y-118801848D02*
X130916437Y-118801848D01*
X130955142Y-118821200D01*
X130974494Y-118840552D01*
X130993847Y-118879257D01*
X131013199Y-118956667D01*
X131013199Y-119053429D01*
X130993847Y-119130838D01*
X130974494Y-119169543D01*
X130955142Y-119188895D01*
X130916437Y-119208248D01*
X130877732Y-119208248D01*
X130839028Y-119188895D01*
X130819675Y-119169543D01*
X130800323Y-119130838D01*
X130780971Y-119053429D01*
X130780971Y-118956667D01*
X130800323Y-118879257D01*
X130819675Y-118840552D01*
X130839028Y-118821200D01*
X130877732Y-118801848D01*
X131400247Y-119208248D02*
X131168019Y-119208248D01*
X131284133Y-119208248D02*
X131284133Y-118801848D01*
X131245428Y-118859905D01*
X131206723Y-118898610D01*
X131168019Y-118917962D01*
X131748590Y-118801848D02*
X131671181Y-118801848D01*
X131632476Y-118821200D01*
X131613124Y-118840552D01*
X131574419Y-118898610D01*
X131555067Y-118976019D01*
X131555067Y-119130838D01*
X131574419Y-119169543D01*
X131593771Y-119188895D01*
X131632476Y-119208248D01*
X131709886Y-119208248D01*
X131748590Y-119188895D01*
X131767943Y-119169543D01*
X131787295Y-119130838D01*
X131787295Y-119034076D01*
X131767943Y-118995371D01*
X131748590Y-118976019D01*
X131709886Y-118956667D01*
X131632476Y-118956667D01*
X131593771Y-118976019D01*
X131574419Y-118995371D01*
X131555067Y-119034076D01*
D12*
X122590000Y-117444000D02*
X122590000Y-116744000D01*
X123790000Y-116744000D02*
X123790000Y-117444000D01*
X123856000Y-109128000D02*
X124556000Y-109128000D01*
X124556000Y-110328000D02*
X123856000Y-110328000D01*
X135474000Y-104806000D02*
X135474000Y-105506000D01*
X134274000Y-105506000D02*
X134274000Y-104806000D01*
X132750000Y-105506000D02*
X132750000Y-104806000D01*
X133950000Y-104806000D02*
X133950000Y-105506000D01*
X135587000Y-109966000D02*
X135587000Y-107966000D01*
X132637000Y-107966000D02*
X132637000Y-109966000D01*
X137430000Y-113235000D02*
X139430000Y-113235000D01*
X139430000Y-110285000D02*
X137430000Y-110285000D01*
X129032000Y-107696000D02*
X124714000Y-107696000D01*
X124714000Y-107696000D02*
X123952000Y-106934000D01*
X123952000Y-106934000D02*
X123952000Y-98044000D01*
X123952000Y-98044000D02*
X124968000Y-98044000D01*
X129037000Y-107670000D02*
X129037000Y-98070000D01*
X129037000Y-98070000D02*
X124947000Y-98070000D01*
X129681000Y-106264000D02*
X129681000Y-105064000D01*
X131431000Y-105064000D02*
X131431000Y-106264000D01*
X131431000Y-99984000D02*
X131431000Y-101184000D01*
X129681000Y-101184000D02*
X129681000Y-99984000D01*
X122184000Y-98562000D02*
X112824000Y-98562000D01*
X112824000Y-98562000D02*
X112824000Y-107122000D01*
X112824000Y-107122000D02*
X122184000Y-107122000D01*
X122184000Y-98562000D02*
X122184000Y-100042000D01*
X122184000Y-107122000D02*
X122184000Y-105642000D01*
X122184000Y-102142000D02*
X122184000Y-103542000D01*
X116104000Y-98562000D02*
X116104000Y-107122000D01*
X123204000Y-101092000D02*
X123804000Y-101392000D01*
X123804000Y-101392000D02*
X123804000Y-100792000D01*
X123804000Y-100792000D02*
X123204000Y-101092000D01*
X141057000Y-105402000D02*
X141057000Y-104402000D01*
X142407000Y-104402000D02*
X142407000Y-105402000D01*
D13*
X131114800Y-116448840D02*
X131114800Y-115958620D01*
X131114800Y-115958620D02*
X130014980Y-115958620D01*
X130014980Y-116448840D02*
X130014980Y-115958620D01*
X131114800Y-116448840D02*
X130014980Y-116448840D01*
X131114800Y-115178840D02*
X131114800Y-114688620D01*
X131114800Y-114688620D02*
X130014980Y-114688620D01*
X130014980Y-115178840D02*
X130014980Y-114688620D01*
X131114800Y-115178840D02*
X130014980Y-115178840D01*
X131114800Y-113911380D02*
X131114800Y-113421160D01*
X131114800Y-113421160D02*
X130014980Y-113421160D01*
X130014980Y-113911380D02*
X130014980Y-113421160D01*
X131114800Y-113911380D02*
X130014980Y-113911380D01*
X131114800Y-112641380D02*
X131114800Y-112151160D01*
X131114800Y-112151160D02*
X130014980Y-112151160D01*
X130014980Y-112641380D02*
X130014980Y-112151160D01*
X131114800Y-112641380D02*
X130014980Y-112641380D01*
X126017020Y-112641380D02*
X126017020Y-112151160D01*
X126017020Y-112151160D02*
X124917200Y-112151160D01*
X124917200Y-112641380D02*
X124917200Y-112151160D01*
X126017020Y-112641380D02*
X124917200Y-112641380D01*
X126017020Y-113911380D02*
X126017020Y-113421160D01*
X126017020Y-113421160D02*
X124917200Y-113421160D01*
X124917200Y-113911380D02*
X124917200Y-113421160D01*
X126017020Y-113911380D02*
X124917200Y-113911380D01*
X126017020Y-115178840D02*
X126017020Y-114688620D01*
X126017020Y-114688620D02*
X124917200Y-114688620D01*
X124917200Y-115178840D02*
X124917200Y-114688620D01*
X126017020Y-115178840D02*
X124917200Y-115178840D01*
X126017020Y-116448840D02*
X126017020Y-115958620D01*
X126017020Y-115958620D02*
X124917200Y-115958620D01*
X124917200Y-116448840D02*
X124917200Y-115958620D01*
X126017020Y-116448840D02*
X124917200Y-116448840D01*
D14*
X126116080Y-111902240D02*
X129415540Y-111902240D01*
X129415540Y-111902240D02*
X129915920Y-111902240D01*
X129915920Y-111902240D02*
X129915920Y-116697760D01*
X129915920Y-116697760D02*
X129415540Y-116697760D01*
X129415540Y-116697760D02*
X126116080Y-116697760D01*
X126116080Y-116697760D02*
X126116080Y-111902240D01*
X129415540Y-111902240D02*
X129415540Y-116697760D01*
D12*
X146364000Y-106670000D02*
X146364000Y-111770000D01*
X141164000Y-106670000D02*
X141164000Y-111770000D01*
X139954000Y-119507000D02*
X147574000Y-119507000D01*
X139954000Y-115062000D02*
X147574000Y-115062000D01*
X139954000Y-113157000D02*
X147574000Y-113157000D01*
X132334000Y-113157000D02*
X132334000Y-119507000D01*
X147574000Y-113157000D02*
X147574000Y-119507000D01*
X139954000Y-115062000D02*
X132334000Y-115062000D01*
X132334000Y-113157000D02*
X139954000Y-113157000D01*
X139954000Y-119507000D02*
X132334000Y-119507000D01*
X139954000Y-104267000D02*
X147574000Y-104267000D01*
X139954000Y-99822000D02*
X147574000Y-99822000D01*
X139954000Y-97917000D02*
X147574000Y-97917000D01*
X132334000Y-97917000D02*
X132334000Y-104267000D01*
X147574000Y-97917000D02*
X147574000Y-104267000D01*
X139954000Y-99822000D02*
X132334000Y-99822000D01*
X132334000Y-97917000D02*
X139954000Y-97917000D01*
X139954000Y-104267000D02*
X132334000Y-104267000D01*
X139446000Y-108712000D02*
X135890000Y-108712000D01*
X135890000Y-108712000D02*
X135890000Y-104902000D01*
X135890000Y-104902000D02*
X139700000Y-104902000D01*
X139700000Y-104902000D02*
X139700000Y-108458000D01*
X139983981Y-108712000D02*
G75*
G03X139983981Y-108712000I-283981J0D01*
G01*
X110807500Y-108275120D02*
X110807500Y-117276880D01*
X107307380Y-108275120D02*
X107307380Y-117276880D01*
X107307380Y-117276880D02*
X121808240Y-117276880D01*
X121808240Y-117276880D02*
X121808240Y-108275120D01*
X121808240Y-108275120D02*
X107307380Y-108275120D01*
X126408000Y-110278000D02*
X128308000Y-110278000D01*
X126408000Y-109178000D02*
X128308000Y-109178000D01*
X127308000Y-109728000D02*
X127758000Y-109728000D01*
X127258000Y-109478000D02*
X127258000Y-109978000D01*
X127258000Y-109728000D02*
X127508000Y-109478000D01*
X127508000Y-109478000D02*
X127508000Y-109978000D01*
X127508000Y-109978000D02*
X127258000Y-109728000D01*
X129881000Y-109720000D02*
X129881000Y-108720000D01*
X131231000Y-108720000D02*
X131231000Y-109720000D01*
X146896000Y-103590000D02*
X144996000Y-103590000D01*
X146896000Y-104690000D02*
X144996000Y-104690000D01*
X145996000Y-104140000D02*
X145546000Y-104140000D01*
X146046000Y-104390000D02*
X146046000Y-103890000D01*
X146046000Y-104140000D02*
X145796000Y-104390000D01*
X145796000Y-104390000D02*
X145796000Y-103890000D01*
X145796000Y-103890000D02*
X146046000Y-104140000D01*
X144185000Y-104402000D02*
X144185000Y-105402000D01*
X142835000Y-105402000D02*
X142835000Y-104402000D01*
D11*
X122818071Y-119189499D02*
X122836214Y-119207642D01*
X122854357Y-119262071D01*
X122854357Y-119298357D01*
X122836214Y-119352785D01*
X122799929Y-119389071D01*
X122763643Y-119407214D01*
X122691071Y-119425357D01*
X122636643Y-119425357D01*
X122564071Y-119407214D01*
X122527786Y-119389071D01*
X122491500Y-119352785D01*
X122473357Y-119298357D01*
X122473357Y-119262071D01*
X122491500Y-119207642D01*
X122509643Y-119189499D01*
X122509643Y-119044357D02*
X122491500Y-119026214D01*
X122473357Y-118989928D01*
X122473357Y-118899214D01*
X122491500Y-118862928D01*
X122509643Y-118844785D01*
X122545929Y-118826642D01*
X122582214Y-118826642D01*
X122636643Y-118844785D01*
X122854357Y-119062499D01*
X122854357Y-118826642D01*
X123126501Y-108848071D02*
X123108358Y-108866214D01*
X123053929Y-108884357D01*
X123017643Y-108884357D01*
X122963215Y-108866214D01*
X122926929Y-108829929D01*
X122908786Y-108793643D01*
X122890643Y-108721071D01*
X122890643Y-108666643D01*
X122908786Y-108594071D01*
X122926929Y-108557786D01*
X122963215Y-108521500D01*
X123017643Y-108503357D01*
X123053929Y-108503357D01*
X123108358Y-108521500D01*
X123126501Y-108539643D01*
X123253501Y-108503357D02*
X123489358Y-108503357D01*
X123362358Y-108648500D01*
X123416786Y-108648500D01*
X123453072Y-108666643D01*
X123471215Y-108684786D01*
X123489358Y-108721071D01*
X123489358Y-108811786D01*
X123471215Y-108848071D01*
X123453072Y-108866214D01*
X123416786Y-108884357D01*
X123307929Y-108884357D01*
X123271643Y-108866214D01*
X123253501Y-108848071D01*
X134810501Y-103006071D02*
X134792358Y-103024214D01*
X134737929Y-103042357D01*
X134701643Y-103042357D01*
X134647215Y-103024214D01*
X134610929Y-102987929D01*
X134592786Y-102951643D01*
X134574643Y-102879071D01*
X134574643Y-102824643D01*
X134592786Y-102752071D01*
X134610929Y-102715786D01*
X134647215Y-102679500D01*
X134701643Y-102661357D01*
X134737929Y-102661357D01*
X134792358Y-102679500D01*
X134810501Y-102697643D01*
X135137072Y-102788357D02*
X135137072Y-103042357D01*
X135046358Y-102643214D02*
X134955643Y-102915357D01*
X135191501Y-102915357D01*
X133286501Y-103006071D02*
X133268358Y-103024214D01*
X133213929Y-103042357D01*
X133177643Y-103042357D01*
X133123215Y-103024214D01*
X133086929Y-102987929D01*
X133068786Y-102951643D01*
X133050643Y-102879071D01*
X133050643Y-102824643D01*
X133068786Y-102752071D01*
X133086929Y-102715786D01*
X133123215Y-102679500D01*
X133177643Y-102661357D01*
X133213929Y-102661357D01*
X133268358Y-102679500D01*
X133286501Y-102697643D01*
X133631215Y-102661357D02*
X133449786Y-102661357D01*
X133431643Y-102842786D01*
X133449786Y-102824643D01*
X133486072Y-102806500D01*
X133576786Y-102806500D01*
X133613072Y-102824643D01*
X133631215Y-102842786D01*
X133649358Y-102879071D01*
X133649358Y-102969786D01*
X133631215Y-103006071D01*
X133613072Y-103024214D01*
X133576786Y-103042357D01*
X133486072Y-103042357D01*
X133449786Y-103024214D01*
X133431643Y-103006071D01*
X132470071Y-109800571D02*
X132488214Y-109818714D01*
X132506357Y-109873143D01*
X132506357Y-109909429D01*
X132488214Y-109963857D01*
X132451929Y-110000143D01*
X132415643Y-110018286D01*
X132343071Y-110036429D01*
X132288643Y-110036429D01*
X132216071Y-110018286D01*
X132179786Y-110000143D01*
X132143500Y-109963857D01*
X132125357Y-109909429D01*
X132125357Y-109873143D01*
X132143500Y-109818714D01*
X132161643Y-109800571D01*
X132506357Y-109637286D02*
X132252357Y-109637286D01*
X132125357Y-109637286D02*
X132143500Y-109655429D01*
X132161643Y-109637286D01*
X132143500Y-109619143D01*
X132125357Y-109637286D01*
X132161643Y-109637286D01*
X132252357Y-109455857D02*
X132506357Y-109455857D01*
X132288643Y-109455857D02*
X132270500Y-109437714D01*
X132252357Y-109401428D01*
X132252357Y-109347000D01*
X132270500Y-109310714D01*
X132306786Y-109292571D01*
X132506357Y-109292571D01*
X132506357Y-108911571D02*
X132506357Y-109129286D01*
X132506357Y-109020428D02*
X132125357Y-109020428D01*
X132179786Y-109056714D01*
X132216071Y-109093000D01*
X132234214Y-109129286D01*
X136642930Y-110118071D02*
X136624787Y-110136214D01*
X136570358Y-110154357D01*
X136534072Y-110154357D01*
X136479644Y-110136214D01*
X136443358Y-110099929D01*
X136425215Y-110063643D01*
X136407072Y-109991071D01*
X136407072Y-109936643D01*
X136425215Y-109864071D01*
X136443358Y-109827786D01*
X136479644Y-109791500D01*
X136534072Y-109773357D01*
X136570358Y-109773357D01*
X136624787Y-109791500D01*
X136642930Y-109809643D01*
X136860644Y-110154357D02*
X136824358Y-110136214D01*
X136806215Y-110118071D01*
X136788072Y-110081786D01*
X136788072Y-109972929D01*
X136806215Y-109936643D01*
X136824358Y-109918500D01*
X136860644Y-109900357D01*
X136915072Y-109900357D01*
X136951358Y-109918500D01*
X136969501Y-109936643D01*
X136987644Y-109972929D01*
X136987644Y-110081786D01*
X136969501Y-110118071D01*
X136951358Y-110136214D01*
X136915072Y-110154357D01*
X136860644Y-110154357D01*
X137314215Y-109900357D02*
X137314215Y-110154357D01*
X137150929Y-109900357D02*
X137150929Y-110099929D01*
X137169072Y-110136214D01*
X137205358Y-110154357D01*
X137259786Y-110154357D01*
X137296072Y-110136214D01*
X137314215Y-110118071D01*
X137441215Y-109900357D02*
X137586358Y-109900357D01*
X137495643Y-109773357D02*
X137495643Y-110099929D01*
X137513786Y-110136214D01*
X137550072Y-110154357D01*
X137586358Y-110154357D01*
X137912929Y-110154357D02*
X137695214Y-110154357D01*
X137804072Y-110154357D02*
X137804072Y-109773357D01*
X137767786Y-109827786D01*
X137731500Y-109864071D01*
X137695214Y-109882214D01*
X124178786Y-97835357D02*
X124178786Y-97454357D01*
X124269501Y-97454357D01*
X124323929Y-97472500D01*
X124360215Y-97508786D01*
X124378358Y-97545071D01*
X124396501Y-97617643D01*
X124396501Y-97672071D01*
X124378358Y-97744643D01*
X124360215Y-97780929D01*
X124323929Y-97817214D01*
X124269501Y-97835357D01*
X124178786Y-97835357D01*
X124759358Y-97835357D02*
X124541643Y-97835357D01*
X124650501Y-97835357D02*
X124650501Y-97454357D01*
X124614215Y-97508786D01*
X124577929Y-97545071D01*
X124541643Y-97563214D01*
X131998357Y-106997500D02*
X131998357Y-107178929D01*
X131617357Y-107178929D01*
X131998357Y-106670928D02*
X131998357Y-106888643D01*
X131998357Y-106779785D02*
X131617357Y-106779785D01*
X131671786Y-106816071D01*
X131708071Y-106852357D01*
X131726214Y-106888643D01*
X131127500Y-102661357D02*
X130946071Y-102661357D01*
X130946071Y-102280357D01*
X131236357Y-102316643D02*
X131254500Y-102298500D01*
X131290786Y-102280357D01*
X131381500Y-102280357D01*
X131417786Y-102298500D01*
X131435929Y-102316643D01*
X131454072Y-102352929D01*
X131454072Y-102389214D01*
X131435929Y-102443643D01*
X131218215Y-102661357D01*
X131454072Y-102661357D01*
X121892786Y-97835357D02*
X121892786Y-97454357D01*
X122037929Y-97454357D01*
X122074215Y-97472500D01*
X122092358Y-97490643D01*
X122110501Y-97526929D01*
X122110501Y-97581357D01*
X122092358Y-97617643D01*
X122074215Y-97635786D01*
X122037929Y-97653929D01*
X121892786Y-97653929D01*
X122473358Y-97835357D02*
X122255643Y-97835357D01*
X122364501Y-97835357D02*
X122364501Y-97454357D01*
X122328215Y-97508786D01*
X122291929Y-97545071D01*
X122255643Y-97563214D01*
X143804357Y-104965499D02*
X143622929Y-105092499D01*
X143804357Y-105183214D02*
X143423357Y-105183214D01*
X143423357Y-105038071D01*
X143441500Y-105001785D01*
X143459643Y-104983642D01*
X143495929Y-104965499D01*
X143550357Y-104965499D01*
X143586643Y-104983642D01*
X143604786Y-105001785D01*
X143622929Y-105038071D01*
X143622929Y-105183214D01*
X143804357Y-104602642D02*
X143804357Y-104820357D01*
X143804357Y-104711499D02*
X143423357Y-104711499D01*
X143477786Y-104747785D01*
X143514071Y-104784071D01*
X143532214Y-104820357D01*
X126328714Y-111297357D02*
X126328714Y-111605786D01*
X126346857Y-111642071D01*
X126365000Y-111660214D01*
X126401286Y-111678357D01*
X126473857Y-111678357D01*
X126510143Y-111660214D01*
X126528286Y-111642071D01*
X126546429Y-111605786D01*
X126546429Y-111297357D01*
X126709714Y-111333643D02*
X126727857Y-111315500D01*
X126764143Y-111297357D01*
X126854857Y-111297357D01*
X126891143Y-111315500D01*
X126909286Y-111333643D01*
X126927429Y-111369929D01*
X126927429Y-111406214D01*
X126909286Y-111460643D01*
X126691572Y-111678357D01*
X126927429Y-111678357D01*
X127444500Y-111660214D02*
X127498929Y-111678357D01*
X127589643Y-111678357D01*
X127625929Y-111660214D01*
X127644072Y-111642071D01*
X127662215Y-111605786D01*
X127662215Y-111569500D01*
X127644072Y-111533214D01*
X127625929Y-111515071D01*
X127589643Y-111496929D01*
X127517072Y-111478786D01*
X127480786Y-111460643D01*
X127462643Y-111442500D01*
X127444500Y-111406214D01*
X127444500Y-111369929D01*
X127462643Y-111333643D01*
X127480786Y-111315500D01*
X127517072Y-111297357D01*
X127607786Y-111297357D01*
X127662215Y-111315500D01*
X127825500Y-111678357D02*
X127825500Y-111297357D01*
X128043215Y-111678357D01*
X128043215Y-111297357D01*
X128387929Y-111297357D02*
X128315358Y-111297357D01*
X128279072Y-111315500D01*
X128260929Y-111333643D01*
X128224643Y-111388071D01*
X128206500Y-111460643D01*
X128206500Y-111605786D01*
X128224643Y-111642071D01*
X128242786Y-111660214D01*
X128279072Y-111678357D01*
X128351643Y-111678357D01*
X128387929Y-111660214D01*
X128406072Y-111642071D01*
X128424215Y-111605786D01*
X128424215Y-111515071D01*
X128406072Y-111478786D01*
X128387929Y-111460643D01*
X128351643Y-111442500D01*
X128279072Y-111442500D01*
X128242786Y-111460643D01*
X128224643Y-111478786D01*
X128206500Y-111515071D01*
X128768929Y-111297357D02*
X128587500Y-111297357D01*
X128569357Y-111478786D01*
X128587500Y-111460643D01*
X128623786Y-111442500D01*
X128714500Y-111442500D01*
X128750786Y-111460643D01*
X128768929Y-111478786D01*
X128787072Y-111515071D01*
X128787072Y-111605786D01*
X128768929Y-111642071D01*
X128750786Y-111660214D01*
X128714500Y-111678357D01*
X128623786Y-111678357D01*
X128587500Y-111660214D01*
X128569357Y-111642071D01*
X128950357Y-111678357D02*
X128950357Y-111297357D01*
X128950357Y-111478786D02*
X129168072Y-111478786D01*
X129168072Y-111678357D02*
X129168072Y-111297357D01*
X129295072Y-111297357D02*
X129422072Y-111678357D01*
X129549072Y-111297357D01*
X129676071Y-111678357D02*
X129676071Y-111297357D01*
X129766786Y-111297357D01*
X129821214Y-111315500D01*
X129857500Y-111351786D01*
X129875643Y-111388071D01*
X129893786Y-111460643D01*
X129893786Y-111515071D01*
X129875643Y-111587643D01*
X129857500Y-111623929D01*
X129821214Y-111660214D01*
X129766786Y-111678357D01*
X129676071Y-111678357D01*
X130075214Y-111678357D02*
X130147786Y-111678357D01*
X130184071Y-111660214D01*
X130202214Y-111642071D01*
X130238500Y-111587643D01*
X130256643Y-111515071D01*
X130256643Y-111369929D01*
X130238500Y-111333643D01*
X130220357Y-111315500D01*
X130184071Y-111297357D01*
X130111500Y-111297357D01*
X130075214Y-111315500D01*
X130057071Y-111333643D01*
X130038928Y-111369929D01*
X130038928Y-111460643D01*
X130057071Y-111496929D01*
X130075214Y-111515071D01*
X130111500Y-111533214D01*
X130184071Y-111533214D01*
X130220357Y-111515071D01*
X130238500Y-111496929D01*
X130256643Y-111460643D01*
X130583214Y-111297357D02*
X130510643Y-111297357D01*
X130474357Y-111315500D01*
X130456214Y-111333643D01*
X130419928Y-111388071D01*
X130401785Y-111460643D01*
X130401785Y-111605786D01*
X130419928Y-111642071D01*
X130438071Y-111660214D01*
X130474357Y-111678357D01*
X130546928Y-111678357D01*
X130583214Y-111660214D01*
X130601357Y-111642071D01*
X130619500Y-111605786D01*
X130619500Y-111515071D01*
X130601357Y-111478786D01*
X130583214Y-111460643D01*
X130546928Y-111442500D01*
X130474357Y-111442500D01*
X130438071Y-111460643D01*
X130419928Y-111478786D01*
X130401785Y-111515071D01*
X141922500Y-112440357D02*
X141741071Y-112440357D01*
X141741071Y-112059357D01*
X142013215Y-112059357D02*
X142249072Y-112059357D01*
X142122072Y-112204500D01*
X142176500Y-112204500D01*
X142212786Y-112222643D01*
X142230929Y-112240786D01*
X142249072Y-112277071D01*
X142249072Y-112367786D01*
X142230929Y-112404071D01*
X142212786Y-112422214D01*
X142176500Y-112440357D01*
X142067643Y-112440357D01*
X142031357Y-112422214D01*
X142013215Y-112404071D01*
X136116786Y-120060357D02*
X136116786Y-119679357D01*
X136261929Y-119679357D01*
X136298215Y-119697500D01*
X136316358Y-119715643D01*
X136334501Y-119751929D01*
X136334501Y-119806357D01*
X136316358Y-119842643D01*
X136298215Y-119860786D01*
X136261929Y-119878929D01*
X136116786Y-119878929D01*
X136461501Y-119679357D02*
X136697358Y-119679357D01*
X136570358Y-119824500D01*
X136624786Y-119824500D01*
X136661072Y-119842643D01*
X136679215Y-119860786D01*
X136697358Y-119897071D01*
X136697358Y-119987786D01*
X136679215Y-120024071D01*
X136661072Y-120042214D01*
X136624786Y-120060357D01*
X136515929Y-120060357D01*
X136479643Y-120042214D01*
X136461501Y-120024071D01*
X137386786Y-98978357D02*
X137386786Y-98597357D01*
X137531929Y-98597357D01*
X137568215Y-98615500D01*
X137586358Y-98633643D01*
X137604501Y-98669929D01*
X137604501Y-98724357D01*
X137586358Y-98760643D01*
X137568215Y-98778786D01*
X137531929Y-98796929D01*
X137386786Y-98796929D01*
X137931072Y-98724357D02*
X137931072Y-98978357D01*
X137840358Y-98579214D02*
X137749643Y-98851357D01*
X137985501Y-98851357D01*
X135853714Y-104439357D02*
X135853714Y-104747786D01*
X135871857Y-104784071D01*
X135890000Y-104802214D01*
X135926286Y-104820357D01*
X135998857Y-104820357D01*
X136035143Y-104802214D01*
X136053286Y-104784071D01*
X136071429Y-104747786D01*
X136071429Y-104439357D01*
X136452429Y-104820357D02*
X136234714Y-104820357D01*
X136343572Y-104820357D02*
X136343572Y-104439357D01*
X136307286Y-104493786D01*
X136271000Y-104530071D01*
X136234714Y-104548214D01*
X113583358Y-117992071D02*
X113565215Y-118010214D01*
X113510786Y-118028357D01*
X113474500Y-118028357D01*
X113420072Y-118010214D01*
X113383786Y-117973929D01*
X113365643Y-117937643D01*
X113347500Y-117865071D01*
X113347500Y-117810643D01*
X113365643Y-117738071D01*
X113383786Y-117701786D01*
X113420072Y-117665500D01*
X113474500Y-117647357D01*
X113510786Y-117647357D01*
X113565215Y-117665500D01*
X113583358Y-117683643D01*
X113819215Y-117647357D02*
X113891786Y-117647357D01*
X113928072Y-117665500D01*
X113964358Y-117701786D01*
X113982500Y-117774357D01*
X113982500Y-117901357D01*
X113964358Y-117973929D01*
X113928072Y-118010214D01*
X113891786Y-118028357D01*
X113819215Y-118028357D01*
X113782929Y-118010214D01*
X113746643Y-117973929D01*
X113728500Y-117901357D01*
X113728500Y-117774357D01*
X113746643Y-117701786D01*
X113782929Y-117665500D01*
X113819215Y-117647357D01*
X114145786Y-118028357D02*
X114145786Y-117647357D01*
X114363501Y-118028357D01*
X114363501Y-117647357D01*
X114744501Y-118028357D02*
X114526786Y-118028357D01*
X114635644Y-118028357D02*
X114635644Y-117647357D01*
X114599358Y-117701786D01*
X114563072Y-117738071D01*
X114526786Y-117756214D01*
X126464786Y-108884357D02*
X126464786Y-108503357D01*
X126555501Y-108503357D01*
X126609929Y-108521500D01*
X126646215Y-108557786D01*
X126664358Y-108594071D01*
X126682501Y-108666643D01*
X126682501Y-108721071D01*
X126664358Y-108793643D01*
X126646215Y-108829929D01*
X126609929Y-108866214D01*
X126555501Y-108884357D01*
X126464786Y-108884357D01*
X126827643Y-108539643D02*
X126845786Y-108521500D01*
X126882072Y-108503357D01*
X126972786Y-108503357D01*
X127009072Y-108521500D01*
X127027215Y-108539643D01*
X127045358Y-108575929D01*
X127045358Y-108612214D01*
X127027215Y-108666643D01*
X126809501Y-108884357D01*
X127045358Y-108884357D01*
X129712357Y-110299499D02*
X129530929Y-110426499D01*
X129712357Y-110517214D02*
X129331357Y-110517214D01*
X129331357Y-110372071D01*
X129349500Y-110335785D01*
X129367643Y-110317642D01*
X129403929Y-110299499D01*
X129458357Y-110299499D01*
X129494643Y-110317642D01*
X129512786Y-110335785D01*
X129530929Y-110372071D01*
X129530929Y-110517214D01*
X129367643Y-110154357D02*
X129349500Y-110136214D01*
X129331357Y-110099928D01*
X129331357Y-110009214D01*
X129349500Y-109972928D01*
X129367643Y-109954785D01*
X129403929Y-109936642D01*
X129440214Y-109936642D01*
X129494643Y-109954785D01*
X129712357Y-110172499D01*
X129712357Y-109936642D01*
X145006786Y-105328357D02*
X145006786Y-104947357D01*
X145097501Y-104947357D01*
X145151929Y-104965500D01*
X145188215Y-105001786D01*
X145206358Y-105038071D01*
X145224501Y-105110643D01*
X145224501Y-105165071D01*
X145206358Y-105237643D01*
X145188215Y-105273929D01*
X145151929Y-105310214D01*
X145097501Y-105328357D01*
X145006786Y-105328357D01*
X145351501Y-104947357D02*
X145587358Y-104947357D01*
X145460358Y-105092500D01*
X145514786Y-105092500D01*
X145551072Y-105110643D01*
X145569215Y-105128786D01*
X145587358Y-105165071D01*
X145587358Y-105255786D01*
X145569215Y-105292071D01*
X145551072Y-105310214D01*
X145514786Y-105328357D01*
X145405929Y-105328357D01*
X145369643Y-105310214D01*
X145351501Y-105292071D01*
X141782357Y-104965499D02*
X141600929Y-105092499D01*
X141782357Y-105183214D02*
X141401357Y-105183214D01*
X141401357Y-105038071D01*
X141419500Y-105001785D01*
X141437643Y-104983642D01*
X141473929Y-104965499D01*
X141528357Y-104965499D01*
X141564643Y-104983642D01*
X141582786Y-105001785D01*
X141600929Y-105038071D01*
X141600929Y-105183214D01*
X141401357Y-104838499D02*
X141401357Y-104602642D01*
X141546500Y-104729642D01*
X141546500Y-104675214D01*
X141564643Y-104638928D01*
X141582786Y-104620785D01*
X141619071Y-104602642D01*
X141709786Y-104602642D01*
X141746071Y-104620785D01*
X141764214Y-104638928D01*
X141782357Y-104675214D01*
X141782357Y-104784071D01*
X141764214Y-104820357D01*
X141746071Y-104838499D01*
M02*
