G04 #@! TF.FileFunction,Soldermask,Top*
%FSLAX46Y46*%
G04 Gerber Fmt 4.6, Leading zero omitted, Abs format (unit mm)*
G04 Created by KiCad (PCBNEW 4.0.4-stable) date 11/12/16 20:40:28*
%MOMM*%
%LPD*%
G01*
G04 APERTURE LIST*
%ADD10C,0.100000*%
%ADD11R,0.750000X0.800000*%
%ADD12R,0.800000X0.750000*%
%ADD13R,2.500000X1.000000*%
%ADD14R,1.000000X2.500000*%
%ADD15R,1.550000X2.100000*%
%ADD16R,1.300000X0.700000*%
%ADD17R,3.600000X1.800000*%
%ADD18O,3.600000X1.800000*%
%ADD19R,0.900000X0.500000*%
%ADD20R,2.199640X0.599440*%
%ADD21R,4.200000X1.500000*%
%ADD22O,1.506220X3.014980*%
%ADD23O,0.600000X0.250000*%
%ADD24O,0.250000X0.600000*%
%ADD25R,1.700000X1.700000*%
%ADD26R,3.500120X3.500120*%
%ADD27R,0.797560X0.797560*%
G04 APERTURE END LIST*
D10*
D11*
X123190000Y-117844000D03*
X123190000Y-116344000D03*
D12*
X123456000Y-109728000D03*
X124956000Y-109728000D03*
D11*
X134874000Y-104406000D03*
X134874000Y-105906000D03*
X133350000Y-105906000D03*
X133350000Y-104406000D03*
D13*
X134112000Y-107466000D03*
X134112000Y-110466000D03*
D14*
X139930000Y-111760000D03*
X136930000Y-111760000D03*
D15*
X125222000Y-99620000D03*
X125222000Y-106120000D03*
X127762000Y-99620000D03*
X127762000Y-106120000D03*
D16*
X130556000Y-104714000D03*
X130556000Y-106614000D03*
X130556000Y-101534000D03*
X130556000Y-99634000D03*
D17*
X120904000Y-101092000D03*
D18*
X120904000Y-104592000D03*
D19*
X141732000Y-104152000D03*
X141732000Y-105652000D03*
D20*
X130614420Y-116205000D03*
X130614420Y-114935000D03*
X130614420Y-113665000D03*
X130614420Y-112395000D03*
X125417580Y-112395000D03*
X125417580Y-113665000D03*
X125417580Y-114935000D03*
X125417580Y-116205000D03*
D21*
X143764000Y-107420000D03*
X143764000Y-111020000D03*
D22*
X133604000Y-116332000D03*
X136144000Y-116332000D03*
X138684000Y-116332000D03*
X141224000Y-116332000D03*
X143764000Y-116332000D03*
X146304000Y-116332000D03*
X133604000Y-101092000D03*
X136144000Y-101092000D03*
X138684000Y-101092000D03*
X141224000Y-101092000D03*
X143764000Y-101092000D03*
X146304000Y-101092000D03*
D23*
X139195000Y-107557000D03*
X139195000Y-107057000D03*
X139195000Y-106557000D03*
X139195000Y-106057000D03*
D24*
X138545000Y-105407000D03*
X138045000Y-105407000D03*
X137545000Y-105407000D03*
X137045000Y-105407000D03*
D23*
X136395000Y-106057000D03*
X136395000Y-106557000D03*
X136395000Y-107057000D03*
X136395000Y-107557000D03*
D24*
X137045000Y-108207000D03*
X137545000Y-108207000D03*
X138045000Y-108207000D03*
X138545000Y-108207000D03*
D25*
X137795000Y-106807000D03*
D26*
X121008140Y-112776000D03*
X115008660Y-112776000D03*
X118008400Y-117475000D03*
D27*
X128257300Y-109728000D03*
X126758700Y-109728000D03*
D19*
X130556000Y-108470000D03*
X130556000Y-109970000D03*
D27*
X145046700Y-104140000D03*
X146545300Y-104140000D03*
D19*
X143510000Y-105652000D03*
X143510000Y-104152000D03*
M02*
