G04 #@! TF.FileFunction,Copper,L1,Top,Signal*
%FSLAX46Y46*%
G04 Gerber Fmt 4.6, Leading zero omitted, Abs format (unit mm)*
G04 Created by KiCad (PCBNEW 4.0.4-stable) date 11/12/16 20:40:28*
%MOMM*%
%LPD*%
G01*
G04 APERTURE LIST*
%ADD10C,0.100000*%
%ADD11R,0.750000X0.800000*%
%ADD12R,0.800000X0.750000*%
%ADD13R,2.500000X1.000000*%
%ADD14R,1.000000X2.500000*%
%ADD15R,1.550000X2.100000*%
%ADD16R,1.300000X0.700000*%
%ADD17R,3.600000X1.800000*%
%ADD18O,3.600000X1.800000*%
%ADD19R,0.900000X0.500000*%
%ADD20R,2.199640X0.599440*%
%ADD21R,4.200000X1.500000*%
%ADD22O,1.506220X3.014980*%
%ADD23O,0.600000X0.250000*%
%ADD24O,0.250000X0.600000*%
%ADD25R,1.700000X1.700000*%
%ADD26R,3.500120X3.500120*%
%ADD27R,0.797560X0.797560*%
%ADD28C,0.508000*%
%ADD29C,0.609600*%
%ADD30C,0.254000*%
%ADD31C,0.406400*%
%ADD32C,0.304800*%
G04 APERTURE END LIST*
D10*
D11*
X123190000Y-117844000D03*
X123190000Y-116344000D03*
D12*
X123456000Y-109728000D03*
X124956000Y-109728000D03*
D11*
X134874000Y-104406000D03*
X134874000Y-105906000D03*
X133350000Y-105906000D03*
X133350000Y-104406000D03*
D13*
X134112000Y-107466000D03*
X134112000Y-110466000D03*
D14*
X139930000Y-111760000D03*
X136930000Y-111760000D03*
D15*
X125222000Y-99620000D03*
X125222000Y-106120000D03*
X127762000Y-99620000D03*
X127762000Y-106120000D03*
D16*
X130556000Y-104714000D03*
X130556000Y-106614000D03*
X130556000Y-101534000D03*
X130556000Y-99634000D03*
D17*
X120904000Y-101092000D03*
D18*
X120904000Y-104592000D03*
D19*
X141732000Y-104152000D03*
X141732000Y-105652000D03*
D20*
X130614420Y-116205000D03*
X130614420Y-114935000D03*
X130614420Y-113665000D03*
X130614420Y-112395000D03*
X125417580Y-112395000D03*
X125417580Y-113665000D03*
X125417580Y-114935000D03*
X125417580Y-116205000D03*
D21*
X143764000Y-107420000D03*
X143764000Y-111020000D03*
D22*
X133604000Y-116332000D03*
X136144000Y-116332000D03*
X138684000Y-116332000D03*
X141224000Y-116332000D03*
X143764000Y-116332000D03*
X146304000Y-116332000D03*
X133604000Y-101092000D03*
X136144000Y-101092000D03*
X138684000Y-101092000D03*
X141224000Y-101092000D03*
X143764000Y-101092000D03*
X146304000Y-101092000D03*
D23*
X139195000Y-107557000D03*
X139195000Y-107057000D03*
X139195000Y-106557000D03*
X139195000Y-106057000D03*
D24*
X138545000Y-105407000D03*
X138045000Y-105407000D03*
X137545000Y-105407000D03*
X137045000Y-105407000D03*
D23*
X136395000Y-106057000D03*
X136395000Y-106557000D03*
X136395000Y-107057000D03*
X136395000Y-107557000D03*
D24*
X137045000Y-108207000D03*
X137545000Y-108207000D03*
X138045000Y-108207000D03*
X138545000Y-108207000D03*
D25*
X137795000Y-106807000D03*
D26*
X121008140Y-112776000D03*
X115008660Y-112776000D03*
X118008400Y-117475000D03*
D27*
X128257300Y-109728000D03*
X126758700Y-109728000D03*
D19*
X130556000Y-108470000D03*
X130556000Y-109970000D03*
D27*
X145046700Y-104140000D03*
X146545300Y-104140000D03*
D19*
X143510000Y-105652000D03*
X143510000Y-104152000D03*
D28*
X132080000Y-114808000D03*
X132207000Y-110617000D03*
X134112000Y-108585000D03*
X137160000Y-109220000D03*
X139954000Y-109220000D03*
X129794000Y-103632000D03*
X126238000Y-104140000D03*
D29*
X121008140Y-112776000D02*
X121008140Y-116944140D01*
X121908000Y-117844000D02*
X123190000Y-117844000D01*
X121008140Y-116944140D02*
X121908000Y-117844000D01*
X120904000Y-101092000D02*
X122428000Y-99568000D01*
X122428000Y-99568000D02*
X125170000Y-99568000D01*
X125170000Y-99568000D02*
X125222000Y-99620000D01*
D30*
X125417580Y-114935000D02*
X123571000Y-114935000D01*
X123190000Y-115316000D02*
X123190000Y-116344000D01*
X123571000Y-114935000D02*
X123190000Y-115316000D01*
D29*
X123456000Y-109728000D02*
X115824000Y-109728000D01*
X115008660Y-110543340D02*
X115008660Y-112776000D01*
X115824000Y-109728000D02*
X115008660Y-110543340D01*
X127762000Y-106120000D02*
X127762000Y-107188000D01*
X123456000Y-108700000D02*
X123456000Y-109728000D01*
X123952000Y-108204000D02*
X123456000Y-108700000D01*
X126746000Y-108204000D02*
X123952000Y-108204000D01*
X127762000Y-107188000D02*
X126746000Y-108204000D01*
X120904000Y-104592000D02*
X122738000Y-104592000D01*
X127762000Y-103378000D02*
X127762000Y-106120000D01*
X127000000Y-102616000D02*
X127762000Y-103378000D01*
X124714000Y-102616000D02*
X127000000Y-102616000D01*
X122738000Y-104592000D02*
X124714000Y-102616000D01*
D30*
X124956000Y-109728000D02*
X124956000Y-110248000D01*
X123825000Y-113665000D02*
X125417580Y-113665000D01*
X123444000Y-113284000D02*
X123825000Y-113665000D01*
X123444000Y-111760000D02*
X123444000Y-113284000D01*
X124956000Y-110248000D02*
X123444000Y-111760000D01*
X146545300Y-104140000D02*
X146545300Y-103111300D01*
X146545300Y-103111300D02*
X146304000Y-102870000D01*
X132207000Y-110617000D02*
X131953000Y-110617000D01*
X131516120Y-111053880D02*
X126758700Y-111053880D01*
X131953000Y-110617000D02*
X131516120Y-111053880D01*
D29*
X130614420Y-114935000D02*
X131953000Y-114935000D01*
X131953000Y-114935000D02*
X132080000Y-114808000D01*
X126758700Y-109728000D02*
X126758700Y-111053880D01*
X126758700Y-111053880D02*
X125417580Y-112395000D01*
X130556000Y-101534000D02*
X130556000Y-102108000D01*
X133350000Y-103632000D02*
X133350000Y-104406000D01*
X133096000Y-103378000D02*
X133350000Y-103632000D01*
X131826000Y-103378000D02*
X133096000Y-103378000D01*
X130556000Y-102108000D02*
X131826000Y-103378000D01*
D31*
X134112000Y-110466000D02*
X135636000Y-110466000D01*
X135636000Y-110466000D02*
X136930000Y-111760000D01*
X138545000Y-105407000D02*
X138545000Y-104152000D01*
X146304000Y-102870000D02*
X146304000Y-101092000D01*
X146050000Y-103124000D02*
X146304000Y-102870000D01*
X139573000Y-103124000D02*
X146050000Y-103124000D01*
X138545000Y-104152000D02*
X139573000Y-103124000D01*
D30*
X138176000Y-108966000D02*
X138176000Y-110514000D01*
X138045000Y-108835000D02*
X138176000Y-108966000D01*
X138045000Y-108207000D02*
X138045000Y-108835000D01*
X138176000Y-110514000D02*
X136930000Y-111760000D01*
X132358000Y-110466000D02*
X134112000Y-110466000D01*
X132207000Y-110617000D02*
X132358000Y-110466000D01*
D29*
X133350000Y-104394000D02*
X133350000Y-104406000D01*
D32*
X138545000Y-108207000D02*
X138545000Y-107557000D01*
X138545000Y-107557000D02*
X137795000Y-106807000D01*
X138045000Y-105407000D02*
X138045000Y-106557000D01*
X138045000Y-106557000D02*
X137795000Y-106807000D01*
D30*
X138045000Y-108207000D02*
X138545000Y-108207000D01*
X138045000Y-105407000D02*
X138545000Y-105407000D01*
X137545000Y-105407000D02*
X138045000Y-105407000D01*
D29*
X137045000Y-105407000D02*
X138545000Y-105407000D01*
X134874000Y-104406000D02*
X136044000Y-104406000D01*
X136044000Y-104406000D02*
X137045000Y-105407000D01*
X133350000Y-104406000D02*
X134874000Y-104406000D01*
D32*
X134874000Y-105906000D02*
X136244000Y-105906000D01*
X136244000Y-105906000D02*
X136395000Y-106057000D01*
D29*
X130556000Y-106614000D02*
X133260000Y-106614000D01*
X133260000Y-106614000D02*
X134112000Y-107466000D01*
X130556000Y-106614000D02*
X130556000Y-108470000D01*
X134112000Y-107466000D02*
X134112000Y-108585000D01*
D32*
X136395000Y-107057000D02*
X136395000Y-107557000D01*
X136395000Y-106557000D02*
X136395000Y-107057000D01*
D29*
X134112000Y-107466000D02*
X136304000Y-107466000D01*
X136304000Y-107466000D02*
X136395000Y-107557000D01*
D30*
X136395000Y-107557000D02*
X136395000Y-107947000D01*
X136655000Y-108207000D02*
X137045000Y-108207000D01*
X136395000Y-107947000D02*
X136655000Y-108207000D01*
D29*
X133350000Y-105906000D02*
X133350000Y-106704000D01*
X133350000Y-106704000D02*
X134112000Y-107466000D01*
X143510000Y-105652000D02*
X147713000Y-105652000D01*
X147713000Y-105652000D02*
X147574000Y-105791000D01*
D30*
X141732000Y-104152000D02*
X142010000Y-104152000D01*
D31*
X142010000Y-104152000D02*
X143510000Y-105652000D01*
D30*
X125417580Y-116205000D02*
X125417580Y-117035580D01*
X148082000Y-111550000D02*
X147552000Y-111020000D01*
X148082000Y-117856000D02*
X148082000Y-111550000D01*
X146558000Y-119380000D02*
X148082000Y-117856000D01*
X127762000Y-119380000D02*
X146558000Y-119380000D01*
X125417580Y-117035580D02*
X127762000Y-119380000D01*
D29*
X125417580Y-116205000D02*
X127127000Y-116205000D01*
X128651000Y-113665000D02*
X130614420Y-113665000D01*
X128270000Y-114046000D02*
X128651000Y-113665000D01*
X128270000Y-115062000D02*
X128270000Y-114046000D01*
X127127000Y-116205000D02*
X128270000Y-115062000D01*
D31*
X139930000Y-111760000D02*
X143024000Y-111760000D01*
X143024000Y-111760000D02*
X143764000Y-111020000D01*
D30*
X140208000Y-111482000D02*
X140208000Y-109982000D01*
X137545000Y-108835000D02*
X137160000Y-109220000D01*
X139954000Y-109220000D02*
X140208000Y-109474000D01*
X140208000Y-109474000D02*
X140208000Y-109982000D01*
X137545000Y-108835000D02*
X137545000Y-108207000D01*
X140208000Y-111482000D02*
X139930000Y-111760000D01*
D29*
X133604000Y-101092000D02*
X133604000Y-99949000D01*
X133604000Y-99949000D02*
X135001000Y-98552000D01*
X148082000Y-105283000D02*
X147574000Y-105791000D01*
X148082000Y-99822000D02*
X148082000Y-105283000D01*
X146812000Y-98552000D02*
X148082000Y-99822000D01*
X135001000Y-98552000D02*
X146812000Y-98552000D01*
D32*
X125417580Y-116205000D02*
X125417580Y-116146580D01*
D29*
X147552000Y-111020000D02*
X146453000Y-111020000D01*
X146453000Y-111020000D02*
X143764000Y-111020000D01*
X147574000Y-110998000D02*
X147552000Y-111020000D01*
X147574000Y-105791000D02*
X147574000Y-110998000D01*
X125222000Y-106120000D02*
X125222000Y-104648000D01*
X129794000Y-103632000D02*
X130556000Y-104394000D01*
X125730000Y-104140000D02*
X126238000Y-104140000D01*
X125222000Y-104648000D02*
X125730000Y-104140000D01*
D30*
X130556000Y-104394000D02*
X130556000Y-104714000D01*
X125222000Y-106120000D02*
X125222000Y-106680000D01*
D29*
X127762000Y-99620000D02*
X130542000Y-99620000D01*
D30*
X130542000Y-99620000D02*
X130556000Y-99634000D01*
X139195000Y-107557000D02*
X143627000Y-107557000D01*
X143627000Y-107557000D02*
X143764000Y-107420000D01*
X139195000Y-107057000D02*
X139195000Y-107557000D01*
X139195000Y-106557000D02*
X139195000Y-107057000D01*
X139195000Y-106057000D02*
X139561000Y-106057000D01*
X139966000Y-105652000D02*
X141732000Y-105652000D01*
X139561000Y-106057000D02*
X139966000Y-105652000D01*
D32*
X130614420Y-112395000D02*
X131699000Y-112395000D01*
X131699000Y-112395000D02*
X133350000Y-114046000D01*
X133350000Y-114046000D02*
X138303000Y-114046000D01*
X138303000Y-114046000D02*
X138684000Y-114427000D01*
X138684000Y-114427000D02*
X138684000Y-116332000D01*
X130614420Y-116205000D02*
X130614420Y-117406420D01*
X136144000Y-117856000D02*
X136144000Y-116332000D01*
X135382000Y-118618000D02*
X136144000Y-117856000D01*
X131826000Y-118618000D02*
X135382000Y-118618000D01*
X130614420Y-117406420D02*
X131826000Y-118618000D01*
X128257300Y-109728000D02*
X130314000Y-109728000D01*
X130314000Y-109728000D02*
X130556000Y-109970000D01*
D30*
X143510000Y-104152000D02*
X145034700Y-104152000D01*
X145034700Y-104152000D02*
X145046700Y-104140000D01*
G36*
X143510000Y-106591800D02*
X146431000Y-106591800D01*
X146431000Y-108077000D01*
X140260606Y-108077000D01*
X139789803Y-107606197D01*
X139747789Y-107578334D01*
X139700000Y-107569000D01*
X139332400Y-107569000D01*
X139332400Y-107557000D01*
X139292440Y-107356107D01*
X139292440Y-106819000D01*
X139561000Y-106819000D01*
X139852605Y-106760996D01*
X140099815Y-106595815D01*
X140142630Y-106553000D01*
X143314939Y-106553000D01*
X143510000Y-106591800D01*
X143510000Y-106591800D01*
G37*
X143510000Y-106591800D02*
X146431000Y-106591800D01*
X146431000Y-108077000D01*
X140260606Y-108077000D01*
X139789803Y-107606197D01*
X139747789Y-107578334D01*
X139700000Y-107569000D01*
X139332400Y-107569000D01*
X139332400Y-107557000D01*
X139292440Y-107356107D01*
X139292440Y-106819000D01*
X139561000Y-106819000D01*
X139852605Y-106760996D01*
X140099815Y-106595815D01*
X140142630Y-106553000D01*
X143314939Y-106553000D01*
X143510000Y-106591800D01*
G36*
X146431000Y-112903000D02*
X139319000Y-112903000D01*
X139319000Y-109855000D01*
X146431000Y-109855000D01*
X146431000Y-112903000D01*
X146431000Y-112903000D01*
G37*
X146431000Y-112903000D02*
X139319000Y-112903000D01*
X139319000Y-109855000D01*
X146431000Y-109855000D01*
X146431000Y-112903000D01*
G36*
X136201682Y-106817000D02*
X136257250Y-106817000D01*
X136271000Y-106819735D01*
X136271000Y-107823000D01*
X132207000Y-107823000D01*
X132207000Y-107061000D01*
X135890000Y-107061000D01*
X135939410Y-107050994D01*
X135981035Y-107022553D01*
X136008315Y-106980159D01*
X136017000Y-106934000D01*
X136017000Y-106780264D01*
X136201682Y-106817000D01*
X136201682Y-106817000D01*
G37*
X136201682Y-106817000D02*
X136257250Y-106817000D01*
X136271000Y-106819735D01*
X136271000Y-107823000D01*
X132207000Y-107823000D01*
X132207000Y-107061000D01*
X135890000Y-107061000D01*
X135939410Y-107050994D01*
X135981035Y-107022553D01*
X136008315Y-106980159D01*
X136017000Y-106934000D01*
X136017000Y-106780264D01*
X136201682Y-106817000D01*
G36*
X148590000Y-99000922D02*
X147476539Y-97887461D01*
X147171646Y-97683738D01*
X146812000Y-97612200D01*
X135001000Y-97612200D01*
X134641354Y-97683738D01*
X134336461Y-97887461D01*
X133244970Y-98978952D01*
X133072793Y-99013200D01*
X132622458Y-99314104D01*
X132321554Y-99764439D01*
X132215890Y-100295646D01*
X132215890Y-101888354D01*
X132321554Y-102419561D01*
X132622458Y-102869896D01*
X133072793Y-103170800D01*
X133604000Y-103276464D01*
X134135207Y-103170800D01*
X134585542Y-102869896D01*
X134874000Y-102438188D01*
X135162458Y-102869896D01*
X135612793Y-103170800D01*
X136144000Y-103276464D01*
X136675207Y-103170800D01*
X137125542Y-102869896D01*
X137414000Y-102438188D01*
X137702458Y-102869896D01*
X138152793Y-103170800D01*
X138684000Y-103276464D01*
X139215207Y-103170800D01*
X139665542Y-102869896D01*
X139954000Y-102438188D01*
X140242458Y-102869896D01*
X140692793Y-103170800D01*
X141195606Y-103270816D01*
X141046683Y-103298838D01*
X140830559Y-103437910D01*
X140685569Y-103650110D01*
X140634560Y-103902000D01*
X140634560Y-104402000D01*
X140678838Y-104637317D01*
X140817910Y-104853441D01*
X140871416Y-104890000D01*
X139966000Y-104890000D01*
X139674395Y-104948004D01*
X139427184Y-105113185D01*
X139260371Y-105279998D01*
X139150246Y-105279998D01*
X139307096Y-105159894D01*
X139221491Y-104873741D01*
X139032896Y-104642130D01*
X138770024Y-104500321D01*
X138725218Y-104493676D01*
X138607500Y-104634007D01*
X138607500Y-104733750D01*
X138532896Y-104642130D01*
X138453290Y-104599186D01*
X138364782Y-104493676D01*
X138319976Y-104500321D01*
X138295000Y-104513795D01*
X138270024Y-104500321D01*
X138225218Y-104493676D01*
X138136710Y-104599186D01*
X138057104Y-104642130D01*
X138045000Y-104656995D01*
X138032896Y-104642130D01*
X137953290Y-104599186D01*
X137864782Y-104493676D01*
X137819976Y-104500321D01*
X137795000Y-104513795D01*
X137770024Y-104500321D01*
X137725218Y-104493676D01*
X137636710Y-104599186D01*
X137557104Y-104642130D01*
X137545000Y-104656995D01*
X137532896Y-104642130D01*
X137453290Y-104599186D01*
X137364782Y-104493676D01*
X137319976Y-104500321D01*
X137295000Y-104513795D01*
X137270024Y-104500321D01*
X137225218Y-104493676D01*
X137136710Y-104599186D01*
X137057104Y-104642130D01*
X136982500Y-104733750D01*
X136982500Y-104634007D01*
X136864782Y-104493676D01*
X136819976Y-104500321D01*
X136557104Y-104642130D01*
X136368509Y-104873741D01*
X136292379Y-105128223D01*
X136244000Y-105118600D01*
X135806836Y-105118600D01*
X135884000Y-104932309D01*
X135884000Y-104691750D01*
X135725250Y-104533000D01*
X135001000Y-104533000D01*
X135001000Y-104553000D01*
X134747000Y-104553000D01*
X134747000Y-104533000D01*
X133477000Y-104533000D01*
X133477000Y-104553000D01*
X133223000Y-104553000D01*
X133223000Y-104533000D01*
X132498750Y-104533000D01*
X132340000Y-104691750D01*
X132340000Y-104932309D01*
X132436673Y-105165698D01*
X132438043Y-105167068D01*
X132378569Y-105254110D01*
X132327560Y-105506000D01*
X132327560Y-105674200D01*
X131467595Y-105674200D01*
X131457890Y-105667569D01*
X131444803Y-105664919D01*
X131657441Y-105528090D01*
X131802431Y-105315890D01*
X131853440Y-105064000D01*
X131853440Y-104364000D01*
X131809162Y-104128683D01*
X131670090Y-103912559D01*
X131621987Y-103879691D01*
X132340000Y-103879691D01*
X132340000Y-104120250D01*
X132498750Y-104279000D01*
X133223000Y-104279000D01*
X133223000Y-103529750D01*
X133477000Y-103529750D01*
X133477000Y-104279000D01*
X134747000Y-104279000D01*
X134747000Y-103529750D01*
X135001000Y-103529750D01*
X135001000Y-104279000D01*
X135725250Y-104279000D01*
X135884000Y-104120250D01*
X135884000Y-103879691D01*
X135787327Y-103646302D01*
X135608699Y-103467673D01*
X135375310Y-103371000D01*
X135159750Y-103371000D01*
X135001000Y-103529750D01*
X134747000Y-103529750D01*
X134588250Y-103371000D01*
X134372690Y-103371000D01*
X134139301Y-103467673D01*
X134112000Y-103494974D01*
X134084699Y-103467673D01*
X133851310Y-103371000D01*
X133635750Y-103371000D01*
X133477000Y-103529750D01*
X133223000Y-103529750D01*
X133064250Y-103371000D01*
X132848690Y-103371000D01*
X132615301Y-103467673D01*
X132436673Y-103646302D01*
X132340000Y-103879691D01*
X131621987Y-103879691D01*
X131457890Y-103767569D01*
X131208054Y-103716976D01*
X130458539Y-102967461D01*
X130153646Y-102763738D01*
X129794000Y-102692200D01*
X129434354Y-102763738D01*
X129129461Y-102967461D01*
X128925738Y-103272354D01*
X128854200Y-103632000D01*
X128925738Y-103991646D01*
X129129461Y-104296539D01*
X129258560Y-104425638D01*
X129258560Y-105064000D01*
X129302838Y-105299317D01*
X129441910Y-105515441D01*
X129654110Y-105660431D01*
X129667197Y-105663081D01*
X129454559Y-105799910D01*
X129309569Y-106012110D01*
X129258560Y-106264000D01*
X129258560Y-106964000D01*
X129302838Y-107199317D01*
X129441910Y-107415441D01*
X129616200Y-107534528D01*
X129616200Y-107812050D01*
X129509569Y-107968110D01*
X129458560Y-108220000D01*
X129458560Y-108720000D01*
X129500069Y-108940600D01*
X129160594Y-108940600D01*
X129120170Y-108877779D01*
X128907970Y-108732789D01*
X128656080Y-108681780D01*
X127858520Y-108681780D01*
X127623203Y-108726058D01*
X127519241Y-108792956D01*
X127517178Y-108790893D01*
X127496677Y-108782401D01*
X128426539Y-107852539D01*
X128449991Y-107817440D01*
X128537000Y-107817440D01*
X128772317Y-107773162D01*
X128988441Y-107634090D01*
X129133431Y-107421890D01*
X129184440Y-107170000D01*
X129184440Y-105070000D01*
X129140162Y-104834683D01*
X129001090Y-104618559D01*
X128788890Y-104473569D01*
X128701800Y-104455933D01*
X128701800Y-103378000D01*
X128630262Y-103018354D01*
X128426539Y-102713461D01*
X127664539Y-101951461D01*
X127467420Y-101819750D01*
X129271000Y-101819750D01*
X129271000Y-102010309D01*
X129367673Y-102243698D01*
X129546301Y-102422327D01*
X129779690Y-102519000D01*
X130270250Y-102519000D01*
X130429000Y-102360250D01*
X130429000Y-101661000D01*
X130683000Y-101661000D01*
X130683000Y-102360250D01*
X130841750Y-102519000D01*
X131332310Y-102519000D01*
X131565699Y-102422327D01*
X131744327Y-102243698D01*
X131841000Y-102010309D01*
X131841000Y-101819750D01*
X131682250Y-101661000D01*
X130683000Y-101661000D01*
X130429000Y-101661000D01*
X129429750Y-101661000D01*
X129271000Y-101819750D01*
X127467420Y-101819750D01*
X127359646Y-101747738D01*
X127000000Y-101676200D01*
X124714000Y-101676200D01*
X124354354Y-101747738D01*
X124049461Y-101951461D01*
X122671685Y-103329237D01*
X122439123Y-103173845D01*
X121851704Y-103057000D01*
X119956296Y-103057000D01*
X119368877Y-103173845D01*
X118870887Y-103506591D01*
X118538141Y-104004581D01*
X118421296Y-104592000D01*
X118538141Y-105179419D01*
X118870887Y-105677409D01*
X119368877Y-106010155D01*
X119956296Y-106127000D01*
X121851704Y-106127000D01*
X122439123Y-106010155D01*
X122937113Y-105677409D01*
X123079839Y-105463804D01*
X123097646Y-105460262D01*
X123402539Y-105256539D01*
X123871281Y-104787797D01*
X123850569Y-104818110D01*
X123799560Y-105070000D01*
X123799560Y-107170000D01*
X123822145Y-107290030D01*
X123592354Y-107335738D01*
X123287461Y-107539461D01*
X122791461Y-108035461D01*
X122587738Y-108340354D01*
X122516200Y-108700000D01*
X122516200Y-108788200D01*
X115824000Y-108788200D01*
X115464354Y-108859738D01*
X115159461Y-109063461D01*
X114344121Y-109878801D01*
X114140398Y-110183694D01*
X114101649Y-110378500D01*
X113258600Y-110378500D01*
X113023283Y-110422778D01*
X112807159Y-110561850D01*
X112662169Y-110774050D01*
X112611160Y-111025940D01*
X112611160Y-114526060D01*
X112655438Y-114761377D01*
X112794510Y-114977501D01*
X113006710Y-115122491D01*
X113258600Y-115173500D01*
X115942645Y-115173500D01*
X115806899Y-115260850D01*
X115661909Y-115473050D01*
X115610900Y-115724940D01*
X115610900Y-119225060D01*
X115655178Y-119460377D01*
X115794250Y-119676501D01*
X116006450Y-119821491D01*
X116258340Y-119872500D01*
X119758460Y-119872500D01*
X119993777Y-119828222D01*
X120209901Y-119689150D01*
X120354891Y-119476950D01*
X120405900Y-119225060D01*
X120405900Y-117670978D01*
X121243461Y-118508539D01*
X121548354Y-118712262D01*
X121908000Y-118783800D01*
X122480228Y-118783800D01*
X122563110Y-118840431D01*
X122815000Y-118891440D01*
X123565000Y-118891440D01*
X123800317Y-118847162D01*
X124016441Y-118708090D01*
X124161431Y-118495890D01*
X124212440Y-118244000D01*
X124212440Y-117444000D01*
X124168162Y-117208683D01*
X124103926Y-117108858D01*
X124317760Y-117152160D01*
X124678769Y-117152160D01*
X124713584Y-117327185D01*
X124872084Y-117564396D01*
X124878765Y-117574395D01*
X127223185Y-119918816D01*
X127470396Y-120083997D01*
X127762000Y-120142000D01*
X112522000Y-120142000D01*
X112522000Y-100192000D01*
X118456560Y-100192000D01*
X118456560Y-101992000D01*
X118500838Y-102227317D01*
X118639910Y-102443441D01*
X118852110Y-102588431D01*
X119104000Y-102639440D01*
X122704000Y-102639440D01*
X122939317Y-102595162D01*
X123155441Y-102456090D01*
X123300431Y-102243890D01*
X123351440Y-101992000D01*
X123351440Y-100507800D01*
X123799560Y-100507800D01*
X123799560Y-100670000D01*
X123843838Y-100905317D01*
X123982910Y-101121441D01*
X124195110Y-101266431D01*
X124447000Y-101317440D01*
X125997000Y-101317440D01*
X126232317Y-101273162D01*
X126448441Y-101134090D01*
X126490984Y-101071826D01*
X126522910Y-101121441D01*
X126735110Y-101266431D01*
X126987000Y-101317440D01*
X128537000Y-101317440D01*
X128772317Y-101273162D01*
X128988441Y-101134090D01*
X129133431Y-100921890D01*
X129184440Y-100670000D01*
X129184440Y-100559800D01*
X129623916Y-100559800D01*
X129654110Y-100580431D01*
X129687490Y-100587191D01*
X129546301Y-100645673D01*
X129367673Y-100824302D01*
X129271000Y-101057691D01*
X129271000Y-101248250D01*
X129429750Y-101407000D01*
X130429000Y-101407000D01*
X130429000Y-101387000D01*
X130683000Y-101387000D01*
X130683000Y-101407000D01*
X131682250Y-101407000D01*
X131841000Y-101248250D01*
X131841000Y-101057691D01*
X131744327Y-100824302D01*
X131565699Y-100645673D01*
X131429713Y-100589346D01*
X131441317Y-100587162D01*
X131657441Y-100448090D01*
X131802431Y-100235890D01*
X131853440Y-99984000D01*
X131853440Y-99284000D01*
X131809162Y-99048683D01*
X131670090Y-98832559D01*
X131457890Y-98687569D01*
X131206000Y-98636560D01*
X129906000Y-98636560D01*
X129674074Y-98680200D01*
X129184440Y-98680200D01*
X129184440Y-98570000D01*
X129140162Y-98334683D01*
X129001090Y-98118559D01*
X128788890Y-97973569D01*
X128537000Y-97922560D01*
X126987000Y-97922560D01*
X126751683Y-97966838D01*
X126535559Y-98105910D01*
X126493016Y-98168174D01*
X126461090Y-98118559D01*
X126248890Y-97973569D01*
X125997000Y-97922560D01*
X124447000Y-97922560D01*
X124211683Y-97966838D01*
X123995559Y-98105910D01*
X123850569Y-98318110D01*
X123799560Y-98570000D01*
X123799560Y-98628200D01*
X122428000Y-98628200D01*
X122068354Y-98699738D01*
X121763461Y-98903461D01*
X121122362Y-99544560D01*
X119104000Y-99544560D01*
X118868683Y-99588838D01*
X118652559Y-99727910D01*
X118507569Y-99940110D01*
X118456560Y-100192000D01*
X112522000Y-100192000D01*
X112522000Y-97536000D01*
X148590000Y-97536000D01*
X148590000Y-99000922D01*
X148590000Y-99000922D01*
G37*
X148590000Y-99000922D02*
X147476539Y-97887461D01*
X147171646Y-97683738D01*
X146812000Y-97612200D01*
X135001000Y-97612200D01*
X134641354Y-97683738D01*
X134336461Y-97887461D01*
X133244970Y-98978952D01*
X133072793Y-99013200D01*
X132622458Y-99314104D01*
X132321554Y-99764439D01*
X132215890Y-100295646D01*
X132215890Y-101888354D01*
X132321554Y-102419561D01*
X132622458Y-102869896D01*
X133072793Y-103170800D01*
X133604000Y-103276464D01*
X134135207Y-103170800D01*
X134585542Y-102869896D01*
X134874000Y-102438188D01*
X135162458Y-102869896D01*
X135612793Y-103170800D01*
X136144000Y-103276464D01*
X136675207Y-103170800D01*
X137125542Y-102869896D01*
X137414000Y-102438188D01*
X137702458Y-102869896D01*
X138152793Y-103170800D01*
X138684000Y-103276464D01*
X139215207Y-103170800D01*
X139665542Y-102869896D01*
X139954000Y-102438188D01*
X140242458Y-102869896D01*
X140692793Y-103170800D01*
X141195606Y-103270816D01*
X141046683Y-103298838D01*
X140830559Y-103437910D01*
X140685569Y-103650110D01*
X140634560Y-103902000D01*
X140634560Y-104402000D01*
X140678838Y-104637317D01*
X140817910Y-104853441D01*
X140871416Y-104890000D01*
X139966000Y-104890000D01*
X139674395Y-104948004D01*
X139427184Y-105113185D01*
X139260371Y-105279998D01*
X139150246Y-105279998D01*
X139307096Y-105159894D01*
X139221491Y-104873741D01*
X139032896Y-104642130D01*
X138770024Y-104500321D01*
X138725218Y-104493676D01*
X138607500Y-104634007D01*
X138607500Y-104733750D01*
X138532896Y-104642130D01*
X138453290Y-104599186D01*
X138364782Y-104493676D01*
X138319976Y-104500321D01*
X138295000Y-104513795D01*
X138270024Y-104500321D01*
X138225218Y-104493676D01*
X138136710Y-104599186D01*
X138057104Y-104642130D01*
X138045000Y-104656995D01*
X138032896Y-104642130D01*
X137953290Y-104599186D01*
X137864782Y-104493676D01*
X137819976Y-104500321D01*
X137795000Y-104513795D01*
X137770024Y-104500321D01*
X137725218Y-104493676D01*
X137636710Y-104599186D01*
X137557104Y-104642130D01*
X137545000Y-104656995D01*
X137532896Y-104642130D01*
X137453290Y-104599186D01*
X137364782Y-104493676D01*
X137319976Y-104500321D01*
X137295000Y-104513795D01*
X137270024Y-104500321D01*
X137225218Y-104493676D01*
X137136710Y-104599186D01*
X137057104Y-104642130D01*
X136982500Y-104733750D01*
X136982500Y-104634007D01*
X136864782Y-104493676D01*
X136819976Y-104500321D01*
X136557104Y-104642130D01*
X136368509Y-104873741D01*
X136292379Y-105128223D01*
X136244000Y-105118600D01*
X135806836Y-105118600D01*
X135884000Y-104932309D01*
X135884000Y-104691750D01*
X135725250Y-104533000D01*
X135001000Y-104533000D01*
X135001000Y-104553000D01*
X134747000Y-104553000D01*
X134747000Y-104533000D01*
X133477000Y-104533000D01*
X133477000Y-104553000D01*
X133223000Y-104553000D01*
X133223000Y-104533000D01*
X132498750Y-104533000D01*
X132340000Y-104691750D01*
X132340000Y-104932309D01*
X132436673Y-105165698D01*
X132438043Y-105167068D01*
X132378569Y-105254110D01*
X132327560Y-105506000D01*
X132327560Y-105674200D01*
X131467595Y-105674200D01*
X131457890Y-105667569D01*
X131444803Y-105664919D01*
X131657441Y-105528090D01*
X131802431Y-105315890D01*
X131853440Y-105064000D01*
X131853440Y-104364000D01*
X131809162Y-104128683D01*
X131670090Y-103912559D01*
X131621987Y-103879691D01*
X132340000Y-103879691D01*
X132340000Y-104120250D01*
X132498750Y-104279000D01*
X133223000Y-104279000D01*
X133223000Y-103529750D01*
X133477000Y-103529750D01*
X133477000Y-104279000D01*
X134747000Y-104279000D01*
X134747000Y-103529750D01*
X135001000Y-103529750D01*
X135001000Y-104279000D01*
X135725250Y-104279000D01*
X135884000Y-104120250D01*
X135884000Y-103879691D01*
X135787327Y-103646302D01*
X135608699Y-103467673D01*
X135375310Y-103371000D01*
X135159750Y-103371000D01*
X135001000Y-103529750D01*
X134747000Y-103529750D01*
X134588250Y-103371000D01*
X134372690Y-103371000D01*
X134139301Y-103467673D01*
X134112000Y-103494974D01*
X134084699Y-103467673D01*
X133851310Y-103371000D01*
X133635750Y-103371000D01*
X133477000Y-103529750D01*
X133223000Y-103529750D01*
X133064250Y-103371000D01*
X132848690Y-103371000D01*
X132615301Y-103467673D01*
X132436673Y-103646302D01*
X132340000Y-103879691D01*
X131621987Y-103879691D01*
X131457890Y-103767569D01*
X131208054Y-103716976D01*
X130458539Y-102967461D01*
X130153646Y-102763738D01*
X129794000Y-102692200D01*
X129434354Y-102763738D01*
X129129461Y-102967461D01*
X128925738Y-103272354D01*
X128854200Y-103632000D01*
X128925738Y-103991646D01*
X129129461Y-104296539D01*
X129258560Y-104425638D01*
X129258560Y-105064000D01*
X129302838Y-105299317D01*
X129441910Y-105515441D01*
X129654110Y-105660431D01*
X129667197Y-105663081D01*
X129454559Y-105799910D01*
X129309569Y-106012110D01*
X129258560Y-106264000D01*
X129258560Y-106964000D01*
X129302838Y-107199317D01*
X129441910Y-107415441D01*
X129616200Y-107534528D01*
X129616200Y-107812050D01*
X129509569Y-107968110D01*
X129458560Y-108220000D01*
X129458560Y-108720000D01*
X129500069Y-108940600D01*
X129160594Y-108940600D01*
X129120170Y-108877779D01*
X128907970Y-108732789D01*
X128656080Y-108681780D01*
X127858520Y-108681780D01*
X127623203Y-108726058D01*
X127519241Y-108792956D01*
X127517178Y-108790893D01*
X127496677Y-108782401D01*
X128426539Y-107852539D01*
X128449991Y-107817440D01*
X128537000Y-107817440D01*
X128772317Y-107773162D01*
X128988441Y-107634090D01*
X129133431Y-107421890D01*
X129184440Y-107170000D01*
X129184440Y-105070000D01*
X129140162Y-104834683D01*
X129001090Y-104618559D01*
X128788890Y-104473569D01*
X128701800Y-104455933D01*
X128701800Y-103378000D01*
X128630262Y-103018354D01*
X128426539Y-102713461D01*
X127664539Y-101951461D01*
X127467420Y-101819750D01*
X129271000Y-101819750D01*
X129271000Y-102010309D01*
X129367673Y-102243698D01*
X129546301Y-102422327D01*
X129779690Y-102519000D01*
X130270250Y-102519000D01*
X130429000Y-102360250D01*
X130429000Y-101661000D01*
X130683000Y-101661000D01*
X130683000Y-102360250D01*
X130841750Y-102519000D01*
X131332310Y-102519000D01*
X131565699Y-102422327D01*
X131744327Y-102243698D01*
X131841000Y-102010309D01*
X131841000Y-101819750D01*
X131682250Y-101661000D01*
X130683000Y-101661000D01*
X130429000Y-101661000D01*
X129429750Y-101661000D01*
X129271000Y-101819750D01*
X127467420Y-101819750D01*
X127359646Y-101747738D01*
X127000000Y-101676200D01*
X124714000Y-101676200D01*
X124354354Y-101747738D01*
X124049461Y-101951461D01*
X122671685Y-103329237D01*
X122439123Y-103173845D01*
X121851704Y-103057000D01*
X119956296Y-103057000D01*
X119368877Y-103173845D01*
X118870887Y-103506591D01*
X118538141Y-104004581D01*
X118421296Y-104592000D01*
X118538141Y-105179419D01*
X118870887Y-105677409D01*
X119368877Y-106010155D01*
X119956296Y-106127000D01*
X121851704Y-106127000D01*
X122439123Y-106010155D01*
X122937113Y-105677409D01*
X123079839Y-105463804D01*
X123097646Y-105460262D01*
X123402539Y-105256539D01*
X123871281Y-104787797D01*
X123850569Y-104818110D01*
X123799560Y-105070000D01*
X123799560Y-107170000D01*
X123822145Y-107290030D01*
X123592354Y-107335738D01*
X123287461Y-107539461D01*
X122791461Y-108035461D01*
X122587738Y-108340354D01*
X122516200Y-108700000D01*
X122516200Y-108788200D01*
X115824000Y-108788200D01*
X115464354Y-108859738D01*
X115159461Y-109063461D01*
X114344121Y-109878801D01*
X114140398Y-110183694D01*
X114101649Y-110378500D01*
X113258600Y-110378500D01*
X113023283Y-110422778D01*
X112807159Y-110561850D01*
X112662169Y-110774050D01*
X112611160Y-111025940D01*
X112611160Y-114526060D01*
X112655438Y-114761377D01*
X112794510Y-114977501D01*
X113006710Y-115122491D01*
X113258600Y-115173500D01*
X115942645Y-115173500D01*
X115806899Y-115260850D01*
X115661909Y-115473050D01*
X115610900Y-115724940D01*
X115610900Y-119225060D01*
X115655178Y-119460377D01*
X115794250Y-119676501D01*
X116006450Y-119821491D01*
X116258340Y-119872500D01*
X119758460Y-119872500D01*
X119993777Y-119828222D01*
X120209901Y-119689150D01*
X120354891Y-119476950D01*
X120405900Y-119225060D01*
X120405900Y-117670978D01*
X121243461Y-118508539D01*
X121548354Y-118712262D01*
X121908000Y-118783800D01*
X122480228Y-118783800D01*
X122563110Y-118840431D01*
X122815000Y-118891440D01*
X123565000Y-118891440D01*
X123800317Y-118847162D01*
X124016441Y-118708090D01*
X124161431Y-118495890D01*
X124212440Y-118244000D01*
X124212440Y-117444000D01*
X124168162Y-117208683D01*
X124103926Y-117108858D01*
X124317760Y-117152160D01*
X124678769Y-117152160D01*
X124713584Y-117327185D01*
X124872084Y-117564396D01*
X124878765Y-117574395D01*
X127223185Y-119918816D01*
X127470396Y-120083997D01*
X127762000Y-120142000D01*
X112522000Y-120142000D01*
X112522000Y-100192000D01*
X118456560Y-100192000D01*
X118456560Y-101992000D01*
X118500838Y-102227317D01*
X118639910Y-102443441D01*
X118852110Y-102588431D01*
X119104000Y-102639440D01*
X122704000Y-102639440D01*
X122939317Y-102595162D01*
X123155441Y-102456090D01*
X123300431Y-102243890D01*
X123351440Y-101992000D01*
X123351440Y-100507800D01*
X123799560Y-100507800D01*
X123799560Y-100670000D01*
X123843838Y-100905317D01*
X123982910Y-101121441D01*
X124195110Y-101266431D01*
X124447000Y-101317440D01*
X125997000Y-101317440D01*
X126232317Y-101273162D01*
X126448441Y-101134090D01*
X126490984Y-101071826D01*
X126522910Y-101121441D01*
X126735110Y-101266431D01*
X126987000Y-101317440D01*
X128537000Y-101317440D01*
X128772317Y-101273162D01*
X128988441Y-101134090D01*
X129133431Y-100921890D01*
X129184440Y-100670000D01*
X129184440Y-100559800D01*
X129623916Y-100559800D01*
X129654110Y-100580431D01*
X129687490Y-100587191D01*
X129546301Y-100645673D01*
X129367673Y-100824302D01*
X129271000Y-101057691D01*
X129271000Y-101248250D01*
X129429750Y-101407000D01*
X130429000Y-101407000D01*
X130429000Y-101387000D01*
X130683000Y-101387000D01*
X130683000Y-101407000D01*
X131682250Y-101407000D01*
X131841000Y-101248250D01*
X131841000Y-101057691D01*
X131744327Y-100824302D01*
X131565699Y-100645673D01*
X131429713Y-100589346D01*
X131441317Y-100587162D01*
X131657441Y-100448090D01*
X131802431Y-100235890D01*
X131853440Y-99984000D01*
X131853440Y-99284000D01*
X131809162Y-99048683D01*
X131670090Y-98832559D01*
X131457890Y-98687569D01*
X131206000Y-98636560D01*
X129906000Y-98636560D01*
X129674074Y-98680200D01*
X129184440Y-98680200D01*
X129184440Y-98570000D01*
X129140162Y-98334683D01*
X129001090Y-98118559D01*
X128788890Y-97973569D01*
X128537000Y-97922560D01*
X126987000Y-97922560D01*
X126751683Y-97966838D01*
X126535559Y-98105910D01*
X126493016Y-98168174D01*
X126461090Y-98118559D01*
X126248890Y-97973569D01*
X125997000Y-97922560D01*
X124447000Y-97922560D01*
X124211683Y-97966838D01*
X123995559Y-98105910D01*
X123850569Y-98318110D01*
X123799560Y-98570000D01*
X123799560Y-98628200D01*
X122428000Y-98628200D01*
X122068354Y-98699738D01*
X121763461Y-98903461D01*
X121122362Y-99544560D01*
X119104000Y-99544560D01*
X118868683Y-99588838D01*
X118652559Y-99727910D01*
X118507569Y-99940110D01*
X118456560Y-100192000D01*
X112522000Y-100192000D01*
X112522000Y-97536000D01*
X148590000Y-97536000D01*
X148590000Y-99000922D01*
G36*
X147320000Y-114659848D02*
X147195740Y-114506276D01*
X146717875Y-114246573D01*
X146645674Y-114232217D01*
X146431000Y-114354838D01*
X146431000Y-116205000D01*
X146451000Y-116205000D01*
X146451000Y-116459000D01*
X146431000Y-116459000D01*
X146431000Y-118309162D01*
X146507507Y-118352863D01*
X146242370Y-118618000D01*
X136495552Y-118618000D01*
X136700776Y-118412776D01*
X136723784Y-118378342D01*
X137125542Y-118109896D01*
X137414000Y-117678188D01*
X137702458Y-118109896D01*
X138152793Y-118410800D01*
X138684000Y-118516464D01*
X139215207Y-118410800D01*
X139665542Y-118109896D01*
X139954000Y-117678188D01*
X140242458Y-118109896D01*
X140692793Y-118410800D01*
X141224000Y-118516464D01*
X141755207Y-118410800D01*
X142205542Y-118109896D01*
X142494000Y-117678188D01*
X142782458Y-118109896D01*
X143232793Y-118410800D01*
X143764000Y-118516464D01*
X144295207Y-118410800D01*
X144745542Y-118109896D01*
X145046446Y-117659561D01*
X145047016Y-117656694D01*
X145070154Y-117734919D01*
X145412260Y-118157724D01*
X145890125Y-118417427D01*
X145962326Y-118431783D01*
X146177000Y-118309162D01*
X146177000Y-116459000D01*
X146157000Y-116459000D01*
X146157000Y-116205000D01*
X146177000Y-116205000D01*
X146177000Y-114354838D01*
X145962326Y-114232217D01*
X145890125Y-114246573D01*
X145412260Y-114506276D01*
X145070154Y-114929081D01*
X145047016Y-115007306D01*
X145046446Y-115004439D01*
X144745542Y-114554104D01*
X144295207Y-114253200D01*
X143764000Y-114147536D01*
X143232793Y-114253200D01*
X142782458Y-114554104D01*
X142494000Y-114985812D01*
X142205542Y-114554104D01*
X141755207Y-114253200D01*
X141224000Y-114147536D01*
X140692793Y-114253200D01*
X140242458Y-114554104D01*
X139954000Y-114985812D01*
X139665542Y-114554104D01*
X139470800Y-114423981D01*
X139411463Y-114125675D01*
X139240776Y-113870224D01*
X138995826Y-113625274D01*
X139192000Y-113665000D01*
X146558000Y-113665000D01*
X146788795Y-113621573D01*
X147000767Y-113485173D01*
X147142971Y-113277051D01*
X147193000Y-113030000D01*
X147193000Y-111959800D01*
X147320000Y-111959800D01*
X147320000Y-114659848D01*
X147320000Y-114659848D01*
G37*
X147320000Y-114659848D02*
X147195740Y-114506276D01*
X146717875Y-114246573D01*
X146645674Y-114232217D01*
X146431000Y-114354838D01*
X146431000Y-116205000D01*
X146451000Y-116205000D01*
X146451000Y-116459000D01*
X146431000Y-116459000D01*
X146431000Y-118309162D01*
X146507507Y-118352863D01*
X146242370Y-118618000D01*
X136495552Y-118618000D01*
X136700776Y-118412776D01*
X136723784Y-118378342D01*
X137125542Y-118109896D01*
X137414000Y-117678188D01*
X137702458Y-118109896D01*
X138152793Y-118410800D01*
X138684000Y-118516464D01*
X139215207Y-118410800D01*
X139665542Y-118109896D01*
X139954000Y-117678188D01*
X140242458Y-118109896D01*
X140692793Y-118410800D01*
X141224000Y-118516464D01*
X141755207Y-118410800D01*
X142205542Y-118109896D01*
X142494000Y-117678188D01*
X142782458Y-118109896D01*
X143232793Y-118410800D01*
X143764000Y-118516464D01*
X144295207Y-118410800D01*
X144745542Y-118109896D01*
X145046446Y-117659561D01*
X145047016Y-117656694D01*
X145070154Y-117734919D01*
X145412260Y-118157724D01*
X145890125Y-118417427D01*
X145962326Y-118431783D01*
X146177000Y-118309162D01*
X146177000Y-116459000D01*
X146157000Y-116459000D01*
X146157000Y-116205000D01*
X146177000Y-116205000D01*
X146177000Y-114354838D01*
X145962326Y-114232217D01*
X145890125Y-114246573D01*
X145412260Y-114506276D01*
X145070154Y-114929081D01*
X145047016Y-115007306D01*
X145046446Y-115004439D01*
X144745542Y-114554104D01*
X144295207Y-114253200D01*
X143764000Y-114147536D01*
X143232793Y-114253200D01*
X142782458Y-114554104D01*
X142494000Y-114985812D01*
X142205542Y-114554104D01*
X141755207Y-114253200D01*
X141224000Y-114147536D01*
X140692793Y-114253200D01*
X140242458Y-114554104D01*
X139954000Y-114985812D01*
X139665542Y-114554104D01*
X139470800Y-114423981D01*
X139411463Y-114125675D01*
X139240776Y-113870224D01*
X138995826Y-113625274D01*
X139192000Y-113665000D01*
X146558000Y-113665000D01*
X146788795Y-113621573D01*
X147000767Y-113485173D01*
X147142971Y-113277051D01*
X147193000Y-113030000D01*
X147193000Y-111959800D01*
X147320000Y-111959800D01*
X147320000Y-114659848D01*
G36*
X132695648Y-114505200D02*
X132622458Y-114554104D01*
X132321554Y-115004439D01*
X132290259Y-115161769D01*
X132190490Y-115062000D01*
X130741420Y-115062000D01*
X130741420Y-115082000D01*
X130487420Y-115082000D01*
X130487420Y-115062000D01*
X130467420Y-115062000D01*
X130467420Y-114808000D01*
X130487420Y-114808000D01*
X130487420Y-114788000D01*
X130741420Y-114788000D01*
X130741420Y-114808000D01*
X132190490Y-114808000D01*
X132349240Y-114649250D01*
X132349240Y-114508971D01*
X132259289Y-114291810D01*
X132310671Y-114216610D01*
X132326903Y-114136455D01*
X132695648Y-114505200D01*
X132695648Y-114505200D01*
G37*
X132695648Y-114505200D02*
X132622458Y-114554104D01*
X132321554Y-115004439D01*
X132290259Y-115161769D01*
X132190490Y-115062000D01*
X130741420Y-115062000D01*
X130741420Y-115082000D01*
X130487420Y-115082000D01*
X130487420Y-115062000D01*
X130467420Y-115062000D01*
X130467420Y-114808000D01*
X130487420Y-114808000D01*
X130487420Y-114788000D01*
X130741420Y-114788000D01*
X130741420Y-114808000D01*
X132190490Y-114808000D01*
X132349240Y-114649250D01*
X132349240Y-114508971D01*
X132259289Y-114291810D01*
X132310671Y-114216610D01*
X132326903Y-114136455D01*
X132695648Y-114505200D01*
G36*
X131832949Y-108534971D02*
X132080000Y-108585000D01*
X132721559Y-108585000D01*
X132862000Y-108613440D01*
X133177857Y-108613440D01*
X133243738Y-108944646D01*
X133447461Y-109249539D01*
X133569376Y-109331000D01*
X132735690Y-109331000D01*
X132502301Y-109427673D01*
X132323673Y-109606302D01*
X132227000Y-109839691D01*
X132227000Y-110180250D01*
X132385750Y-110339000D01*
X133985000Y-110339000D01*
X133985000Y-110319000D01*
X134239000Y-110319000D01*
X134239000Y-110339000D01*
X134259000Y-110339000D01*
X134259000Y-110593000D01*
X134239000Y-110593000D01*
X134239000Y-111442250D01*
X134397750Y-111601000D01*
X135488310Y-111601000D01*
X135721699Y-111504327D01*
X135795000Y-111431026D01*
X135795000Y-111474250D01*
X135953750Y-111633000D01*
X136803000Y-111633000D01*
X136803000Y-111613000D01*
X137057000Y-111613000D01*
X137057000Y-111633000D01*
X137906250Y-111633000D01*
X138065000Y-111474250D01*
X138065000Y-110383690D01*
X137968327Y-110150301D01*
X137789698Y-109971673D01*
X137701814Y-109935270D01*
X137913218Y-109724236D01*
X138040910Y-109416721D01*
X138083815Y-109373816D01*
X138248996Y-109126605D01*
X138251006Y-109116499D01*
X138270024Y-109113679D01*
X138295000Y-109100205D01*
X138319976Y-109113679D01*
X138364782Y-109120324D01*
X138453290Y-109014814D01*
X138532896Y-108971870D01*
X138607500Y-108880250D01*
X138607500Y-108979993D01*
X138725218Y-109120324D01*
X138770024Y-109113679D01*
X139032896Y-108971870D01*
X139158477Y-108817646D01*
X139065154Y-109042391D01*
X139065089Y-109116880D01*
X138961205Y-109136427D01*
X138749233Y-109272827D01*
X138607029Y-109480949D01*
X138557000Y-109728000D01*
X138557000Y-113030000D01*
X138600427Y-113260795D01*
X138662668Y-113357521D01*
X138604325Y-113318537D01*
X138303000Y-113258600D01*
X138014346Y-113258600D01*
X138065000Y-113136310D01*
X138065000Y-112045750D01*
X137906250Y-111887000D01*
X137057000Y-111887000D01*
X137057000Y-111907000D01*
X136803000Y-111907000D01*
X136803000Y-111887000D01*
X135953750Y-111887000D01*
X135795000Y-112045750D01*
X135795000Y-113136310D01*
X135845654Y-113258600D01*
X133676152Y-113258600D01*
X132326647Y-111909095D01*
X132317402Y-111859963D01*
X132178330Y-111643839D01*
X131966130Y-111498849D01*
X131714240Y-111447840D01*
X129514600Y-111447840D01*
X129279283Y-111492118D01*
X129063159Y-111631190D01*
X128918169Y-111843390D01*
X128867160Y-112095280D01*
X128867160Y-112694720D01*
X128872895Y-112725200D01*
X128651000Y-112725200D01*
X128291354Y-112796738D01*
X127986461Y-113000461D01*
X127605461Y-113381461D01*
X127401738Y-113686354D01*
X127330200Y-114046000D01*
X127330200Y-114672722D01*
X127164840Y-114838082D01*
X127164840Y-114635280D01*
X127120562Y-114399963D01*
X127056536Y-114300464D01*
X127113831Y-114216610D01*
X127164840Y-113964720D01*
X127164840Y-113365280D01*
X127120562Y-113129963D01*
X127062080Y-113039080D01*
X127152400Y-112821029D01*
X127152400Y-112680750D01*
X126993650Y-112522000D01*
X125544580Y-112522000D01*
X125544580Y-112542000D01*
X125290580Y-112542000D01*
X125290580Y-112522000D01*
X125270580Y-112522000D01*
X125270580Y-112268000D01*
X125290580Y-112268000D01*
X125290580Y-111619030D01*
X125544580Y-111619030D01*
X125544580Y-112268000D01*
X126993650Y-112268000D01*
X127152400Y-112109250D01*
X127152400Y-111968971D01*
X127055727Y-111735582D01*
X126877099Y-111556953D01*
X126643710Y-111460280D01*
X125703330Y-111460280D01*
X125544580Y-111619030D01*
X125290580Y-111619030D01*
X125131830Y-111460280D01*
X124821350Y-111460280D01*
X125494815Y-110786815D01*
X125511543Y-110761780D01*
X125542578Y-110715333D01*
X125591317Y-110706162D01*
X125807441Y-110567090D01*
X125845907Y-110510793D01*
X126000222Y-110665107D01*
X126233611Y-110761780D01*
X126472950Y-110761780D01*
X126631700Y-110603030D01*
X126631700Y-109855000D01*
X126611700Y-109855000D01*
X126611700Y-109601000D01*
X126631700Y-109601000D01*
X126631700Y-109581000D01*
X126885700Y-109581000D01*
X126885700Y-109601000D01*
X126905700Y-109601000D01*
X126905700Y-109855000D01*
X126885700Y-109855000D01*
X126885700Y-110603030D01*
X127044450Y-110761780D01*
X127283789Y-110761780D01*
X127517178Y-110665107D01*
X127518970Y-110663315D01*
X127606630Y-110723211D01*
X127858520Y-110774220D01*
X128656080Y-110774220D01*
X128891397Y-110729942D01*
X129107521Y-110590870D01*
X129159087Y-110515400D01*
X129541500Y-110515400D01*
X129641910Y-110671441D01*
X129854110Y-110816431D01*
X130106000Y-110867440D01*
X131006000Y-110867440D01*
X131241317Y-110823162D01*
X131352294Y-110751750D01*
X132227000Y-110751750D01*
X132227000Y-111092309D01*
X132323673Y-111325698D01*
X132502301Y-111504327D01*
X132735690Y-111601000D01*
X133826250Y-111601000D01*
X133985000Y-111442250D01*
X133985000Y-110593000D01*
X132385750Y-110593000D01*
X132227000Y-110751750D01*
X131352294Y-110751750D01*
X131457441Y-110684090D01*
X131602431Y-110471890D01*
X131653440Y-110220000D01*
X131653440Y-109720000D01*
X131609162Y-109484683D01*
X131470090Y-109268559D01*
X131400289Y-109220866D01*
X131457441Y-109184090D01*
X131602431Y-108971890D01*
X131653440Y-108720000D01*
X131653440Y-108412317D01*
X131832949Y-108534971D01*
X131832949Y-108534971D01*
G37*
X131832949Y-108534971D02*
X132080000Y-108585000D01*
X132721559Y-108585000D01*
X132862000Y-108613440D01*
X133177857Y-108613440D01*
X133243738Y-108944646D01*
X133447461Y-109249539D01*
X133569376Y-109331000D01*
X132735690Y-109331000D01*
X132502301Y-109427673D01*
X132323673Y-109606302D01*
X132227000Y-109839691D01*
X132227000Y-110180250D01*
X132385750Y-110339000D01*
X133985000Y-110339000D01*
X133985000Y-110319000D01*
X134239000Y-110319000D01*
X134239000Y-110339000D01*
X134259000Y-110339000D01*
X134259000Y-110593000D01*
X134239000Y-110593000D01*
X134239000Y-111442250D01*
X134397750Y-111601000D01*
X135488310Y-111601000D01*
X135721699Y-111504327D01*
X135795000Y-111431026D01*
X135795000Y-111474250D01*
X135953750Y-111633000D01*
X136803000Y-111633000D01*
X136803000Y-111613000D01*
X137057000Y-111613000D01*
X137057000Y-111633000D01*
X137906250Y-111633000D01*
X138065000Y-111474250D01*
X138065000Y-110383690D01*
X137968327Y-110150301D01*
X137789698Y-109971673D01*
X137701814Y-109935270D01*
X137913218Y-109724236D01*
X138040910Y-109416721D01*
X138083815Y-109373816D01*
X138248996Y-109126605D01*
X138251006Y-109116499D01*
X138270024Y-109113679D01*
X138295000Y-109100205D01*
X138319976Y-109113679D01*
X138364782Y-109120324D01*
X138453290Y-109014814D01*
X138532896Y-108971870D01*
X138607500Y-108880250D01*
X138607500Y-108979993D01*
X138725218Y-109120324D01*
X138770024Y-109113679D01*
X139032896Y-108971870D01*
X139158477Y-108817646D01*
X139065154Y-109042391D01*
X139065089Y-109116880D01*
X138961205Y-109136427D01*
X138749233Y-109272827D01*
X138607029Y-109480949D01*
X138557000Y-109728000D01*
X138557000Y-113030000D01*
X138600427Y-113260795D01*
X138662668Y-113357521D01*
X138604325Y-113318537D01*
X138303000Y-113258600D01*
X138014346Y-113258600D01*
X138065000Y-113136310D01*
X138065000Y-112045750D01*
X137906250Y-111887000D01*
X137057000Y-111887000D01*
X137057000Y-111907000D01*
X136803000Y-111907000D01*
X136803000Y-111887000D01*
X135953750Y-111887000D01*
X135795000Y-112045750D01*
X135795000Y-113136310D01*
X135845654Y-113258600D01*
X133676152Y-113258600D01*
X132326647Y-111909095D01*
X132317402Y-111859963D01*
X132178330Y-111643839D01*
X131966130Y-111498849D01*
X131714240Y-111447840D01*
X129514600Y-111447840D01*
X129279283Y-111492118D01*
X129063159Y-111631190D01*
X128918169Y-111843390D01*
X128867160Y-112095280D01*
X128867160Y-112694720D01*
X128872895Y-112725200D01*
X128651000Y-112725200D01*
X128291354Y-112796738D01*
X127986461Y-113000461D01*
X127605461Y-113381461D01*
X127401738Y-113686354D01*
X127330200Y-114046000D01*
X127330200Y-114672722D01*
X127164840Y-114838082D01*
X127164840Y-114635280D01*
X127120562Y-114399963D01*
X127056536Y-114300464D01*
X127113831Y-114216610D01*
X127164840Y-113964720D01*
X127164840Y-113365280D01*
X127120562Y-113129963D01*
X127062080Y-113039080D01*
X127152400Y-112821029D01*
X127152400Y-112680750D01*
X126993650Y-112522000D01*
X125544580Y-112522000D01*
X125544580Y-112542000D01*
X125290580Y-112542000D01*
X125290580Y-112522000D01*
X125270580Y-112522000D01*
X125270580Y-112268000D01*
X125290580Y-112268000D01*
X125290580Y-111619030D01*
X125544580Y-111619030D01*
X125544580Y-112268000D01*
X126993650Y-112268000D01*
X127152400Y-112109250D01*
X127152400Y-111968971D01*
X127055727Y-111735582D01*
X126877099Y-111556953D01*
X126643710Y-111460280D01*
X125703330Y-111460280D01*
X125544580Y-111619030D01*
X125290580Y-111619030D01*
X125131830Y-111460280D01*
X124821350Y-111460280D01*
X125494815Y-110786815D01*
X125511543Y-110761780D01*
X125542578Y-110715333D01*
X125591317Y-110706162D01*
X125807441Y-110567090D01*
X125845907Y-110510793D01*
X126000222Y-110665107D01*
X126233611Y-110761780D01*
X126472950Y-110761780D01*
X126631700Y-110603030D01*
X126631700Y-109855000D01*
X126611700Y-109855000D01*
X126611700Y-109601000D01*
X126631700Y-109601000D01*
X126631700Y-109581000D01*
X126885700Y-109581000D01*
X126885700Y-109601000D01*
X126905700Y-109601000D01*
X126905700Y-109855000D01*
X126885700Y-109855000D01*
X126885700Y-110603030D01*
X127044450Y-110761780D01*
X127283789Y-110761780D01*
X127517178Y-110665107D01*
X127518970Y-110663315D01*
X127606630Y-110723211D01*
X127858520Y-110774220D01*
X128656080Y-110774220D01*
X128891397Y-110729942D01*
X129107521Y-110590870D01*
X129159087Y-110515400D01*
X129541500Y-110515400D01*
X129641910Y-110671441D01*
X129854110Y-110816431D01*
X130106000Y-110867440D01*
X131006000Y-110867440D01*
X131241317Y-110823162D01*
X131352294Y-110751750D01*
X132227000Y-110751750D01*
X132227000Y-111092309D01*
X132323673Y-111325698D01*
X132502301Y-111504327D01*
X132735690Y-111601000D01*
X133826250Y-111601000D01*
X133985000Y-111442250D01*
X133985000Y-110593000D01*
X132385750Y-110593000D01*
X132227000Y-110751750D01*
X131352294Y-110751750D01*
X131457441Y-110684090D01*
X131602431Y-110471890D01*
X131653440Y-110220000D01*
X131653440Y-109720000D01*
X131609162Y-109484683D01*
X131470090Y-109268559D01*
X131400289Y-109220866D01*
X131457441Y-109184090D01*
X131602431Y-108971890D01*
X131653440Y-108720000D01*
X131653440Y-108412317D01*
X131832949Y-108534971D01*
G36*
X137917998Y-106342000D02*
X137922000Y-106342000D01*
X137922000Y-106680000D01*
X137942000Y-106680000D01*
X137942000Y-106934000D01*
X137922000Y-106934000D01*
X137922000Y-106954000D01*
X137668000Y-106954000D01*
X137668000Y-106934000D01*
X137648000Y-106934000D01*
X137648000Y-106680000D01*
X137668000Y-106680000D01*
X137668000Y-106342000D01*
X137672002Y-106342000D01*
X137672002Y-106256886D01*
X137725218Y-106320324D01*
X137770024Y-106313679D01*
X137795000Y-106300205D01*
X137819976Y-106313679D01*
X137864782Y-106320324D01*
X137917998Y-106256886D01*
X137917998Y-106342000D01*
X137917998Y-106342000D01*
G37*
X137917998Y-106342000D02*
X137922000Y-106342000D01*
X137922000Y-106680000D01*
X137942000Y-106680000D01*
X137942000Y-106934000D01*
X137922000Y-106934000D01*
X137922000Y-106954000D01*
X137668000Y-106954000D01*
X137668000Y-106934000D01*
X137648000Y-106934000D01*
X137648000Y-106680000D01*
X137668000Y-106680000D01*
X137668000Y-106342000D01*
X137672002Y-106342000D01*
X137672002Y-106256886D01*
X137725218Y-106320324D01*
X137770024Y-106313679D01*
X137795000Y-106300205D01*
X137819976Y-106313679D01*
X137864782Y-106320324D01*
X137917998Y-106256886D01*
X137917998Y-106342000D01*
G36*
X146672300Y-104013000D02*
X146692300Y-104013000D01*
X146692300Y-104267000D01*
X146672300Y-104267000D01*
X146672300Y-104287000D01*
X146418300Y-104287000D01*
X146418300Y-104267000D01*
X146398300Y-104267000D01*
X146398300Y-104013000D01*
X146418300Y-104013000D01*
X146418300Y-103993000D01*
X146672300Y-103993000D01*
X146672300Y-104013000D01*
X146672300Y-104013000D01*
G37*
X146672300Y-104013000D02*
X146692300Y-104013000D01*
X146692300Y-104267000D01*
X146672300Y-104267000D01*
X146672300Y-104287000D01*
X146418300Y-104287000D01*
X146418300Y-104267000D01*
X146398300Y-104267000D01*
X146398300Y-104013000D01*
X146418300Y-104013000D01*
X146418300Y-103993000D01*
X146672300Y-103993000D01*
X146672300Y-104013000D01*
G36*
X146431000Y-100965000D02*
X146451000Y-100965000D01*
X146451000Y-101219000D01*
X146431000Y-101219000D01*
X146431000Y-101239000D01*
X146177000Y-101239000D01*
X146177000Y-101219000D01*
X146157000Y-101219000D01*
X146157000Y-100965000D01*
X146177000Y-100965000D01*
X146177000Y-100945000D01*
X146431000Y-100945000D01*
X146431000Y-100965000D01*
X146431000Y-100965000D01*
G37*
X146431000Y-100965000D02*
X146451000Y-100965000D01*
X146451000Y-101219000D01*
X146431000Y-101219000D01*
X146431000Y-101239000D01*
X146177000Y-101239000D01*
X146177000Y-101219000D01*
X146157000Y-101219000D01*
X146157000Y-100965000D01*
X146177000Y-100965000D01*
X146177000Y-100945000D01*
X146431000Y-100945000D01*
X146431000Y-100965000D01*
M02*
