M48
;DRILL file {KiCad 4.0.4-stable} date 11/12/16 20:40:41
;FORMAT={-:-/ absolute / inch / decimal}
FMAT,2
INCH,TZ
T1C0.016
T2C0.039
T3C0.039
T4C0.047
%
G90
G05
M72
T1
X4.97Y-4.1
X5.11Y-4.08
X5.2Y-4.52
X5.205Y-4.355
X5.28Y-4.275
X5.4Y-4.3
X5.51Y-4.3
T2
X5.26Y-3.98
X5.26Y-4.58
X5.36Y-3.98
X5.36Y-4.58
X5.46Y-3.98
X5.46Y-4.58
X5.56Y-3.98
X5.56Y-4.58
X5.66Y-3.98
X5.66Y-4.58
X5.76Y-3.98
X5.76Y-4.58
T4
X4.76Y-3.98
X4.76Y-4.1178
T3
X4.5279Y-4.4006G85X4.5279Y-4.4794
G05
X4.6067Y-4.625G85X4.6853Y-4.625
G05
X4.7641Y-4.4006G85X4.7641Y-4.4794
G05
T0
M30
