G04 #@! TF.FileFunction,Copper,L2,Bot,Signal*
%FSLAX46Y46*%
G04 Gerber Fmt 4.6, Leading zero omitted, Abs format (unit mm)*
G04 Created by KiCad (PCBNEW 4.0.4-stable) date 11/12/16 20:40:28*
%MOMM*%
%LPD*%
G01*
G04 APERTURE LIST*
%ADD10C,0.100000*%
%ADD11R,3.600000X1.800000*%
%ADD12O,3.600000X1.800000*%
%ADD13O,1.506220X3.014980*%
%ADD14R,3.500120X3.500120*%
%ADD15C,0.508000*%
%ADD16C,0.609600*%
%ADD17C,0.254000*%
G04 APERTURE END LIST*
D10*
D11*
X120904000Y-101092000D03*
D12*
X120904000Y-104592000D03*
D13*
X133604000Y-116332000D03*
X136144000Y-116332000D03*
X138684000Y-116332000D03*
X141224000Y-116332000D03*
X143764000Y-116332000D03*
X146304000Y-116332000D03*
X133604000Y-101092000D03*
X136144000Y-101092000D03*
X138684000Y-101092000D03*
X141224000Y-101092000D03*
X143764000Y-101092000D03*
X146304000Y-101092000D03*
D14*
X121008140Y-112776000D03*
X115008660Y-112776000D03*
X118008400Y-117475000D03*
D15*
X132080000Y-114808000D03*
X132207000Y-110617000D03*
X134112000Y-108585000D03*
X137160000Y-109220000D03*
X139954000Y-109220000D03*
X129794000Y-103632000D03*
X126238000Y-104140000D03*
D16*
X121008140Y-112776000D02*
X121008140Y-109578140D01*
X118364000Y-101092000D02*
X120904000Y-101092000D01*
X117602000Y-101854000D02*
X118364000Y-101092000D01*
X117602000Y-106172000D02*
X117602000Y-101854000D01*
X121008140Y-109578140D02*
X117602000Y-106172000D01*
X132080000Y-114808000D02*
X132080000Y-117856000D01*
X146304000Y-118110000D02*
X146304000Y-116332000D01*
X145542000Y-118872000D02*
X146304000Y-118110000D01*
X133096000Y-118872000D02*
X145542000Y-118872000D01*
X132080000Y-117856000D02*
X133096000Y-118872000D01*
X132080000Y-114808000D02*
X132080000Y-114554000D01*
X132207000Y-114427000D02*
X132207000Y-110617000D01*
D17*
X132080000Y-114554000D02*
X132207000Y-114427000D01*
D16*
X134112000Y-108585000D02*
X133604000Y-109093000D01*
X133604000Y-109093000D02*
X133604000Y-116332000D01*
D17*
X137160000Y-109220000D02*
X139954000Y-109220000D01*
D16*
X126746000Y-103632000D02*
X129794000Y-103632000D01*
X126238000Y-104140000D02*
X126746000Y-103632000D01*
X138684000Y-116332000D02*
X138684000Y-112649000D01*
X138684000Y-104267000D02*
X138684000Y-101092000D01*
X141986000Y-107569000D02*
X138684000Y-104267000D01*
X141986000Y-109855000D02*
X141986000Y-107569000D01*
X140716000Y-111125000D02*
X141986000Y-109855000D01*
X140208000Y-111125000D02*
X140716000Y-111125000D01*
X138684000Y-112649000D02*
X140208000Y-111125000D01*
X136144000Y-116332000D02*
X136144000Y-111887000D01*
X135636000Y-111379000D02*
X135636000Y-101600000D01*
X136144000Y-111887000D02*
X135636000Y-111379000D01*
X135636000Y-101600000D02*
X136144000Y-101092000D01*
D17*
G36*
X148590000Y-120142000D02*
X112522000Y-120142000D01*
X112522000Y-111025940D01*
X112611160Y-111025940D01*
X112611160Y-114526060D01*
X112655438Y-114761377D01*
X112794510Y-114977501D01*
X113006710Y-115122491D01*
X113258600Y-115173500D01*
X115942645Y-115173500D01*
X115806899Y-115260850D01*
X115661909Y-115473050D01*
X115610900Y-115724940D01*
X115610900Y-119225060D01*
X115655178Y-119460377D01*
X115794250Y-119676501D01*
X116006450Y-119821491D01*
X116258340Y-119872500D01*
X119758460Y-119872500D01*
X119993777Y-119828222D01*
X120209901Y-119689150D01*
X120354891Y-119476950D01*
X120405900Y-119225060D01*
X120405900Y-115724940D01*
X120361622Y-115489623D01*
X120222550Y-115273499D01*
X120076197Y-115173500D01*
X122758200Y-115173500D01*
X122993517Y-115129222D01*
X123209641Y-114990150D01*
X123354631Y-114777950D01*
X123405640Y-114526060D01*
X123405640Y-111025940D01*
X123361362Y-110790623D01*
X123222290Y-110574499D01*
X123010090Y-110429509D01*
X122758200Y-110378500D01*
X121947940Y-110378500D01*
X121947940Y-109578140D01*
X121876402Y-109218494D01*
X121672679Y-108913601D01*
X118541800Y-105782722D01*
X118541800Y-105184895D01*
X118870887Y-105677409D01*
X119368877Y-106010155D01*
X119956296Y-106127000D01*
X121851704Y-106127000D01*
X122439123Y-106010155D01*
X122937113Y-105677409D01*
X123269859Y-105179419D01*
X123386704Y-104592000D01*
X123296796Y-104140000D01*
X125298200Y-104140000D01*
X125369738Y-104499646D01*
X125573461Y-104804539D01*
X125878354Y-105008262D01*
X126238000Y-105079800D01*
X126597646Y-105008262D01*
X126902539Y-104804539D01*
X127135278Y-104571800D01*
X129794000Y-104571800D01*
X130153646Y-104500262D01*
X130458539Y-104296539D01*
X130662262Y-103991646D01*
X130733800Y-103632000D01*
X130662262Y-103272354D01*
X130458539Y-102967461D01*
X130153646Y-102763738D01*
X129794000Y-102692200D01*
X126746000Y-102692200D01*
X126386354Y-102763738D01*
X126081461Y-102967461D01*
X125573461Y-103475461D01*
X125369738Y-103780354D01*
X125298200Y-104140000D01*
X123296796Y-104140000D01*
X123269859Y-104004581D01*
X122937113Y-103506591D01*
X122439123Y-103173845D01*
X121851704Y-103057000D01*
X119956296Y-103057000D01*
X119368877Y-103173845D01*
X118870887Y-103506591D01*
X118541800Y-103999105D01*
X118541800Y-102290974D01*
X118639910Y-102443441D01*
X118852110Y-102588431D01*
X119104000Y-102639440D01*
X122704000Y-102639440D01*
X122939317Y-102595162D01*
X123155441Y-102456090D01*
X123300431Y-102243890D01*
X123351440Y-101992000D01*
X123351440Y-100295646D01*
X132215890Y-100295646D01*
X132215890Y-101888354D01*
X132321554Y-102419561D01*
X132622458Y-102869896D01*
X133072793Y-103170800D01*
X133604000Y-103276464D01*
X134135207Y-103170800D01*
X134585542Y-102869896D01*
X134696200Y-102704284D01*
X134696200Y-107866780D01*
X134471645Y-107716738D01*
X134112000Y-107645200D01*
X133752354Y-107716738D01*
X133447461Y-107920461D01*
X132939461Y-108428461D01*
X132735738Y-108733354D01*
X132664200Y-109093000D01*
X132664200Y-114526213D01*
X132622458Y-114554104D01*
X132321554Y-115004439D01*
X132215890Y-115535646D01*
X132215890Y-117128354D01*
X132321554Y-117659561D01*
X132622458Y-118109896D01*
X133072793Y-118410800D01*
X133604000Y-118516464D01*
X134135207Y-118410800D01*
X134585542Y-118109896D01*
X134874000Y-117678188D01*
X135162458Y-118109896D01*
X135612793Y-118410800D01*
X136144000Y-118516464D01*
X136675207Y-118410800D01*
X137125542Y-118109896D01*
X137414000Y-117678188D01*
X137702458Y-118109896D01*
X138152793Y-118410800D01*
X138684000Y-118516464D01*
X139215207Y-118410800D01*
X139665542Y-118109896D01*
X139954000Y-117678188D01*
X140242458Y-118109896D01*
X140692793Y-118410800D01*
X141224000Y-118516464D01*
X141755207Y-118410800D01*
X142205542Y-118109896D01*
X142494000Y-117678188D01*
X142782458Y-118109896D01*
X143232793Y-118410800D01*
X143764000Y-118516464D01*
X144295207Y-118410800D01*
X144745542Y-118109896D01*
X145046446Y-117659561D01*
X145047016Y-117656694D01*
X145070154Y-117734919D01*
X145412260Y-118157724D01*
X145890125Y-118417427D01*
X145962326Y-118431783D01*
X146177000Y-118309162D01*
X146177000Y-116459000D01*
X146431000Y-116459000D01*
X146431000Y-118309162D01*
X146645674Y-118431783D01*
X146717875Y-118417427D01*
X147195740Y-118157724D01*
X147537846Y-117734919D01*
X147692110Y-117213380D01*
X147692110Y-116459000D01*
X146431000Y-116459000D01*
X146177000Y-116459000D01*
X146157000Y-116459000D01*
X146157000Y-116205000D01*
X146177000Y-116205000D01*
X146177000Y-114354838D01*
X146431000Y-114354838D01*
X146431000Y-116205000D01*
X147692110Y-116205000D01*
X147692110Y-115450620D01*
X147537846Y-114929081D01*
X147195740Y-114506276D01*
X146717875Y-114246573D01*
X146645674Y-114232217D01*
X146431000Y-114354838D01*
X146177000Y-114354838D01*
X145962326Y-114232217D01*
X145890125Y-114246573D01*
X145412260Y-114506276D01*
X145070154Y-114929081D01*
X145047016Y-115007306D01*
X145046446Y-115004439D01*
X144745542Y-114554104D01*
X144295207Y-114253200D01*
X143764000Y-114147536D01*
X143232793Y-114253200D01*
X142782458Y-114554104D01*
X142494000Y-114985812D01*
X142205542Y-114554104D01*
X141755207Y-114253200D01*
X141224000Y-114147536D01*
X140692793Y-114253200D01*
X140242458Y-114554104D01*
X139954000Y-114985812D01*
X139665542Y-114554104D01*
X139623800Y-114526213D01*
X139623800Y-113038278D01*
X140597278Y-112064800D01*
X140716000Y-112064800D01*
X141075646Y-111993262D01*
X141380539Y-111789539D01*
X142650539Y-110519539D01*
X142854262Y-110214646D01*
X142925800Y-109855000D01*
X142925800Y-107569000D01*
X142854262Y-107209354D01*
X142650539Y-106904461D01*
X139623800Y-103877722D01*
X139623800Y-102897787D01*
X139665542Y-102869896D01*
X139954000Y-102438188D01*
X140242458Y-102869896D01*
X140692793Y-103170800D01*
X141224000Y-103276464D01*
X141755207Y-103170800D01*
X142205542Y-102869896D01*
X142494000Y-102438188D01*
X142782458Y-102869896D01*
X143232793Y-103170800D01*
X143764000Y-103276464D01*
X144295207Y-103170800D01*
X144745542Y-102869896D01*
X145046446Y-102419561D01*
X145047016Y-102416694D01*
X145070154Y-102494919D01*
X145412260Y-102917724D01*
X145890125Y-103177427D01*
X145962326Y-103191783D01*
X146177000Y-103069162D01*
X146177000Y-101219000D01*
X146431000Y-101219000D01*
X146431000Y-103069162D01*
X146645674Y-103191783D01*
X146717875Y-103177427D01*
X147195740Y-102917724D01*
X147537846Y-102494919D01*
X147692110Y-101973380D01*
X147692110Y-101219000D01*
X146431000Y-101219000D01*
X146177000Y-101219000D01*
X146157000Y-101219000D01*
X146157000Y-100965000D01*
X146177000Y-100965000D01*
X146177000Y-99114838D01*
X146431000Y-99114838D01*
X146431000Y-100965000D01*
X147692110Y-100965000D01*
X147692110Y-100210620D01*
X147537846Y-99689081D01*
X147195740Y-99266276D01*
X146717875Y-99006573D01*
X146645674Y-98992217D01*
X146431000Y-99114838D01*
X146177000Y-99114838D01*
X145962326Y-98992217D01*
X145890125Y-99006573D01*
X145412260Y-99266276D01*
X145070154Y-99689081D01*
X145047016Y-99767306D01*
X145046446Y-99764439D01*
X144745542Y-99314104D01*
X144295207Y-99013200D01*
X143764000Y-98907536D01*
X143232793Y-99013200D01*
X142782458Y-99314104D01*
X142494000Y-99745812D01*
X142205542Y-99314104D01*
X141755207Y-99013200D01*
X141224000Y-98907536D01*
X140692793Y-99013200D01*
X140242458Y-99314104D01*
X139954000Y-99745812D01*
X139665542Y-99314104D01*
X139215207Y-99013200D01*
X138684000Y-98907536D01*
X138152793Y-99013200D01*
X137702458Y-99314104D01*
X137414000Y-99745812D01*
X137125542Y-99314104D01*
X136675207Y-99013200D01*
X136144000Y-98907536D01*
X135612793Y-99013200D01*
X135162458Y-99314104D01*
X134874000Y-99745812D01*
X134585542Y-99314104D01*
X134135207Y-99013200D01*
X133604000Y-98907536D01*
X133072793Y-99013200D01*
X132622458Y-99314104D01*
X132321554Y-99764439D01*
X132215890Y-100295646D01*
X123351440Y-100295646D01*
X123351440Y-100192000D01*
X123307162Y-99956683D01*
X123168090Y-99740559D01*
X122955890Y-99595569D01*
X122704000Y-99544560D01*
X119104000Y-99544560D01*
X118868683Y-99588838D01*
X118652559Y-99727910D01*
X118507569Y-99940110D01*
X118464620Y-100152200D01*
X118364000Y-100152200D01*
X118004354Y-100223738D01*
X117699461Y-100427461D01*
X116937461Y-101189461D01*
X116733738Y-101494354D01*
X116662200Y-101854000D01*
X116662200Y-106172000D01*
X116733738Y-106531646D01*
X116937461Y-106836539D01*
X120068340Y-109967418D01*
X120068340Y-110378500D01*
X119258080Y-110378500D01*
X119022763Y-110422778D01*
X118806639Y-110561850D01*
X118661649Y-110774050D01*
X118610640Y-111025940D01*
X118610640Y-114526060D01*
X118654918Y-114761377D01*
X118793990Y-114977501D01*
X118940343Y-115077500D01*
X117074415Y-115077500D01*
X117210161Y-114990150D01*
X117355151Y-114777950D01*
X117406160Y-114526060D01*
X117406160Y-111025940D01*
X117361882Y-110790623D01*
X117222810Y-110574499D01*
X117010610Y-110429509D01*
X116758720Y-110378500D01*
X113258600Y-110378500D01*
X113023283Y-110422778D01*
X112807159Y-110561850D01*
X112662169Y-110774050D01*
X112611160Y-111025940D01*
X112522000Y-111025940D01*
X112522000Y-97536000D01*
X148590000Y-97536000D01*
X148590000Y-120142000D01*
X148590000Y-120142000D01*
G37*
X148590000Y-120142000D02*
X112522000Y-120142000D01*
X112522000Y-111025940D01*
X112611160Y-111025940D01*
X112611160Y-114526060D01*
X112655438Y-114761377D01*
X112794510Y-114977501D01*
X113006710Y-115122491D01*
X113258600Y-115173500D01*
X115942645Y-115173500D01*
X115806899Y-115260850D01*
X115661909Y-115473050D01*
X115610900Y-115724940D01*
X115610900Y-119225060D01*
X115655178Y-119460377D01*
X115794250Y-119676501D01*
X116006450Y-119821491D01*
X116258340Y-119872500D01*
X119758460Y-119872500D01*
X119993777Y-119828222D01*
X120209901Y-119689150D01*
X120354891Y-119476950D01*
X120405900Y-119225060D01*
X120405900Y-115724940D01*
X120361622Y-115489623D01*
X120222550Y-115273499D01*
X120076197Y-115173500D01*
X122758200Y-115173500D01*
X122993517Y-115129222D01*
X123209641Y-114990150D01*
X123354631Y-114777950D01*
X123405640Y-114526060D01*
X123405640Y-111025940D01*
X123361362Y-110790623D01*
X123222290Y-110574499D01*
X123010090Y-110429509D01*
X122758200Y-110378500D01*
X121947940Y-110378500D01*
X121947940Y-109578140D01*
X121876402Y-109218494D01*
X121672679Y-108913601D01*
X118541800Y-105782722D01*
X118541800Y-105184895D01*
X118870887Y-105677409D01*
X119368877Y-106010155D01*
X119956296Y-106127000D01*
X121851704Y-106127000D01*
X122439123Y-106010155D01*
X122937113Y-105677409D01*
X123269859Y-105179419D01*
X123386704Y-104592000D01*
X123296796Y-104140000D01*
X125298200Y-104140000D01*
X125369738Y-104499646D01*
X125573461Y-104804539D01*
X125878354Y-105008262D01*
X126238000Y-105079800D01*
X126597646Y-105008262D01*
X126902539Y-104804539D01*
X127135278Y-104571800D01*
X129794000Y-104571800D01*
X130153646Y-104500262D01*
X130458539Y-104296539D01*
X130662262Y-103991646D01*
X130733800Y-103632000D01*
X130662262Y-103272354D01*
X130458539Y-102967461D01*
X130153646Y-102763738D01*
X129794000Y-102692200D01*
X126746000Y-102692200D01*
X126386354Y-102763738D01*
X126081461Y-102967461D01*
X125573461Y-103475461D01*
X125369738Y-103780354D01*
X125298200Y-104140000D01*
X123296796Y-104140000D01*
X123269859Y-104004581D01*
X122937113Y-103506591D01*
X122439123Y-103173845D01*
X121851704Y-103057000D01*
X119956296Y-103057000D01*
X119368877Y-103173845D01*
X118870887Y-103506591D01*
X118541800Y-103999105D01*
X118541800Y-102290974D01*
X118639910Y-102443441D01*
X118852110Y-102588431D01*
X119104000Y-102639440D01*
X122704000Y-102639440D01*
X122939317Y-102595162D01*
X123155441Y-102456090D01*
X123300431Y-102243890D01*
X123351440Y-101992000D01*
X123351440Y-100295646D01*
X132215890Y-100295646D01*
X132215890Y-101888354D01*
X132321554Y-102419561D01*
X132622458Y-102869896D01*
X133072793Y-103170800D01*
X133604000Y-103276464D01*
X134135207Y-103170800D01*
X134585542Y-102869896D01*
X134696200Y-102704284D01*
X134696200Y-107866780D01*
X134471645Y-107716738D01*
X134112000Y-107645200D01*
X133752354Y-107716738D01*
X133447461Y-107920461D01*
X132939461Y-108428461D01*
X132735738Y-108733354D01*
X132664200Y-109093000D01*
X132664200Y-114526213D01*
X132622458Y-114554104D01*
X132321554Y-115004439D01*
X132215890Y-115535646D01*
X132215890Y-117128354D01*
X132321554Y-117659561D01*
X132622458Y-118109896D01*
X133072793Y-118410800D01*
X133604000Y-118516464D01*
X134135207Y-118410800D01*
X134585542Y-118109896D01*
X134874000Y-117678188D01*
X135162458Y-118109896D01*
X135612793Y-118410800D01*
X136144000Y-118516464D01*
X136675207Y-118410800D01*
X137125542Y-118109896D01*
X137414000Y-117678188D01*
X137702458Y-118109896D01*
X138152793Y-118410800D01*
X138684000Y-118516464D01*
X139215207Y-118410800D01*
X139665542Y-118109896D01*
X139954000Y-117678188D01*
X140242458Y-118109896D01*
X140692793Y-118410800D01*
X141224000Y-118516464D01*
X141755207Y-118410800D01*
X142205542Y-118109896D01*
X142494000Y-117678188D01*
X142782458Y-118109896D01*
X143232793Y-118410800D01*
X143764000Y-118516464D01*
X144295207Y-118410800D01*
X144745542Y-118109896D01*
X145046446Y-117659561D01*
X145047016Y-117656694D01*
X145070154Y-117734919D01*
X145412260Y-118157724D01*
X145890125Y-118417427D01*
X145962326Y-118431783D01*
X146177000Y-118309162D01*
X146177000Y-116459000D01*
X146431000Y-116459000D01*
X146431000Y-118309162D01*
X146645674Y-118431783D01*
X146717875Y-118417427D01*
X147195740Y-118157724D01*
X147537846Y-117734919D01*
X147692110Y-117213380D01*
X147692110Y-116459000D01*
X146431000Y-116459000D01*
X146177000Y-116459000D01*
X146157000Y-116459000D01*
X146157000Y-116205000D01*
X146177000Y-116205000D01*
X146177000Y-114354838D01*
X146431000Y-114354838D01*
X146431000Y-116205000D01*
X147692110Y-116205000D01*
X147692110Y-115450620D01*
X147537846Y-114929081D01*
X147195740Y-114506276D01*
X146717875Y-114246573D01*
X146645674Y-114232217D01*
X146431000Y-114354838D01*
X146177000Y-114354838D01*
X145962326Y-114232217D01*
X145890125Y-114246573D01*
X145412260Y-114506276D01*
X145070154Y-114929081D01*
X145047016Y-115007306D01*
X145046446Y-115004439D01*
X144745542Y-114554104D01*
X144295207Y-114253200D01*
X143764000Y-114147536D01*
X143232793Y-114253200D01*
X142782458Y-114554104D01*
X142494000Y-114985812D01*
X142205542Y-114554104D01*
X141755207Y-114253200D01*
X141224000Y-114147536D01*
X140692793Y-114253200D01*
X140242458Y-114554104D01*
X139954000Y-114985812D01*
X139665542Y-114554104D01*
X139623800Y-114526213D01*
X139623800Y-113038278D01*
X140597278Y-112064800D01*
X140716000Y-112064800D01*
X141075646Y-111993262D01*
X141380539Y-111789539D01*
X142650539Y-110519539D01*
X142854262Y-110214646D01*
X142925800Y-109855000D01*
X142925800Y-107569000D01*
X142854262Y-107209354D01*
X142650539Y-106904461D01*
X139623800Y-103877722D01*
X139623800Y-102897787D01*
X139665542Y-102869896D01*
X139954000Y-102438188D01*
X140242458Y-102869896D01*
X140692793Y-103170800D01*
X141224000Y-103276464D01*
X141755207Y-103170800D01*
X142205542Y-102869896D01*
X142494000Y-102438188D01*
X142782458Y-102869896D01*
X143232793Y-103170800D01*
X143764000Y-103276464D01*
X144295207Y-103170800D01*
X144745542Y-102869896D01*
X145046446Y-102419561D01*
X145047016Y-102416694D01*
X145070154Y-102494919D01*
X145412260Y-102917724D01*
X145890125Y-103177427D01*
X145962326Y-103191783D01*
X146177000Y-103069162D01*
X146177000Y-101219000D01*
X146431000Y-101219000D01*
X146431000Y-103069162D01*
X146645674Y-103191783D01*
X146717875Y-103177427D01*
X147195740Y-102917724D01*
X147537846Y-102494919D01*
X147692110Y-101973380D01*
X147692110Y-101219000D01*
X146431000Y-101219000D01*
X146177000Y-101219000D01*
X146157000Y-101219000D01*
X146157000Y-100965000D01*
X146177000Y-100965000D01*
X146177000Y-99114838D01*
X146431000Y-99114838D01*
X146431000Y-100965000D01*
X147692110Y-100965000D01*
X147692110Y-100210620D01*
X147537846Y-99689081D01*
X147195740Y-99266276D01*
X146717875Y-99006573D01*
X146645674Y-98992217D01*
X146431000Y-99114838D01*
X146177000Y-99114838D01*
X145962326Y-98992217D01*
X145890125Y-99006573D01*
X145412260Y-99266276D01*
X145070154Y-99689081D01*
X145047016Y-99767306D01*
X145046446Y-99764439D01*
X144745542Y-99314104D01*
X144295207Y-99013200D01*
X143764000Y-98907536D01*
X143232793Y-99013200D01*
X142782458Y-99314104D01*
X142494000Y-99745812D01*
X142205542Y-99314104D01*
X141755207Y-99013200D01*
X141224000Y-98907536D01*
X140692793Y-99013200D01*
X140242458Y-99314104D01*
X139954000Y-99745812D01*
X139665542Y-99314104D01*
X139215207Y-99013200D01*
X138684000Y-98907536D01*
X138152793Y-99013200D01*
X137702458Y-99314104D01*
X137414000Y-99745812D01*
X137125542Y-99314104D01*
X136675207Y-99013200D01*
X136144000Y-98907536D01*
X135612793Y-99013200D01*
X135162458Y-99314104D01*
X134874000Y-99745812D01*
X134585542Y-99314104D01*
X134135207Y-99013200D01*
X133604000Y-98907536D01*
X133072793Y-99013200D01*
X132622458Y-99314104D01*
X132321554Y-99764439D01*
X132215890Y-100295646D01*
X123351440Y-100295646D01*
X123351440Y-100192000D01*
X123307162Y-99956683D01*
X123168090Y-99740559D01*
X122955890Y-99595569D01*
X122704000Y-99544560D01*
X119104000Y-99544560D01*
X118868683Y-99588838D01*
X118652559Y-99727910D01*
X118507569Y-99940110D01*
X118464620Y-100152200D01*
X118364000Y-100152200D01*
X118004354Y-100223738D01*
X117699461Y-100427461D01*
X116937461Y-101189461D01*
X116733738Y-101494354D01*
X116662200Y-101854000D01*
X116662200Y-106172000D01*
X116733738Y-106531646D01*
X116937461Y-106836539D01*
X120068340Y-109967418D01*
X120068340Y-110378500D01*
X119258080Y-110378500D01*
X119022763Y-110422778D01*
X118806639Y-110561850D01*
X118661649Y-110774050D01*
X118610640Y-111025940D01*
X118610640Y-114526060D01*
X118654918Y-114761377D01*
X118793990Y-114977501D01*
X118940343Y-115077500D01*
X117074415Y-115077500D01*
X117210161Y-114990150D01*
X117355151Y-114777950D01*
X117406160Y-114526060D01*
X117406160Y-111025940D01*
X117361882Y-110790623D01*
X117222810Y-110574499D01*
X117010610Y-110429509D01*
X116758720Y-110378500D01*
X113258600Y-110378500D01*
X113023283Y-110422778D01*
X112807159Y-110561850D01*
X112662169Y-110774050D01*
X112611160Y-111025940D01*
X112522000Y-111025940D01*
X112522000Y-97536000D01*
X148590000Y-97536000D01*
X148590000Y-120142000D01*
M02*
